<?xml version="1.0" encoding="UTF-8"?>
<svg width="40px" height="40px" viewBox="0 0 40 40" version="1.1" xmlns="http://www.w3.org/2000/svg" xmlns:xlink="http://www.w3.org/1999/xlink">
    <!-- Generator: Sketch 58 (84663) - https://sketch.com -->
    <title>Search</title>
    <desc>Created with Sketch.</desc>
    <g id="Search" stroke="none" stroke-width="1" fill="none" fill-rule="evenodd">
        <g transform="translate(1.000000, 0.000000)" fill="#FFFFFF" id="Shape">
            <path d="M37.1714286,36.752381 L28.3714286,28 C34.5374183,21.795877 34.7253054,11.8367635 28.7977121,5.40448475 C22.8701189,-1.02779398 12.9288415,-1.65249118 6.24266387,3.98715427 C-0.443513722,9.62679971 -1.50381769,19.5310916 3.83701657,26.4582888 C9.17785083,33.385486 19.0260791,34.8793543 26.1809524,29.847619 L35.152381,38.8190476 C35.7152567,39.3435407 36.5923995,39.3280645 37.1364225,38.7840415 C37.6804455,38.2400185 37.6959216,37.3628757 37.1714286,36.8 L37.1714286,36.752381 Z M3.54285714,16.5714286 C3.54285714,9.20763191 9.51239381,3.23809524 16.8761905,3.23809524 C24.2399871,3.23809524 30.2095238,9.20763191 30.2095238,16.5714286 C30.2095238,23.9352252 24.2399871,29.9047619 16.8761905,29.9047619 C9.51239381,29.9047619 3.54285714,23.9352252 3.54285714,16.5714286 Z"></path>
        </g>
    </g>
</svg>