<?xml version="1.0" encoding="UTF-8"?>
<svg width="400px" height="400px" viewBox="0 0 400 400" version="1.1" xmlns="http://www.w3.org/2000/svg" xmlns:xlink="http://www.w3.org/1999/xlink">
    <!-- Generator: Sketch 58 (84663) - https://sketch.com -->
    <title>Sign up banner illustration</title>
    <desc>Created with Sketch.</desc>
    <g id="Sign-up-banner-illustration" stroke="none" stroke-width="1" fill="none" fill-rule="evenodd">
        <g id="WorkingAtNight" transform="translate(0.000000, 1.000000)">
            <g id="Group-307">
                <path d="M280.05308,239.473744 C280.05308,240.667346 279.084991,241.634621 277.891066,241.634621 C276.697912,241.634621 275.729052,240.667346 275.729052,239.473744 C275.729052,238.282066 276.697912,237.315175 277.891066,237.315175 C279.084991,237.315175 280.05308,238.282066 280.05308,239.473744" id="Fill-5" fill="#FCA08B"></path>
                <path d="M203.422101,103.278828 C203.436361,103.933558 202.948462,104.475125 202.328377,104.489751 L197.016991,104.605609 C196.398447,104.61985 195.887426,104.099454 195.871625,103.444339 L195.695889,95.4336185 C195.682015,94.7788887 196.169528,94.2369372 196.788843,94.2242353 L202.100999,94.1068381 C202.719543,94.0933663 203.231336,94.613378 203.245595,95.2681078 L203.422101,103.278828 Z" id="Stroke-7" stroke="#F92B4E" stroke-width="3.03233595"></path>
                <path d="M86.0689583,16.6694737 C86.0689583,16.6694737 90.1363189,11.0455721 89.3054274,10.118327 C88.4733796,9.19185164 79.1805744,4.53676535 76.3017432,2.70960356 C73.4236828,0.883211594 76.6162179,-1.4816677 88.5805169,1.76580733 C100.545587,5.01328237 104.0815,6.01558473 100.150181,11.6360221 C100.150181,11.6360221 95.6296066,14.9743356 95.8115087,17.1298246 C95.8115087,17.1298246 86.0319613,14.9150597 86.0689583,16.6694737" id="Fill-9" fill="#FC937C"></path>
                <path d="M79.9494574,4.79107455 C83.7613073,6.87227611 88.7088888,9.45424393 89.3054659,10.1185964 C89.9976186,10.892263 87.2952941,14.9164839 86.3746077,16.2386454 C88.0094138,15.3645176 95.8115472,17.130094 95.8115472,17.130094 C95.7676133,16.6096974 96.0003862,16.0211719 96.3753665,15.4264879 C94.8268868,12.5612273 90.5560425,7.0701192 79.9494574,4.79107455" id="Fill-11" fill="#FF8260"></path>
                <path d="M23.348207,34.6489459 C23.348207,34.6489459 19.4122629,27.7151998 13.0688143,28.1247427 C6.7249804,28.5339007 -2.33736425,28.1932565 0.961922698,24.6112957 C4.26275118,21.0281803 9.28162911,21.8634323 15.4269894,18.6240403 C21.5731205,15.3842634 24.9386938,14.770334 26.726498,22.290681 C28.5131461,29.8110279 35.5244681,35.1912823 35.5244681,35.1912823 L23.348207,34.6489459 Z" id="Fill-13" fill="#FC937C"></path>
                <path d="M31.6977808,31.4437338 C27.2966762,29.7201125 19.9812849,26.9021956 18.5773248,26.6543144 C16.9355817,26.3637083 4.7365829,25.5161392 0.82337654,26.9530035 C2.6458655,28.3248183 8.54650589,28.4168115 13.069007,28.1246657 C19.4120702,27.7151228 23.3480143,34.6488689 23.3480143,34.6488689 L35.5246608,35.1912053 C35.5246608,35.1912053 33.7125772,33.7974507 31.6977808,31.4437338" id="Fill-15" fill="#FF8260"></path>
                <path d="M183.742227,66.9015654 C183.742227,66.9015654 193.100933,59.2041604 185.385897,49.4521126 C177.67009,39.6996798 164.015104,45.6688446 165.518879,31.056939 C167.022654,16.4454183 155.020202,23.7956356 156.82265,32.0577017 C158.627026,40.3201527 151.427636,35.6181076 152.033848,26.2906141 C152.64006,16.9631206 145.701961,14.8880776 143.452079,23.2390576 C143.452079,23.2390576 142.961098,28.5146168 144.251369,31.9283724 C145.542797,35.342128 140.274574,35.4579855 138.646705,25.9769135 C137.018836,16.4966112 127.082436,16.3091607 122.121366,21.2771778 C117.16415,26.2455798 113.114903,44.9629219 136.280051,56.603332 C159.444044,68.2437421 165.812157,62.8400083 168.359942,68.0485934 C170.906571,73.2575634 167.543695,67.8638372 167.543695,67.8638372 L183.742227,66.9015654 Z" id="Fill-17" fill="#900048"></path>
                <path d="M167.100078,47.6256821 C163.453558,47.7057431 162.777977,44.6830548 162.777977,44.6830548 C155.120363,37.5618582 157.013378,49.8720095 151.799495,43.3039268 C146.587153,36.7369988 145.725431,43.640337 144.513393,43.8689728 C143.302511,44.0979935 139.013939,51.885852 133.79466,35.8024404 C129.955834,23.9711155 123.512955,23.264808 120.373989,23.7170758 C116.577169,30.7736077 115.982519,46.4039818 136.280013,56.6032936 C159.086753,68.065106 165.609406,63.0104844 168.236195,67.8229984 L179.237415,67.1686535 C188.066216,56.3130724 170.675686,47.5471607 167.100078,47.6256821" id="Fill-19" fill="#70013E"></path>
                <path d="M185.129461,65.4536542 C185.129461,65.4536542 176.632477,84.6736872 170.198463,77.9297011 C170.198463,77.9297011 165.532984,77.8296249 166.050557,82.8803973 C166.050557,82.8803973 158.742102,82.4331334 158.577928,74.9451188 C158.412598,67.4567192 163.91552,68.7538617 163.91552,68.7538617 C163.91552,68.7538617 165.967699,69.9232144 167.543926,67.8639527 C167.543926,67.8639527 169.662777,62.7558288 172.94819,64.7088558 C172.94819,64.7088558 173.18289,66.1203161 176.825941,65.838178 C180.468221,65.555655 181.018937,62.9113319 185.129461,65.4536542" id="Fill-21" fill="#FC937C"></path>
                <path d="M166.050441,82.8805513 C165.532868,77.8297788 170.198733,77.9298551 170.198733,77.9298551 C170.198733,77.9298551 168.722706,75.3297966 168.650638,72.0919442 C168.580498,68.8540919 162.890278,77.4825911 166.050441,82.8805513" id="Fill-23" fill="#FF8260"></path>
                <path d="M163.915559,68.7539387 C163.915559,68.7539387 159.178783,65.4152403 152.743998,67.7835837 C146.308828,70.1523121 130.926543,71.2993402 127.829969,68.7346932 C127.829969,68.7346932 115.102992,70.8366799 112.866599,79.7950459 C110.630591,88.7522571 115.48067,88.0394062 115.48067,88.0394062 C115.48067,88.0394062 129.952288,91.5682495 139.613907,97.6332565 C139.613907,97.6332565 144.805053,103.190184 152.961741,96.1259539 C152.961741,96.1259539 152.257256,101.001208 153.883198,101.167873 C153.883198,101.167873 153.608033,97.9346428 160.278674,96.9781418 L164.946851,97.2806801 C164.946851,97.2806801 167.139695,86.298079 165.618193,81.6753251 C165.618193,81.6753251 154.124835,75.2450397 163.915559,68.7539387" id="Fill-25" fill="#4B079B"></path>
                <path d="M130.597963,84.0631064 C123.57508,80.1747583 123.802072,73.2498652 124.510796,69.5920775 C120.577935,70.8680499 114.367059,73.7879676 112.866367,79.7948534 C110.630745,88.7524496 115.480824,88.0392137 115.480824,88.0392137 C115.480824,88.0392137 129.952057,91.5684419 139.614062,97.6334489 C139.614062,97.6334489 144.726588,103.097228 152.775368,96.2801098 C152.765734,89.4137228 154.180099,86.987643 154.180099,86.987643 C145.57251,92.0361061 140.449192,89.5161085 130.597963,84.0631064" id="Fill-27" fill="#3E0377"></path>
                <path d="M165.618193,81.6754405 C165.618193,81.6754405 163.354052,80.4056266 161.691498,78.4283504 C161.984776,82.5010698 162.221788,89.7616033 160.603554,93.327013 C159.886737,94.9055237 159.127141,96.2338438 158.495494,97.3331431 C159.029253,97.1968854 159.611186,97.0733297 160.278674,96.9782573 L164.946851,97.2807956 C164.946851,97.2807956 167.139695,86.2981945 165.618193,81.6754405" id="Fill-29" fill="#3E0377"></path>
                <path d="M164.946966,97.2807956 L165.089174,103.7565 C165.089174,103.7565 167.890928,102.075604 186.087684,99.8542954 C186.087684,99.8542954 189.029718,95.3354668 194.717241,95.8177574 C200.403607,96.3000481 198.150256,104.450106 193.521003,105.967801 C193.521003,105.967801 188.842806,105.260724 188.450869,105.876578 C188.059317,106.492816 166.541307,114.455808 158.409283,113.420404 C158.409283,113.420404 154.402428,115.532398 153.661717,100.36353 C153.661717,100.36353 157.370669,93.8023753 164.946966,97.2807956" id="Fill-31" fill="#FC937C"></path>
                <path d="M160.843572,104.254649 C163.804876,109.859305 170.600767,105.458259 177.071778,104.708841 C183.54279,103.959039 190.031529,104.019855 190.774552,100.966759 C191.194237,99.2500656 191.415834,97.346307 192.105289,95.9594808 C188.137358,96.7273738 186.087877,99.8539875 186.087877,99.8539875 C167.890735,102.075681 165.089366,103.756577 165.089366,103.756577 L164.946774,97.2808725 C157.370862,93.8024523 153.66191,100.363607 153.66191,100.363607 C153.675784,100.625345 153.691584,100.870147 153.705844,101.122647 C155.479389,100.604175 158.764031,100.318572 160.843572,104.254649" id="Fill-33" fill="#FF8260"></path>
                <path d="M210.321045,104.790288 C210.342241,105.705216 209.709823,106.460792 208.908221,106.478113 L202.029086,106.628997 C201.227869,106.645933 200.56385,105.919995 200.543424,105.004297 L200.297548,93.8211588 C200.277123,92.9062307 200.909926,92.15027 201.711143,92.1325642 L208.591434,91.98168 C209.390724,91.9643591 210.0559,92.6914517 210.07594,93.6059948 L210.321045,104.790288 Z" id="Fill-35" fill="#FF4057"></path>
                <path d="M73.5723646,72.1523364 C61.8974903,66.7389799 64.7543545,58.3745281 64.7543545,58.3745281 C64.7543545,58.3745281 64.3103902,57.3887768 62.721445,55.4946409 C59.600977,51.7760376 52.0431781,44.5474515 34.6268277,34.3327433 C34.6268277,34.3327433 22.2347507,33.1872549 21.8697904,35.0167262 C21.8697904,35.0167262 25.4288273,39.1991445 30.3274649,44.8357481 C40.0364867,56.0077243 55.0133457,72.9009839 58.0081779,74.3155235 C61.2207531,75.8328338 84.9154218,81.9374864 100.544739,85.3446986 C94.4120961,81.5194755 82.2073165,76.1561571 73.5723646,72.1523364" id="Fill-37" fill="#240041"></path>
                <path d="M64.7542004,58.3745666 C64.7542004,58.3745666 64.3106214,57.3884304 62.7212908,55.4946794 L62.6704199,55.787595 C62.6704199,55.787595 61.3851586,61.8907079 48.6971053,56.4989063 C40.6517935,53.0805318 34.3488105,47.1871941 30.3273107,44.8357866 C40.0363326,56.0077628 55.0135769,72.9010224 58.0084091,74.315562 C61.2209843,75.8324874 84.9152677,81.9375249 100.544585,85.3447371 C94.411942,81.519514 82.2071624,76.1561956 73.5722105,72.1523749 C61.8973362,66.7386335 64.7542004,58.3745666 64.7542004,58.3745666" id="Fill-39" fill="#0B0116"></path>
                <path d="M62.6703428,55.7877104 L62.7212137,55.49441 C59.6011311,51.7758066 52.0433323,44.5476054 34.6265965,34.3328973 C34.6265965,34.3328973 22.2349048,33.187024 21.8695592,35.0164952 C21.8695592,35.0164952 25.4289815,39.1989136 30.327619,44.8359021 C34.3487334,47.1869246 40.6517165,53.0806473 48.6970283,56.4990218 C61.3850815,61.8904385 62.6703428,55.7877104 62.6703428,55.7877104" id="Fill-41" fill="#240041"></path>
                <path d="M105.694455,57.8814215 C84.4365801,59.157394 79.551431,58.2520886 82.9065989,54.129716 C86.2621521,50.0058038 89.9368047,51.1405148 92.301146,29.6260408 C92.301146,29.6260408 93.7313123,20.8886124 96.5018501,17.7897121 C96.5018501,17.7897121 92.8491645,13.4310056 86.6224878,15.8312965 C86.1997197,15.9944978 85.7669315,16.1869521 85.3221964,16.4148181 C85.3221964,16.4148181 64.2242565,52.7163311 64.7541618,58.3744896 C64.7541618,58.3744896 61.8972977,66.7389414 73.5721719,72.1522979 C82.2071238,76.1565036 94.4119035,81.519437 100.544546,85.345045 C106.847144,86.7195541 111.841357,87.6556521 113.647274,87.6745127 C113.647274,87.6745127 113.320853,78.335087 120.749162,72.7843181 C122.596701,71.4040353 124.915567,70.2543129 127.847196,69.5449261 C127.847196,69.5449261 126.953872,56.605449 105.694455,57.8814215" id="Fill-43" fill="#190130"></path>
                <path d="M105.694455,57.8814215 C84.4365801,59.157394 79.551431,58.2520886 82.9065989,54.129716 C86.2621521,50.0058038 89.9368047,51.1405148 92.301146,29.6260408 C92.301146,29.6260408 93.7313123,20.8886124 96.5018501,17.7897121 C96.5018501,17.7897121 92.8491645,13.4310056 86.6224878,15.8312965 C88.5902671,56.1096866 79.6023019,46.1655693 76.2779649,56.9072175 C72.8703846,67.9148376 85.667502,69.051858 95.4335609,70.6603917 C102.974403,71.9024922 115.45165,72.5522181 120.749162,72.7843181 C122.596701,71.4040353 124.915567,70.2543129 127.847196,69.5449261 C127.847196,69.5449261 126.953872,56.605449 105.694455,57.8814215" id="Fill-45" fill="#240041"></path>
                <path d="M76.2781576,56.907102 C79.6021092,46.1654538 88.5904598,56.109956 86.6222951,15.831181 C86.1999123,15.9943823 85.7667388,16.1868367 85.3223891,16.4147026 C85.3223891,16.4147026 64.2244492,52.7162157 64.7543545,58.374759 C64.7543545,58.374759 61.8974903,66.738826 73.5723646,72.1521825 C82.2073165,76.1563881 94.4120961,81.5193215 100.544739,85.3449295 C106.846951,86.7194386 111.841164,87.6555367 113.647467,87.6747821 C113.647467,87.6747821 113.32066,78.3349715 120.749355,72.7842026 C115.451843,72.5521026 102.974596,71.9023767 95.4337536,70.6602762 C85.6673093,69.0521275 72.8705773,67.9151071 76.2781576,56.907102" id="Fill-47" fill="#190130"></path>
                <polygon id="Fill-49" fill="#4B079B" points="151.55254 193.725993 140.404488 184.818435 140.404488 162.956003 151.55254 161.337077"></polygon>
                <path d="M152.972146,192.653598 C152.972146,193.022341 152.654203,193.32026 152.262266,193.32026 C151.870714,193.32026 151.552385,193.022341 151.552385,192.653598 L151.552385,161.396314 C151.552385,161.027572 151.870714,160.729653 152.262266,160.729653 C152.654203,160.729653 152.972146,161.027572 152.972146,161.396314 L152.972146,192.653598 Z" id="Fill-51" fill="#3E0377"></path>
                <polygon id="Fill-53" fill="#3E0377" points="137.07595 208.061226 131.000344 194.495117 140.960638 183.333534 151.830441 191.524777"></polygon>
                <path d="M138.57194,208.976885 C138.40237,209.168955 137.974592,209.067339 137.617725,208.750174 C137.261243,208.433009 137.111714,208.020387 137.28321,207.829472 L151.796836,191.561689 C151.967947,191.37116 152.39611,191.472006 152.751821,191.78917 C153.108303,192.106335 153.256677,192.518957 153.087492,192.710257 L138.57194,208.976885 Z" id="Fill-55" fill="#4B079B"></path>
                <path d="M102.199855,231.98569 L102.300055,237.45101 C102.300055,237.45101 122.266117,239.47563 123.380267,234.819004 C123.380267,234.819004 103.617689,228.746299 102.199855,231.98569" id="Fill-57" fill="#900048"></path>
                <path d="M123.380267,234.819158 C123.380267,234.819158 103.617689,228.746452 102.199855,231.985844 L102.238393,234.07128 C103.847764,233.767202 108.232297,233.226405 112.435313,235.324928 C114.825475,236.51853 117.294256,237.04316 119.284003,237.262943 C121.481857,236.803747 123.086989,236.045092 123.380267,234.819158" id="Fill-59" fill="#70013E"></path>
                <path d="M172.631904,277.633096 C172.631904,277.633096 176.077252,286.338577 178.813876,284.516034 C181.549729,282.694646 190.366968,273.078471 191.480733,272.573085 C192.596425,272.066545 193.102436,267.309458 185.400888,271.964545 C177.698955,276.621171 175.874539,271.864083 175.874539,271.864083 C175.874539,271.864083 176.178609,276.521094 172.631904,277.633096" id="Fill-61" fill="#900048"></path>
                <path d="M190.729809,269.945814 C189.71162,269.881919 188.037119,270.371523 185.400696,271.96466 C177.699148,276.621286 175.874732,271.863814 175.874732,271.863814 C175.874732,271.863814 176.178416,276.52121 172.632097,277.633211 C172.632097,277.633211 172.881441,278.261767 173.296116,279.141284 C176.544918,278.485014 185.785696,276.133222 190.729809,269.945814" id="Fill-63" fill="#70013E"></path>
                <path d="M112.030928,293.524476 C112.030928,293.524476 105.949156,300.103337 104.023384,302.330034 C102.098768,304.556731 103.720471,306.278427 107.165819,308.099816 C110.610396,309.920434 112.637911,320.852227 116.591197,319.132455 C116.591197,319.132455 117.806318,319.435763 116.691397,315.893063 C115.576477,312.349978 113.95593,307.49166 114.360585,304.962424 C114.765625,302.432034 114.158643,302.229187 115.476276,300.9128 C116.793139,299.597951 111.92803,292.917475 111.92803,292.917475" id="Fill-65" fill="#70013E"></path>
                <path d="M110.410189,295.282893 C108.468615,297.393733 105.315775,300.837896 104.023577,302.330188 C102.098961,304.556885 103.720664,306.278196 107.166012,308.09997 C110.610589,309.920203 112.638103,320.852381 116.59139,319.132609 C116.59139,319.132609 116.721265,319.161477 116.857306,319.082186 C112.136331,315.361273 110.754723,300.530739 110.410189,295.282893" id="Fill-67" fill="#900048"></path>
                <path d="M113.179185,175.372928 C113.179185,175.372928 109.259427,185.494103 107.367954,186.168848 C105.476481,186.843978 105.746251,192.106451 105.746251,192.106451 C105.746251,192.106451 100.207488,197.234975 93.4509057,189.407856 C93.4509057,189.407856 90.8838516,187.922493 92.0989727,190.217319 C93.3164061,192.51176 91.6939323,211.540493 76.6962625,208.70641 C76.6962625,208.70641 69.2644848,206.950841 71.2919989,199.933955 C71.2919989,199.933955 57.6435645,201.688754 61.6970512,189.678061 C61.6970512,189.678061 63.1850254,183.739305 67.1020856,181.175427 C67.1020856,181.175427 60.8877413,172.268254 74.8047895,166.600088 C74.8047895,166.600088 91.1528508,160.527383 92.3695134,175.101952 C92.3695134,175.101952 102.775313,163.631287 113.179185,175.372928" id="Fill-69" fill="#FF8260"></path>
                <path d="M104.801015,179.016782 C104.12659,176.047211 99.2603253,175.101875 95.3424943,179.691527 C95.3424943,179.691527 91.5587775,181.311608 91.2897783,176.992162 L90.2076153,177.532189 C90.2076153,177.532189 78.5454587,162.256316 65.7302282,176.824727 C65.81694,178.949423 66.727221,180.576817 67.0135625,181.038708 C68.8364369,179.432099 74.5281982,175.003339 78.4533515,178.476755 C78.4533515,178.476755 61.8320519,182.930149 64.5343764,198.854979 L64.5740711,199.148279 C67.556571,200.41078 71.2917292,199.933878 71.2917292,199.933878 C71.2917292,199.933878 73.3177018,190.892372 82.6413379,190.082524 C82.6413379,190.082524 70.0943358,201.491988 76.3283348,208.600098 C76.5576393,208.672846 76.6963782,208.706333 76.6963782,208.706333 C91.6940479,211.540416 93.3165217,192.512068 92.0990883,190.217627 C90.8839672,187.922801 93.4510213,189.407779 93.4510213,189.407779 C100.207603,197.234898 105.746367,192.106374 105.746367,192.106374 C105.746367,192.106374 105.476597,186.843901 107.36807,186.168772 C108.412465,185.79618 110.074633,182.542931 111.354499,179.703075 C108.901905,180.353955 105.245365,180.969039 104.801015,179.016782" id="Fill-71" fill="#FC6B49"></path>
                <path d="M111.287827,177.260983 C111.287827,177.260983 122.095584,188.057673 114.258766,192.915991 C114.258766,192.915991 113.448685,199.663441 118.042483,200.743495 C118.042483,200.743495 116.961861,203.037551 111.826982,199.798929 C106.692488,196.559922 103.044042,199.258517 103.044042,199.258517 C103.044042,199.258517 107.50334,197.504103 105.746367,192.106143 C105.746367,192.106143 101.963421,188.058058 105.072712,186.303259 C105.072712,186.303259 107.63861,186.843671 106.692488,184.278639 C105.746367,181.714377 108.720003,177.935728 111.287827,177.260983" id="Fill-73" fill="#900048"></path>
                <path d="M103.801248,198.841083 C103.314506,199.063176 103.043965,199.258709 103.043965,199.258709 C103.043965,199.258709 103.367304,199.128225 103.801248,198.841083 Z" id="Stroke-75" stroke="#FEFF89" stroke-width="1.51616798"></path>
                <path d="M114.258766,192.915952 C114.258766,192.915952 111.826982,192.915567 108.583576,191.971001 C105.341326,191.02605 110.610705,196.964422 111.016131,197.234243 C111.30016,197.422464 113.299541,198.803901 114.106924,201.002115 C117.290595,202.31196 118.042483,200.743456 118.042483,200.743456 C113.448685,199.663402 114.258766,192.915952 114.258766,192.915952" id="Fill-77" fill="#70013E"></path>
                <path d="M102.099731,233.946724 C102.099731,233.946724 102.909812,225.444089 99.9377177,218.966075 C96.9648525,212.488446 93.8567168,200.74719 104.395859,198.318801 C104.395859,198.318801 107.773765,197.373465 112.503604,200.072445 C117.232672,202.772195 118.042752,200.743341 118.042752,200.743341 C118.042752,200.743341 124.124139,204.662482 123.448172,208.576619 C122.771435,212.489216 121.961354,219.64082 124.528408,228.008351 C127.097004,236.374728 122.638862,234.21462 121.691584,234.21462 C121.691584,234.21462 113.719496,234.754647 111.557482,233.405542 C109.395468,232.056822 102.370272,230.573383 102.099731,233.946724" id="Fill-79" fill="#FF4057"></path>
                <path d="M124.528331,228.008428 C121.961277,219.640897 122.771358,212.489293 123.448095,208.576696 C124.124447,204.662559 118.042675,200.743418 118.042675,200.743418 C118.042675,200.743418 117.740533,201.476669 116.467219,201.470126 C117.983711,203.975497 120.439004,209.819951 117.772905,218.695562 C115.462518,226.384499 110.449806,230.014573 107.662312,232.090386 C109.236612,232.369829 110.742314,232.897154 111.557405,233.405234 C113.719419,234.754339 121.691892,234.214697 121.691892,234.214697 C122.638785,234.214697 127.097312,236.37442 124.528331,228.008428" id="Fill-81" fill="#F92B4E"></path>
                <path d="M104.935361,202.43005 C104.935361,202.43005 111.624115,196.256113 116.691166,207.187522 L119.42779,214.171306 L111.118104,219.434163 C111.118104,219.434163 109.292917,220.547704 105.341172,213.361073 C101.387886,206.175212 104.429349,202.93582 104.935361,202.43005" id="Fill-83" fill="#FF4D6B"></path>
                <path d="M116.69132,207.187637 C112.520291,198.19001 107.255537,200.780061 105.521301,201.977897 C106.856663,203.245787 112.482523,209.288854 110.600685,219.477773 C110.947917,219.537049 111.118258,219.433893 111.118258,219.433893 L119.427944,214.171421 L116.69132,207.187637 Z" id="Fill-85" fill="#F92B4E"></path>
                <path d="M118.51512,214.171267 L121.555813,217.410274 C121.555813,217.410274 122.569377,213.563881 133.10852,203.240244 C133.10852,203.240244 134.426539,202.430011 134.426539,199.798775 C134.426539,197.166769 135.236234,193.320376 139.797659,193.21953 C144.356772,193.118299 144.86471,194.737995 142.736996,198.482772 C140.608125,202.227934 137.567047,204.049322 136.859093,204.150938 C136.859093,204.150938 126.318795,226.721986 124.089338,227.733527 C121.859497,228.746222 118.718218,228.138836 111.421325,218.928354 L118.51512,214.171267 Z" id="Fill-87" fill="#900048"></path>
                <path d="M122.366356,221.964553 C125.407049,219.332932 129.359179,208.097831 133.007626,206.175212 C136.656072,204.251823 138.074677,198.179117 136.553945,197.166807 C136.021727,196.811537 135.630175,196.231864 135.374279,195.612931 C134.62509,196.906994 134.426231,198.499746 134.426231,199.798813 C134.426231,202.43005 133.108597,203.240282 133.108597,203.240282 C122.569454,213.56392 121.555504,217.410313 121.555504,217.410313 L118.515197,214.171306 L111.421402,218.928393 C111.630667,219.19167 111.834921,219.446865 112.038019,219.695901 C113.887485,219.237859 116.944365,218.435325 117.502018,218.017314 C118.313255,217.410313 119.326048,224.596559 122.366356,221.964553" id="Fill-89" fill="#70013E"></path>
                <path d="M122.771512,234.618043 C122.771512,234.618043 145.472656,231.647702 149.257144,234.887094 C153.038934,238.126486 170.335429,267.277164 177.226511,271.459583 C177.226511,271.459583 178.307903,278.207803 171.010239,278.07193 C171.010239,278.07193 146.687777,261.607844 142.499791,254.590572 C142.499791,254.590572 141.55444,243.524061 130.20329,243.794267 C118.854066,244.065243 119.283771,237.262751 119.283771,237.262751 L122.771512,234.618043 Z" id="Fill-91" fill="#FCA08B"></path>
                <path d="M149.25699,234.887171 C145.472502,231.647779 122.771358,234.61812 122.771358,234.61812 L119.284003,237.262828 C119.284003,237.262828 118.854298,244.06532 130.203521,243.794344 C141.554671,243.523753 142.499637,254.590265 142.499637,254.590265 C143.589893,256.417426 146.04981,258.885461 149.084722,261.534018 C155.330283,263.569031 167.000918,267.280321 174.524032,269.149438 C166.597804,261.012082 152.612158,237.760515 149.25699,234.887171" id="Fill-93" fill="#FF8260"></path>
                <path d="M121.691738,235.696827 C121.691738,235.696827 142.230869,238.395422 144.390956,242.985074 C146.554126,247.572801 149.525835,253.376455 137.63553,271.864776 C125.745225,290.353483 117.23244,301.959636 117.23244,301.959636 C117.23244,301.959636 112.097561,300.206761 111.557636,293.863081 C111.016169,287.519785 123.178171,262.14968 126.961117,259.314442 C126.961117,259.314442 101.423148,263.362912 99.2603638,249.057779 C99.2603638,249.057779 97.6394316,242.579765 102.502999,236.911983 C102.502999,236.911983 119.935536,239.207194 121.691738,235.696827" id="Fill-95" fill="#FCA08B"></path>
                <path d="M144.39111,242.98492 C142.231023,238.395268 121.691892,235.696673 121.691892,235.696673 C120.602407,237.872947 113.488187,237.817135 108.237692,237.460709 C109.616988,241.363684 114.749169,251.004493 131.960494,251.756605 C131.960494,251.756605 136.689562,251.890168 132.365535,260.796956 C128.166372,269.44778 118.618827,281.151315 118.564487,300.113075 C121.397458,296.155828 128.522083,286.035807 137.635684,271.864622 C149.525989,253.376301 146.553894,247.573032 144.39111,242.98492" id="Fill-97" fill="#F98D73"></path>
                <path d="M73.7287156,261.271087 L54.242844,272.820274" id="Stroke-99" stroke="#240547" stroke-width="3.03233595" stroke-linecap="round"></path>
                <path d="M84.2417676,268.185164 L79.4572042,291.06183" id="Stroke-101" stroke="#240547" stroke-width="3.03233595" stroke-linecap="round"></path>
                <path d="M95.4924864,271.553501 C93.9894822,273.68551 86.390447,270.924945 78.5193296,265.389572 C70.6478267,259.853815 65.4840438,253.639463 66.9874334,251.508223 C68.4904376,249.376984 76.0883166,252.135625 83.9586633,257.672152 C91.8317077,263.20637 96.9954906,269.421491 95.4924864,271.553501" id="Fill-103" fill="#310366"></path>
                <path d="M96.0381926,270.778795 C94.7494628,272.606341 87.322695,269.600974 79.4531191,264.066756 C71.5808455,258.530229 66.2447952,252.561064 67.5327542,250.733517 C68.8234108,248.903276 76.2482517,251.909414 84.1205253,257.444786 C91.990872,262.980159 97.3269223,268.949324 96.0381926,270.778795" id="Fill-105" fill="#3E0377"></path>
                <path d="M71.030823,259.133804 L47.3188119,271.672591" id="Stroke-107" stroke="#300659" stroke-width="4.54915353" stroke-linecap="round"></path>
                <path d="M86.9394675,270.321331 L83.1156706,296.845392" id="Stroke-109" stroke="#300659" stroke-width="4.54915353" stroke-linecap="round"></path>
                <path d="M307.483986,76.7204371 C307.483986,76.7204371 325.318865,76.5854074 326.130873,87.9221245 C326.941724,99.2576868 321.535148,138.260104 290.052991,135.290918 C290.052991,135.290918 277.892916,134.885225 271.272375,127.598132 C271.272375,127.598132 302.079337,82.5230096 307.483986,76.7204371" id="Fill-111" fill="#FF8260"></path>
                <path d="M297.079111,124.222521 C301.809721,130.700535 319.644985,112.077111 322.346925,94.5329706 C324.46539,80.781336 311.06129,79.4684123 305.16643,79.5426997 C298.873853,87.664659 284.593,108.240341 276.72458,119.659428 C282.281071,119.364588 293.562467,119.405388 297.079111,124.222521" id="Fill-113" fill="#C92D09"></path>
                <path d="M277.418429,166.802666 C277.418429,166.802666 281.370559,173.583603 278.128309,174.089758 C274.885674,174.595913 267.892851,175.000837 263.432782,175.506992 C258.97464,176.012762 255.123096,173.786065 259.785492,172.267985 C264.447503,170.749905 268.095949,169.130209 269.21087,166.093664 C269.21087,166.093664 270.222893,168.421592 277.418429,166.802666" id="Fill-115" fill="#FCA08B"></path>
                <path d="M241.240347,167.510859 C241.240347,167.510859 238.70605,174.292181 235.666513,174.595874 C232.626591,174.899182 231.814969,170.64825 225.431055,167.105935 C219.04637,163.563235 219.958192,156.782298 224.619432,159.51515 C229.281443,162.247232 237.692871,162.146001 237.692871,162.146001 C237.692871,162.146001 237.389187,165.486624 241.240347,167.510859" id="Fill-117" fill="#FCA08B"></path>
                <path d="M279.358152,172.849967 C279.718488,170.756833 277.418506,166.802666 277.418506,166.802666 C270.222584,168.421592 269.210561,166.093664 269.210561,166.093664 C268.961217,166.772258 268.578914,167.376565 268.09487,167.926984 C269.180887,169.451608 272.07706,172.069757 279.358152,172.849967" id="Fill-119" fill="#F98D73"></path>
                <path d="M241.240347,167.510859 C237.389187,165.486624 237.692871,162.146001 237.692871,162.146001 C237.692871,162.146001 236.564077,162.159088 234.908074,162.042461 C234.82907,164.679855 234.861828,171.317607 237.005343,174.04353 C239.414775,172.377645 241.240347,167.510859 241.240347,167.510859" id="Fill-121" fill="#F98D73"></path>
                <path d="M284.716092,107.186191 C284.716092,107.186191 282.79032,108.703886 279.750012,108.603425 C279.750012,108.603425 256.846926,106.174266 252.387628,117.105674 C251.484669,119.31813 250.278412,122.474381 248.928791,126.097912 C249.100288,137.524698 248.510648,161.644234 240.809871,167.573753 C241.281583,167.739649 241.784126,167.894382 242.354497,168.016783 C242.354497,168.016783 261.508937,138.158643 259.886463,134.413096 C259.886463,134.413096 254.617084,118.320061 270.528503,116.902827 C286.437996,115.485978 288.058543,110.526429 288.058543,110.526429 C288.058543,110.526429 290.491097,106.781267 284.716092,107.186191" id="Fill-123" fill="#2E045E"></path>
                <path d="M248.928868,126.097835 C243.613243,140.37641 236.071245,161.943616 236.071245,161.943616 C236.071245,161.943616 235.835775,165.820802 240.809948,167.573676 C248.510725,161.644542 249.100365,137.524621 248.928868,126.097835" id="Fill-125" fill="#3E0377"></path>
                <path d="M305.793568,106.477651 C305.793568,106.477651 312.482323,122.470224 303.260814,124.696536 C294.038534,126.923233 269.716843,126.113385 270.122654,127.833543 C270.528465,129.555239 273.668973,127.935159 274.479824,145.445812 C275.290676,162.955695 278.128271,167.00455 278.128271,167.00455 C278.128271,167.00455 268.702893,169.636171 268.39998,167.409474 C268.09591,165.182777 258.46782,137.449718 257.555997,134.311942 C256.643018,131.17455 248.53643,118.825908 267.284288,113.96759 C267.284288,113.96759 287.65462,109.41335 287.75482,107.591192 C287.75482,107.591192 298.294734,106.680883 305.793568,106.477651" id="Fill-127" fill="#3E0377"></path>
                <path d="M305.793568,106.477651 C303.115909,106.549629 300.052092,106.712445 297.21681,106.892198 C298.350229,110.442596 300.276772,119.063782 292.823798,120.343988 C283.39842,121.963299 272.249983,118.5226 265.460258,123.178456 C258.670532,127.833543 264.953475,137.550949 267.587972,141.498188 C270.082188,145.234112 273.206125,161.203206 268.465881,167.623099 C269.34957,169.455264 278.128271,167.00455 278.128271,167.00455 C278.128271,167.00455 275.290676,162.955695 274.479824,145.445812 C273.668973,127.935159 270.528465,129.555239 270.122654,127.833543 C269.716843,126.113385 294.038534,126.923233 303.260814,124.696536 C312.482323,122.470224 305.793568,106.477651 305.793568,106.477651" id="Fill-129" fill="#2E045E"></path>
                <path d="M275.188703,85.222721 C275.188703,85.222721 273.567771,94.5344332 272.351108,96.6595144 C272.351108,96.6595144 266.879016,96.0525133 260.191033,99.3931362 L260.595303,103.643683 C260.595303,103.643683 272.250137,104.655609 276.708664,102.732989 C276.708664,102.732989 280.763692,104.048607 281.370675,93.0159682 C281.370675,93.0159682 280.053041,81.578405 275.188703,85.222721" id="Fill-131" fill="#FCA08B"></path>
                <path d="M275.188703,85.222721 C275.188703,85.222721 275.078097,85.85936 274.892727,86.8343339 C276.363358,88.2049939 278.692244,91.139923 278.12804,95.6475893 C277.37885,101.628686 268.164278,102.604045 260.454637,102.161015 L260.595303,103.643683 C260.595303,103.643683 272.250137,104.655609 276.708664,102.732989 C276.708664,102.732989 280.763692,104.048607 281.370675,93.0159682 C281.370675,93.0159682 280.053041,81.578405 275.188703,85.222721" id="Fill-133" fill="#F98D73"></path>
                <path d="M283.43087,55.1276689 C283.43087,55.1276689 275.458396,45.0057238 287.484356,39.8779696 C287.484356,39.8779696 290.727762,38.5280946 297.618459,40.8221507 C297.618459,40.8221507 299.375432,32.4542347 305.591703,32.9946466 C311.807975,33.5346735 316.265346,44.7355179 323.563009,41.2270747 C330.859517,37.7182466 330.319591,51.753174 319.779292,50.943326 C309.238994,50.1330931 323.023469,58.6357272 328.428118,55.2620021 C333.83084,51.888277 335.858354,62.0102221 327.886651,63.6287633 C319.915334,65.2484593 324.914942,69.9712895 330.452935,67.2726944 C335.994396,64.5737143 340.317652,77.2587667 324.373861,77.6636907 C308.429298,78.0682298 308.023487,63.7630965 308.023487,61.1992194 C308.023487,58.6345724 307.347906,49.9976052 304.23977,50.9417864 C304.23977,50.9417864 302.618838,61.0629617 296.809149,61.7377067 C296.809149,61.7377067 290.727762,49.4614274 283.43087,55.1276689" id="Fill-135" fill="#270956"></path>
                <path d="M317.616354,63.7617878 C323.831854,62.5470158 318.427976,57.8234158 315.995421,57.0139527 C313.562867,56.2037198 305.050468,48.9173974 312.482631,48.7822944 C319.915565,48.6475763 320.048137,44.1941822 317.75278,44.7342092 C315.455496,45.2742361 309.914806,40.5506361 309.914806,40.5506361 C303.969846,35.692318 300.457056,41.090663 300.457056,41.090663 C296.80938,40.5506361 299.240778,42.3050501 299.240778,42.3050501 C301.943874,46.8931623 295.186906,46.2188022 295.186906,46.2188022 C286.56814,45.4362827 283.275405,50.2538005 282.113853,52.9654826 C282.769394,54.2845648 283.430716,55.127515 283.430716,55.127515 C290.727608,49.4616583 296.80938,61.7375527 296.80938,61.7375527 C302.618684,61.0628077 304.239616,50.9416324 304.239616,50.9416324 C307.347752,49.9974513 308.023333,58.6348034 308.023333,61.1994503 C308.023333,63.7629425 308.429144,78.0680758 324.373706,77.6635367 C333.100766,77.4422142 335.748365,73.5434736 335.456243,70.4996153 C323.629912,76.5523052 311.738451,64.9099706 317.616354,63.7617878" id="Fill-137" fill="#210649"></path>
                <path d="M282.890597,53.6436533 C282.890597,53.6436533 282.282459,68.6227618 289.17354,65.7886787 C289.17354,65.7886787 289.91772,68.3525558 287.485166,69.5669429 C287.485166,69.5669429 279.647962,81.443687 287.619665,83.062998 C295.591754,84.6823091 299.10493,69.8371488 299.10493,69.8371488 C299.10493,69.8371488 294.780902,67.8132987 296.943687,60.6601547 C296.943687,60.6601547 298.294849,53.5073956 294.917329,55.2621945 C294.917329,55.2621945 293.566167,56.0720425 291.673923,53.5077805 C289.783221,50.9435185 282.756098,52.9689083 282.890597,53.6436533" id="Fill-139" fill="#FCA08B"></path>
                <path d="M292.348348,63.2242627 C291.402226,64.9786768 289.17354,65.7885248 289.17354,65.7885248 C289.17354,65.7885248 289.91772,68.3524019 287.485166,69.5671739 C287.485166,69.5671739 286.477382,71.0991106 285.552456,73.1337382 C295.275352,69.20382 292.348348,63.2242627 292.348348,63.2242627" id="Fill-141" fill="#F98D73"></path>
                <path d="M274.242774,85.2200651 C274.242774,85.2200651 279.511767,67.9457458 287.754782,69.0257997 C287.754782,69.0257997 283.296254,79.6862322 287.891208,80.9010041 C292.48462,82.1157761 296.943918,73.0735 298.564465,69.159748 C298.564465,69.159748 309.780345,68.619721 311.131507,78.3363572 C312.482669,88.0529934 310.455926,91.5614366 310.455926,91.5614366 C310.455926,91.5614366 300.455938,90.0764587 300.455938,90.8866916 C300.455938,90.8866916 308.293912,101.142585 307.888101,108.700653 C307.888101,108.700653 308.158642,112.344199 300.050898,109.91427 C291.943539,107.485881 284.918343,107.080572 281.675708,107.890035 C281.675708,107.890035 284.918343,102.356587 284.376876,98.5783229 C283.836565,94.8000587 280.052078,96.013676 279.107112,91.6953848 C279.107112,91.6953848 278.702842,90.2115616 279.511767,87.7827875 C279.511767,87.7827875 276.945869,85.4918107 274.242774,85.2200651" id="Fill-143" fill="#FF4057"></path>
                <path d="M277.539594,86.3924586 C278.335416,86.8528095 278.957428,87.3258623 279.275371,87.584521 C281.823927,83.7604527 284.208308,75.3032379 284.208308,75.3032379 C281.987716,75.1388818 278.698449,83.3093396 277.539594,86.3924586" id="Fill-145" fill="#F92B4E"></path>
                <path d="M299.00473,91.2955416 C298.598918,94.4329328 294.950472,96.3559368 292.416946,96.3559368 C289.884192,96.3559368 288.465202,102.631874 288.970442,103.340106 C289.434447,103.987522 290.653807,107.927063 282.125607,107.059479 C281.858149,107.576411 281.675476,107.890112 281.675476,107.890112 C284.918112,107.080649 291.943307,107.485958 300.051052,109.914347 C308.158411,112.344276 307.88787,108.70073 307.88787,108.70073 C308.294066,101.142662 300.456092,90.8867686 300.456092,90.8867686 C300.456092,90.6165626 301.569086,90.6019361 303.051279,90.7023973 C303.05706,90.6242608 303.067851,90.5430451 303.075559,90.462984 C300.984071,90.016105 299.168904,90.0168748 299.00473,91.2955416" id="Fill-147" fill="#F92B4E"></path>
                <path d="M303.051087,90.7023973 C303.511237,90.7335749 304.004916,90.775145 304.516323,90.8247982 C304.033049,90.6870009 303.548234,90.5638301 303.075366,90.462984 C303.067658,90.5430451 303.057253,90.6242608 303.051087,90.7023973 Z" id="Stroke-149" stroke="#FFFFFF" stroke-width="1.51616798"></path>
                <path d="M311.131392,78.3364342 C309.780229,68.619798 298.564735,69.1598249 298.564735,69.1598249 C298.5551,69.1871535 298.54007,69.2175613 298.529279,69.2452747 C300.090477,69.5304921 302.669863,70.5150886 303.563958,73.8865043 C303.563958,73.8865043 307.212404,76.5181253 303.767056,87.2466866 C303.767056,87.2466866 303.238307,88.9822401 303.075674,90.462984 C303.548157,90.5638301 304.033358,90.6870009 304.516246,90.8247982 C307.287169,91.09154 310.45581,91.5611287 310.45581,91.5611287 C310.45581,91.5611287 312.482554,88.0530704 311.131392,78.3364342" id="Fill-151" fill="#F92B4E"></path>
                <path d="M303.564074,73.8866967 C303.564074,73.8866967 300.118725,74.1896199 299.409616,87.3481101 L299.307874,90.2834241" id="Stroke-153" stroke="#F92B4E" stroke-width="1.51616798"></path>
                <path d="M300.727481,90.4855012 L299.30772,100.202137 L299.004807,101.316063 C299.004807,101.316063 298.498795,99.5955212 280.255793,101.922679 C280.255793,101.922679 275.594553,98.7849034 274.074977,99.8988293 C272.554245,101.01237 268.7027,104.655532 268.7027,104.655532 C268.7027,104.655532 267.183895,107.287537 275.594553,106.47769 C275.594553,106.47769 274.175177,104.857994 276.303662,104.857994 C278.432918,104.857994 278.533118,106.57969 281.269742,105.97115 C281.269742,105.97115 304.1736,111.740932 306.199572,108.501925 C306.199572,108.501925 308.328057,105.97115 309.037167,91.2953492 C309.037167,91.2953492 306.808482,89.1694982 300.727481,90.4855012" id="Fill-155" fill="#FCA08B"></path>
                <path d="M300.727481,90.4855012 L300.532476,91.8188251 C302.171906,92.7437608 305.363285,95.4192614 304.679611,102.024295 C303.767018,110.829468 296.875936,106.47769 295.559073,105.667842 C294.241439,104.857994 291.403074,104.250992 282.282536,105.060456 C282.282536,105.060456 276.203462,102.328373 275.088541,104.250992 C274.326248,105.564686 271.627392,106.122034 269.993357,106.343741 C271.003838,106.628574 272.71919,106.754824 275.594553,106.47769 C275.594553,106.47769 274.175177,104.857994 276.303662,104.857994 C278.432918,104.857994 278.533118,106.57969 281.269742,105.97115 C281.269742,105.97115 304.1736,111.740932 306.199572,108.501925 C306.199572,108.501925 308.328057,105.97115 309.037167,91.2953492 C309.037167,91.2953492 306.808482,89.1694982 300.727481,90.4855012" id="Fill-157" fill="#F98D73"></path>
                <path d="M293.429817,135.1552 L293.429817,168.084142" id="Stroke-159" stroke="#C92D09" stroke-width="6.06532151"></path>
                <path d="M301.807062,168.084065 C301.807062,168.23341 297.997139,168.353886 293.295433,168.353886 C288.593728,168.353886 284.781878,168.23341 284.781878,168.084065 C284.781878,167.934336 288.593728,167.813859 293.295433,167.813859 C297.997139,167.813859 301.807062,167.934336 301.807062,168.084065 Z" id="Stroke-161" stroke="#FF8260" stroke-width="4.54915353"></path>
                <path d="M290.593224,111.234854 C290.593224,112.632842 289.459034,113.765244 288.058543,113.765244 L213.067111,113.765244 C211.668546,113.765244 210.534356,112.632842 210.534356,111.234854 C210.534356,109.83725 211.668546,108.704079 213.067111,108.704079 L288.058543,108.704079 C289.459034,108.704079 290.593224,109.83725 290.593224,111.234854" id="Fill-163" fill="#70013E"></path>
                <path d="M269.716727,102.227104 C269.716727,104.462654 267.901946,106.275189 265.66324,106.275189 L237.084193,106.275189 C234.845102,106.275189 233.031092,104.462654 233.031092,102.227104 L228.976834,87.4493026 C228.976834,85.2133677 230.791616,83.4008324 233.031092,83.4008324 L261.608983,83.4008324 C263.848459,83.4008324 265.66324,85.2133677 265.66324,87.4493026 L269.716727,102.227104 Z" id="Fill-165" fill="#3E0377"></path>
                <path d="M227.963732,113.967552 L209.722657,168.016822" id="Stroke-167" stroke="#70013E" stroke-width="4.54915353" stroke-linecap="round"></path>
                <path d="M270.528349,113.967552 L288.768654,168.016822" id="Stroke-169" stroke="#70013E" stroke-width="4.54915353" stroke-linecap="round"></path>
                <path d="M334.201466,7.45610568 C347.421737,25.1415075 355.248149,47.0824604 355.248149,70.8498053 C355.248149,129.4333 307.698106,176.923341 249.043174,176.923341 C225.246763,176.923341 203.278237,169.106614 185.571306,155.902704 C204.935781,181.810142 235.871076,198.58408 270.730368,198.58408 C329.385686,198.58408 376.935729,151.092885 376.935729,92.5105446 C376.935729,57.6943944 360.140621,26.7966151 334.201466,7.45610568" id="Fill-171" fill="#FFFFFF"></path>
                <path d="M265.663394,87.4494565 C265.663394,85.2131368 263.848613,83.4006015 261.609137,83.4006015 L233.030861,83.4006015 C232.646246,83.4006015 232.279744,83.4714247 231.926345,83.5722708 C239.481446,85.1985102 260.231768,91.0887687 257.292046,106.274958 L265.663394,106.274958 C267.901715,106.274958 269.716881,104.462423 269.716881,102.227258 L265.663394,87.4494565 Z" id="Fill-173" fill="#2E045E"></path>
                <path d="M284.513071,107.084691 C284.513071,107.830644 283.90686,108.43495 283.161909,108.43495 L235.868533,108.43495 C235.122426,108.43495 234.518141,107.830644 234.518141,107.084691 C234.518141,106.339892 235.122426,105.73597 235.868533,105.73597 L283.161909,105.73597 C283.90686,105.73597 284.513071,106.339892 284.513071,107.084691" id="Fill-175" fill="#2E045E"></path>
                <path d="M250.461933,95.7486663 C250.461933,97.2394179 249.252207,98.4480313 247.759608,98.4480313 C246.267009,98.4480313 245.057669,97.2394179 245.057669,95.7486663 C245.057669,94.2586846 246.267009,93.0496862 247.759608,93.0496862 C249.252207,93.0496862 250.461933,94.2586846 250.461933,95.7486663" id="Fill-177" fill="#190130"></path>
                <path d="M213.067111,108.704002 C211.668546,108.704002 210.534356,109.837173 210.534356,111.234777 C210.534356,112.632765 211.668546,113.765167 213.067111,113.765167 L254.373135,113.765167 L217.502515,108.704002 L213.067111,108.704002 Z" id="Fill-179" fill="#900048"></path>
                <path d="M293.971014,324.773138 C293.971014,324.773138 296.673339,331.923973 291.67373,334.219569 C286.673351,336.514779 282.889634,340.157556 280.052039,339.88735 C277.21483,339.617914 280.188466,345.556286 288.970635,342.722203 C297.753575,339.888505 307.211325,342.991639 303.833805,334.354672 C303.833805,334.354672 302.077602,328.687275 302.348143,326.528322 C302.617913,324.367829 293.971014,324.773138 293.971014,324.773138" id="Fill-181" fill="#5B14C1"></path>
                <path d="M303.833728,334.354518 C303.833728,334.354518 302.077525,328.687121 302.348451,326.528168 C302.617836,324.36806 293.970937,324.772984 293.970937,324.772984 C293.970937,324.772984 294.164401,325.295306 294.351313,326.092067 C296.126014,327.268733 299.525501,330.196349 297.923453,334.61895 C296.042385,339.805595 284.592191,343.32828 280.13482,339.888351 C280.107458,339.886426 280.079324,339.890275 280.052347,339.887196 C277.214753,339.618145 280.188389,345.556517 288.970558,342.722049 C297.753883,339.888351 307.211634,342.991485 303.833728,334.354518" id="Fill-183" fill="#4E13AA"></path>
                <path d="M321.535302,356.683728 C321.535302,356.683728 323.866115,363.058587 315.860113,368.828753 C307.853725,374.597381 319.60953,373.99038 323.663017,369.53814 C327.717274,365.084746 332.987424,362.047431 333.899246,361.94543 C334.811069,361.844199 339.574436,357.593267 332.379285,353.849645 C332.379285,353.849645 330.352542,353.241489 328.730068,351.420101 C327.109136,349.597558 321.535302,356.683728 321.535302,356.683728" id="Fill-185" fill="#5B14C1"></path>
                <path d="M336.120879,359.453647 C336.627661,357.887453 336.126275,355.799323 332.379555,353.849376 C332.379555,353.849376 330.352811,353.24122 328.730338,351.420216 C327.109405,349.597674 321.535187,356.683843 321.535187,356.683843 C321.535187,356.683843 321.765262,357.313554 321.831548,358.355502 C324.481075,358.884367 330.974053,360.004836 336.120879,359.453647" id="Fill-187" fill="#4E13AA"></path>
                <path d="M290.592299,295.352062 C288.836097,289.413689 288.159745,286.444503 297.889192,283.339445 C306.118718,280.714367 315.60229,273.745979 318.33082,271.660159 C311.059363,271.922667 287.306886,273.13128 281.94463,277.802148 C275.593859,283.335981 276.53921,286.169294 281.269049,297.099932 C285.135238,306.037128 290.443926,318.755283 292.253697,323.103597 C297.839863,315.431596 292.178162,300.71307 290.592299,295.352062" id="Fill-189" fill="#900048"></path>
                <path d="M320.454796,271.59561 C320.454796,271.59561 319.674005,271.612161 318.33055,271.660274 C315.60202,273.746095 306.118834,280.714098 297.888922,283.33956 C288.15986,286.444619 288.836212,289.413805 290.592415,295.352177 C292.177892,300.712801 297.839593,315.431711 292.253427,323.103327 C292.656926,324.074067 292.889699,324.632185 292.889699,324.632185 C292.889699,324.632185 297.888922,328.409679 303.429613,326.791138 C303.429613,326.791138 300.861788,295.346788 294.917213,292.51386 C294.917213,292.51386 307.75364,293.591989 311.131546,292.376832 C314.509066,291.1636 325.048209,277.127518 325.048209,277.127518 C325.048209,277.127518 318.563323,272.539406 320.454796,271.59561" id="Fill-191" fill="#70013E"></path>
                <path d="M322.480499,274.835733 C322.480499,274.835733 293.0247,302.100359 295.862295,310.871659 C298.699889,319.642959 320.724297,357.565323 320.724297,357.565323 C320.724297,357.565323 327.615378,355.676961 330.047933,351.35867 L319.237864,318.428957 C319.237864,318.428957 318.832438,313.841615 315.319262,311.681507 C315.319262,311.681507 335.588623,304.393645 343.01963,289.683972 C343.01963,289.683972 346.803347,280.911902 342.614975,277.266047 C342.614975,277.266047 331.939406,279.556254 322.480499,274.835733" id="Fill-193" fill="#900048"></path>
                <path d="M342.614859,277.266239 C342.614859,277.266239 333.469657,279.224655 324.607327,275.772793 C326.596303,280.419412 328.98608,289.568307 322.210999,298.050926 C312.616822,310.060849 302.618761,306.822226 306.536977,315.05504 C310.175789,322.700867 324.177237,339.425921 320.09369,356.474684 C320.497189,357.174833 320.724566,357.565131 320.724566,357.565131 C320.724566,357.565131 327.615263,355.677153 330.047817,351.358477 L319.238134,318.428765 C319.238134,318.428765 318.832323,313.841422 315.319147,311.681314 C315.319147,311.681314 335.588507,304.393837 343.0199,289.684165 C343.0199,289.684165 346.803616,280.912095 342.614859,277.266239" id="Fill-195" fill="#70013E"></path>
                <path d="M322.142362,243.523946 L318.495072,245.95349 C318.495072,245.95349 314.947596,243.119407 298.328994,243.017791 C298.328994,243.017791 287.991023,240.588247 289.206915,244.030101 L292.856903,249.900729 C292.856903,249.900729 297.821441,249.597036 299.949156,247.47234 C302.077641,245.346104 315.758448,253.746737 322.447973,252.430349 C329.135185,251.115501 322.142362,243.523946 322.142362,243.523946" id="Fill-197" fill="#5B14C1"></path>
                <path d="M322.142362,243.523946 L321.448282,243.986221 C321.544243,245.750643 321.24634,249.001197 317.582864,248.179417 C313.618401,247.290663 296.361986,244.923474 290.9504,246.835316 L292.856903,249.900729 C292.856903,249.900729 297.821441,249.597036 299.949156,247.47234 C302.077641,245.346104 315.758448,253.746737 322.447973,252.430349 C329.135185,251.115501 322.142362,243.523946 322.142362,243.523946" id="Fill-199" fill="#4E13AA"></path>
                <path d="M279.429294,237.121066 C279.429294,237.121066 277.75672,233.131872 266.946652,250.271858 L278.971842,245.41277 C278.971842,245.41277 280.8637,242.039045 281.539666,242.308866 L279.511767,237.585651" id="Fill-201" fill="#FCA08B"></path>
                <polygon id="Stroke-203" stroke="#340972" stroke-width="3.03233595" stroke-linecap="round" points="302.56184 255.588795 295.90276 262.808528 278.62168 237.666674 287.713699 233.687103"></polygon>
                <polygon id="Fill-205" fill="#FCA08B" points="302.56184 255.588795 296.694342 262.27389 279.429449 237.121258 287.713699 233.687103"></polygon>
                <path d="M279.512846,239.473744 C279.512846,240.367502 278.786394,241.094209 277.891143,241.094209 C276.995892,241.094209 276.268669,240.367502 276.268669,239.473744 C276.268669,238.579601 276.995892,237.854433 277.891143,237.854433 C278.786394,237.854433 279.512846,238.579601 279.512846,239.473744" id="Fill-207" fill="#190130"></path>
                <path d="M280.052155,237.315021 C280.052155,237.315021 279.106804,233.806963 273.296729,236.506328 L252.218058,246.762222 L270.729675,236.101019 C270.729675,236.101019 281.321615,230.057567 287.713622,233.686872 L279.511844,237.585612" id="Fill-209" fill="#FCA08B"></path>
                <path d="M335.858354,208.9765 C335.858354,208.9765 334.235881,200.069327 344.506024,197.505065 C354.774626,194.941573 362.747871,197.774886 369.098641,188.733765 C375.449027,179.691874 379.637013,181.716109 373.692054,194.941573 C367.746708,208.166652 378.826933,198.045477 382.340109,189.677946 C385.853285,181.31157 385.043204,175.238864 388.149798,175.373198 C391.258704,175.508301 390.852893,189.948152 384.771892,198.85571 C378.692048,207.762883 383.42073,207.626625 388.690879,199.5293 C393.961029,191.432745 392.609481,184.954731 397.473819,185.224167 C402.338158,185.494758 399.094752,216.264362 377.47577,222.201965 C355.856404,228.139952 346.803308,219.637703 346.803308,219.637703 L335.858354,208.9765 Z" id="Fill-211" fill="#FF4057"></path>
                <path d="M381.799066,213.43078 C377.069227,215.859939 362.206828,221.122411 372.34093,210.326876 C382.475417,199.530955 374.097132,204.253786 372.881626,205.063249 C371.664578,205.873482 353.559158,217.074326 363.69326,202.63409 C373.827362,188.194623 362.206828,199.799622 362.206828,199.799622 C362.206828,199.799622 359.369233,203.713374 348.153738,203.039014 C341.381355,202.631395 337.829641,204.057482 335.969769,205.547079 C335.587852,207.48471 335.858393,208.976616 335.858393,208.976616 L346.803347,219.637818 C346.803347,219.637818 355.856442,228.140067 377.475809,222.20208 C394.05857,217.64707 399.822013,198.496321 399.416202,189.693458 C398.318238,199.529416 385.743488,211.40462 381.799066,213.43078" id="Fill-213" fill="#ED1140"></path>
                <path d="M336.128009,207.221855 C336.128009,207.221855 327.750494,224.090481 337.344671,223.955763 C337.344671,223.955763 340.587307,224.49502 335.858239,230.028468 C331.1284,235.562301 329.642738,236.370994 329.642738,236.370994 C329.642738,236.370994 331.398941,239.34018 336.939631,235.562301 C342.47955,231.782882 348.964436,229.894135 351.12722,232.727833 C351.12722,232.727833 344.912105,229.488826 348.153584,220.446165 C348.153584,220.446165 346.398152,218.827239 346.803578,217.478134 C347.208233,216.127874 346.127997,212.618661 343.965983,215.72295 C343.965983,215.72295 342.07451,214.778769 342.34428,211.404659 C342.614821,208.031318 336.53382,206.276904 336.128009,207.221855" id="Fill-215" fill="#5B14C1"></path>
                <path d="M348.153623,220.446319 C348.153623,220.446319 346.493381,218.910148 346.781264,217.581828 C345.942665,218.678818 344.54911,219.897824 342.344319,220.311216 C338.01952,221.120679 343.966022,223.414735 341.938507,228.13795 C340.551119,231.371953 336.439054,235.301872 333.247289,237.328031 C334.230408,237.100935 335.442061,236.582848 336.93967,235.56207 C341.640604,232.354241 347.013266,230.521305 349.857027,231.768794 C348.234168,230.239552 345.890638,226.758437 348.153623,220.446319" id="Fill-217" fill="#4E13AA"></path>
                <path d="M333.155221,232.456318 C333.155221,232.456318 319.642827,240.82308 321.669956,248.380378 C323.696699,255.939216 324.777706,264.844849 319.778483,271.053042 C314.779645,277.26162 343.83079,282.389374 349.505594,277.126902 C355.180784,271.862505 351.126526,268.084241 348.964513,269.569604 C346.803655,271.053042 340.316843,267.544599 347.61258,257.827193 C354.910243,248.110942 355.344187,232.700351 349.857066,231.768871 C344.3711,230.836622 342.478471,231.916676 337.885059,234.480938 C333.290491,237.044046 332.07537,238.529408 330.318396,236.099865 C330.318396,236.099865 328.966463,235.559838 333.155221,232.456318" id="Fill-219" fill="#FF8260"></path>
                <path d="M348.964474,269.569565 C346.803616,271.053004 340.316804,267.544561 347.612541,257.827155 C354.910205,248.110903 355.344149,232.700312 349.857027,231.768833 C346.61709,231.218028 344.630041,231.374686 342.6006,232.118715 C343.779495,236.164106 346.314947,246.644786 343.424555,253.914172 C339.777264,263.091551 329.100154,266.329404 332.614871,272.266621 C334.367605,275.230803 335.61664,277.521395 336.326521,279.156872 C341.986681,279.60991 347.382466,279.094517 349.505556,277.126864 C355.180745,271.862467 351.126488,268.084203 348.964474,269.569565" id="Fill-221" fill="#FC6B49"></path>
                <path d="M333.40021,244.453885 L329.237274,252.430349 C329.237274,252.430349 326.907232,250.811808 319.812667,251.01427 C312.718872,251.215962 305.623922,248.078571 305.623922,248.078571 C305.623922,248.078571 298.429156,242.006251 296.909195,242.006251 C295.388848,242.006251 288.397181,245.042411 289.410745,247.572416 C290.423539,250.102806 294.374899,247.572416 295.996602,250.508115 C297.618305,253.443044 301.976631,254.150891 303.699305,253.342198 C305.421979,252.531965 318.900844,258.808287 323.360142,260.223596 C327.818284,261.641215 332.075254,264.273606 336.229712,258.09813 L342.51304,247.674032 L333.40021,244.453885 Z" id="Fill-223" fill="#5B14C1"></path>
                <path d="M290.950592,246.835123 L306.672017,236.101943" id="Stroke-225" stroke="#190130" stroke-width="3.03233595" stroke-linecap="round"></path>
                <path d="M341.600948,231.782728 C341.600948,231.782728 350.012762,230.872034 346.869941,240.588285 C343.729433,250.305306 344.032732,248.179455 344.032732,248.179455 L332.48041,244.130985 C332.48041,244.130985 335.824787,232.288883 341.600948,231.782728" id="Fill-227" fill="#FC8A70"></path>
                <path d="M341.600948,231.782728 C341.449877,231.79543 341.302274,231.821219 341.156598,231.849702 C341.723886,234.9359 342.34744,243.122909 333.400326,244.453924 L344.032732,248.179455 C344.032732,248.179455 343.729433,250.305306 346.869941,240.588285 C350.012762,230.872034 341.600948,231.782728 341.600948,231.782728" id="Fill-229" fill="#F9745A"></path>
                <path d="M333.40021,244.453885 L333.2449,244.751035 C334.34903,245.839557 336.084807,248.456551 334.405296,253.342198 C332.075254,260.12352 324.879718,258.605825 321.839025,257.08659 C318.799873,255.568895 306.738842,250.102806 304.206473,250.305268 C301.672562,250.508115 299.544077,250.406114 298.126243,248.887649 C296.919215,247.597435 292.718896,246.103219 291.112223,248.790267 C292.713886,249.041997 294.894013,248.510054 295.996602,250.508115 C297.618305,253.443044 301.976631,254.150891 303.699305,253.342198 C305.421979,252.531965 318.900844,258.808287 323.360142,260.223596 C327.818284,261.641215 332.075254,264.273606 336.229712,258.09813 L342.51304,247.674032 L333.40021,244.453885 Z" id="Fill-231" fill="#4E13AA"></path>
                <path d="M298.126127,248.887495 C299.543961,250.40596 301.672832,250.507961 304.206357,250.305499 C306.739112,250.102652 318.799758,255.568741 321.839295,257.086821 C324.879602,258.605671 332.075524,260.123366 334.405181,253.342044 C336.085077,248.456782 334.348914,245.839403 333.244784,244.751266 L329.237158,252.430195 C329.237158,252.430195 326.907502,250.811654 319.812551,251.014116 C312.718757,251.216193 305.624191,248.078417 305.624191,248.078417 C305.624191,248.078417 298.429426,242.006097 296.909465,242.006097 C295.388733,242.006097 288.397065,245.042642 289.41063,247.572262 C289.733968,248.38211 290.359449,248.671561 291.112493,248.790113 C292.719166,246.10345 296.919099,247.597281 298.126127,248.887495" id="Fill-233" fill="#5B14C1"></path>
                <path d="M77.5219899,347.846993 L85.3364557,359.825353 C89.9079008,366.836081 99.3078433,368.817976 106.326873,364.250264 L110.138723,361.769912 C117.157753,357.204125 119.141718,347.816585 114.567961,340.807012 L106.756578,328.825958 L77.5219899,347.846993 Z" id="Fill-235" fill="#FF4D6B"></path>
                <path d="M96.5827811,335.444964 L88.917845,340.432996 C93.6064473,344.385239 104.297817,354.816266 102.0225,366.173384 C103.510474,365.769999 104.964535,365.136439 106.326873,364.250379 L110.138723,361.770028 C110.151055,361.762714 110.159148,361.754246 110.172251,361.746163 C111.799735,350.22238 102.067976,340.127764 96.5827811,335.444964" id="Fill-237" fill="#FF4057"></path>
                <path d="M96.5827811,335.444964 C102.067976,340.127764 111.799735,350.22238 110.172251,361.746163 C117.163148,357.171138 119.133625,347.804769 114.567961,340.807128 L106.756578,328.826073 L96.5827811,335.444964 Z" id="Fill-239" fill="#F92B4E"></path>
                <path d="M107.410269,328.910907 C108.439634,330.489803 102.624164,336.099848 94.4181467,341.438532 C86.2121291,346.776831 78.7236996,349.824154 77.6924075,348.244488 C76.6638131,346.664438 82.4796686,341.055163 90.6856862,335.717249 C98.8920892,330.378179 106.378977,327.330087 107.410269,328.910907" id="Fill-241" fill="#ED1140"></path>
                <path d="M93.7205986,335.630259 C93.7205986,335.630259 87.5054835,312.148902 95.3407601,308.638534 C103.17912,305.130861 105.070593,313.496852 97.2330038,330.232684 C97.2330038,330.232684 94.5314501,338.059803 93.7205986,335.630259" id="Fill-243" fill="#5B14C1"></path>
                <path d="M93.1803649,337.047378 C93.1803649,337.047378 76.4257218,326.791869 73.7233973,311.136861 C71.0206874,295.482238 87.7749451,283.336057 89.6656474,300.340171 C91.5578911,317.344284 85.8819306,321.933936 93.1803649,337.047378" id="Fill-245" fill="#5B14C1"></path>
                <path d="M88.9179606,340.432996 C88.9179606,340.432996 63.1834453,334.078923 51.832295,318.4243 C40.4823009,302.768137 51.2919843,291.432574 59.6691132,300.879774 C68.0485544,310.32659 64.5342222,326.252574 80.74894,332.999254 C96.9640431,339.746319 88.9179606,340.432996 88.9179606,340.432996" id="Fill-247" fill="#5B14C1"></path>
                <path d="M84.8031204,341.366708 C84.8031204,341.366708 62.101976,330.030761 41.8341569,341.096502 C21.5651816,352.163013 21.2950262,374.563932 36.9690478,368.355739 C52.6430695,362.148701 69.128328,338.937934 80.7488629,342.716198 C80.7488629,342.716198 88.0457557,343.526816 84.8031204,341.366708" id="Fill-249" fill="#5B14C1"></path>
                <path d="M97.2329267,330.23253 C103.293502,317.289974 103.533597,309.359314 99.7067175,308.049085 C97.0379216,313.88738 92.6329631,325.591685 94.5121037,335.9057 C95.6189315,334.903782 97.2329267,330.23253 97.2329267,330.23253" id="Fill-251" fill="#4E13AA"></path>
                <path d="M89.6656088,300.340094 C89.1488066,295.683468 87.5132297,293.224671 85.4706855,292.413668 C82.2184156,300.700753 76.0919392,322.286051 93.0573883,336.785178 C85.9555007,321.883051 91.5470618,317.243361 89.6656088,300.340094" id="Fill-253" fill="#4E13AA"></path>
                <path d="M80.7488244,332.999062 C64.534492,326.252766 68.0484388,310.326782 59.6693829,300.879967 C57.2738255,298.177138 54.6801797,297.182149 52.462285,297.495849 C53.8319458,307.269837 60.2921662,328.964833 90.2794126,340.070605 C91.5754647,339.420879 91.9242388,337.649144 80.7488244,332.999062" id="Fill-255" fill="#4E13AA"></path>
                <path d="M84.8031204,341.366708 C84.8031204,341.366708 62.101976,330.030761 41.8341569,341.096502 C29.9122503,347.606079 24.9164956,358.031332 26.0075225,364.255691 C34.5415033,355.313876 57.2696248,335.426412 84.878656,342.756229 C85.7342123,342.589948 86.0494578,342.198496 84.8031204,341.366708" id="Fill-257" fill="#4E13AA"></path>
                <path d="M257.74815,346.069408 C258.528942,347.825361 257.853361,349.827657 256.241292,350.541662 L244.856228,355.581657 C243.245316,356.295663 241.307211,355.450788 240.52719,353.69522 L237.561262,347.017053 C236.782012,345.260329 237.456823,343.256495 239.067735,342.543259 L250.453955,337.502494 C252.065253,336.789258 254.004899,337.634133 254.784149,339.389701 L257.74815,346.069408 Z" id="Stroke-259" stroke="#ED1140" stroke-width="4.54915353"></path>
                <path d="M268.382175,355.1832 C269.554904,357.831372 268.360979,360.927578 265.711452,362.10078 L246.993654,370.389404 C244.344127,371.561836 241.242158,370.367465 240.067502,367.721217 L235.598955,357.653929 C234.4243,355.006912 235.619766,351.909551 238.269293,350.736349 L256.987476,342.449264 C259.635846,341.274522 262.738587,342.468894 263.912472,345.117066 L268.382175,355.1832 Z" id="Fill-261" fill="#FF4057"></path>
                <path d="M217.220721,391.031213 C217.220721,391.031213 208.033511,392.650909 199.925767,390.761007 C191.818023,388.87226 192.8998,398.589281 207.762585,396.969585 C207.762585,396.969585 215.058707,395.890301 217.220721,391.031213" id="Fill-263" fill="#560334"></path>
                <path d="M268.382175,355.1832 L265.790841,349.344904 C254.714857,361.955284 241.467994,357.949539 235.188519,354.915688 C235.081382,355.819069 235.202393,356.761711 235.598955,357.653929 L240.067502,367.721217 C241.242158,370.367465 244.344127,371.561836 246.993654,370.389404 L265.711452,362.10078 C268.360979,360.927578 269.554904,357.831372 268.382175,355.1832" id="Fill-265" fill="#ED1140"></path>
                <path d="M247.758799,368.358433 C247.758799,368.358433 238.301819,389.952199 206.411538,387.522655 C174.523184,385.093111 179.657293,364.579399 192.088679,366.739507 C192.088679,366.739507 206.411538,371.866877 211.545647,370.787208 C216.680526,369.708693 188.036348,368.088997 197.494099,355.943972 C197.494099,355.943972 202.087896,351.084114 208.573552,354.591787 C215.058823,358.102155 226.949898,358.371976 235.057642,354.323121 C235.057642,354.323121 239.111129,348.65534 243.164231,355.133354 C247.217717,361.612138 248.56965,365.389247 247.758799,368.358433" id="Fill-267" fill="#70013E"></path>
                <path d="M243.164269,355.1332 C242.203117,353.597799 241.243892,352.751 240.336694,352.342997 C235.944839,356.772142 216.722571,373.889418 197.070598,356.516947 C194.532063,360.147406 195.485122,362.797118 197.842141,364.760153 L207.441327,368.981832 C210.925214,369.949877 213.372028,370.404454 211.545685,370.787054 C211.545685,370.787054 215.329016,371.598441 220.463125,368.630025 C225.462733,365.74013 208.182039,385.60527 182.832909,371.480274 C180.86012,377.169995 186.190775,385.982096 206.411577,387.522501 C238.301858,389.952045 247.758837,368.35828 247.758837,368.35828 C248.569689,365.389478 247.217756,361.611984 243.164269,355.1332" id="Fill-269" fill="#560334"></path>
                <path d="M192.26796,221.183458 L202.31458,248.049703" id="Stroke-271" stroke="#FC6B49" stroke-width="3.03233595" stroke-linecap="round"></path>
                <path d="M221.859107,209.44224 L231.905342,236.309255" id="Stroke-273" stroke="#FC6B49" stroke-width="3.03233595" stroke-linecap="round"></path>
                <path d="M203.212297,208.632931 L213.259688,235.499946" id="Stroke-275" stroke="#FC6B49" stroke-width="3.03233595" stroke-linecap="round"></path>
                <path d="M172.563421,216.195425 L181.235755,238.738375" id="Stroke-277" stroke="#FC6B49" stroke-width="3.03233595" stroke-linecap="round"></path>
                <path d="M223.031797,206.681328 L218.406784,208.541592 L196.683363,205.87148 L173.812649,215.710902 L173.915547,215.453013 L170.334928,214.778268 C170.334928,214.778268 168.712069,216.296348 170.334928,217.207812 L190.602362,222.06613 L223.031797,209.110487 C224.788,207.760997 223.031797,206.681328 223.031797,206.681328" id="Fill-279" fill="#FC6B49"></path>
                <polygon id="Fill-281" fill="#F98D73" points="223.031797 206.681328 190.602362 219.637356 170.334928 214.778268 196.683363 203.442321"></polygon>
                <path d="M209.925678,267.949869 L229.382645,258.234388 C229.382645,258.234388 239.381477,271.459467 249.921776,263.361757 C249.921776,263.361757 250.19039,268.222 243.976816,271.729673 C243.976816,271.729673 211.27684,289.003993 209.925678,267.949869" id="Fill-283" fill="#FCA08B"></path>
                <path d="M231.275621,267.9491 C230.751111,271.875169 228.258051,275.418254 225.828965,278.027935 C234.703627,276.628407 243.977163,271.729673 243.977163,271.729673 C248.945556,268.923689 249.766042,265.262822 249.897073,263.904864 C242.870721,268.144633 231.275621,267.9491 231.275621,267.9491" id="Fill-285" fill="#FF8260"></path>
                <path d="M223.707379,288.733055 C223.707379,288.733055 238.301935,282.794683 241.543414,296.559405 C241.543414,296.559405 242.625577,304.117473 248.300767,304.117473 L235.057758,323.549975 C235.057758,323.549975 227.491095,325.710083 226.680244,317.613528 C225.870163,309.515818 219.385278,308.165558 216.682183,308.706355 C216.682183,308.706355 213.708547,307.085889 223.707379,288.733055" id="Fill-287" fill="#FCA08B"></path>
                <polygon id="Fill-289" fill="#FCA08B" points="367.284631 344.542937 367.16863 344.50868 366.723895 338.461378 371.03058 339.773917"></polygon>
                <path d="M371.137717,339.424844 C370.785475,340.58034 369.56149,341.232375 368.40302,340.881338 C367.244936,340.528762 366.593249,339.304752 366.945492,338.148486 L381.854523,289.303952 C382.206765,288.148456 383.431135,287.496805 384.588063,287.849382 C385.746918,288.200419 386.397835,289.424428 386.045592,290.581079 L371.137717,339.424844 Z" id="Fill-291" fill="#3E0377"></path>
                <path d="M384.719172,287.895956 C384.938841,288.565312 385.043281,289.473697 384.658666,290.536815 L369.268288,340.964094 C370.117678,340.875565 370.87342,340.293583 371.137794,339.424844 L386.045669,290.581079 C386.382882,289.468308 385.793627,288.29857 384.719172,287.895956" id="Fill-293" fill="#2E045E"></path>
                <path d="M367.168696,344.508718 C367.168696,344.508718 367.138647,346.359359 370.17934,346.359359 C373.219648,346.359359 376.462283,344.132277 379.09678,350.609522 C381.732432,357.088306 383.556078,357.088306 389.637078,356.885074" id="Stroke-295" stroke="#F92B4E" stroke-width="1.51616798"></path>
                <path d="M332.277543,382.392168 C332.277543,382.392168 335.92599,380.367933 337.141881,382.797861 C338.357388,385.226251 339.371338,387.046869 342.816686,386.643485" id="Stroke-297" stroke="#F92B4E" stroke-width="1.51616798"></path>
                <path d="M197.156038,315.454151 C197.156038,315.454151 200.804485,313.429916 202.021147,315.859845 C203.235883,318.288234 204.250604,320.110008 207.696337,319.704314" id="Stroke-299" stroke="#F92B4E" stroke-width="1.51616798"></path>
                <path d="M143.648741,235.561531 C143.648741,235.561531 147.297188,233.536526 148.512309,235.965685 C149.728586,238.395229 150.742536,240.217002 154.188269,239.811693" id="Stroke-301" stroke="#F92B4E" stroke-width="1.51616798"></path>
                <path d="M363.626473,165.924612 C363.626473,165.924612 367.274148,163.900377 368.49004,166.329921 C369.706703,168.75831 370.719497,170.580853 374.164845,170.175544" id="Stroke-303" stroke="#F92B4E" stroke-width="1.51616798"></path>
                <path d="M127.973833,148.649946 C127.973833,148.649946 131.623051,146.625711 132.838172,149.05564 C134.054834,151.484029 135.068399,153.306572 138.512976,152.901648" id="Stroke-305" stroke="#F92B4E" stroke-width="1.51616798"></path>
            </g>
            <g id="Group-374" transform="translate(54.495913, 23.978202)" fill="#E7DFEF">
                <path d="M156.881976,5.09726989 C156.881976,6.28836812 155.913976,7.25339607 154.721317,7.25339607 C153.527501,7.25339607 152.558345,6.28836812 152.558345,5.09726989 C152.558345,3.90578719 153.527501,2.94075925 154.721317,2.94075925 C155.913976,2.94075925 156.881976,3.90578719 156.881976,5.09726989" id="Fill-308"></path>
                <path d="M208.223318,7.79346569 C208.223318,8.98456392 207.255318,9.94997633 206.061503,9.94997633 C204.868843,9.94997633 203.899687,8.98456392 203.899687,7.79346569 C203.899687,6.60275193 204.868843,5.63657057 206.061503,5.63657057 C207.255318,5.63657057 208.223318,6.60275193 208.223318,7.79346569" id="Fill-310"></path>
                <path d="M170.934855,41.7630259 C170.934855,42.9541241 169.966084,43.9203055 168.772269,43.9203055 C167.578453,43.9203055 166.610453,42.9541241 166.610453,41.7630259 C166.610453,40.5719277 167.578453,39.6068997 168.772269,39.6068997 C169.966084,39.6068997 170.934855,40.5719277 170.934855,41.7630259" id="Fill-312"></path>
                <path d="M55.8218101,18.5771339 C55.8218101,19.7682321 54.8530393,20.734029 53.6584533,20.734029 C52.4661794,20.734029 51.4981794,19.7682321 51.4981794,18.5771339 C51.4981794,17.3856512 52.4661794,16.4206232 53.6584533,16.4206232 C54.8530393,16.4206232 55.8218101,17.3856512 55.8218101,18.5771339" id="Fill-314"></path>
                <path d="M312.528519,2.40145857 C312.528519,3.59217233 311.560519,4.55758475 310.365933,4.55758475 C309.172118,4.55758475 308.204118,3.59217233 308.204118,2.40145857 C308.204118,1.2095914 309.172118,0.244563455 310.365933,0.244563455 C311.560519,0.244563455 312.528519,1.2095914 312.528519,2.40145857" id="Fill-316"></path>
                <path d="M328.741286,56.3215681 C328.741286,57.5130508 327.773286,58.4788477 326.579471,58.4788477 C325.38527,58.4788477 324.416885,57.5130508 324.416885,56.3215681 C324.416885,55.1308544 325.38527,54.165442 326.579471,54.165442 C327.773286,54.165442 328.741286,55.1308544 328.741286,56.3215681" id="Fill-318"></path>
                <path d="M322.796179,112.399111 C322.796179,113.589825 321.828179,114.555622 320.635519,114.555622 C319.440548,114.555622 318.472548,113.589825 318.472548,112.399111 C318.472548,111.208013 319.440548,110.2426 320.635519,110.2426 C321.828179,110.2426 322.796179,111.208013 322.796179,112.399111" id="Fill-320"></path>
                <path d="M280.642282,87.595317 C280.642282,88.7871842 279.675053,89.7525966 278.481238,89.7525966 C277.286652,89.7525966 276.318652,88.7871842 276.318652,87.595317 C276.318652,86.4046033 277.286652,85.4391909 278.481238,85.4391909 C279.675053,85.4391909 280.642282,86.4046033 280.642282,87.595317" id="Fill-322"></path>
                <path d="M148.235871,121.026499 C148.235871,122.217598 147.2671,123.183394 146.073285,123.183394 C144.88024,123.183394 143.91224,122.217598 143.91224,121.026499 C143.91224,119.835401 144.88024,118.869989 146.073285,118.869989 C147.2671,118.869989 148.235871,119.835401 148.235871,121.026499" id="Fill-324"></path>
                <path d="M104.999487,125.340174 C104.999487,126.530888 104.032643,127.496685 102.838828,127.496685 C101.645012,127.496685 100.677012,126.530888 100.677012,125.340174 C100.677012,124.149076 101.645012,123.183664 102.838828,123.183664 C104.032643,123.183664 104.999487,124.149076 104.999487,125.340174" id="Fill-326"></path>
                <path d="M62.847286,99.9975793 C62.847286,101.188678 61.8785153,102.153705 60.6839293,102.153705 C59.4908847,102.153705 58.522114,101.188678 58.522114,99.9975793 C58.522114,98.8057121 59.4908847,97.8414531 60.6839293,97.8414531 C61.8785153,97.8414531 62.847286,98.8057121 62.847286,99.9975793" id="Fill-328"></path>
                <path d="M55.2815874,135.045856 C55.2815874,136.237339 54.3124314,137.202751 53.1178453,137.202751 C51.9244154,137.202751 50.9571861,136.237339 50.9571861,135.045856 C50.9571861,133.854758 51.9244154,132.888961 53.1178453,132.888961 C54.3124314,132.888961 55.2815874,133.854758 55.2815874,135.045856" id="Fill-330"></path>
                <path d="M79.0592827,171.173196 C79.0592827,172.364294 78.0912826,173.329322 76.8974673,173.329322 C75.703652,173.329322 74.736808,172.364294 74.736808,171.173196 C74.736808,169.981329 75.703652,169.016301 76.8974673,169.016301 C78.0912826,169.016301 79.0592827,169.981329 79.0592827,171.173196" id="Fill-332"></path>
                <path d="M125.536887,170.63328 C125.536887,171.824378 124.568887,172.789791 123.375071,172.789791 C122.182027,172.789791 121.213256,171.824378 121.213256,170.63328 C121.213256,169.442182 122.182027,168.477154 123.375071,168.477154 C124.568887,168.477154 125.536887,169.442182 125.536887,170.63328" id="Fill-334"></path>
                <path d="M181.741966,193.279679 C181.741966,194.471931 180.773966,195.436574 179.580151,195.436574 C178.387106,195.436574 177.418336,194.471931 177.418336,193.279679 C177.418336,192.088965 178.387106,191.123937 179.580151,191.123937 C180.773966,191.123937 181.741966,192.088965 181.741966,193.279679" id="Fill-336"></path>
                <path d="M251.458777,195.437074 C251.458777,196.628172 250.490777,197.593585 249.296962,197.593585 C248.102376,197.593585 247.134376,196.628172 247.134376,195.437074 C247.134376,194.245976 248.102376,193.280179 249.296962,193.280179 C250.490777,193.280179 251.458777,194.245976 251.458777,195.437074" id="Fill-338"></path>
                <path d="M326.580434,218.083473 C326.580434,219.274571 325.611664,220.239215 324.417848,220.239215 C323.224033,220.239215 322.256033,219.274571 322.256033,218.083473 C322.256033,216.892375 323.224033,215.926963 324.417848,215.926963 C325.611664,215.926963 326.580434,216.892375 326.580434,218.083473" id="Fill-340"></path>
                <path d="M318.473588,267.150377 C318.473588,268.341475 317.504818,269.306118 316.311002,269.306118 C315.117187,269.306118 314.149187,268.341475 314.149187,267.150377 C314.149187,265.958125 315.117187,264.993481 316.311002,264.993481 C317.504818,264.993481 318.473588,265.958125 318.473588,267.150377" id="Fill-342"></path>
                <path d="M289.829535,290.874685 C289.829535,292.065783 288.861535,293.03158 287.666949,293.03158 C286.473904,293.03158 285.505904,292.065783 285.505904,290.874685 C285.505904,289.683587 286.473904,288.718943 287.666949,288.718943 C288.861535,288.718943 289.829535,289.683587 289.829535,290.874685" id="Fill-344"></path>
                <path d="M301.719712,333.472748 C301.719712,334.663847 300.751712,335.62849 299.557126,335.62849 C298.364081,335.62849 297.395311,334.663847 297.395311,333.472748 C297.395311,332.28165 298.364081,331.315853 299.557126,331.315853 C300.751712,331.315853 301.719712,332.28165 301.719712,333.472748" id="Fill-346"></path>
                <path d="M330.093211,360.77112 C330.093211,361.96145 329.125211,362.926093 327.930625,362.926093 C326.73681,362.926093 325.76881,361.96145 325.76881,360.77112 C325.76881,359.580022 326.73681,358.61461 327.930625,358.61461 C329.125211,358.61461 330.093211,359.580022 330.093211,360.77112" id="Fill-348"></path>
                <path d="M252.066513,359.354875 C252.066513,360.547126 251.098513,361.51177 249.905083,361.51177 C248.710882,361.51177 247.743268,360.547126 247.743268,359.354875 C247.743268,358.163776 248.710882,357.199133 249.905083,357.199133 C251.098513,357.199133 252.066513,358.163776 252.066513,359.354875" id="Fill-350"></path>
                <path d="M130.941772,298.424856 C130.941772,299.615185 129.973772,300.579829 128.780727,300.579829 C127.586141,300.579829 126.618141,299.615185 126.618141,298.424856 C126.618141,297.232989 127.586141,296.267576 128.780727,296.267576 C129.973772,296.267576 130.941772,297.232989 130.941772,298.424856" id="Fill-352"></path>
                <path d="M91.491532,274.159863 C91.491532,275.352114 90.5223759,276.316373 89.3297167,276.316373 C88.1351307,276.316373 87.1671306,275.352114 87.1671306,274.159863 C87.1671306,272.967611 88.1351307,272.004121 89.3297167,272.004121 C90.5223759,272.004121 91.491532,272.967611 91.491532,274.159863" id="Fill-354"></path>
                <path d="M89.3296011,309.208524 C89.3296011,310.398853 88.361601,311.363497 87.167015,311.363497 C85.9731997,311.363497 85.004429,310.398853 85.004429,309.208524 C85.004429,308.017041 85.9731997,307.051629 87.167015,307.051629 C88.361601,307.051629 89.3296011,308.017041 89.3296011,309.208524" id="Fill-356"></path>
                <path d="M71.4943547,329.159073 C71.4943547,330.350172 70.5271254,331.314815 69.3325394,331.314815 C68.1379534,331.314815 67.1707241,330.350172 67.1707241,329.159073 C67.1707241,327.967975 68.1379534,327.003332 69.3325394,327.003332 C70.5271254,327.003332 71.4943547,327.967975 71.4943547,329.159073" id="Fill-358"></path>
                <path d="M15.2892752,227.788771 C15.2892752,228.980253 14.3205045,229.944897 13.1274599,229.944897 C11.9336446,229.944897 10.9648739,228.980253 10.9648739,227.788771 C10.9648739,226.596904 11.9336446,225.63226 13.1274599,225.63226 C14.3205045,225.63226 15.2892752,226.596904 15.2892752,227.788771" id="Fill-360"></path>
                <path d="M41.7698562,212.151166 C41.7698562,213.342264 40.8026269,214.306907 39.6080408,214.306907 C38.4142255,214.306907 37.4462255,213.342264 37.4462255,212.151166 C37.4462255,210.960068 38.4142255,209.994271 39.6080408,209.994271 C40.8026269,209.994271 41.7698562,210.960068 41.7698562,212.151166" id="Fill-362"></path>
                <path d="M4.48046827,198.131386 C4.48046827,199.322869 3.51246825,200.287897 2.31788223,200.287897 C1.12483761,200.287897 0.156837584,199.322869 0.156837584,198.131386 C0.156837584,196.940288 1.12483761,195.97526 2.31788223,195.97526 C3.51246825,195.97526 4.48046827,196.940288 4.48046827,198.131386" id="Fill-364"></path>
                <path d="M227.747863,354.501245 C227.747863,355.693497 226.779092,356.65891 225.586048,356.65891 C224.391462,356.65891 223.423462,355.693497 223.423462,354.501245 C223.423462,353.310916 224.391462,352.345504 225.586048,352.345504 C226.779092,352.345504 227.747863,353.310916 227.747863,354.501245" id="Fill-366"></path>
                <path d="M217.411534,302.940149 C217.411534,304.1324 216.444305,305.097044 215.249719,305.097044 C214.055133,305.097044 213.086362,304.1324 213.086362,302.940149 C213.086362,301.74905 214.055133,300.784407 215.249719,300.784407 C216.444305,300.784407 217.411534,301.74905 217.411534,302.940149" id="Fill-368"></path>
                <path d="M198.496806,255.286492 C198.496806,256.47759 197.528806,257.443772 196.33422,257.443772 C195.140404,257.443772 194.172404,256.47759 194.172404,255.286492 C194.172404,254.095009 195.140404,253.129597 196.33422,253.129597 C197.528806,253.129597 198.496806,254.095009 198.496806,255.286492" id="Fill-370"></path>
                <path d="M147.694723,234.25688 C147.694723,235.745945 146.485109,236.952807 144.992647,236.952807 C143.50057,236.952807 142.2898,235.745945 142.2898,234.25688 C142.2898,232.767815 143.50057,231.561722 144.992647,231.561722 C146.485109,231.561722 147.694723,232.767815 147.694723,234.25688" id="Fill-372"></path>
            </g>
        </g>
    </g>
</svg>