<?xml version="1.0" encoding="UTF-8"?>
<svg width="40px" height="40px" viewBox="0 0 40 40" version="1.1" xmlns="http://www.w3.org/2000/svg" xmlns:xlink="http://www.w3.org/1999/xlink">
    <!-- Generator: Sketch 58 (84663) - https://sketch.com -->
    <title>Ask question</title>
    <desc>Created with Sketch.</desc>
    <g id="Ask-question" stroke="none" stroke-width="1" fill="none" fill-rule="evenodd">
        <g id="noun_Question_869753" fill="#000000" fill-rule="nonzero">
            <path d="M19.929982,39.359964 C30.6297718,39.359964 39.359964,30.6297718 39.359964,19.929982 C39.359964,9.21577631 30.6566388,0.5 19.929982,0.5 C9.2033252,0.5 0.5,9.21577631 0.5,19.929982 C0.5,30.6441877 9.2033252,39.359964 19.929982,39.359964 Z M19.929982,1.93451126 C29.8269477,1.93451126 37.8841899,10.0048974 37.8841899,19.929982 C37.8841899,29.8203807 29.8203807,37.8841899 19.929982,37.8841899 C10.0395833,37.8841899 1.97577416,29.8203807 1.97577416,19.929982 C1.97577416,9.99079643 10.0058174,1.93451126 19.929982,1.93451126 Z" id="Shape" stroke="#000000"></path>
            <path d="M20.1362965,9.53173053 C16.3813724,9.53173053 13.2866547,12.5851853 13.2866547,16.3813724 C13.2866547,17.0003159 13.7818095,17.4954708 14.400753,17.4954708 C15.0196966,17.4954708 15.5148514,17.0003159 15.5148514,16.3813724 C15.5148514,13.8230724 17.5779966,11.7599273 20.1362965,11.7599273 C22.6945965,11.7599273 24.7577416,13.8230724 24.7577416,16.3813724 C24.7577416,18.9396723 22.6945965,21.0028175 20.1362965,21.0028175 C19.517353,21.0028175 19.0221982,21.4979723 19.0221982,22.1169159 L19.0221982,25.459211 C19.0221982,26.0781545 19.517353,26.5733093 20.1362965,26.5733093 C20.7552401,26.5733093 21.2503949,26.0781545 21.2503949,25.459211 L21.2503949,23.1072255 C24.5101642,22.5708078 26.9859384,19.7649304 26.9859384,16.3401095 C26.9859384,12.5851853 23.9324836,9.53173053 20.1362965,9.53173053 Z" id="Path"></path>
            <circle id="Oval" cx="20.1362965" cy="29.9568674" r="1.5679903"></circle>
        </g>
    </g>
</svg>