<?xml version="1.0" encoding="UTF-8"?>
<svg width="40px" height="40px" viewBox="0 0 40 40" version="1.1" xmlns="http://www.w3.org/2000/svg" xmlns:xlink="http://www.w3.org/1999/xlink">
    <!-- Generator: Sketch 58 (84663) - https://sketch.com -->
    <title>Attach</title>
    <desc>Created with Sketch.</desc>
    <g id="Attach" stroke="none" stroke-width="1" fill="none" fill-rule="evenodd">
        <g id="Clip" transform="translate(20.000000, 20.000000) scale(-1, -1) rotate(90.000000) translate(-20.000000, -20.000000) translate(0.000000, 8.000000)" fill="#000000">
            <path d="M13.3853659,10.1463415 L28.995122,10.1463415 C29.8033435,10.1463415 30.4585366,9.49114841 30.4585366,8.68292683 C30.4585366,7.87470524 29.8033435,7.2195122 28.995122,7.2195122 L13.7073171,7.2195122 C13.5376271,7.21971181 13.3692647,7.24942282 13.2097561,7.30731707 C12.7414634,7.47317073 8.50731707,8.76097561 8.50731707,12.097561 C8.50731707,14.9463415 11.6487805,16.595122 13.3853659,16.9756098 L13.6682927,16.9756098 L28.0487805,16.9756098 C28.2829268,16.9756098 33.804878,17.1707317 36.995122,14.1073171 C38.6299253,12.55964 39.6078316,10.4431713 39.7268293,8.19512195 C39.7268293,5.84390244 38.4780488,4.4097561 36.9658537,2.96585366 C34.0390244,0.204878049 29.4731707,0.390243902 29.3463415,0.390243902 L12.4682927,0.390243902 C8.23414634,0.390243902 0.702439024,3.09268293 0.702439024,11.1219512 C0.702439024,15.1512195 1.39512195,18.1170732 3.72682927,20.3902439 C6.10751018,22.5498402 9.19574729,23.7643155 12.4097561,23.804878 L31.9219512,23.804878 C32.7301728,23.804878 33.3853659,23.149685 33.3853659,22.3414634 C33.3853659,21.5332418 32.7301728,20.8780488 31.9219512,20.8780488 L12.4682927,20.8780488 C9.99514244,20.8544531 7.61420443,19.9360418 5.76585366,18.2926829 C4.0195122,16.595122 3.62926829,14.3317073 3.62926829,11.1219512 C3.62926829,3.94146341 12.1658537,3.31707317 12.5073171,3.31707317 L29.4243902,3.31707317 C29.4243902,3.31707317 32.9853659,3.2097561 34.9560976,5.08292683 C35.8731707,5.96097561 36.8097561,6.64390244 36.8097561,8.19512195 C36.6966464,9.63536793 36.0618105,10.9848278 35.0243902,11.9902439 C32.7414634,14.1853659 28.2634146,14.0487805 28.195122,14.0487805 L13.3853659,14.0487805 C12.7609756,13.8926829 11.4341463,13.004878 11.4341463,12.097561 C11.4341463,11.1902439 12.497561,10.5268293 13.3853659,10.1463415 Z" id="Shape"></path>
        </g>
    </g>
</svg>