<?xml version="1.0" encoding="UTF-8"?>
<svg width="40px" height="40px" viewBox="0 0 40 40" version="1.1" xmlns="http://www.w3.org/2000/svg" xmlns:xlink="http://www.w3.org/1999/xlink">
    <!-- Generator: Sketch 58 (84663) - https://sketch.com -->
    <title>Bookmark off</title>
    <desc>Created with Sketch.</desc>
    <g id="Bookmark-off" stroke="none" stroke-width="1" fill="none" fill-rule="evenodd">
        <g id="Bookmark" transform="translate(4.000000, 0.000000)" fill="#000000">
            <path d="M29.5069767,3.1627907 L29.5069767,36.6511628 L16.4837209,23.627907 L3.46046512,36.6511628 L3.46046512,3.1627907 L29.5069767,3.1627907 L29.5069767,3.1627907 Z M29.5069767,0.372093023 L3.46046512,0.372093023 C1.91920535,0.372093023 0.669767442,1.62153093 0.669767442,3.1627907 L0.669767442,36.6511628 C0.670759569,37.7791317 1.35067926,38.7955935 2.39284274,39.2271143 C3.43500622,39.6586351 4.63446765,39.4203546 5.43255814,38.6232558 L16.4837209,27.3488372 L27.5348837,38.6232558 C28.3329742,39.4203546 29.5324356,39.6586351 30.5745991,39.2271143 C31.6167626,38.7955935 32.2966823,37.7791317 32.2976744,36.6511628 L32.2976744,3.1627907 C32.2976744,1.62153093 31.0482365,0.372093023 29.5069767,0.372093023 Z" id="Shape"></path>
        </g>
    </g>
</svg>