<?xml version="1.0" encoding="UTF-8"?>
<svg width="50px" height="50px" viewBox="0 0 50 50" version="1.1" xmlns="http://www.w3.org/2000/svg" xmlns:xlink="http://www.w3.org/1999/xlink">
    <!-- Generator: Sketch 51.2 (57519) - http://www.bohemiancoding.com/sketch -->
    <title>wp-6-strategy</title>
    <desc>Created with Sketch.</desc>
    <defs></defs>
    <g id="wp-6-strategy" stroke="none" stroke-width="1" fill="none" fill-rule="evenodd">
        <g id="Group" fill-rule="nonzero">
            <rect id="Rectangle-3" x="0" y="0" width="50" height="50"></rect>
            <g id="strategy" transform="translate(8.000000, 0.000000)">
                <path d="M1.60690476,36.4364286 C1.59678571,36.487449 1.59678571,36.5384694 1.59678571,36.5894898 C1.59678571,36.6507143 1.59678571,36.7527551 1.58666667,36.7935714 C1.17178571,38.1915306 1.51583333,39.3445918 2.62892857,40.3445918 C3.06404762,40.7221429 3.24619048,41.2731633 3.15511905,41.8547959 C3.04380952,42.487449 2.62892857,43.0078571 2.03190476,43.242551 C2.02178571,43.242551 2.01166667,43.2527551 2.00154762,43.2527551 C0.928928571,43.7119388 0.3825,44.4670408 0.311666667,45.5486735 C0.291428571,45.8343878 0.240833333,46.1507143 0.200357143,46.4772449 C0.149761905,46.8241837 0.0991666667,47.1813265 0.0688095238,47.5282653 C-0.00202380952,48.2323469 0.139642857,48.8139796 0.503928571,49.2527551 C0.868214286,49.6915306 1.4247619,49.9364286 2.14321429,49.9772449 C2.16345238,49.9772449 2.18369048,49.9772449 2.20392857,49.9772449 L30.9116667,49.9772449 C30.9521429,49.9772449 30.992619,49.9772449 31.0432143,49.9772449 C31.1039286,49.9772449 31.1545238,49.9772449 31.2152381,49.9772449 C31.5896429,49.9772449 32.0652381,49.9262245 32.5205952,49.5588776 C33.117619,49.109898 33.4009524,48.3956122 33.2997619,47.5792857 C33.2491667,47.1609184 33.1884524,46.7527551 33.117619,46.3445918 C33.0569048,45.9364286 32.9961905,45.5588776 32.9455952,45.1711224 C32.9455952,45.1507143 32.9354762,45.120102 32.9354762,45.0996939 C32.7027381,43.9568367 31.9741667,43.5078571 31.3872619,43.3241837 C30.77,43.1507143 30.3146429,42.609898 30.1830952,41.9364286 C30.122381,41.5894898 30.0616667,40.7017347 30.9521429,40.0180612 C31.6705952,39.5282653 31.9944048,38.7935714 31.9134524,37.9160204 C31.8628571,37.2323469 31.7616667,36.5486735 31.6604762,35.8956122 C31.4884524,34.7119388 30.7194048,34.0282653 29.5253571,34.0282653 L4.32892857,34.0282653 C2.4872619,34.0792857 1.87,34.609898 1.60690476,36.4364286 Z M29.6366667,36.0995918 C29.6467857,36.1302041 29.6569048,36.1812245 29.6670238,36.242449 C29.7682143,36.8853061 29.8592857,37.497551 29.909881,38.1302041 C29.930119,38.3036735 29.8997619,38.3240816 29.8086905,38.3853061 C29.7884524,38.3955102 29.7783333,38.4057143 29.7580952,38.4159184 C28.5134524,39.364898 27.9265476,40.8342857 28.209881,42.3342857 C28.4729762,43.7730612 29.484881,44.9057143 30.8205952,45.2934694 C30.8914286,45.3138776 30.9217857,45.3240816 30.9622619,45.4873469 C31.0128571,45.8853061 31.0735714,46.2934694 31.1342857,46.6812245 C31.195,47.0893878 31.2557143,47.4669388 31.3063095,47.8546939 C31.3164286,47.9057143 31.3063095,47.9465306 31.3063095,47.9669388 C31.2759524,47.9669388 31.1747619,47.9669388 31.0836905,47.9669388 C31.0229762,47.9669388 30.972381,47.9669388 30.9116667,47.9669388 L2.23428571,47.9669388 C2.14321429,47.9567347 2.09261905,47.9465306 2.05214286,47.9363265 C2.05214286,47.8955102 2.05214286,47.8342857 2.0622619,47.7322449 C2.0622619,47.7220408 2.0622619,47.7118367 2.0622619,47.7016327 C2.0825,47.4159184 2.13309524,47.0995918 2.17357143,46.7730612 C2.22416667,46.4261224 2.2747619,46.0689796 2.30511905,45.6914286 C2.32535714,45.4159184 2.34559524,45.2934694 2.78071429,45.1097959 C4.02535714,44.6097959 4.90571429,43.5179592 5.12833333,42.1914286 C5.34083333,40.9159184 4.90571429,39.6608163 3.95452381,38.8240816 C3.36761905,38.3036735 3.3372619,37.9465306 3.50928571,37.3853061 C3.5902381,37.12 3.60035714,36.8546939 3.60035714,36.6608163 C3.64083333,36.364898 3.68130952,36.2118367 3.71166667,36.12 C3.81285714,36.1097959 3.995,36.0893878 4.33904762,36.0893878 L29.5253571,36.0893878 C29.5658333,36.0995918 29.6063095,36.0995918 29.6366667,36.0995918 Z" id="Shape" fill="#333"></path>
                <path d="M11.0682143,43.0485714 L22.27,43.0485714 C22.8265476,43.0485714 23.2717857,42.5995918 23.2717857,42.0383673 C23.2717857,41.4771429 22.8265476,41.0281633 22.27,41.0281633 L11.0682143,41.0281633 C10.5116667,41.0281633 10.0664286,41.4771429 10.0664286,42.0383673 C10.0664286,42.5995918 10.5217857,43.0485714 11.0682143,43.0485714 Z" id="Shape" fill="#333"></path>
                <path d="M4.52119048,20.6507143 C4.46047619,21.7221429 4.45035714,22.7935714 4.45035714,23.8241837 C4.45035714,24.4976531 4.4402381,25.1915306 4.42,25.8854082 C4.42,25.8956122 4.42,25.9058163 4.42,25.9160204 L4.42,29.1609184 C4.42,30.5690816 5.51285714,31.6711224 6.90928571,31.6711224 L20.8229762,31.6711224 L26.9854762,31.7731633 C28.3009524,31.7731633 29.3229762,30.7629592 29.3229762,29.4670408 L29.3229762,27.2629592 C29.3229762,25.8139796 28.5944048,24.487449 27.3497619,23.7017347 C27.3396429,23.6915306 25.7408333,22.6915306 23.9396429,21.109898 C23.5247619,20.742551 22.8872619,20.7833673 22.5229762,21.2119388 C22.1586905,21.6303061 22.1991667,22.2731633 22.6241667,22.6405102 C24.5771429,24.3547959 26.297381,25.4262245 26.297381,25.4262245 C26.945,25.8343878 27.3194048,26.5078571 27.3194048,27.2731633 L27.3194048,29.4772449 C27.3194048,29.6915306 27.1372619,29.7629592 26.9955952,29.7629592 L20.8330952,29.6609184 L6.90928571,29.6609184 C6.61583333,29.6609184 6.42357143,29.4670408 6.42357143,29.1711224 L6.42357143,25.9364286 C6.44380952,25.2323469 6.44380952,24.5282653 6.45392857,23.8445918 C6.46404762,22.7935714 6.46404762,21.8037755 6.5247619,20.7629592 C6.63607143,18.242551 6.90928571,16.1405102 7.395,14.1507143 C7.85035714,12.2323469 8.4372619,10.2221429 9.67178571,8.49765306 C10.8860714,6.73234694 12.0295238,6.04867347 13.6182143,6.12010204 C15.6319048,6.18132653 17.0890476,5.32418367 17.9592857,3.57928571 C18.242619,3.02826531 18.6979762,2.59969388 19.3253571,2.29357143 C19.3152381,3.98744898 20.0842857,5.43642857 21.6122619,6.60989796 C23.2717857,7.90581633 24.9211905,9.21193878 26.5705952,10.5078571 C28.22,11.8037755 29.8694048,13.109898 31.5289286,14.4058163 C31.8122619,14.6303061 31.9235714,14.8037755 31.9336905,14.8854082 C31.9438095,14.9670408 31.8830952,15.1507143 31.6705952,15.4262245 L30.0515476,17.3445918 C29.3735714,18.0894898 28.8170238,18.1915306 27.9569048,17.7221429 C27.9467857,17.7221429 27.9366667,17.7119388 27.9265476,17.7119388 C27.4408333,17.4670408 26.9955952,17.242551 26.6009524,16.9772449 C26.5908333,16.9670408 26.5807143,16.9670408 26.5807143,16.9568367 C25.6092857,16.3445918 24.4557143,16.1609184 23.2515476,16.4262245 C23.2414286,16.4262245 23.2313095,16.4364286 23.2211905,16.4364286 C22.0777381,16.7323469 21.0455952,16.487449 19.9729762,15.6711224 L19.2444048,15.0792857 C18.8092857,14.7323469 18.1819048,14.8037755 17.8378571,15.2323469 C17.4938095,15.6711224 17.5646429,16.3037755 17.9896429,16.6507143 L18.7283333,17.2527551 C18.7384524,17.2629592 18.7384524,17.2629592 18.7485714,17.2731633 C20.3069048,18.4670408 21.9765476,18.8445918 23.6967857,18.4058163 C24.3747619,18.2629592 24.9819048,18.3445918 25.4979762,18.6711224 C25.9836905,18.9976531 26.509881,19.2629592 27.0158333,19.5180612 C28.7057143,20.4262245 30.2235714,20.1507143 31.5390476,18.7017347 C31.5491667,18.6915306 31.5592857,18.6813265 31.5592857,18.6711224 L33.1985714,16.7221429 C33.2086905,16.7119388 33.2086905,16.7017347 33.2188095,16.6915306 C33.7652381,15.987449 33.9979762,15.3241837 33.9069048,14.6405102 C33.8259524,13.9670408 33.4414286,13.3752041 32.7432143,12.8139796 C31.0836905,11.5180612 29.4342857,10.2119388 27.784881,8.91602041 C26.1354762,7.62010204 24.4860714,6.31397959 22.8164286,5.00785714 C21.6021429,4.07928571 21.1467857,3.01806122 21.3694048,1.68132653 C21.3694048,1.66091837 21.3795238,1.6405102 21.3795238,1.63030612 C21.4604762,0.895612245 21.1265476,0.48744898 20.9140476,0.313979592 C20.6509524,0.0894897959 20.1652381,-0.135 19.3961905,0.0996938776 C17.9289286,0.548673469 16.8158333,1.42622449 16.1783333,2.66091837 C15.6521429,3.71193878 14.9134524,4.1405102 13.6991667,4.09969388 C10.7646429,3.96704082 9.12535714,5.7527551 8.0325,7.31397959 C6.59559524,9.31397959 5.91761905,11.6507143 5.44202381,13.6609184 C4.92595238,15.7833673 4.6325,18.0078571 4.52119048,20.6507143 Z" id="Shape" fill="#323336"></path>
            </g>
        </g>
    </g>
</svg>