<?xml version="1.0" encoding="UTF-8"?>
<svg width="40px" height="40px" viewBox="0 0 40 40" version="1.1" xmlns="http://www.w3.org/2000/svg" xmlns:xlink="http://www.w3.org/1999/xlink">
    <!-- Generator: Sketch 58 (84663) - https://sketch.com -->
    <title>Connection line</title>
    <desc>Created with Sketch.</desc>
    <g id="Connection-line" stroke="none" stroke-width="1" fill="none" fill-rule="evenodd">
        <g id="Shape-2" transform="translate(0.000000, 5.000000)" fill="#1A1A1A" fill-rule="nonzero" stroke="#1A1A1A" stroke-width="0.8">
            <path d="M24.5916667,22.235 L20,21.0883333 L19.815,20.35 C22.9583333,19.7866667 24.59,18.8383333 24.6633333,18.795 C24.8983333,18.6566667 25.045,18.4066667 25.065,18.135 C25.085,17.8633333 24.9633333,17.5933333 24.7516667,17.4216667 C24.73,17.405 22.61,15.6183333 22.61,9.45666667 C22.61,3.99833333 21.2933333,1.23166667 18.6966667,1.23166667 L18.42,1.23166667 C17.54,0.395 16.8083333,0 15,0 C12.6166667,0 7.39166667,2.38166667 7.39166667,9.45666667 C7.39166667,15.6183333 5.27,17.405 5.26166667,17.4133333 C5.03833333,17.5783333 4.915,17.845 4.92833333,18.1216667 C4.94333333,18.3983333 5.09333333,18.65 5.33166667,18.7933333 C5.405,18.8383333 7.02166667,19.7933333 10.185,20.355 L10.0016667,21.0883333 L5.41,22.2366667 C2.22333333,23.0316667 -5.32907052e-15,25.8816667 -5.32907052e-15,29.1666667 C-5.32907052e-15,29.3883333 0.0866666667,29.6016667 0.243333333,29.7566667 C0.4,29.9116667 0.613333333,30 0.833333333,30 L29.1666667,29.9966667 C29.6266667,29.9966667 30,29.6233333 30,29.1633333 C30,25.8816667 27.7766667,23.0316667 24.5916667,22.235 Z M1.73,28.33 C2.05833333,26.1766667 3.645,24.395 5.81333333,23.8516667 L10.89,22.5833333 C11.1883333,22.5083333 11.4233333,22.275 11.4966667,21.9766667 L12.0216667,19.875 C12.08,19.645 12.0366667,19.4033333 11.905,19.2066667 C11.7716667,19.0116667 11.5633333,18.8816667 11.3283333,18.8483333 C9.36333333,18.5766667 7.95666667,18.125 7.11666667,17.7916667 C7.94666667,16.59 9.05833333,14.11 9.05833333,9.45666667 C9.05833333,3.05333333 13.82,1.66666667 15,1.66666667 C16.4383333,1.66666667 16.7233333,1.88833333 17.4883333,2.655 C17.645,2.81 17.8566667,2.89833333 18.0783333,2.89833333 L18.695,2.89833333 C20.1233333,2.89833333 20.9416667,5.29 20.9416667,9.45666667 C20.9416667,14.1066667 22.0516667,16.5866667 22.88,17.7883333 C22.0366667,18.1216667 20.625,18.5716667 18.67,18.8466667 C18.4366667,18.8783333 18.2266667,19.01 18.095,19.205 C17.9633333,19.4016667 17.92,19.6433333 17.9783333,19.8733333 L18.5033333,21.9783333 C18.5783333,22.2766667 18.8116667,22.5116667 19.11,22.585 L24.1866667,23.8533333 C26.3533333,24.395 27.94,26.1783333 28.27,28.3333333 L1.73,28.33 Z" id="Shape"></path>
            <path d="M36.275,16.73 L33.475,16.03 L33.475,16.0266667 C35.3616667,15.6483333 36.355,15.0716667 36.4016667,15.0433333 C36.6333333,14.9066667 36.7766667,14.6583333 36.7983333,14.3883333 C36.8216667,14.12 36.7033333,13.8483333 36.4966667,13.675 C36.4833333,13.6633333 35.2166667,12.5483333 35.2166667,8.74666667 C35.2166667,5.02 34.265,3.13166667 32.39,3.13166667 L32.3266667,3.13166667 C31.7116667,2.57166667 31.1683333,2.33333333 30,2.33333333 C28.3666667,2.33333333 24.7833333,3.94833333 24.785,8.74666667 C24.785,9.70666667 24.7016667,10.5866667 24.5366667,11.3583333 C24.4416667,11.8083333 24.7283333,12.25 25.1783333,12.3466667 C25.6266667,12.4366667 26.07,12.1566667 26.1666667,11.705 C26.3533333,10.82 26.45,9.82333333 26.45,8.74666667 C26.45,4.845 29.295,4 30,4 C30.85,4 30.9566667,4.10666667 31.4016667,4.55333333 C31.5583333,4.70833333 31.77,4.79666667 31.9916667,4.79666667 L32.39,4.79666667 C33.105,4.79666667 33.55,6.31 33.55,8.745 C33.55,11.455 34.1333333,13.075 34.6616667,13.985 C34.1233333,14.1733333 33.3433333,14.3883333 32.3333333,14.53 C32.1,14.5616667 31.89,14.6933333 31.7583333,14.8883333 C31.6266667,15.085 31.5833333,15.3266667 31.6416667,15.5566667 L31.9816667,16.9183333 C32.0566667,17.2166667 32.29,17.4516667 32.5883333,17.525 L35.8733333,18.3466667 C37.045,18.64 37.93,19.5416667 38.2266667,20.6666667 C34.6736422,20.6666667 32.0088738,20.6666667 30.2323615,20.6666667 C30.0893521,20.6666667 29.3970931,20.7782365 29.3970931,21.4983333 C29.3970931,22.2533637 30.0843894,22.3333333 30.2249174,22.3333333 C32.2119728,22.3329296 35.1925559,22.3323741 39.1666667,22.3316667 C39.6266667,22.3316667 40,21.9583333 40,21.4983333 C40,19.2383333 38.47,17.2783333 36.275,16.73 Z" id="Path"></path>
        </g>
    </g>
</svg>