<?xml version="1.0" encoding="UTF-8"?>
<svg width="40px" height="40px" viewBox="0 0 40 40" version="1.1" xmlns="http://www.w3.org/2000/svg" xmlns:xlink="http://www.w3.org/1999/xlink">
    <!-- Generator: Sketch 58 (84663) - https://sketch.com -->
    <title>Contact Info</title>
    <desc>Created with Sketch.</desc>
    <g id="Contact-Info" stroke="none" stroke-width="1" fill="none" fill-rule="evenodd">
        <g id="noun_contact-info_548603" transform="translate(0.000000, 3.000000)" fill="#000000" fill-rule="nonzero">
            <path d="M39.5633229,17.2752803 C39.5633229,20.9475705 38.2185406,24.5681382 35.7358656,27.5163148 C36.2530895,28.4990403 36.9254807,29.3265986 37.8047614,29.895545 C38.4254302,30.3093242 38.7357646,31.0334377 38.5805974,31.8092737 C38.4254302,32.5851096 37.8564838,33.1023336 37.0806479,33.2057784 C36.4599791,33.3092232 35.8393104,33.3609456 35.2186416,33.3609456 C33.304913,33.3609456 31.5463515,32.9471664 29.9429572,32.1713304 C26.9430582,33.7230023 23.5811025,34.5505607 20.0639795,34.5505607 C9.30572112,34.5505607 0.616358555,26.8439236 0.616358555,17.3270027 C0.616358555,7.81008183 9.35744351,0.103187671 20.0639795,0.103187671 C30.8222379,0.0517223962 39.5633229,7.81008183 39.5633229,17.2752803 Z M36.9772031,17.2752803 C36.9772031,9.20658652 29.4257332,2.63784221 20.1157019,2.63784221 C10.8056706,2.63784221 3.25420076,9.20658652 3.25420076,17.2752803 C3.25420076,25.3439741 10.8056706,31.9127185 20.1157019,31.9127185 C23.4259353,31.9127185 26.5810014,31.0851601 29.3740108,29.5334882 C29.78779,29.3265986 30.2532916,29.3265986 30.6670707,29.5334882 C31.8566859,30.2576018 33.2531906,30.6713809 34.8565848,30.7231033 C34.0807489,29.895545 33.5118025,28.9128195 33.046301,27.7232044 C32.8911338,27.2577028 32.9945786,26.7404788 33.304913,26.3784221 C35.6841432,23.7923023 36.9772031,20.6372361 36.9772031,17.2752803 Z" id="Shape"></path>
        </g>
        <path d="M20.4035088,17 C19.6283723,17 19,17.6283723 19,18.4035088 L19,27.502924 C19,28.2780605 19.6283723,28.9064327 20.4035088,28.9064327 C21.1786453,28.9064327 21.8070175,28.2780605 21.8070175,27.502924 L21.8070175,18.4035088 C21.8070175,17.6283723 21.1786453,17 20.4035088,17 Z" id="Shape" fill="#000000"></path>
        <circle id="Oval" fill="#000000" cx="20.4035088" cy="12.4035088" r="1.40350877"></circle>
    </g>
</svg>