<?xml version="1.0" encoding="UTF-8"?>
<svg width="40px" height="40px" viewBox="0 0 40 40" version="1.1" xmlns="http://www.w3.org/2000/svg" xmlns:xlink="http://www.w3.org/1999/xlink">
    <!-- Generator: Sketch 58 (84663) - https://sketch.com -->
    <title>Copy post</title>
    <desc>Created with Sketch.</desc>
    <g id="Copy-post" stroke="none" stroke-width="1" fill="none" fill-rule="evenodd">
        <g id="noun_copy_1087146" transform="translate(6.000000, 1.000000)" fill="#000000" fill-rule="nonzero" stroke="#000000" stroke-width="1.02631579">
            <path d="M7.97727273,0 C6.51946824,0 5.31818182,1.20128624 5.31818182,2.65909091 L5.31818182,7.09090909 L2.65909091,7.09090909 C1.20128642,7.09090909 0,8.29219551 0,9.75 L0,36.3409091 C0,37.7987136 1.20128642,39 2.65909091,39 L20.3863636,39 C21.8441681,39 23.0454545,37.7987136 23.0454545,36.3409091 L23.0454545,31.9090909 L25.7045455,31.9090909 C27.1623499,31.9090909 28.3636364,30.7078045 28.3636364,29.25 L28.3636364,8.86363636 C28.3617582,8.62927781 28.2671476,8.40519999 28.1004972,8.24041193 L20.1232244,0.263139205 C19.9584364,0.0964888086 19.7343586,0.00187817418 19.5,0 L7.97727273,0 Z M7.97727273,1.77272727 L18.6136364,1.77272727 L18.6136364,8.86363636 C18.6136852,9.35314127 19.0104951,9.7499512 19.5,9.75 L26.5909091,9.75 L26.5909091,29.25 C26.5909091,29.7563773 26.2109228,30.1363636 25.7045455,30.1363636 L7.97727273,30.1363636 C7.4708954,30.1363636 7.09090909,29.7563773 7.09090909,29.25 L7.09090909,2.65909091 C7.09090909,2.15271358 7.4708954,1.77272727 7.97727273,1.77272727 Z M20.3863636,3.01917614 L25.3444602,7.97727273 L20.3863636,7.97727273 L20.3863636,3.01917614 Z M2.65909091,8.86363636 L5.31818182,8.86363636 L5.31818182,29.25 C5.31818182,30.7078045 6.51946824,31.9090909 7.97727273,31.9090909 L21.2727273,31.9090909 L21.2727273,36.3409091 C21.2727273,36.8472864 20.892741,37.2272727 20.3863636,37.2272727 L2.65909091,37.2272727 C2.15271358,37.2272727 1.77272727,36.8472864 1.77272727,36.3409091 L1.77272727,9.75 C1.77272727,9.24362267 2.15271358,8.86363636 2.65909091,8.86363636 Z" id="Shape"></path>
        </g>
    </g>
</svg>