<?xml version="1.0" encoding="UTF-8"?>
<svg width="40px" height="40px" viewBox="0 0 40 40" version="1.1" xmlns="http://www.w3.org/2000/svg" xmlns:xlink="http://www.w3.org/1999/xlink">
    <!-- Generator: Sketch 58 (84663) - https://sketch.com -->
    <title>Create post</title>
    <desc>Created with Sketch.</desc>
    <g id="Create-post" stroke="none" stroke-width="1" fill="none" fill-rule="evenodd">
        <g id="column" transform="translate(1.000000, 1.000000)" fill="#000000" fill-rule="nonzero" stroke="#000000">
            <path d="M25.9590089,1.222333 C27.5888235,-0.407444335 30.2305942,-0.407444335 31.8604088,1.222333 L31.8604088,1.222333 L36.7785083,6.14031994 L36.9264922,6.29597548 C38.4063461,7.93377946 38.3573986,10.462174 36.7721622,12.0511977 L36.7721622,12.0511977 L33.656,15.067 L14.3846862,34.4221758 C14.3124105,34.5268364 14.2103342,34.6131248 14.0826524,34.6658917 L13.9821556,34.6989449 L0.864959296,37.9785934 C0.38737725,38.0980017 -0.0480534237,37.6999416 0.00428319469,37.2299646 L0.0213861166,37.1351424 L3.29941148,24.0182463 C3.33087256,23.8923559 3.39240852,23.7862543 3.47305696,23.7029786 L3.47480803,23.6988056 L22.9030841,4.37558319 Z M4.348,25.558 L1.65213335,36.3477876 L12.4527532,33.6473449 L11.276,32.471 L4.348,25.558 Z M23.392,5.851 L4.957,24.185 L12.226,31.453 L13.8067784,33.0309418 L32.15,14.608 L23.392,5.851 Z M30.8766838,2.20603547 C29.7901655,1.119542 28.0292522,1.119542 26.9503842,2.19826443 L26.9503842,2.19826443 L24.383,4.847 L33.409,13.37 L35.7958669,11.0601959 C36.8363747,10.0171067 36.8793434,8.35601896 35.9249284,7.26323856 L35.7947833,7.12402241 Z" id="Combined-Shape"></path>
        </g>
    </g>
</svg>