<?xml version="1.0" encoding="UTF-8"?>
<svg width="40px" height="40px" viewBox="0 0 40 40" version="1.1" xmlns="http://www.w3.org/2000/svg" xmlns:xlink="http://www.w3.org/1999/xlink">
    <!-- Generator: Sketch 58 (84663) - https://sketch.com -->
    <title>Create poll</title>
    <desc>Created with Sketch.</desc>
    <g id="Create-poll" stroke="none" stroke-width="1" fill="none" fill-rule="evenodd">
        <g id="Group-28" transform="translate(3.000000, 0.000000)" fill="#4f439a" fill-rule="nonzero">
            <path d="M32.875,0 L3.125,0 C1.96130952,0 1,0.868571429 1,1.92 L1,6.08 C1,7.13142857 1.96130952,8 3.125,8 L32.875,8 C34.0386905,8 35,7.13142857 35,6.08 L35,1.92 C35,0.868571429 34.0386905,0 32.875,0 Z M33.4315476,6.08 C33.4315476,6.35428571 33.1785714,6.53714286 32.9255952,6.53714286 L3.125,6.53714286 C2.82142857,6.53714286 2.61904762,6.30857143 2.61904762,6.08 L2.61904762,1.92 C2.61904762,1.64571429 2.87202381,1.46285714 3.125,1.46285714 L32.875,1.46285714 C33.1785714,1.46285714 33.3809524,1.69142857 33.3809524,1.92 L33.3809524,6.08 L33.4315476,6.08 Z" id="Shape" stroke="#000000" stroke-width="0.5"></path>
            <path d="M3.12038835,15.75 L24.8796117,15.75 C26.1358633,15.75 27.1612705,16.6166593 27.2445401,17.7682275 L27.25,17.92 L27.25,22.08 C27.25,23.2255349 26.2614465,24.1683953 25.0401667,24.2449782 L24.8796117,24.25 L3.12038835,24.25 C1.88030027,24.25 0.840076432,23.3548702 0.755544042,22.2282137 L0.75,22.08 L0.75,17.92 C0.75,16.7744651 1.7385535,15.8316047 2.9598333,15.7550218 L3.12038835,15.75 L24.8796117,15.75 L3.12038835,15.75 Z M24.8796117,17.6671429 L3.12038835,17.6671429 C2.97955576,17.6671429 2.86553398,17.7635059 2.86553398,17.8742857 L2.86553398,22.0342857 C2.86553398,22.13939 2.97070966,22.2414286 3.12038835,22.2414286 L24.9300971,22.2414286 C25.0137893,22.2414286 25.0880133,22.2073976 25.134466,22.1565335 L25.134466,17.8742857 C25.134466,17.7691814 25.0292903,17.6671429 24.8796117,17.6671429 Z" id="Shape"></path>
            <path d="M16.8882682,32 L3.11173184,32 C1.95530726,32 1,32.8685714 1,33.92 L1,38.08 C1,39.1314286 1.95530726,40 3.11173184,40 L16.8882682,40 C18.0446927,40 19,39.1314286 19,38.08 L19,33.92 C19,32.8685714 18.0446927,32 16.8882682,32 Z M17.4413408,38.08 C17.4413408,38.3542857 17.1899441,38.5371429 16.9385475,38.5371429 L3.11173184,38.5371429 C2.81005587,38.5371429 2.60893855,38.3085714 2.60893855,38.08 L2.60893855,33.92 C2.60893855,33.6457143 2.8603352,33.4628571 3.11173184,33.4628571 L16.8882682,33.4628571 C17.1899441,33.4628571 17.3910615,33.6914286 17.3910615,33.92 L17.3910615,38.08 L17.4413408,38.08 Z" id="Shape" stroke="#000000" stroke-width="0.5"></path>
        </g>
        <ellipse id="Oval" fill="#F00000" cx="18" cy="5.5" rx="2" ry="1.5"></ellipse>
    </g>
</svg>