<?xml version="1.0" encoding="UTF-8"?>
<svg width="40px" height="40px" viewBox="0 0 40 40" version="1.1" xmlns="http://www.w3.org/2000/svg" xmlns:xlink="http://www.w3.org/1999/xlink">
    <!-- Generator: Sketch 58 (84663) - https://sketch.com -->
    <title>Cross</title>
    <desc>Created with Sketch.</desc>
    <g id="Cross" stroke="none" stroke-width="1" fill="none" fill-rule="evenodd">
        <g id="Add" transform="translate(20.000000, 20.000000) rotate(45.000000) translate(-20.000000, -20.000000) " fill="#000000">
            <path d="M37.6615385,18.8717949 L21.2512821,18.8717949 L21.2512821,2.46153846 C21.2512821,1.61186962 20.5624894,0.923076923 19.7128205,0.923076923 C18.8631517,0.923076923 18.174359,1.61186962 18.174359,2.46153846 L18.174359,18.8717949 L1.76410256,18.8717949 C0.914433718,18.8717949 0.225641026,19.5605876 0.225641026,20.4102564 C0.225641026,21.2599253 0.914433718,21.9487179 1.76410256,21.9487179 L18.174359,21.9487179 L18.174359,38.3589744 C18.174359,39.2086432 18.8631517,39.8974359 19.7128205,39.8974359 C20.5624894,39.8974359 21.2512821,39.2086432 21.2512821,38.3589744 L21.2512821,21.9487179 L37.6615385,21.9487179 C38.5112073,21.9487179 39.2,21.2599253 39.2,20.4102564 C39.2,19.5605876 38.5112073,18.8717949 37.6615385,18.8717949 L37.6615385,18.8717949 Z" id="Shape"></path>
        </g>
    </g>
</svg>