<?xml version="1.0" encoding="UTF-8"?>
<svg width="40px" height="40px" viewBox="0 0 40 40" version="1.1" xmlns="http://www.w3.org/2000/svg" xmlns:xlink="http://www.w3.org/1999/xlink">
    <!-- Generator: Sketch 58 (84663) - https://sketch.com -->
    <title>Date</title>
    <desc>Created with Sketch.</desc>
    <g id="Date" stroke="none" stroke-width="1" fill="none" fill-rule="evenodd">
        <path d="M9.69687964,40 L31.3031204,40 C35.5364042,40 39,36.6578249 39,32.5729443 L39,11.4058355 C39,7.32095491 35.5364042,3.97877984 31.3031204,3.97877984 L29.8736999,3.97877984 L29.8736999,1.06100796 C29.8736999,0.477453581 29.3789004,0 28.7741456,0 C28.1693908,0 27.6745914,0.477453581 27.6745914,1.06100796 L27.6745914,3.97877984 L13.3254086,3.97877984 L13.3254086,1.06100796 C13.3254086,0.477453581 12.8306092,0 12.2258544,0 C11.6210996,0 11.1263001,0.477453581 11.1263001,1.06100796 L11.1263001,3.97877984 L9.69687964,3.97877984 C5.46359584,3.97877984 2,7.32095491 2,11.4058355 L2,32.5198939 C2,36.6578249 5.46359584,40 9.69687964,40 Z M9.69687964,6.10079576 L11.1263001,6.10079576 L11.1263001,10.0795756 C11.1263001,10.66313 11.6210996,11.1405836 12.2258544,11.1405836 C12.8306092,11.1405836 13.3254086,10.66313 13.3254086,10.0795756 L13.3254086,6.10079576 L27.7295691,6.10079576 L27.7295691,10.0795756 C27.7295691,10.66313 28.2243685,11.1405836 28.8291233,11.1405836 C29.4338782,11.1405836 29.9286776,10.66313 29.9286776,10.0795756 L29.9286776,6.10079576 L31.3580981,6.10079576 C34.3818722,6.10079576 36.8558692,8.48806366 36.8558692,11.4058355 L36.8558692,15.7029178 L4.19910847,15.7029178 L4.19910847,11.4058355 C4.19910847,8.48806366 6.6731055,6.10079576 9.69687964,6.10079576 Z M4.19910847,17.8249337 L36.8008915,17.8249337 L36.8008915,32.5198939 C36.8008915,35.4376658 34.3268945,37.8249337 31.3031204,37.8249337 L9.69687964,37.8249337 C6.6731055,37.8249337 4.19910847,35.4376658 4.19910847,32.5198939 L4.19910847,17.8249337 Z" id="Shape" stroke="#000000" stroke-width="0.5" fill="#000000"></path>
    </g>
</svg>