<?xml version="1.0" encoding="UTF-8"?>
<svg width="40px" height="40px" viewBox="0 0 40 40" version="1.1" xmlns="http://www.w3.org/2000/svg" xmlns:xlink="http://www.w3.org/1999/xlink">
    <!-- Generator: Sketch 58 (84663) - https://sketch.com -->
    <title>Delete</title>
    <desc>Created with Sketch.</desc>
    <g id="Delete" stroke="none" stroke-width="1" fill="none" fill-rule="evenodd">
        <g id="Trash" transform="translate(3.000000, 0.000000)" fill="#000000">
            <path d="M33.5288889,6.57777778 L25.9022222,6.57777778 C24.5862887,3.09502821 21.2519556,0.790474343 17.5288889,0.790474343 C13.8058222,0.790474343 10.4714891,3.09502821 9.15555556,6.57777778 L1.52888889,6.57777778 C0.792509222,6.57777778 0.195555556,7.17473144 0.195555556,7.91111111 C0.195555556,8.64749078 0.792509222,9.24444444 1.52888889,9.24444444 L2.41777778,9.24444444 L2.41777778,36.8 C2.41777778,38.2727593 3.61168511,39.4666667 5.08444444,39.4666667 L29.0844444,39.4666667 C30.5572038,39.4666667 31.7511111,38.2727593 31.7511111,36.8 L31.7511111,9.24444444 L33.5288889,9.24444444 C34.2652686,9.24444444 34.8622222,8.64749078 34.8622222,7.91111111 C34.8622222,7.17473144 34.2652686,6.57777778 33.5288889,6.57777778 L33.5288889,6.57777778 Z M17.5288889,3.46666667 C19.9555556,3.46666667 22.0622222,4.35555556 23.1022222,6.57777778 L11.9555556,6.57777778 C12.9955556,4.34666667 15.1022222,3.46666667 17.5288889,3.46666667 Z M29.0844444,36.8 L25.5288889,36.8 L25.5288889,21.6888889 C25.5288889,20.9525092 24.9319352,20.3555556 24.1955556,20.3555556 C23.4591759,20.3555556 22.8622222,20.9525092 22.8622222,21.6888889 L22.8622222,36.8 L18.4177778,36.8 L18.4177778,16.3555556 C18.4177778,15.6191759 17.8208241,15.0222222 17.0844444,15.0222222 C16.3480648,15.0222222 15.7511111,15.6191759 15.7511111,16.3555556 L15.7511111,36.8 L11.3066667,36.8 L11.3066667,21.6888889 C11.3066667,20.9525092 10.709713,20.3555556 9.97333333,20.3555556 C9.23695367,20.3555556 8.64,20.9525092 8.64,21.6888889 L8.64,36.8 L5.08444444,36.8 L5.08444444,9.24444444 L29.0844444,9.24444444 L29.0844444,36.8 Z" id="Shape"></path>
        </g>
    </g>
</svg>