<?xml version="1.0" encoding="UTF-8"?>
<svg width="50px" height="50px" viewBox="0 0 50 50" version="1.1" xmlns="http://www.w3.org/2000/svg" xmlns:xlink="http://www.w3.org/1999/xlink">
    <!-- Generator: Sketch 51.2 (57519) - http://www.bohemiancoding.com/sketch -->
    <title>wp-5-branding</title>
    <desc>Created with Sketch.</desc>
    <defs></defs>
    <g id="wp-5-branding" stroke="none" stroke-width="1" fill="none" fill-rule="evenodd">
        <g id="Group-2" transform="translate(0.000000, -1.000000)" fill-rule="nonzero">
            <rect id="Rectangle-3" x="0" y="1" width="50" height="50"></rect>
            <g id="Group" transform="translate(4.000000, 0.370826)">
                <path d="M21.5001171,0.868040698 C22.0163293,0.868040698 22.4358314,1.28444949 22.4358314,1.79943605 L22.4358314,8.77618023 C22.4358314,9.29116679 22.0163293,9.70757558 21.5001171,9.70757558 C20.983905,9.70757558 20.5644029,9.29116679 20.5644029,8.77618023 L20.5644029,1.79943605 C20.5644029,1.28444949 20.983905,0.868040698 21.5001171,0.868040698 Z M4.51440286,6.90001744 C4.75847543,6.90001744 5.00306262,7.00579067 5.18198413,7.18330198 L10.1422545,12.1069963 C10.5088658,12.4709975 10.5088948,13.0575089 10.1422227,13.4213841 C9.77703031,13.7838836 9.1905854,13.7838836 8.82539301,13.4213841 L3.86512264,8.49768971 C3.49853144,8.13370849 3.49853144,7.54722157 3.86515444,7.18330198 C4.0457919,7.0039965 4.27099416,6.90001744 4.51440286,6.90001744 Z M38.4858314,6.90001744 C38.7292675,6.90001744 38.9545703,7.00403165 39.1350798,7.18330198 C39.5017028,7.54722157 39.5017028,8.13370849 39.1350798,8.49772128 L34.1748095,13.4214156 C33.8095607,13.7838783 33.2231987,13.7838783 32.8580116,13.4213841 C32.4913886,13.0574645 32.4913886,12.4709776 32.8580116,12.1069648 L37.8183137,7.18323888 C37.9971717,7.00579067 38.2417589,6.90001744 38.4858314,6.90001744 Z" id="Shape" fill="#333"></path>
                <path d="M9.05277151,16.3364732 C9.29184903,16.0765175 9.46927193,15.9750805 9.78559714,15.9843198 L33.2140523,15.9843198 C33.4947591,15.9842265 33.7682605,16.114524 33.9472285,16.3364732 L42.1450097,26.79877 C42.4202149,27.1427025 42.4075076,27.6637423 42.1135458,27.9966615 L22.2009129,50.0878962 C21.8426246,50.4910889 21.1573754,50.4910889 20.8007399,50.0897429 L0.884057641,27.9939751 C0.592492357,27.6637423 0.579785133,27.1427025 0.852771508,26.801572 L9.05277151,16.3364732 Z M11.128491,17.8471105 L13.9366134,25.5245051 L19.6331681,17.8471105 L11.128491,17.8471105 Z M29.0636209,25.5245051 L31.8717433,17.8471105 L23.3670662,17.8471105 L29.0636209,25.5245051 Z M15.5881978,26.4494186 L27.4120365,26.4494186 L21.5001171,18.484081 L15.5881978,26.4494186 Z M9.49015578,18.8072808 L3.49495501,26.4494186 L12.2868326,26.4494186 L9.49015578,18.8072808 Z M30.7316791,26.4494186 L39.5064713,26.4494186 L33.5280765,18.8081849 L30.7316791,26.4494186 Z M3.69069274,28.3122093 L19.3221953,45.6433904 L12.9642184,28.3122093 L3.69069274,28.3122093 Z M21.5001171,46.167786 L28.0458773,28.3122093 L14.954357,28.3122093 L21.5001171,46.167786 Z M23.6946778,45.6269161 L39.3095997,28.3122093 L30.0361546,28.3122093 L23.6946778,45.6269161 Z" id="Shape" fill="#333"></path>
            </g>
        </g>
    </g>
</svg>