<?xml version="1.0" encoding="UTF-8"?>
<svg width="40px" height="40px" viewBox="0 0 40 40" version="1.1" xmlns="http://www.w3.org/2000/svg" xmlns:xlink="http://www.w3.org/1999/xlink">
    <!-- Generator: Sketch 58 (84663) - https://sketch.com -->
    <title>Download profile</title>
    <desc>Created with Sketch.</desc>
    <g id="Download-profile" stroke="none" stroke-width="1" fill="none" fill-rule="evenodd">
        <g id="Group-3" transform="translate(6.000000, 1.000000)" fill="#000000" fill-rule="nonzero" stroke="#000000" stroke-width="0.5">
            <path d="M14.2468641,-1.0658141e-14 C13.3667382,-1.0658141e-14 12.6532552,0.713483036 12.6532552,1.59360896 L12.6532552,26.2945479 L2.72507133,16.3185558 C2.32226211,15.9157466 1.73515489,15.7584317 1.18490727,15.9058701 C0.63465965,16.0533085 0.204867335,16.4831008 0.057428929,17.0333484 C-0.0900094766,17.583596 0.0673054294,18.1707033 0.470114644,18.5735125 L13.1233698,31.2267677 C13.1976904,31.299348 13.2776186,31.3659548 13.3624112,31.4259688 L13.4261555,31.4259688 L13.6333247,31.5375214 L13.7289412,31.5375214 C13.7954784,31.5644513 13.8650465,31.5831812 13.9361104,31.5932977 C14.0393395,31.6054344 14.1436351,31.6054344 14.2468641,31.5932977 C14.3527785,31.6050731 14.4596716,31.6050731 14.5655859,31.5932977 C14.6338498,31.5821529 14.7006614,31.5634456 14.7647871,31.5375214 L14.8604036,31.5375214 L15.0675728,31.4259688 L15.1313171,31.4259688 L15.3783265,31.2267677 L28.0236136,18.5735125 C28.6463027,17.9508234 28.6463027,16.9412449 28.0236136,16.3185558 C27.4009245,15.6958667 26.391346,15.6958667 25.7686569,16.3185558 L15.8404731,26.2547077 L15.8404731,1.59360896 C15.8404731,0.713483036 15.1269901,-1.0658141e-14 14.2468641,-1.0658141e-14 Z" id="Path"></path>
            <path d="M1.59360896,38.3581678 L26.9001193,38.3581678 C27.7802452,38.3581678 28.4937283,37.6446847 28.4937283,36.7645588 C28.4937283,35.8844329 27.7802452,35.1709498 26.9001193,35.1709498 L1.59360896,35.1709498 C0.713483036,35.1709498 -3.99680289e-14,35.8844329 -3.99680289e-14,36.7645588 C-3.99680289e-14,37.6446847 0.713483036,38.3581678 1.59360896,38.3581678 Z" id="Path"></path>
        </g>
    </g>
</svg>