<?xml version="1.0" encoding="UTF-8"?>
<svg width="40px" height="40px" viewBox="0 0 40 40" version="1.1" xmlns="http://www.w3.org/2000/svg" xmlns:xlink="http://www.w3.org/1999/xlink">
    <!-- Generator: Sketch 58 (84663) - https://sketch.com -->
    <title>Edi profile</title>
    <desc>Created with Sketch.</desc>
    <g id="Edi-profile" stroke="none" stroke-width="1" fill="none" fill-rule="evenodd">
        <g id="Group-32">
            <circle id="Oval" fill="#EDECF5" cx="20" cy="20" r="20"></circle>
            <path d="M10.3451502,30.5263158 C10.4318887,30.5263158 10.5186272,30.5263158 10.5764529,30.4974469 L16.6192375,28.7364452 C16.9372788,28.6498385 17.2553201,28.4766252 17.4866228,28.2168053 L29.9480589,15.7743175 C30.3239259,15.3990221 30.5263158,14.8793822 30.5263158,14.3308735 C30.5263158,13.7823647 30.3239259,13.2915937 29.9480589,12.9162983 L27.0856873,10.0582791 C26.3050405,9.27881926 25.0039624,9.27881926 24.2233156,10.0582791 L11.7907924,22.5007668 C11.5594896,22.7317179 11.3860126,23.0492756 11.2703612,23.3668333 L9.50667766,29.4004294 C9.41993913,29.6891182 9.50667766,30.0355448 9.73798042,30.2664959 C9.91145749,30.4397091 10.1427602,30.5263158 10.3451502,30.5263158 Z M22.1705037,14.5906934 L25.4376551,17.852877 L16.8505402,26.4269347 L13.5833888,23.1647511 L22.1705037,14.5906934 Z M25.4954808,11.2707721 C25.5533065,11.2130343 25.640045,11.1841654 25.6978707,11.1841654 C25.7846093,11.1841654 25.8424349,11.2130343 25.9002606,11.2707721 L28.7626323,14.1287913 C28.8204579,14.2153979 28.8493708,14.3020046 28.8493708,14.3308735 C28.8493708,14.3597423 28.8493708,14.4752179 28.7626323,14.5329556 L26.6809074,16.6115151 L23.413756,13.3493315 L25.4954808,11.2707721 Z M12.6870906,24.6948018 L15.2892466,27.2930011 L11.6173153,28.3611497 L12.6870906,24.6948018 Z" id="Shape" fill="#4F439A" fill-rule="nonzero"></path>
        </g>
    </g>
</svg>