<?xml version="1.0" encoding="UTF-8"?>
<svg width="40px" height="40px" viewBox="0 0 40 40" version="1.1" xmlns="http://www.w3.org/2000/svg" xmlns:xlink="http://www.w3.org/1999/xlink">
    <!-- Generator: Sketch 58 (84663) - https://sketch.com -->
    <title>Events header</title>
    <desc>Created with Sketch.</desc>
    <g id="Events-header" stroke="none" stroke-width="1" fill="none" fill-rule="evenodd">
        <g id="events" stroke="#1A1A1A">
            <g id="Group" transform="translate(3.000000, 2.000000)">
                <path d="M34.0277026,13.1508894 L34.0277026,7.67519576 C34.025305,5.52204194 32.2804789,3.77713638 30.1273252,3.77464082 L29.1004661,3.77464082 L29.1004661,3.15852539 C29.0912274,1.41142475 27.6723193,-1.77635684e-15 25.9251942,-1.77635684e-15 C24.1780692,-1.77635684e-15 22.759161,1.41142475 22.7499223,3.15852539 L22.7499223,3.77464082 L11.2782242,3.77464082 L11.2782242,3.15852539 C11.2689855,1.41142475 9.85007734,-1.77635684e-15 8.10295228,-1.77635684e-15 C6.35582721,-1.77635684e-15 4.93691907,1.41142475 4.92768036,3.15852539 L4.92768036,3.77464082 L3.90037736,3.77464082 C1.74725827,3.77713628 0.00244645008,5.52198782 3.55271368e-15,7.67510697 L3.55271368e-15,31.5989249 C0.00244645008,33.7520441 1.74725827,35.4968956 3.90037736,35.4993911 L30.1273252,35.4993911 C32.2804443,35.4968956 34.0252561,33.7520441 34.0277026,31.5989249 L34.0277026,13.7139083 C34.0894103,13.531399 34.0894103,13.3336651 34.0277026,13.1511558 L34.0277026,13.1508894 Z M25.9248835,1.75910253 C26.697378,1.7600321 27.3233768,2.38603085 27.3243063,3.15852539 L27.3243063,5.02862528 C27.3181845,5.79718011 26.6934183,6.41698969 25.9248391,6.41698969 C25.1562599,6.41698969 24.5314936,5.79718011 24.5253718,5.02862528 L24.5253718,3.15852539 C24.5262527,2.38597598 25.152334,1.75993436 25.9248835,1.75910253 L25.9248835,1.75910253 Z M6.70304107,3.15852539 C6.70916287,2.38997056 7.33392911,1.77016098 8.10250832,1.77016098 C8.87108753,1.77016098 9.49585378,2.38997056 9.50197558,3.15852539 L9.50197558,5.02862528 C9.49585378,5.79718011 8.87108753,6.41698969 8.10250832,6.41698969 C7.33392911,6.41698969 6.70916287,5.79718011 6.70304107,5.02862528 L6.70304107,3.15852539 Z M3.90037736,5.55044548 L4.9709212,5.55044548 C5.22606187,7.08128765 6.55055004,8.20329724 8.10250832,8.20329724 C9.6544666,8.20329724 10.9789548,7.08128765 11.2340954,5.55044548 L22.7936071,5.55044548 C23.0487478,7.08128765 24.3732359,8.20329724 25.9251942,8.20329724 C27.4771525,8.20329724 28.8016407,7.08128765 29.0567814,5.55044548 L30.1273252,5.55044548 C31.3001812,5.55176673 32.2506257,6.50225087 32.2518979,7.67510697 L32.2518979,12.5442746 L1.77580466,12.5442746 L1.77580466,7.67546213 C1.77688118,6.50246734 2.72738282,5.55176709 3.90037736,5.55044548 Z M30.1273252,33.7235864 L3.90037736,33.7235864 C2.72752132,33.7222652 1.7770769,32.771781 1.77580466,31.5989249 L1.77580466,14.3203456 L32.2518979,14.3203456 L32.2518979,31.5989249 C32.2506257,32.771781 31.3001812,33.7222652 30.1273252,33.7235864 L30.1273252,33.7235864 Z" id="Shape" stroke-width="0.5" fill="#1A1A1A" fill-rule="nonzero"></path>
                <path d="M22.423263,22.2371491 L19.2312542,21.7825431 L17.80697,18.9533312 C17.6561374,18.6537184 17.3493331,18.4646826 17.0138957,18.4646826 C16.6784582,18.4646826 16.371654,18.6537184 16.2208213,18.9533312 L14.7965372,21.7825431 L11.6045283,22.2371491 C11.2678858,22.2850519 10.9881666,22.5210068 10.8842172,22.8447619 C10.7802678,23.168517 10.870347,23.5232046 11.116182,23.7581258 L13.4153163,25.9551514 L12.8736959,29.052865 C12.815584,29.3850315 12.9506494,29.721448 13.222322,29.9212117 C13.4939946,30.1209754 13.8553797,30.149604 14.1551165,29.995107 L17.014162,28.5216331 L19.8732075,29.995107 C20.1728553,30.1493379 20.5339895,30.1206323 20.8055096,29.9210006 C21.0770297,29.721369 21.2121258,29.3852278 21.154273,29.0532202 L20.6126526,25.9555065 L22.9117869,23.758481 C23.157622,23.5235598 23.2477011,23.1688722 23.1437517,22.8451171 C23.0398023,22.5213619 22.7600831,22.285407 22.4234406,22.2375043 L22.423263,22.2371491 Z M19.0424861,24.9985254 C18.828218,25.2033118 18.7302623,25.501509 18.7813541,25.7934643 L19.0969145,27.5970604 L17.4207325,26.7331314 C17.1655163,26.6016042 16.8624527,26.6016042 16.6072364,26.7331314 L14.9308768,27.5970604 L15.2464373,25.7935531 C15.2975067,25.5015826 15.1995168,25.2033829 14.9852164,24.9986142 L13.6649945,23.7373489 L15.5061487,23.4751514 C15.7938168,23.4342371 16.0432648,23.2551599 16.1740289,22.9956841 L17.0138957,21.3274932 L17.8536737,22.9956841 C17.9844377,23.2551599 18.2338858,23.4342371 18.5215538,23.4751514 L20.3627969,23.7373489 L19.0424861,24.9985254 Z" id="Shape" stroke-width="0.5" fill="#000000" fill-rule="nonzero"></path>
            </g>
        </g>
    </g>
</svg>