<?xml version="1.0" encoding="UTF-8"?>
<svg width="40px" height="40px" viewBox="0 0 40 40" version="1.1" xmlns="http://www.w3.org/2000/svg" xmlns:xlink="http://www.w3.org/1999/xlink">
    <!-- Generator: Sketch 58 (84663) - https://sketch.com -->
    <title>Forward Line</title>
    <desc>Created with Sketch.</desc>
    <g id="Forward-Line" stroke="none" stroke-width="1" fill="none" fill-rule="evenodd">
        <path d="M24.0986078,35.9066821 C24.2483861,35.9691917 24.4066089,36 24.5688316,36 C24.8954994,36 25.2030561,35.8736413 25.4386125,35.6401232 L39.6395508,21.373194 C39.8724405,21.1405689 40,20.8298067 40,20.4993987 C40.000441,20.1694372 39.872885,19.8591215 39.6404397,19.6247104 L25.4395013,5.35867427 C25.0910557,5.00862036 24.5386093,4.90592598 24.10083,5.08988288 C23.6386062,5.28187673 23.339494,5.73060655 23.339494,6.23246954 L23.339494,14.5288364 C10.8790061,14.928005 1.76697438,21.375873 0.0189682838,31.1184447 C-0.0823654028,31.6863893 0.230080131,32.2587989 0.770526459,32.4829405 C1.29719496,32.6936873 1.92341937,32.5021399 2.24208714,32.0377827 C4.22298294,29.1578749 9.53011255,26.0801688 18.4861438,26.0801688 C20.027038,26.0801688 21.6559326,26.1730403 23.3399385,26.3552112 L23.3399385,34.7649884 C23.3399385,35.2650654 23.6363839,35.7124557 24.0986078,35.9066821 Z M18.4861438,24.3535637 C10.4078934,24.3535637 5.01720793,26.7950111 2.17719803,29.4963199 C4.63987328,21.4839253 13.0461248,16.34742 24.207497,16.2389212 L25.0586111,16.2299912 L25.0586111,7.41791995 L38.0799899,20.4980592 L25.0586111,33.5799845 L25.0586111,24.8214929 L24.3039418,24.7286214 C22.2830459,24.4799224 20.3248168,24.3535637 18.4861438,24.3535637 Z" id="Shape" stroke="#000000" fill="#000000" fill-rule="nonzero"></path>
    </g>
</svg>