<?xml version="1.0" encoding="UTF-8"?>
<svg width="40px" height="40px" viewBox="0 0 40 40" version="1.1" xmlns="http://www.w3.org/2000/svg" xmlns:xlink="http://www.w3.org/1999/xlink">
    <!-- Generator: Sketch 58 (84663) - https://sketch.com -->
    <title>Guides header</title>
    <desc>Created with Sketch.</desc>
    <g id="Guides-header" stroke="none" stroke-width="1" fill="none" fill-rule="evenodd">
        <g id="guide">
            <g id="Group-35" transform="translate(2.000000, 2.000000)">
                <circle id="Oval" stroke="#000000" stroke-width="1.8" cx="18" cy="18" r="18.9"></circle>
                <g id="noun_Badge_2389744" transform="translate(2.285714, 2.285714)" fill="#1A1A1A" fill-rule="nonzero">
                    <path d="M15.7142857,0 C7.03552536,0 0,7.03552536 0,15.7142857 C0,24.3930461 7.03552536,31.4285714 15.7142857,31.4285714 C24.3930461,31.4285714 31.4285714,24.3930461 31.4285714,15.7142857 C31.4172795,7.04020694 24.3883645,0.0112919372 15.7142857,0 Z M24.4562112,14.5049689 L21.265528,17.4223602 C21.236195,17.4462926 21.2218683,17.4840629 21.2279503,17.5214286 L21.9863354,21.678882 C22.0883272,22.2283039 21.8682374,22.7878091 21.4192547,23.1204969 C21.155111,23.321699 20.8323556,23.4308839 20.5003106,23.4313665 C20.2632478,23.4311234 20.0294385,23.3761782 19.8170807,23.2708075 L15.7860248,21.2860248 C15.7411318,21.2623373 15.6874396,21.2623373 15.6425466,21.2860248 L11.6149068,23.2810559 C11.0959429,23.5409023 10.4743108,23.4825829 10.0127329,23.1307453 C9.56375013,22.7980575 9.34366041,22.2385523 9.44565217,21.6891304 L10.2040373,17.531677 C10.2101193,17.4943114 10.1957926,17.4565411 10.1664596,17.4326087 L6.9757764,14.5049689 C6.55162655,14.1218289 6.38892993,13.5270527 6.55900621,12.9813665 C6.73741104,12.4287137 7.21948354,12.0292061 7.79565217,11.9565217 L12.236646,11.3484472 C12.2823055,11.3429642 12.3227622,11.3164144 12.3459627,11.2767081 L14.3580745,7.44037267 C14.6218691,6.94374068 15.138277,6.63330285 15.7006211,6.63330285 C16.2629652,6.63330285 16.7793732,6.94374068 17.0431677,7.44037267 L19.0689441,11.2732919 C19.0921446,11.3129983 19.1326013,11.339548 19.1782609,11.3450311 L23.6192547,11.9531056 C24.1954233,12.02579 24.6774958,12.4252976 24.8559006,12.9779503 C25.0315807,13.5213546 24.8755902,14.1173183 24.4562112,14.5049689 Z" id="Shape"></path>
                </g>
            </g>
        </g>
    </g>
</svg>