<?xml version="1.0" encoding="UTF-8"?>
<svg width="40px" height="40px" viewBox="0 0 40 40" version="1.1" xmlns="http://www.w3.org/2000/svg" xmlns:xlink="http://www.w3.org/1999/xlink">
    <!-- Generator: Sketch 58 (84663) - https://sketch.com -->
    <title>Hanburger menu</title>
    <desc>Created with Sketch.</desc>
    <g id="Hanburger-menu" stroke="none" stroke-width="1" fill="none" fill-rule="evenodd">
        <g id="Menu-2" transform="translate(0.000000, 6.000000)" fill="#000000">
            <path d="M2.02352941,4 L37.3176471,4 C38.2922672,4 39.0823529,3.20991426 39.0823529,2.23529412 C39.0823529,1.26067397 38.2922672,0.470588235 37.3176471,0.470588235 L2.02352941,0.470588235 C1.04890927,0.470588235 0.258823529,1.26067397 0.258823529,2.23529412 C0.258823529,3.20991426 1.04890927,4 2.02352941,4 L2.02352941,4 Z" id="Shape"></path>
            <path d="M37.3176471,12.2352941 L2.02352941,12.2352941 C1.04890927,12.2352941 0.258823529,13.0253799 0.258823529,14 C0.258823529,14.9746201 1.04890927,15.7647059 2.02352941,15.7647059 L37.3176471,15.7647059 C38.2922672,15.7647059 39.0823529,14.9746201 39.0823529,14 C39.0823529,13.0253799 38.2922672,12.2352941 37.3176471,12.2352941 L37.3176471,12.2352941 Z" id="Shape"></path>
            <path d="M37.3176471,24 L2.02352941,24 C1.04890927,24 0.258823529,24.7900857 0.258823529,25.7647059 C0.258823529,26.739326 1.04890927,27.5294118 2.02352941,27.5294118 L37.3176471,27.5294118 C38.2922672,27.5294118 39.0823529,26.739326 39.0823529,25.7647059 C39.0823529,24.7900857 38.2922672,24 37.3176471,24 L37.3176471,24 Z" id="Shape"></path>
        </g>
    </g>
</svg>