<?xml version="1.0" encoding="UTF-8"?>
<svg width="40px" height="40px" viewBox="0 0 40 40" version="1.1" xmlns="http://www.w3.org/2000/svg" xmlns:xlink="http://www.w3.org/1999/xlink">
    <!-- Generator: Sketch 58 (84663) - https://sketch.com -->
    <title>Home </title>
    <desc>Created with Sketch.</desc>
    <g id="Home-" stroke="none" stroke-width="1" fill="none" fill-rule="evenodd">
        <g id="Group-2" transform="translate(0.000000, 2.000000)" fill="#1A1A1A" fill-rule="nonzero">
            <path d="M17.3525803,24.6328642 C17.3346431,24.7539404 17.3211902,24.8705324 17.3032529,24.9916086 L17.334,24.812 L17.3525803,24.6328642 L17.3525803,24.6328642 Z M22.657513,24.6328642 L22.672,24.794 L22.7068404,24.9916086 L22.7068404,24.9916086 C22.6889032,24.8705324 22.6754503,24.7539404 22.657513,24.6328642 Z M17.572,24.006 C17.5274682,24.1126848 17.4826251,24.2203081 17.4377821,24.3279315 L17.518,24.149 L17.572,24.006 Z M22.437,24.006 L22.491,24.149 L22.5723112,24.3279315 L22.5723112,24.3279315 L22.5050467,24.1664965 L22.5050467,24.1664965 L22.437,24.006 Z M22.0969749,23.4803978 L22.129,23.528 L22.1463023,23.5476624 L22.1463023,23.5476624 C22.1784398,23.585779 22.1969998,23.6069549 22.2058646,23.6161726 L22.211,23.62 C22.1806819,23.57407 22.0611005,23.4235966 22.0969749,23.4803978 Z M21.6261229,23.0319673 L21.66,23.062 L21.6889032,23.0812947 L21.6889032,23.0812947 C21.8817283,23.2113395 21.4108763,22.8436265 21.6261229,23.0319673 Z M18.2942843,23.0992319 L18.343,23.065 L18.3615489,23.0499046 L18.3615489,23.0499046 C18.5902485,22.8570794 18.2090825,23.1530436 18.2942843,23.0992319 Z M19.141818,22.6238956 C19.0341946,22.6687386 18.9265713,22.7135817 18.818948,22.7584247 L18.965,22.703 L19.141818,22.6238956 L19.141818,22.6238956 Z M20.8682754,22.6238956 L21.044,22.703 L21.1911453,22.7584247 L21.1911453,22.7584247 C21.083522,22.7135817 20.9758987,22.6687386 20.8682754,22.6238956 Z M19.8054951,22.4893664 C19.6844189,22.5073037 19.5678269,22.5207566 19.4467507,22.5386938 L19.629,22.52 L19.8054951,22.4893664 L19.8054951,22.4893664 Z M20.2045982,22.4893664 L20.38,22.52 L20.5633426,22.5386938 L20.5633426,22.5386938 C20.4422664,22.5207566 20.3256745,22.5073037 20.2045982,22.4893664 Z M6.498,33.982 L6.49607805,33.98264 L6.497,33.986 L6.498,33.982 Z M17.8458538,23.5790525 L17.7965265,23.6508014 C17.657513,23.8660481 17.5364368,24.0902633 17.4377821,24.3279315 L17.518,24.149 L17.4823449,24.2456024 C17.4274121,24.4071775 17.3825691,24.5712751 17.3478157,24.7384556 L17.334,24.812 L17.3208314,24.9522543 C17.2993068,25.2732947 17.305226,25.5985324 17.309531,25.9211871 L17.3122216,26.2427297 L17.3122216,26.2427297 L17.3122216,35.3279315 C17.3122216,36.0588732 16.6933875,36.6732229 15.9669301,36.6732229 L15.9669301,36.6732229 L5.15975518,36.6732229 C4.42881348,36.6732229 3.8144637,36.0543889 3.8144637,35.3279315 L3.8144637,35.3279315 L3.8144637,35.2965413 C3.79652648,34.5162723 3.8144637,33.7360032 3.8144637,32.9602185 L3.8144637,32.9602185 L3.81405402,17.9095148 C3.30424945,18.3804877 2.79702474,18.8535184 2.28980003,19.3234472 C1.73823052,19.8346579 0.940024241,19.8301736 0.388454735,19.3234472 C-0.131724637,18.8436265 -0.127240333,17.9019225 0.388454735,17.4221019 C0.397423345,17.4131333 0.410876259,17.4041646 0.419844869,17.395196 C1.14630227,16.6866759 1.90863411,16.0140301 2.65302873,15.3234472 C4.18217671,13.9064068 5.70684038,12.4893664 7.23598837,11.0723261 C9.00280451,9.43555478 10.7696207,7.79429918 12.5364368,6.15752788 C14.0028045,4.79878348 15.4691722,3.44003909 16.9355399,2.08129469 C17.5498897,1.51627227 18.1597552,0.946765545 18.7696207,0.381743124 C19.3256745,-0.133951943 20.1149121,-0.120499029 20.6709659,0.381743124 C20.6799346,0.390711734 20.6933875,0.399680344 20.7023561,0.408648954 C21.4781408,1.0902633 22.2404727,1.78981487 23.0072888,2.48039783 C24.5812798,3.89743819 26.1552709,5.31447855 27.7292619,6.73151891 C29.5454054,8.36829021 31.3660332,10.0095458 33.186661,11.6463171 C34.6978718,13.0050615 36.2045982,14.3638059 37.715809,15.7225503 C38.348096,16.292057 38.9758987,16.8570794 39.6037014,17.4221019 C40.1642395,17.924344 40.0745534,18.8077521 39.6037014,19.3234472 C39.0969749,19.879501 38.2270198,19.7942992 37.7023561,19.3234472 C37.6933875,19.3144785 37.6799346,19.3055099 37.6709659,19.2965413 C37.1760281,18.8616826 36.6865659,18.4195231 36.1979215,17.9770494 L36.1956296,18.5252409 L36.1956296,18.5252409 L36.1956296,35.3234472 C36.1956296,36.0543889 35.5767955,36.6687386 34.8503381,36.6687386 L34.8503381,36.6687386 L24.0431633,36.6687386 C23.3122216,36.6687386 22.6978718,36.0499046 22.6978718,35.3234472 L22.6978718,35.3234472 L22.6978718,26.0005772 C22.6978718,25.5476624 22.715809,25.085779 22.657513,24.6328642 L22.672,24.794 L22.6622776,24.7384556 C22.6275242,24.5712751 22.5826812,24.4071775 22.5277485,24.2456024 L22.491,24.149 L22.4663488,24.0945815 C22.4286474,24.0181823 22.3886208,23.9431117 22.3464351,23.8692037 L22.2135668,23.6508014 C22.1776924,23.5925055 22.1328494,23.5386938 22.0969749,23.4803978 L22.129,23.528 L22.0291498,23.4142543 L22.0291498,23.4142543 L21.9086341,23.2875727 C21.818948,23.1978866 21.7202933,23.1171691 21.6261229,23.0319673 L21.66,23.062 L21.6171543,23.0319673 L21.6171543,23.0319673 L21.5454054,22.98264 C21.3301588,22.8436265 21.1059435,22.7225503 20.8682754,22.6238956 L21.044,22.703 L20.9506044,22.6684584 C20.7890293,22.6135256 20.6249318,22.5686826 20.4577513,22.5339292 L20.38,22.52 L20.2841946,22.5109472 C20.098096,22.4986153 19.9119973,22.4986153 19.7258987,22.5109472 L19.629,22.52 L19.5523421,22.5339292 C19.3851616,22.5686826 19.221064,22.6135256 19.0594889,22.6684584 L18.965,22.703 L18.908468,22.7298581 C18.8320688,22.7675594 18.7569982,22.807586 18.6830902,22.8497717 L18.4646879,22.98264 C18.406392,23.0185144 18.3525803,23.0633575 18.2942843,23.0992319 L18.343,23.065 L18.2281408,23.167057 L18.2281408,23.167057 L18.1014592,23.2875727 C18.0117731,23.3772588 17.9310556,23.4759135 17.8458538,23.5700839 L17.875,23.537 L17.8951812,23.5073037 L17.8951812,23.5073037 C18.025226,23.3144785 17.657513,23.7853306 17.8458538,23.5700839 L17.873,23.538 L17.8458538,23.5790525 L17.8458538,23.5790525 Z M6.498,33.982 L12.3256745,33.98264 C13.1358389,33.98264 13.9011603,33.9883428 14.6216386,33.9997484 L14.6216386,33.9997484 L14.6216386,25.2113395 C14.6261229,24.292057 14.8548224,23.3996803 15.2898,22.5925055 C15.7785893,21.6866759 16.5857642,20.8884696 17.509531,20.4221019 C18.5857642,19.8839853 19.7337462,19.718066 20.9176027,19.8974382 C23.025226,20.2113395 24.8593068,21.9691871 25.2628942,24.0633575 C25.4153606,24.8570794 25.3839704,25.6508014 25.3839704,26.453492 L25.3839704,26.453492 L25.3839704,29.9467655 C25.3839704,31.7404875 25.4061771,33.98264 25.4217652,33.98264 L25.4217652,33.98264 L31.2045982,33.98264 C32.0147627,33.98264 32.7776131,33.9885994 33.4931497,34.0005181 C33.4980915,33.5376564 33.5005624,33.1908899 33.5005624,32.9602185 L33.5005624,16.1620122 C33.5005624,15.9748198 33.5387693,15.7998093 33.6074094,15.6418651 C32.6193822,14.752024 31.6317212,13.8628477 30.6440601,12.9736714 C28.8279166,11.3369001 27.0072888,9.69564447 25.186661,8.05887317 C23.6754503,6.70012877 22.1687238,5.34138438 20.657513,3.98263998 C20.4525337,3.79801322 20.1459532,3.5219616 19.7377716,3.1544851 C19.3464483,3.51226848 18.902655,3.92135448 18.406392,4.38174312 C16.877244,5.79878348 15.3525803,7.21582384 13.8234323,8.6328642 C12.0566162,10.2696355 10.2898,11.9108911 8.52298388,13.5476624 C7.79946912,14.2180752 7.07595435,14.8884879 6.35243959,15.5589007 C6.44993118,15.74459 6.50504666,15.9519033 6.50504666,16.1620122 L6.50504666,16.1620122 L6.50504666,16.1934023 C6.52298388,16.9736714 6.50504666,17.7539404 6.50504666,18.5297252 L6.50504666,18.5297252 L6.50504666,33.4176176 C6.50504666,33.7477953 6.50323818,33.9351027 6.49962121,33.9795397 L6.498,33.982 Z" id="Combined-Shape"></path>
        </g>
    </g>
</svg>