<?xml version="1.0" encoding="UTF-8"?>
<svg width="40px" height="40px" viewBox="0 0 40 40" version="1.1" xmlns="http://www.w3.org/2000/svg" xmlns:xlink="http://www.w3.org/1999/xlink">
    <!-- Generator: Sketch 58 (84663) - https://sketch.com -->
    <title>Hyperlink</title>
    <desc>Created with Sketch.</desc>
    <g id="Hyperlink" stroke="none" stroke-width="1" fill="none" fill-rule="evenodd">
        <g id="Link" transform="translate(3.000000, 0.000000)" fill="#000000">
            <path d="M30.7707317,25.3170732 L26.6634146,21.2097561 C26.0868102,20.6724705 25.1882737,20.6883241 24.6309819,21.245616 C24.07369,21.8029079 24.0578364,22.7014444 24.595122,23.2780488 L28.702439,27.3853659 C29.9920807,28.6750075 30.4957431,30.5547011 30.0237015,32.3163844 C29.5516599,34.0780676 28.1756286,35.4540989 26.4139454,35.9261405 C24.6522621,36.3981821 22.7725685,35.8945197 21.4829268,34.604878 L13.7365854,26.8585366 C12.3755429,25.4994677 11.8944086,23.4905097 12.4921225,21.6623295 C13.0898365,19.8341493 14.6648227,18.4974291 16.5658537,18.204878 C17.0886814,18.1247112 17.5290257,17.7717087 17.721013,17.2788431 C17.9130003,16.7859776 17.8274632,16.228127 17.4966227,15.8154283 C17.1657823,15.4027297 16.6399009,15.1978818 16.1170732,15.2780488 C13.1086657,15.7282545 10.6129904,17.8398759 9.67091075,20.7322256 C8.72883113,23.6245753 9.50213104,26.8009486 11.6682927,28.9365854 L19.4146341,36.6829268 C21.4432056,38.7114984 24.3999129,39.5037458 27.1709931,38.7612372 C29.9420734,38.0187285 32.1065334,35.8542685 32.8490421,33.0831883 C33.5915507,30.3121081 32.7993033,27.3554007 30.7707317,25.3268293 L30.7707317,25.3170732 Z" id="Shape"></path>
            <path d="M4.63414634,12.5170732 C3.3445047,11.2274315 2.84084231,9.34773788 3.31288391,7.58605464 C3.78492551,5.8243714 5.16095676,4.44834015 6.92264001,3.97629854 C8.68432325,3.50425694 10.5640169,4.00791933 11.8536585,5.29756098 L19.6,13.0439024 C20.9610424,14.4029713 21.4421768,16.4119293 20.8444628,18.2401095 C20.2467489,20.0682897 18.6717626,21.4050099 16.7707317,21.697561 C15.9625102,21.7595248 15.3575488,22.4649492 15.4195125,23.2731707 C15.4814761,24.0813922 16.1869005,24.6863537 16.995122,24.6243902 L17.2195122,24.6243902 C20.2279197,24.1741845 22.723595,22.0625632 23.6656746,19.1702135 C24.6077542,16.2778638 23.8344543,13.1014904 21.6682927,10.9658537 L13.9219512,3.2195122 C11.8933798,1.19094075 8.93667247,0.398693415 6.16559234,1.1412021 C3.39451221,1.88371078 1.23005224,4.04817075 0.487543561,6.81925088 C-0.254965122,9.59033101 0.537282211,12.5470383 2.56585366,14.5756098 L6.67317073,18.6829268 C7.03799138,19.0744452 7.58742545,19.2356082 8.10592958,19.1031913 C8.62443371,18.9707744 9.02931103,18.5658971 9.16172789,18.047393 C9.29414474,17.5288889 9.13298181,16.9794548 8.74146341,16.6146341 L4.63414634,12.5170732 Z" id="Shape"></path>
        </g>
    </g>
</svg>