<?xml version="1.0" encoding="UTF-8"?>
<svg width="40px" height="40px" viewBox="0 0 40 40" version="1.1" xmlns="http://www.w3.org/2000/svg" xmlns:xlink="http://www.w3.org/1999/xlink">
    <!-- Generator: Sketch 58 (84663) - https://sketch.com -->
    <title>Image add</title>
    <desc>Created with Sketch.</desc>
    <g id="Image-add" stroke="none" stroke-width="1" fill="none" fill-rule="evenodd">
        <g id="Group" transform="translate(1.000000, 6.000000)" fill-rule="nonzero" stroke="#000000" stroke-width="1.5">
            <path d="M2.13068182,0.154321023 C0.957679474,0.154321023 -2.13068182e-07,1.11200284 -2.13068182e-07,2.28500284 L-2.13068182e-07,26.1486648 C-2.13068182e-07,27.3216477 0.957679474,28.2793466 2.13068182,28.2793466 L35.3693182,28.2793466 C36.5423182,28.2793466 37.4999998,27.3216477 37.4999998,26.1486648 L37.4999998,2.28500284 C37.4999998,1.11200284 36.5423182,0.154321023 35.3693182,0.154321023 L2.13068182,0.154321023 Z M2.13068182,1.00659375 L35.3693182,1.00659375 C36.0849034,1.00659375 36.6477273,1.56941761 36.6477273,2.28500284 L36.6477273,20.9950568 L28.8174716,14.7362216 C28.6778778,14.6211648 28.4623342,14.6098295 28.3114347,14.7098011 L21.7462713,19.2239489 L13.0504261,12.1793991 C12.9528205,12.0964219 12.8164999,12.0610781 12.6908736,12.0861818 C12.6384183,12.0988381 12.5884134,12.1215511 12.5443892,12.1527656 L0.852272514,20.2227273 L0.852272514,2.28500284 C0.852272514,1.56941761 1.4150968,1.00659375 2.13068182,1.00659375 L2.13068182,1.00659375 Z M21.7329545,6.12027273 C20.0905602,6.12027273 18.75,7.46083381 18.75,9.10322727 C18.75,10.7456207 20.0905602,12.0861818 21.7329545,12.0861818 C23.375348,12.0861818 24.7159091,10.7456207 24.7159091,9.10322727 C24.7159091,7.46083381 23.375348,6.12027273 21.7329545,6.12027273 Z M21.5198864,6.97254545 C21.5917538,6.96530114 21.6590923,6.97254545 21.7329545,6.97254545 C22.9147453,6.97254545 23.8636364,7.92143608 23.8636364,9.10322727 C23.8636364,10.2850185 22.9147453,11.2339091 21.7329545,11.2339091 C20.5511621,11.2339091 19.6022727,10.2850185 19.6022727,9.10322727 C19.6022727,7.9952983 20.4418713,7.08112074 21.5198864,6.97254545 Z M12.7707741,13.0316719 L21.4666193,20.0762216 C21.6062126,20.1912784 21.8217567,20.2026136 21.9726562,20.102642 L28.5245028,15.6015767 L36.6477273,22.0868182 L36.6477273,26.1484517 C36.6477273,26.8640199 36.0849034,27.4268608 35.3693182,27.4268608 L2.13068182,27.4268608 C1.4150968,27.4268608 0.852272514,26.8640199 0.852272514,26.1484517 L0.852272514,21.2478835 L12.7707741,13.0316719 Z" id="Shape"></path>
        </g>
    </g>
</svg>