<?xml version="1.0" encoding="UTF-8"?>
<svg width="40px" height="40px" viewBox="0 0 40 40" version="1.1" xmlns="http://www.w3.org/2000/svg" xmlns:xlink="http://www.w3.org/1999/xlink">
    <!-- Generator: Sketch 58 (84663) - https://sketch.com -->
    <title>Info Line</title>
    <desc>Created with Sketch.</desc>
    <g id="Info-Line" stroke="none" stroke-width="1" fill="none" fill-rule="evenodd">
        <g id="Alert" fill="#000000">
            <path d="M20.322807,0.374269006 C9.47089614,0.374269006 0.673684211,9.17148094 0.673684211,20.0233918 C0.673684211,30.8753027 9.47089614,39.6725146 20.322807,39.6725146 C31.1747179,39.6725146 39.9719298,30.8753027 39.9719298,20.0233918 C39.9719298,9.17148094 31.1747179,0.374269006 20.322807,0.374269006 L20.322807,0.374269006 Z M20.322807,36.8654971 C11.0211691,36.8654971 3.48070175,29.3250297 3.48070175,20.0233918 C3.48070175,10.7217539 11.0211691,3.18128655 20.322807,3.18128655 C29.6244449,3.18128655 37.1649123,10.7217539 37.1649123,20.0233918 C37.1649123,29.3250297 29.6244449,36.8654971 20.322807,36.8654971 Z" id="Shape"></path>
            <g id="Group" transform="translate(20.887135, 19.327485) scale(1, -1) translate(-20.887135, -19.327485) translate(19.387135, 8.327485)">
                <path d="M1.40350877,-8.8817842e-16 C0.628372281,-8.8817842e-16 -7.37188088e-14,0.628372281 -7.37188088e-14,1.40350877 L-7.37188088e-14,14.502924 C-7.37188088e-14,15.2780605 0.628372281,15.9064327 1.40350877,15.9064327 C2.17864526,15.9064327 2.80701754,15.2780605 2.80701754,14.502924 L2.80701754,1.40350877 C2.80701754,0.628372281 2.17864526,-8.8817842e-16 1.40350877,-8.8817842e-16 Z" id="Shape"></path>
                <circle id="Oval" cx="1.40350877" cy="19.6491228" r="1.40350877"></circle>
            </g>
        </g>
    </g>
</svg>