<?xml version="1.0" encoding="UTF-8"?>
<svg width="40px" height="40px" viewBox="0 0 40 40" version="1.1" xmlns="http://www.w3.org/2000/svg" xmlns:xlink="http://www.w3.org/1999/xlink">
    <!-- Generator: Sketch 58 (84663) - https://sketch.com -->
    <title>Info Line Copy</title>
    <desc>Created with Sketch.</desc>
    <g id="Info-Line-Copy" stroke="none" stroke-width="1" fill="none" fill-rule="evenodd">
        <g id="Alert" fill="#000000">
            <path d="M20.322807,0.374269006 C9.47089614,0.374269006 0.673684211,9.17148094 0.673684211,20.0233918 C0.673684211,30.8753027 9.47089614,39.6725146 20.322807,39.6725146 C31.1747179,39.6725146 39.9719298,30.8753027 39.9719298,20.0233918 C39.9719298,9.17148094 31.1747179,0.374269006 20.322807,0.374269006 L20.322807,0.374269006 Z M20.322807,36.8654971 C11.0211691,36.8654971 3.48070175,29.3250297 3.48070175,20.0233918 C3.48070175,10.7217539 11.0211691,3.18128655 20.322807,3.18128655 C29.6244449,3.18128655 37.1649123,10.7217539 37.1649123,20.0233918 C37.1649123,29.3250297 29.6244449,36.8654971 20.322807,36.8654971 Z" id="Shape"></path>
            <path d="M20.7906433,8.32748538 C20.0155068,8.32748538 19.3871345,8.95585766 19.3871345,9.73099415 L19.3871345,22.8304094 C19.3871345,23.6055458 20.0155068,24.2339181 20.7906433,24.2339181 C21.5657798,24.2339181 22.194152,23.6055458 22.194152,22.8304094 L22.194152,9.73099415 C22.194152,8.95585766 21.5657798,8.32748538 20.7906433,8.32748538 Z" id="Shape"></path>
            <circle id="Oval" cx="20.7906433" cy="27.9766082" r="1.40350877"></circle>
        </g>
    </g>
</svg>