<?xml version="1.0" encoding="UTF-8"?>
<svg width="40px" height="40px" viewBox="0 0 40 40" version="1.1" xmlns="http://www.w3.org/2000/svg" xmlns:xlink="http://www.w3.org/1999/xlink">
    <!-- Generator: Sketch 58 (84663) - https://sketch.com -->
    <title>Instagram</title>
    <desc>Created with Sketch.</desc>
    <g id="Instagram" stroke="none" stroke-width="1" fill="none" fill-rule="evenodd">
        <g id="Group-51">
            <rect id="Rectangle-Copy" stroke="#EBECED" stroke-width="0.8" fill="#FFFFFF" x="0" y="0" width="40" height="40" rx="3"></rect>
            <g id="Group-8" transform="translate(10.000000, 10.000000)" fill="#000000" fill-rule="nonzero">
                <path d="M13.4444444,0 L6.11111111,0 C2.73655556,0 0,2.73655556 0,6.11111111 L0,13.4444444 C0,16.819 2.73655556,19.5555556 6.11111111,19.5555556 L13.4444444,19.5555556 C16.819,19.5555556 19.5555556,16.819 19.5555556,13.4444444 L19.5555556,6.11111111 C19.5555556,2.73655556 16.819,0 13.4444444,0 Z M17.7222222,13.4444444 C17.7222222,15.8033333 15.8033333,17.7222222 13.4444444,17.7222222 L6.11111111,17.7222222 C3.75222222,17.7222222 1.83333333,15.8033333 1.83333333,13.4444444 L1.83333333,6.11111111 C1.83333333,3.75222222 3.75222222,1.83333333 6.11111111,1.83333333 L13.4444444,1.83333333 C15.8033333,1.83333333 17.7222222,3.75222222 17.7222222,6.11111111 L17.7222222,13.4444444 Z" id="Shape"></path>
                <path d="M9.77777778,4.88888889 C7.07788889,4.88888889 4.88888889,7.07788889 4.88888889,9.77777778 C4.88888889,12.4776667 7.07788889,14.6666667 9.77777778,14.6666667 C12.4776667,14.6666667 14.6666667,12.4776667 14.6666667,9.77777778 C14.6666667,7.07788889 12.4776667,4.88888889 9.77777778,4.88888889 Z M9.77777778,12.8333333 C8.09355556,12.8333333 6.72222222,11.462 6.72222222,9.77777778 C6.72222222,8.09233333 8.09355556,6.72222222 9.77777778,6.72222222 C11.462,6.72222222 12.8333333,8.09233333 12.8333333,9.77777778 C12.8333333,11.462 11.462,12.8333333 9.77777778,12.8333333 Z" id="Shape"></path>
                <circle id="Oval" cx="15.0333333" cy="4.52222222" r="1"></circle>
            </g>
        </g>
    </g>
</svg>