<?xml version="1.0" encoding="UTF-8"?>
<svg width="400px" height="400px" viewBox="0 0 400 400" version="1.1" xmlns="http://www.w3.org/2000/svg" xmlns:xlink="http://www.w3.org/1999/xlink">
    <!-- Generator: Sketch 58 (84663) - https://sketch.com -->
    <title>Intro screen - Profile</title>
    <desc>Created with Sketch.</desc>
    <g id="Intro-screen---Profile" stroke="none" stroke-width="1" fill="none" fill-rule="evenodd">
        <g id="rr" transform="translate(0.000000, 3.000000)" fill-rule="nonzero">
            <g id="girl">
                <path d="M196.97402,393.947271 C305.462078,393.947271 393.94804,305.463617 393.94804,196.975559 C393.94804,88.4851925 305.464386,0.00153885953 196.97402,0.00153885953 C88.4836536,0.00153885953 0,88.4851925 0,196.974789 C0,305.462848 88.4836536,393.947271 196.97402,393.947271 Z" id="Path" fill="#EBECED"></path>
                <path d="M131.197008,232.36625 C114.771222,190.926302 80.2676826,153.422756 123.685065,77.8793726 C141.566613,46.7667106 168.8806,26.2475576 197.097129,33.194739 C225.313657,26.248327 252.627644,46.76748 270.509192,77.8793726 C313.925036,153.422756 279.423805,190.926302 262.99571,232.36625 L197.099437,232.529369 L131.199317,232.36625 L131.197008,232.36625 Z" id="Path" fill="#1A1A1A"></path>
                <path d="M86.1061157,297.14839 C84.0455827,300.474634 78.9050225,328.761181 73.2197059,350.206727 C107.0423,377.555339 150.091126,393.944962 196.971712,393.944962 C243.854606,393.944962 286.902663,377.555339 320.725256,350.206727 C315.037632,328.763489 309.897841,300.472326 307.837308,297.14839 C276.193739,246.053636 227.418048,268.358636 224.092572,209.889668 C224.092572,209.889668 208.400821,221.59962 196.419261,221.70657 C184.436931,221.813521 169.835463,210.628321 169.835463,210.628321 C166.517682,269.046506 117.727371,246.092108 86.1061157,297.14839 Z" id="Path" fill="#FED198"></path>
                <path d="M224.942023,218.147958 C224.548844,215.584987 224.259538,212.844278 224.092572,209.891207 C224.092572,209.891207 208.400821,221.601159 196.419261,221.708109 C184.436931,221.81506 169.835463,210.62986 169.835463,210.62986 C169.666188,213.636791 169.369188,216.41828 168.963699,219.015105 C169.270701,219.257475 169.575395,219.503693 169.887784,219.743755 L169.883937,219.786074 C170.806483,220.589358 184.832418,232.65017 196.416953,232.5286 C208.001487,232.649401 222.025884,220.58705 222.949969,219.786074 L222.947661,219.743755 C223.627837,219.222851 224.288007,218.686559 224.939714,218.149497 L224.942023,218.147958 Z" id="Path" fill="#F0B97D"></path>
                <path d="M169.885476,210.666792 C170.808022,211.363126 184.833957,221.811213 196.418492,221.707351 C208.003026,221.811213 222.027423,211.361587 222.951508,210.666792 C240.461421,200.458767 254.828983,170.361753 251.585837,137.743317 C248.929765,111.024099 220.025366,150.201923 199.894006,95.0722807 C171.401252,154.758486 144.338869,119.452432 141.253455,142.072129 C137.852576,166.994728 151.844656,198.353608 169.885476,210.668331 L169.885476,210.666792 L169.885476,210.666792 Z" id="Path" fill="#FED198"></path>
                <path d="M146.896453,252.459139 C129.652763,261.669983 98.1084506,261.948517 86.1061157,281.245046 C84.015575,284.605145 78.768064,325.770407 72.9958019,350.02745 C106.849173,377.483012 149.985714,393.945732 196.969403,393.945732 C243.95694,393.945732 287.089634,377.485321 320.945313,350.02745 C315.173051,325.770407 309.294608,284.924459 307.835,281.245046 C299.865246,261.143693 262.972628,260.304245 245.71124,251.034925 C218.87353,348.403184 178.872415,355.041055 146.897992,252.467603 L146.891837,252.459909 L146.896453,252.459909 L146.896453,252.459139 Z" id="Path" fill="#E0DEED"></path>
                <g id="Group" transform="translate(119.261614, 242.370376)" fill="#FFFFFF">
                    <path d="M39.1324285,0.411644925 C38.0121387,30.7048642 43.1627016,73.6213483 77.1530309,84.5888002 C45.1524469,85.9268385 24.3870764,39.8187598 0.731727707,27.7425596 L39.131659,0.413953214 L39.131659,0.411644925 L39.1324285,0.411644925 Z" id="Path"></path>
                    <path d="M117.079511,0.411644925 C118.25443,30.7048642 112.847647,73.6213483 77.1538003,84.5888002 C110.757106,85.9268385 132.563515,39.8187598 157.399169,27.7425596 L117.077972,0.413953214 L117.079511,0.411644925 Z" id="Path"></path>
                </g>
            </g>
            <g id="feature" transform="translate(298.342541, 2.209945)">
                <path d="M100.696003,37.0944005 C100.341439,35.8983471 99.3370399,35.1207131 98.095871,35.0011077 L65.2593616,32.8482116 L53.0860186,1.87042819 C52.6723613,0.793980123 51.5495772,0.255556746 50.4267931,0.195754075 C49.2449152,0.195754075 48.0628402,0.734177453 47.590483,1.87042819 L35.41714,32.8482116 L2.79415649,35.0011077 C1.55298765,35.1209124 0.548588355,35.8983471 0.134931068,37.0944005 C-0.219632322,38.2306513 0.134931068,39.5461107 1.08023646,40.3235454 L26.1984919,61.6132961 L18.0435339,93.9069376 C17.7478674,95.0431883 18.2206186,96.2988451 19.166318,97.0164771 C20.1707173,97.7341092 21.470783,97.7939119 22.4755763,97.1362818 L50.4267931,79.3746893 L78.1418314,97.1362818 C79.2055216,97.7941112 80.5057843,97.7341092 81.5101836,97.0164771 C82.455489,96.2988451 82.9284372,95.1027917 82.6329677,93.9069376 L74.4780097,61.6132961 L99.8093971,40.3235454 C100.755096,39.5461107 101.10966,38.2306513 100.696003,37.0944005 Z" id="Path" fill="#AD5DA3"></path>
                <path d="M99.8093971,40.3237447 L74.4780097,61.6132961 L82.6329677,93.9069376 C82.9284372,95.1027917 82.455489,96.2988451 81.5101836,97.0164771 C80.5057843,97.7341092 79.2055216,97.7939119 78.1418314,97.1362818 L50.4267931,79.3746893 L50.4267931,0.195953417 C51.5495772,0.255756088 52.6723613,0.794179466 53.0860186,1.87062754 L65.2593616,32.8484109 L98.095871,35.0013071 C99.3370399,35.1211117 100.341439,35.8985465 100.696003,37.0945999 C101.10966,38.2306513 100.755096,39.5461107 99.8093971,40.3237447 Z" id="Path" fill="#AD5DA3"></path>
                <path d="M53.3814881,95.7010177 C53.3814881,97.3752932 52.0816193,98.6911513 50.4267931,98.6911513 C48.771967,98.6911513 47.4720982,97.3752932 47.4720982,95.7010177 C47.4720982,94.0263436 48.771967,92.7108842 50.4267931,92.7108842 C52.0816193,92.7108842 53.3814881,94.0263436 53.3814881,95.7010177 Z" id="Path" fill="#979FEF"></path>
                <ellipse id="Oval" fill="#737EE6" transform="translate(89.769289, 66.769981) rotate(-72.001696) translate(-89.769289, -66.769981) " cx="89.7692892" cy="66.7699805" rx="2.98687644" ry="2.95820391"></ellipse>
                <ellipse id="Oval" fill="#737EE6" transform="translate(74.741668, 19.973707) rotate(-53.998744) translate(-74.741668, -19.973707) " cx="74.7416676" cy="19.9737067" rx="2.97792263" ry="2.96697321"></ellipse>
                <ellipse id="Oval" fill="#979FEF" transform="translate(26.112445, 19.971362) rotate(-36.001256) translate(-26.112445, -19.971362) " cx="26.1124446" cy="19.9713616" rx="2.96697321" ry="2.97792263"></ellipse>
                <ellipse id="Oval" fill="#979FEF" transform="translate(11.084932, 66.778238) rotate(-17.998304) translate(-11.084932, -66.778238) " cx="11.0849317" cy="66.778238" rx="2.95820391" ry="2.98687644"></ellipse>
                <path d="M53.3814881,95.7010177 C53.3814881,97.3752932 52.0816193,98.6911513 50.4267931,98.6911513 L50.4267931,92.7108842 C52.0816193,92.7108842 53.3814881,94.0263436 53.3814881,95.7010177 Z" id="Path" fill="#737EE6"></path>
                <path d="M70.3414368,47.0814465 C69.9868735,45.8853931 68.9231833,45.107759 67.7413053,44.9881537 L57.0453097,44.3303243 L53.0862155,34.223673 C52.6725583,33.1472249 51.5497742,32.6092002 50.4269901,32.5493976 C49.2451122,32.4895949 48.0630372,33.0276196 47.59068,34.223673 L43.6311918,44.3303243 L32.9351963,44.9881537 C31.7535153,45.1079584 30.6896281,45.8853931 30.3350647,47.0814465 C29.9218014,48.2176973 30.3350647,49.5331567 31.2216702,50.3105914 L39.4950129,57.2479005 L36.8357875,67.7133679 C36.540318,68.9092219 37.0128722,70.165078 37.9585716,70.8827101 C38.9629709,71.6003421 40.2632336,71.6601448 41.2678299,71.0025148 L50.4273841,65.2014564 L59.4098536,71.0025148 C60.4142529,71.6603441 61.7143186,71.6003421 62.7191119,70.8827101 C63.6644173,70.165078 64.1373655,68.9090226 63.841896,67.7133679 L61.1826705,57.2479005 L69.3967224,50.3105914 C70.3414368,49.5331567 70.6960002,48.2176973 70.3414368,47.0814465 Z" id="Path" fill="#FFFFFF"></path>
                <path d="M69.3961315,50.3105914 L61.1820796,57.2479005 L63.841305,67.7133679 C64.1367745,68.9092219 63.6638263,70.165078 62.718521,70.8827101 C61.7137277,71.6003421 60.4138589,71.6601448 59.4092627,71.0025148 L50.4267931,65.2014564 L50.4267931,32.5493976 C51.5495772,32.6092002 52.6723613,33.1472249 53.0860186,34.223673 L57.0451128,44.3303243 L67.7411083,44.9881537 C68.9229863,45.1079584 69.9866765,45.8853931 70.3412399,47.0814465 C70.6960002,48.2176973 70.3414368,49.5331567 69.3961315,50.3105914 Z" id="Path" fill="#FFFFFF"></path>
            </g>
        </g>
    </g>
</svg>