<?xml version="1.0" encoding="UTF-8"?>
<svg width="400px" height="400px" viewBox="0 0 400 400" version="1.1" xmlns="http://www.w3.org/2000/svg" xmlns:xlink="http://www.w3.org/1999/xlink">
    <!-- Generator: Sketch 58 (84663) - https://sketch.com -->
    <title>Intro screen - Resources</title>
    <desc>Created with Sketch.</desc>
    <defs>
        <path d="M199.56514,397.507799 C309.480318,397.507799 399.130279,308.224074 399.130279,198.755064 C399.130279,89.283725 309.482656,0 199.56514,0 C89.647623,0 0,89.283725 0,198.754287 C0,308.223297 89.647623,397.507799 199.56514,397.507799 Z" id="path-1"></path>
    </defs>
    <g id="Intro-screen---Resources" stroke="none" stroke-width="1" fill="none" fill-rule="evenodd">
        <g id="Group-37" transform="translate(0.000000, 1.000000)">
            <g id="Group-13">
                <g id="support">
                    <mask id="mask-2" fill="white">
                        <use xlink:href="#path-1"></use>
                    </mask>
                    <path stroke="#FFFFFF" stroke-width="20.1302026" d="M199.56514,407.5729 C84.0984817,407.5729 -10.0651013,313.791799 -10.0651013,198.754287 C-10.0651013,83.7156114 84.0980919,-10.0651013 199.56514,-10.0651013 C315.032314,-10.0651013 409.195381,83.7157378 409.195381,198.755064 C409.195381,313.791655 315.030384,407.5729 199.56514,407.5729 Z"></path>
                    <g mask="url(#mask-2)">
                        <g transform="translate(54.893934, 71.389156)">
                            <path d="M232.929838,332.608566 L289.742153,226.312023 L244.292301,226.312023 L215.886143,276.663322 L215.886143,231.906612 C215.886143,213.366075 200.626426,198.339079 181.798754,198.339079 L147.711365,198.339079 C138.297856,198.339079 130.66767,190.825258 130.66767,181.555312 L130.66767,159.176957 L85.2178181,159.176957 L85.2178181,181.555312 C85.2178181,190.825258 77.5876322,198.339079 68.1741236,198.339079 L34.0873891,198.339079 C15.2597172,198.339079 0,213.366075 0,231.906612 L0,332.608566 L232.929838,332.608566 Z" id="Path" fill="#FED198" fill-rule="nonzero"></path>
                            <g id="Group" stroke-width="1" fill="none" fill-rule="evenodd" transform="translate(21.374421, 247.080649)">
                                <path d="M22.430656,85.3029682 L11.1329844,85.3029682 L11.1329844,70.2772736 C-2.76322977,51.5562023 -3.68951386,26.2068951 8.80002433,6.5188398 L12.929572,0.00911634774 L22.4703632,6.06692942 L18.3408156,12.5707924 C8.03712556,28.8057054 9.18407747,49.7980495 21.1932238,64.8185348 C21.9951788,65.8187284 22.4300051,67.067668 22.4300051,68.3504684 L22.4300051,85.3029682 L22.430656,85.3029682 Z" id="Path" fill="#F5B789" fill-rule="nonzero"></path>
                                <path d="M158.397834,85.3029682 L147.100163,85.3029682 L147.100163,68.3504684 C147.100163,67.067668 147.534989,65.8187284 148.336944,64.8185348 C160.34609,49.8045612 161.493042,28.8115659 151.189352,12.5766529 L147.059805,6.06692942 L156.600596,0.00911634774 L160.730143,6.5188398 C173.219682,26.2062439 172.293397,51.5555512 158.397183,70.2772736 L158.397183,85.3029682 L158.397834,85.3029682 Z" id="Path" fill="#F5B789" fill-rule="nonzero"></path>
                            </g>
                            <path d="M185.244983,134.943399 L185.244983,78.7167127 C185.244983,35.2424308 149.624339,0 105.68431,0 C61.7442812,0 26.1242925,35.2424308 26.1242925,78.7173607 L26.1242925,134.944047 C26.1242925,153.577641 41.3885051,168.680059 60.2217236,168.680059 L151.147552,168.680059 C169.98077,168.680059 185.244983,153.576993 185.244983,134.943399 Z" id="Path" fill="#1A1A1A" fill-rule="nonzero" transform="translate(105.684638, 84.340029) scale(-1, 1) translate(-105.684638, -84.340029) "></path>
                            <path d="M105.816579,0 C98.1288411,0.00583129956 90.4868678,1.11896159 83.1227488,3.30051555 C116.777766,13.2467688 139.845555,43.9129253 139.857323,78.7173607 L139.857323,134.944047 C139.857323,153.577641 124.618487,168.680059 105.816579,168.680059 L151.204238,168.680059 C170.006147,168.680059 185.244983,153.577641 185.244983,134.944047 L185.244983,78.7173607 C185.244983,35.2424308 149.683558,0 105.816579,0 Z" id="Path" fill="#1A1A1A" fill-rule="nonzero"></path>
                            <path d="M293.54205,223.322894 L242.243439,223.322894 C242.243439,204.951746 257.553154,190.062038 276.442513,190.062038 L327.741124,190.062038 C327.741124,208.433187 312.431409,223.322894 293.54205,223.322894 Z" id="Path" fill="#FED198" fill-rule="nonzero"></path>
                            <path d="M130.592899,180.351329 C130.592899,180.262186 130.592899,180.173646 130.592899,180.084504 L130.592899,159.176957 L85.4976844,159.176957 L85.4976844,180.084504 C85.4976844,180.173646 85.4976844,180.262186 85.4976844,180.351329 C99.6935207,186.963539 116.424977,186.963539 130.621462,180.351329 L130.592899,180.351329 Z" id="Path" fill="#F7C58A" fill-rule="nonzero"></path>
                            <path d="M56.0587921,95.4401916 L56.0587921,119.488063 C56.0587921,147.249913 78.9173633,169.751312 107.119887,169.751312 C135.322411,169.751312 158.181026,147.249913 158.181026,119.488063 L158.181026,74.809619 C158.192097,66.4826084 156.09348,58.2843096 152.070806,50.9625383 L56.0587921,95.4401916 Z" id="Path" fill="#FED198" fill-rule="nonzero" transform="translate(107.119909, 110.356925) scale(-1, 1) translate(-107.119909, -110.356925) "></path>
                            <rect id="Rectangle" fill="#FFFFFF" fill-rule="nonzero" x="68.8731347" y="230.450221" width="78.3728774" height="61.7701623"></rect>
                            <path d="M244.292301,225.401833 L215.886143,276.184278 L215.886143,231.044327 C215.886143,212.345032 200.626426,197.189364 181.798754,197.189364 L163.618551,197.189364 L107.942744,270.541134 L55.1075529,197.189364 L34.0873891,197.189364 C15.2597172,197.189364 0,212.345032 0,231.044327 L0,332.608566 L232.929838,332.608566 L289.742153,225.401833 L244.292301,225.401833 Z" id="Path" fill="#E0DEED" fill-rule="nonzero"></path>
                            <path d="M289.347838,225.231698 L243.973295,225.231698 L215.614205,276.094733 L215.614205,230.883146 C215.608323,213.601228 202.563404,199.088376 185.321156,197.189364 C175.112145,276.133808 127.520639,314.28662 85.4976844,332.608566 L232.629659,332.608566 L289.347838,225.231698 Z" id="Path" fill-opacity="0.391744974" fill="#4F439A" fill-rule="nonzero"></path>
                            <g id="Group" stroke-width="1" fill="none" fill-rule="evenodd" transform="translate(21.374421, 247.080649)">
                                <path d="M22.430656,85.3029682 L11.1329844,85.3029682 L11.1329844,70.2772736 C-2.76322977,51.5562023 -3.68951386,26.2068951 8.80002433,6.5188398 L12.929572,0.00911634774 L22.4703632,6.06692942 L18.3408156,12.5707924 C8.03712556,28.8057054 9.18407747,49.7980495 21.1932238,64.8185348 C21.9951788,65.8187284 22.4300051,67.067668 22.4300051,68.3504684 L22.4300051,85.3029682 L22.430656,85.3029682 Z" id="Path" fill="#FFFFFF" fill-rule="nonzero"></path>
                                <path d="M158.397834,85.3029682 L147.100163,85.3029682 L147.100163,68.3504684 C147.100163,67.067668 147.534989,65.8187284 148.336944,64.8185348 C160.34609,49.8045612 161.493042,28.8115659 151.189352,12.5766529 L147.059805,6.06692942 L156.600596,0.00911634774 L160.730143,6.5188398 C173.219682,26.2062439 172.293397,51.5555512 158.397183,70.2772736 L158.397183,85.3029682 L158.397834,85.3029682 Z" id="Path" fill="#FFFFFF" fill-rule="nonzero"></path>
                            </g>
                            <path d="M108.307377,119.488063 L108.307377,74.809619 C108.318705,66.4826084 106.171285,58.2843096 102.055061,50.9625383 L87.3208151,57.6310972 C89.6776255,65.0088582 90.8797795,72.6762207 90.8911521,80.3944245 L90.8911521,136.242479 C90.8911521,154.750594 75.2979379,169.751312 56.0587921,169.751312 C84.9178452,169.751312 108.307377,147.249913 108.307377,119.488063 L108.307377,119.488063 Z" id="Path" fill="#F7C58A" fill-rule="nonzero" transform="translate(82.183085, 110.356925) scale(-1, 1) translate(-82.183085, -110.356925) "></path>
                        </g>
                    </g>
                </g>
                <g id="writing" transform="translate(270.101453, 0.000000)" fill-rule="nonzero">
                    <path d="M9.1573311,23.8886898 C4.21007063,23.8886898 0,27.899688 0,32.8469485 L0,74.6521557 C0,79.5994161 4.21007063,83.6104144 9.1573311,83.6104144 L12.1434173,83.6104144 L12.1434173,98.9389903 C12.1434173,100.145867 12.8697207,101.236877 13.9863923,101.697232 C14.3565428,101.85198 14.7445783,101.925077 15.1295036,101.925077 C15.9047972,101.925077 16.6692043,101.621802 17.2407599,101.050247 L34.4815198,83.6104144 L69.0781281,83.6104144 C74.0253885,83.6104144 78.0363867,79.5994161 78.0363867,74.6521557 L78.0363867,32.8469485 C78.0363867,27.899688 74.0253885,23.8886898 69.0781281,23.8886898 L9.1573311,23.8886898 Z" id="Path" stroke="#AD5DA3" stroke-width="3.39750255" fill="#AD5DA3"></path>
                    <path d="M39.2172658,65.693897 L21.101676,65.693897 C19.4515524,65.693897 18.1155898,64.3579344 18.1155898,62.7078108 C18.1155898,61.0576872 19.4515524,59.7217245 21.101676,59.7217245 L39.2172658,59.7217245 C40.8673894,59.7217245 42.203352,61.0576872 42.203352,62.7078108 C42.203352,64.3579344 40.8673894,65.693897 39.2172658,65.693897 Z" id="Path" fill="#FFFFFF"></path>
                    <path d="M58.4580813,55.9673432 C58.3313281,56.0933188 58.204575,56.2200718 58.077822,56.2620638 L40.4676894,65.4263934 C39.243705,65.9753977 37.9769513,65.6379079 37.1316713,64.7934053 C36.2871687,63.9489029 35.9496788,62.6813716 36.4986831,61.4573872 L45.6630128,43.8472546 C45.7050047,43.7205016 45.8317577,43.5937484 45.9585109,43.4677728 L56.0933188,45.8317577 L56.979813,46.0432722 L58.4580813,55.9673432 Z" id="Path" fill="#E0DEED"></path>
                    <path d="M101.038582,13.5555873 L94.7040356,19.8901336 L84.2729522,17.6521243 L83.9774541,17.6101326 L82.0349429,7.22104091 L88.3694893,0.886494349 C89.5514817,-0.295498116 91.4100095,-0.295498116 92.5920019,0.886494349 L101.037805,9.33307461 C102.220575,10.5150671 102.220575,12.3735948 101.038582,13.5555873 L101.038582,13.5555873 Z" id="Path" fill="#7C8388"></path>
                    <path d="M56.979813,46.0432722 L58.4580813,55.9673432 C58.3313281,56.0933188 58.204575,56.2200718 58.077822,56.2620638 L40.4676894,65.4263934 C39.243705,65.9753977 37.9769513,65.6379079 37.1316713,64.7934053 L56.0933188,45.8317577 L56.979813,46.0432722 Z" id="Path" fill="#B2B2B2"></path>
                    <path d="M101.038582,13.5555873 L94.7040356,19.8901336 L84.2729522,17.6521243 L96.815292,5.10978458 L101.038582,9.33307461 C102.220575,10.5150671 102.220575,12.3735948 101.038582,13.5555873 Z" id="Path" fill="#575F64"></path>
                    <path d="M94.7040356,19.8901336 L58.9223244,55.6710675 C58.7955712,55.7978205 58.6268263,55.882582 58.4580813,55.9673432 L45.9585109,43.4669952 C46.0424946,43.2982503 46.127256,43.1295054 46.254009,43.0027522 L82.0349429,7.22104091 L94.7040356,19.8901336 Z" id="Path" fill="#E0DEED"></path>
                    <path d="M94.7040356,19.8901336 L58.9223244,55.6710675 C58.7955712,55.7978205 58.6268263,55.882582 58.4580813,55.9673432 L52.208296,49.7167805 L88.3694893,13.5555873 L94.7040356,19.8901336 Z" id="Path" fill="#B2B2B2"></path>
                </g>
            </g>
        </g>
    </g>
</svg>