<?xml version="1.0" encoding="UTF-8"?>
<svg width="400px" height="400px" viewBox="0 0 400 400" version="1.1" xmlns="http://www.w3.org/2000/svg" xmlns:xlink="http://www.w3.org/1999/xlink">
    <!-- Generator: Sketch 58 (84663) - https://sketch.com -->
    <title>Intro screen - Feed</title>
    <desc>Created with Sketch.</desc>
    <g id="Intro-screen---Feed" stroke="none" stroke-width="1" fill="none" fill-rule="evenodd">
        <g id="Group-34">
            <g id="Group-6" fill-rule="nonzero">
                <g id="rr">
                    <g id="girl">
                        <path d="M199.726236,409.677325 C84.0730461,409.677325 -10.2256327,315.3789 -10.2256327,199.727016 C-10.2256327,84.0739622 84.072656,-10.2240724 199.726236,-10.2240724 C315.379943,-10.2240724 409.678105,84.0740893 409.678105,199.727796 C409.678105,315.378755 315.37801,409.677325 199.726236,409.677325 Z" id="Path" stroke="#FFFFFF" stroke-width="20.4512655" fill="#EBECED"></path>
                        <path d="M133.030156,235.612984 C116.37486,193.594017 81.3892214,155.566453 125.413253,78.9675408 C143.54465,47.4201576 171.240282,26.6143011 199.851065,33.6585519 C228.461848,26.6150813 256.15748,47.4209378 274.288877,78.9675408 C318.311348,155.566453 283.32805,193.594017 266.670413,235.612984 L199.853406,235.778382 L133.032497,235.612984 L133.030156,235.612984 Z" id="Path" fill="#1A1A1A"></path>
                        <path d="M87.3092319,301.30029 C85.2199082,304.673011 80.0075215,333.354791 74.242767,355.099985 C108.537946,382.830724 152.188271,399.449351 199.723896,399.449351 C247.26186,399.449351 290.911405,382.830724 325.206584,355.099985 C319.439489,333.357131 314.227883,304.67067 312.138559,301.30029 C280.052851,249.491617 230.595642,272.108272 227.223702,212.822348 C227.223702,212.822348 211.312698,224.695917 199.163726,224.804362 C187.013973,224.912807 172.208486,213.571321 172.208486,213.571321 C168.844347,272.805754 119.372314,249.530626 87.3092319,301.30029 Z" id="Path" fill="#FED198"></path>
                        <path d="M228.085021,221.196026 C227.686349,218.597245 227.393001,215.818241 227.223702,212.823908 C227.223702,212.823908 211.312698,224.697477 199.163726,224.805922 C187.013973,224.914367 172.208486,213.572882 172.208486,213.572882 C172.036846,216.621827 171.735696,219.44218 171.324541,222.07529 C171.635833,222.321047 171.944785,222.570705 172.261538,222.814121 L172.257637,222.857031 C173.193074,223.671539 187.414986,235.90087 199.161385,235.777602 C210.907785,235.90009 225.128137,223.669199 226.065133,222.857031 L226.062793,222.814121 C226.752473,222.285939 227.421868,221.742153 228.082681,221.197587 L228.085021,221.196026 Z" id="Path" fill="#F0B97D"></path>
                        <path d="M172.259198,213.61033 C173.194634,214.316394 187.416546,224.910466 199.162946,224.805153 C210.909345,224.910466 225.129697,214.314833 226.066694,213.61033 C243.821264,203.259674 258.389577,172.742129 255.101115,139.667933 C252.407932,112.575381 223.099667,152.300617 202.687022,96.4006765 C173.796153,156.920847 146.355641,121.121479 143.227117,144.057229 C139.778718,169.328059 153.966303,201.1251 172.259198,213.611891 L172.259198,213.61033 L172.259198,213.61033 Z" id="Path" fill="#FED198"></path>
                        <path d="M148.948961,255.98662 C131.464334,265.326162 99.4792692,265.608588 87.3092319,285.174737 C85.1894811,288.581786 79.8686494,330.322229 74.0157344,354.918203 C108.342121,382.757387 152.081386,399.450132 199.721555,399.450132 C247.365624,399.450132 291.100989,382.759728 325.429716,354.918203 C319.576801,330.322229 313.616221,288.905561 312.136219,285.174737 C304.055108,264.792519 266.647008,263.941342 249.144436,254.542506 C221.931737,353.271241 181.371707,360.001859 148.950522,255.995202 L148.94428,255.9874 L148.948961,255.9874 L148.948961,255.98662 Z" id="Path" fill="#E0DEED"></path>
                        <g id="Group" transform="translate(120.927995, 245.756892)" fill="#FFFFFF">
                            <path d="M39.6792056,0.417396626 C38.5432627,31.1338874 43.7657917,74.6500213 78.2310503,85.7707157 C45.7833387,87.1274498 24.7278244,40.3751267 0.74195176,28.1301921 L39.6784255,0.419737168 L39.6784255,0.417396626 L39.6792056,0.417396626 Z" id="Path"></path>
                            <path d="M118.715402,0.417396626 C119.906738,31.1338874 114.424409,74.6500213 78.2318305,85.7707157 C112.304658,87.1274498 134.415757,40.3751267 159.598427,28.1301921 L118.713842,0.419737168 L118.715402,0.417396626 Z" id="Path"></path>
                        </g>
                    </g>
                </g>
            </g>
            <g id="Group-30" transform="translate(284.028840, 4.369674)">
                <rect id="Rectangle" fill="#FFFFFF" x="17.4786978" y="4.36967446" width="87.3934892" height="87.3934892"></rect>
                <g id="noun_Newspaper_772236" fill-rule="nonzero">
                    <g id="Group">
                        <path d="M16.1771349,4.62511171 L16.1771349,13.8753351 L16.1771349,13.8753351 L4.41613657,13.8753351 C2.22666914,13.8753351 0.451755098,15.6502492 0.451755098,17.8397166 L0.451755098,84.0448872 L0.451755098,84.0448872 C0.451755098,89.8593133 5.20901286,94.484425 10.891293,94.484425 L98.1076853,94.484425 C104.054258,94.484425 108.943661,89.5950212 108.943661,83.648449 L108.943661,4.62511171 C108.943661,2.43564429 107.168747,0.660730245 104.97928,0.660730245 L20.1415164,0.660730245 C17.952049,0.660730245 16.1771349,2.43564429 16.1771349,4.62511171 Z M103.789965,83.648449 C103.789965,86.6878081 101.27919,89.1985831 98.2398314,89.1985831 L20.1415164,89.1985831 C20.1415164,89.1985831 20.1415164,89.1985831 20.1415164,89.066437 C20.2736624,88.6699989 20.5379545,88.4057068 20.6701006,88.0092686 C20.6701006,88.0092686 20.6701006,87.8771226 20.6701006,87.8771226 C20.8022466,87.6128305 20.9343927,87.2163923 21.0665387,86.8199542 C21.0665387,86.6878081 21.0665387,86.5556621 21.1986848,86.423516 C21.3308308,86.1592239 21.3308308,85.8949318 21.3308308,85.4984937 C21.3308308,85.3663477 21.3308308,85.2342016 21.3308308,85.1020556 C21.3308308,84.7056174 21.4629769,84.3091793 21.4629769,83.7805951 L21.4629769,13.8753351 L21.4629769,9.91095367 C21.4629769,7.72148625 23.2378909,5.9465722 25.4273584,5.9465722 L99.6934379,5.9465722 C101.882905,5.9465722 103.657819,7.72148625 103.657819,9.91095367 L103.657819,83.648449 L103.657819,83.648449 L103.789965,83.648449 Z" id="Shape" fill="#AD5DA3"></path>
                        <rect id="Rectangle" fill="#F6ECF5" x="32.0346608" y="16.5182561" width="26.5613558" height="30.1292992" rx="1.98219073"></rect>
                        <rect id="Rectangle" fill="#B2B2B2" x="67.3176559" y="29.4685689" width="25.7684796" height="4.09652752" rx="1.98219073"></rect>
                        <rect id="Rectangle" fill="#B2B2B2" x="67.3176559" y="16.5182561" width="25.7684796" height="4.09652752" rx="1.98219073"></rect>
                        <rect id="Rectangle" fill="#B2B2B2" x="67.3176559" y="42.5510278" width="25.7684796" height="4.09652752" rx="1.98219073"></rect>
                        <rect id="Rectangle" fill="#B2B2B2" x="32.0346608" y="55.5013406" width="61.0514746" height="4.09652752" rx="1.98219073"></rect>
                        <rect id="Rectangle" fill="#B2B2B2" x="32.0346608" y="81.4019662" width="61.0514746" height="4.09652752" rx="1.98219073"></rect>
                        <rect id="Rectangle" fill="#B2B2B2" x="32.0346608" y="68.4516534" width="61.0514746" height="4.09652752" rx="1.98219073"></rect>
                    </g>
                </g>
            </g>
        </g>
    </g>
</svg>