<?xml version="1.0" encoding="UTF-8"?>
<svg width="400px" height="400px" viewBox="0 0 400 400" version="1.1" xmlns="http://www.w3.org/2000/svg" xmlns:xlink="http://www.w3.org/1999/xlink">
    <!-- Generator: Sketch 58 (84663) - https://sketch.com -->
    <title>Intro screen - Events</title>
    <desc>Created with Sketch.</desc>
    <defs>
        <path d="M195.363768,389.139213 C302.964943,389.139213 390.727537,301.735146 390.727537,194.570747 C390.727537,87.4040676 302.967232,0 195.363768,0 C87.7603047,0 0,87.4040676 0,194.569987 C0,301.734386 87.7603047,389.139213 195.363768,389.139213 Z" id="path-1"></path>
    </defs>
    <g id="Intro-screen---Events" stroke="none" stroke-width="1" fill="none" fill-rule="evenodd">
        <g id="Group-35" transform="translate(5.000000, 1.000000)">
            <g id="Group-13" transform="translate(0.000000, 8.421053)">
                <g id="support">
                    <mask id="mask-2" fill="white">
                        <use xlink:href="#path-1"></use>
                    </mask>
                    <path stroke="#FFFFFF" stroke-width="19.7064089" d="M195.363768,398.992418 C82.3279873,398.992418 -9.85320444,307.185656 -9.85320444,194.569987 C-9.85320444,81.9531775 82.3276057,-9.85320444 195.363768,-9.85320444 C308.400055,-9.85320444 400.580741,81.9533012 400.580741,194.570747 C400.580741,307.185515 308.398165,398.992418 195.363768,398.992418 Z"></path>
                    <g mask="url(#mask-2)">
                        <g transform="translate(53.738272, 69.886226)">
                            <path d="M228.026052,325.606281 L283.642318,221.547559 L239.149305,221.547559 L211.341172,270.838831 L211.341172,227.024367 C211.341172,208.874157 196.402712,194.163519 177.971412,194.163519 L144.601652,194.163519 C135.386322,194.163519 127.916772,186.807884 127.916772,177.733095 L127.916772,155.825863 L83.4237588,155.825863 L83.4237588,177.733095 C83.4237588,186.807884 75.9542084,194.163519 66.7388789,194.163519 L33.3697599,194.163519 C14.93846,194.163519 0,208.874157 0,227.024367 L0,325.606281 L228.026052,325.606281 Z" id="Path" fill="#FED198" fill-rule="nonzero"></path>
                            <g id="Group" stroke-width="1" fill="none" fill-rule="evenodd" transform="translate(20.924433, 241.878951)">
                                <path d="M21.9584317,83.5071162 L10.8986058,83.5071162 L10.8986058,68.797752 C-2.70505651,50.4708086 -3.61183989,25.655171 8.61476066,6.38160107 L12.6573704,0.00892442463 L21.9973029,5.93920459 L17.9546931,12.3061441 C7.86792292,28.1992695 8.99072847,48.7496696 20.7470506,63.4539341 C21.5321224,64.4330709 21.9577944,65.6557171 21.9577944,66.9115111 L21.9577944,83.5071162 L21.9584317,83.5071162 Z" id="Path" fill="#F5B789" fill-rule="nonzero"></path>
                                <path d="M155.063143,83.5071162 L144.003317,83.5071162 L144.003317,66.9115111 C144.003317,65.6557171 144.428989,64.4330709 145.214061,63.4539341 C156.970383,48.7560441 158.093189,28.2050066 148.006418,12.3118812 L143.963809,5.93920459 L153.303741,0.00892442463 L157.346351,6.38160107 C169.572951,25.6545335 168.666168,50.4701711 155.062506,68.797752 L155.062506,83.5071162 L155.063143,83.5071162 Z" id="Path" fill="#F5B789" fill-rule="nonzero"></path>
                            </g>
                            <path d="M181.345089,132.102485 L181.345089,77.0595188 C181.345089,34.5004848 146.474353,0 103.459377,0 C60.4444016,0 25.5743074,34.5004848 25.5743074,77.0601531 L25.5743074,132.10312 C25.5743074,150.344427 40.5171681,165.128899 58.9538979,165.128899 L147.965498,165.128899 C166.402228,165.128899 181.345089,150.343793 181.345089,132.102485 Z" id="Path" fill="#1A1A1A" fill-rule="nonzero" transform="translate(103.459698, 82.564450) scale(-1, 1) translate(-103.459698, -82.564450) "></path>
                            <path d="M103.588861,0 C96.0629707,0.00570853536 88.5818811,1.09540451 81.3727962,3.23103101 C114.319287,12.9678895 136.901438,42.9884426 136.912959,77.0601531 L136.912959,132.10312 C136.912959,150.344427 121.99494,165.128899 103.588861,165.128899 L148.020991,165.128899 C166.42707,165.128899 181.345089,150.344427 181.345089,132.10312 L181.345089,77.0601531 C181.345089,34.5004848 146.532325,0 103.588861,0 Z" id="Path" fill="#1A1A1A" fill-rule="nonzero"></path>
                            <path d="M287.362217,218.62136 L237.143577,218.62136 C237.143577,200.636972 252.130982,186.060732 270.622671,186.060732 L320.841311,186.060732 C320.841311,204.045119 305.853906,218.62136 287.362217,218.62136 Z" id="Path" fill="#FED198" fill-rule="nonzero"></path>
                            <path d="M127.843575,176.554459 C127.843575,176.467193 127.843575,176.380517 127.843575,176.293251 L127.843575,155.825863 L83.6977332,155.825863 L83.6977332,176.293251 C83.6977332,176.380517 83.6977332,176.467193 83.6977332,176.554459 C97.5947098,183.027465 113.973925,183.027465 127.871537,176.554459 L127.843575,176.554459 Z" id="Path" fill="#F7C58A" fill-rule="nonzero"></path>
                            <path d="M54.878607,93.4309244 L54.878607,116.972525 C54.878607,144.149915 77.2559452,166.1776 104.864732,166.1776 C132.473518,166.1776 154.850899,144.149915 154.850899,116.972525 L154.850899,73.2346796 C154.861737,65.0829745 152.807302,57.0572715 148.869315,49.8896427 L54.878607,93.4309244 Z" id="Path" fill="#FED198" fill-rule="nonzero" transform="translate(104.864753, 108.033621) scale(-1, 1) translate(-104.864753, -108.033621) "></path>
                            <rect id="Rectangle" fill="#FFFFFF" fill-rule="nonzero" x="67.423174" y="225.598637" width="76.7229221" height="60.4697378"></rect>
                            <path d="M239.149305,220.656532 L211.341172,270.369872 L211.341172,226.180236 C211.341172,207.874611 196.402712,193.038009 177.971412,193.038009 L160.17395,193.038009 L105.670265,264.845531 L53.9473939,193.038009 L33.3697599,193.038009 C14.93846,193.038009 0,207.874611 0,226.180236 L0,325.606281 L228.026052,325.606281 L283.642318,220.656532 L239.149305,220.656532 Z" id="Path" fill="#E0DEED" fill-rule="nonzero"></path>
                            <path d="M283.256304,220.489978 L238.837015,220.489978 L211.074959,270.282213 L211.074959,226.022448 C211.069201,209.10436 198.298911,194.897042 181.419658,193.038009 C171.425574,270.320464 124.835994,307.670059 83.6977332,325.606281 L227.732193,325.606281 L283.256304,220.489978 Z" id="Path" fill-opacity="0.391744974" fill="#4F439A" fill-rule="nonzero"></path>
                            <g id="Group" stroke-width="1" fill="none" fill-rule="evenodd" transform="translate(20.924433, 241.878951)">
                                <path d="M21.9584317,83.5071162 L10.8986058,83.5071162 L10.8986058,68.797752 C-2.70505651,50.4708086 -3.61183989,25.655171 8.61476066,6.38160107 L12.6573704,0.00892442463 L21.9973029,5.93920459 L17.9546931,12.3061441 C7.86792292,28.1992695 8.99072847,48.7496696 20.7470506,63.4539341 C21.5321224,64.4330709 21.9577944,65.6557171 21.9577944,66.9115111 L21.9577944,83.5071162 L21.9584317,83.5071162 Z" id="Path" fill="#FFFFFF" fill-rule="nonzero"></path>
                                <path d="M155.063143,83.5071162 L144.003317,83.5071162 L144.003317,66.9115111 C144.003317,65.6557171 144.428989,64.4330709 145.214061,63.4539341 C156.970383,48.7560441 158.093189,28.2050066 148.006418,12.3118812 L143.963809,5.93920459 L153.303741,0.00892442463 L157.346351,6.38160107 C169.572951,25.6545335 168.666168,50.4701711 155.062506,68.797752 L155.062506,83.5071162 L155.063143,83.5071162 Z" id="Path" fill="#FFFFFF" fill-rule="nonzero"></path>
                            </g>
                            <path d="M106.027222,116.972525 L106.027222,73.2346796 C106.038311,65.0829745 103.9361,57.0572715 99.9065337,49.8896427 L85.4824822,56.4178109 C87.7896755,63.6402506 88.966521,71.146195 88.9776542,78.7019103 L88.9776542,133.374216 C88.9776542,151.492687 73.7127181,166.1776 54.878607,166.1776 C83.1301011,166.1776 106.027222,144.149915 106.027222,116.972525 L106.027222,116.972525 Z" id="Path" fill="#F7C58A" fill-rule="nonzero" transform="translate(80.452914, 108.033621) scale(-1, 1) translate(-80.452914, -108.033621) "></path>
                        </g>
                    </g>
                </g>
            </g>
            <g id="Group-29" transform="translate(261.052632, 0.000000)">
                <path d="M4.21052632,33.6842105 L101.052632,33.6842105 L101.052632,94.7368421 C101.052632,98.2249563 98.2249563,101.052632 94.7368421,101.052632 L10.5263158,101.052632 C7.03820158,101.052632 4.21052632,98.2249563 4.21052632,94.7368421 L4.21052632,33.6842105 L4.21052632,33.6842105 Z" id="Rectangle" stroke="#FFFFFF" stroke-width="4.21052632" fill="#FFFFFF"></path>
                <g id="Group-25" fill-rule="nonzero">
                    <path d="M33.0766202,54.5303425 L33.0766202,44.5097316 C33.0766202,43.5033836 33.8888861,42.6878024 34.8911432,42.6878024 L47.5928045,42.6878024 C48.5950616,42.6878024 49.4073275,43.5033836 49.4073275,44.5097316 L49.4073275,54.5303425 C49.4073275,55.5366905 48.5950616,56.3522718 47.5928045,56.3522718 L34.8911432,56.3522718 C33.8888861,56.3522718 33.0766202,55.5366905 33.0766202,54.5303425 Z" id="Path" fill="#D2A0CD" opacity="0.200000003"></path>
                    <path d="M54.9229439,54.5303425 L54.9229439,44.5097316 C54.9229439,43.5033836 55.7352098,42.6878024 56.7374669,42.6878024 L69.4391281,42.6878024 C70.4413853,42.6878024 71.2536512,43.5033836 71.2536512,44.5097316 L71.2536512,54.5303425 C71.2536512,55.5366905 70.4413853,56.3522718 69.4391281,56.3522718 L56.7374669,56.3522718 C55.7352098,56.3522718 54.9229439,55.5366905 54.9229439,54.5303425 Z" id="Path" fill="#D2A0CD" opacity="0.200000003"></path>
                    <path d="M76.7692675,54.5303425 L76.7692675,44.5097316 C76.7692675,43.5033836 77.5815334,42.6878024 78.5837906,42.6878024 L91.2854518,42.6878024 C92.2877089,42.6878024 93.0999748,43.5033836 93.0999748,44.5097316 L93.0999748,54.5303425 C93.0999748,55.5366905 92.2877089,56.3522718 91.2854518,56.3522718 L78.5837906,56.3522718 C77.5815334,56.3522718 76.7692675,55.5366905 76.7692675,54.5303425 Z" id="Path" fill="#D2A0CD" opacity="0.200000003"></path>
                    <path d="M11.2302965,72.749635 L11.2302965,62.7290241 C11.2302965,61.7226762 12.0425624,60.9070949 13.0448196,60.9070949 L25.7464808,60.9070949 C26.748738,60.9070949 27.5610039,61.7226762 27.5610039,62.7290241 L27.5610039,72.749635 C27.5610039,73.755983 26.748738,74.5715643 25.7464808,74.5715643 L13.0448196,74.5715643 C12.0425624,74.5715643 11.2302965,73.755983 11.2302965,72.749635 Z" id="Path" fill="#D2A0CD" opacity="0.200000003"></path>
                    <path d="M33.0766202,72.749635 L33.0766202,62.7290241 C33.0766202,61.7226762 33.8888861,60.9070949 34.8911432,60.9070949 L47.5928045,60.9070949 C48.5950616,60.9070949 49.4073275,61.7226762 49.4073275,62.7290241 L49.4073275,72.749635 C49.4073275,73.755983 48.5950616,74.5715643 47.5928045,74.5715643 L34.8911432,74.5715643 C33.8888861,74.5715643 33.0766202,73.755983 33.0766202,72.749635 Z" id="Path" fill="#D2A0CD" opacity="0.200000003"></path>
                    <path d="M54.9229439,72.749635 L54.9229439,62.7290241 C54.9229439,61.7226762 55.7352098,60.9070949 56.7374669,60.9070949 L69.4391281,60.9070949 C70.4413853,60.9070949 71.2536512,61.7226762 71.2536512,62.7290241 L71.2536512,72.749635 C71.2536512,73.755983 70.4413853,74.5715643 69.4391281,74.5715643 L56.7374669,74.5715643 C55.7352098,74.5715643 54.9229439,73.755983 54.9229439,72.749635 Z" id="Path" fill="#D2A0CD" opacity="0.200000003"></path>
                    <path d="M76.7692675,72.749635 L76.7692675,62.7290241 C76.7692675,61.7226762 77.5815334,60.9070949 78.5837906,60.9070949 L91.2854518,60.9070949 C92.2877089,60.9070949 93.0999748,61.7226762 93.0999748,62.7290241 L93.0999748,72.749635 C93.0999748,73.755983 92.2877089,74.5715643 91.2854518,74.5715643 L78.5837906,74.5715643 C77.5815334,74.5715643 76.7692675,73.755983 76.7692675,72.749635 Z" id="Path" fill="#D2A0CD" opacity="0.200000003"></path>
                    <path d="M11.2302965,91.8798922 L11.2302965,81.8592813 C11.2302965,80.8529333 12.0425624,80.037352 13.0448196,80.037352 L25.7464808,80.037352 C26.748738,80.037352 27.5610039,80.8529333 27.5610039,81.8592813 L27.5610039,91.8798922 C27.5610039,92.8862401 26.748738,93.7018214 25.7464808,93.7018214 L13.0448196,93.7018214 C12.0425624,93.7018214 11.2302965,92.8862401 11.2302965,91.8798922 Z" id="Path" fill="#D2A0CD" opacity="0.200000003"></path>
                    <path d="M33.0766202,91.8798922 L33.0766202,81.8592813 C33.0766202,80.8529333 33.8888861,80.037352 34.8911432,80.037352 L47.5928045,80.037352 C48.5950616,80.037352 49.4073275,80.8529333 49.4073275,81.8592813 L49.4073275,91.8798922 C49.4073275,92.8862401 48.5950616,93.7018214 47.5928045,93.7018214 L34.8911432,93.7018214 C33.8888861,93.7018214 33.0766202,92.8862401 33.0766202,91.8798922 Z" id="Path" fill="#D2A0CD" opacity="0.200000003"></path>
                    <path d="M54.9229439,91.8798922 L54.9229439,81.8592813 C54.9229439,80.8529333 55.7352098,80.037352 56.7374669,80.037352 L69.4391281,80.037352 C70.4413853,80.037352 71.2536512,80.8529333 71.2536512,81.8592813 L71.2536512,91.8798922 C71.2536512,92.8862401 70.4413853,93.7018214 69.4391281,93.7018214 L56.7374669,93.7018214 C55.7352098,93.7018214 54.9229439,92.8862401 54.9229439,91.8798922 Z" id="Path" fill="#D2A0CD" opacity="0.200000003"></path>
                    <path d="M1.06736649,22.3593588 L1.06736649,34.2817423 L103.53455,34.2817423 L103.53455,22.3593588 C103.53455,16.1288966 98.5040514,11.0778657 92.2989163,11.0778657 L12.3029999,11.0778657 C6.09786476,11.0778657 1.06736649,16.1288966 1.06736649,22.3593588 Z" id="Path" fill="#AD5DA3"></path>
                    <path d="M92.8823845,104.068599 L12.3807734,104.068599 C5.55424275,104.068599 0,98.5272546 0,91.7153827 L0,22.3593588 C0,15.5480227 5.55424275,10.0061426 12.3807734,10.0061426 L92.8829216,10.0061426 C99.7089151,10.0061426 105.263158,15.5480227 105.263158,22.3593588 L105.263158,91.7153827 C105.263158,98.5272546 99.7089151,104.068599 92.8823845,104.068599 Z M12.3029999,12.1495888 C6.69612368,12.1495888 2.13473298,16.7295974 2.13473298,22.3593588 L2.13473298,91.7153827 C2.13473298,97.3451441 6.69612368,101.925153 12.3029999,101.925153 L92.29945,101.925153 C97.9063261,101.925153 102.467717,97.3451441 102.467717,91.7153827 L102.467717,22.3593588 C102.467717,16.7295974 97.9063261,12.1495888 92.29945,12.1495888 L12.3029999,12.1495888 Z" id="Shape" fill="#AD5DA3"></path>
                    <path d="M103.53455,35.3534654 L1.06736649,35.3534654 C0.478180188,35.3534654 0,34.8733335 0,34.2817423 L0,22.3593588 C0,15.5480227 5.51935213,10.0061426 12.3029999,10.0061426 L92.29945,10.0061426 C99.082564,10.0061426 104.601916,15.5480227 104.601916,22.3593588 L104.601916,34.2817423 C104.601916,34.8733335 104.123736,35.3534654 103.53455,35.3534654 Z M2.13473298,33.2100192 L102.467183,33.2100192 L102.467183,22.3593588 C102.467183,16.7295974 97.9057925,12.1495888 92.2989163,12.1495888 L12.3029999,12.1495888 C6.69612368,12.1495888 2.13473298,16.7295974 2.13473298,22.3593588 L2.13473298,33.2100192 Z" id="Shape" fill="#AD5DA3"></path>
                    <path d="M81.1198533,25.1860285 L80.8951727,25.1860285 C77.9476401,25.1860285 75.5583402,22.7869763 75.5583402,19.827413 L75.5583402,6.4308744 C75.5583402,3.47131109 77.9476401,1.07225895 80.8951727,1.07225895 L81.1198533,1.07225895 C84.0673859,1.07225895 86.4566858,3.47131109 86.4566858,6.4308744 L86.4566858,19.827413 C86.4566858,22.7864405 84.0673859,25.1860285 81.1198533,25.1860285 Z" id="Path" fill="#D2A0CD"></path>
                    <path d="M23.7067435,25.1860285 L23.4820628,25.1860285 C20.5345302,25.1860285 18.1452304,22.7869763 18.1452304,19.827413 L18.1452304,6.4308744 C18.1452304,3.47131109 20.5345302,1.07225895 23.4820628,1.07225895 L23.7067435,1.07225895 C26.654276,1.07225895 29.0435759,3.47131109 29.0435759,6.4308744 L29.0435759,19.827413 C29.0435759,22.7864405 26.654276,25.1860285 23.7067435,25.1860285 Z" id="Path" fill="#D2A0CD"></path>
                    <path d="M23.7067435,26.2572157 L23.4820628,26.2572157 C19.9506808,26.2572157 17.0778639,23.372673 17.0778639,19.8268771 L17.0778639,6.43033854 C17.0778639,2.88454269 19.9506808,0 23.4820628,0 L23.7067435,0 C27.2381255,0 30.1109424,2.88454269 30.1109424,6.43033854 L30.1109424,19.8268771 C30.1109424,23.372673 27.2381255,26.2572157 23.7067435,26.2572157 Z M23.4820628,2.14344618 C21.127986,2.14344618 19.2125968,4.06665326 19.2125968,6.43033854 L19.2125968,19.8268771 C19.2125968,22.1905624 21.127986,24.1137695 23.4820628,24.1137695 L23.7067435,24.1137695 C26.0608203,24.1137695 27.9762094,22.1905624 27.9762094,19.8268771 L27.9762094,6.43033854 C27.9762094,4.06665326 26.0608203,2.14344618 23.7067435,2.14344618 L23.4820628,2.14344618 Z" id="Shape" fill="#AD5DA3"></path>
                    <path d="M52.277476,25.1860285 L52.0527954,25.1860285 C49.1052628,25.1860285 46.7159629,22.7869763 46.7159629,19.827413 L46.7159629,6.4308744 C46.7159629,3.47131109 49.1052628,1.07225895 52.0527954,1.07225895 L52.277476,1.07225895 C55.2250086,1.07225895 57.6143085,3.47131109 57.6143085,6.4308744 L57.6143085,19.827413 C57.6143085,22.7864405 55.2250086,25.1860285 52.277476,25.1860285 Z" id="Path" fill="#D2A0CD"></path>
                    <path d="M80.9569978,26.2572157 L80.7323172,26.2572157 C77.2009352,26.2572157 74.3281182,23.372673 74.3281182,19.8268771 L74.3281182,6.43033854 C74.3281182,2.88454269 77.2009352,0 80.7323172,0 L80.9569978,0 C84.4883799,0 87.3611968,2.88454269 87.3611968,6.43033854 L87.3611968,19.8268771 C87.3611968,23.372673 84.4883799,26.2572157 80.9569978,26.2572157 Z M80.7323172,2.14344618 C78.3782404,2.14344618 76.4628512,4.06665326 76.4628512,6.43033854 L76.4628512,19.8268771 C76.4628512,22.1905624 78.3782404,24.1137695 80.7323172,24.1137695 L80.9569978,24.1137695 C83.3110746,24.1137695 85.2264638,22.1905624 85.2264638,19.8268771 L85.2264638,6.43033854 C85.2264638,4.06665326 83.3110746,2.14344618 80.9569978,2.14344618 L80.7323172,2.14344618 Z" id="Shape" fill="#AD5DA3"></path>
                    <path d="M52.277476,26.2572157 L52.0527954,26.2572157 C48.5214133,26.2572157 45.6485964,23.372673 45.6485964,19.8268771 L45.6485964,6.43033854 C45.6485964,2.88454269 48.5214133,0 52.0527954,0 L52.277476,0 C55.808858,0 58.681675,2.88454269 58.681675,6.43033854 L58.681675,19.8268771 C58.681675,23.372673 55.808858,26.2572157 52.277476,26.2572157 Z M52.0527954,2.14344618 C49.6987186,2.14344618 47.7833294,4.06665326 47.7833294,6.43033854 L47.7833294,19.8268771 C47.7833294,22.1905624 49.6987186,24.1137695 52.0527954,24.1137695 L52.277476,24.1137695 C54.6315528,24.1137695 56.546942,22.1905624 56.546942,19.8268771 L56.546942,6.43033854 C56.546942,4.06665326 54.6315528,2.14344618 52.277476,2.14344618 L52.0527954,2.14344618 Z" id="Shape" fill="#AD5DA3"></path>
                </g>
            </g>
        </g>
    </g>
</svg>