<?xml version="1.0" encoding="UTF-8"?>
<svg width="40px" height="40px" viewBox="0 0 40 40" version="1.1" xmlns="http://www.w3.org/2000/svg" xmlns:xlink="http://www.w3.org/1999/xlink">
    <!-- Generator: Sketch 58 (84663) - https://sketch.com -->
    <title>landing page Event</title>
    <desc>Created with Sketch.</desc>
    <g id="landing-page-Event" stroke="none" stroke-width="1" fill="none" fill-rule="evenodd">
        <g id="event-analytics" fill-rule="nonzero">
            <path d="M35.1518293,39.3332653 L4.68556911,39.3332653 C2.32235772,39.3332653 0.406504065,37.4095918 0.406504065,35.0367347 L0.406504065,8.62265306 C0.406504065,6.24979592 2.32235772,4.32612245 4.68556911,4.32612245 L35.1518293,4.32612245 C37.5150407,4.32612245 39.4308943,6.24979592 39.4308943,8.62265306 L39.4308943,35.0367347 C39.4308943,37.4095918 37.5150407,39.3332653 35.1518293,39.3332653 Z" id="Path"></path>
            <g id="Group" transform="translate(4.268293, 16.326531)" fill="#D5B0D0" opacity="0.200000003">
                <path d="M8.32886179,4.54836735 L8.32886179,0.732040816 C8.32886179,0.34877551 8.63821138,0.0381632653 9.0199187,0.0381632653 L13.8573171,0.0381632653 C14.2390244,0.0381632653 14.548374,0.34877551 14.548374,0.732040816 L14.548374,4.54836735 C14.548374,4.93163265 14.2390244,5.2422449 13.8573171,5.2422449 L9.0199187,5.2422449 C8.63821138,5.2422449 8.32886179,4.93163265 8.32886179,4.54836735 Z" id="Path"></path>
                <path d="M16.6489837,4.54836735 L16.6489837,0.732040816 C16.6489837,0.34877551 16.9583333,0.0381632653 17.3400407,0.0381632653 L22.177439,0.0381632653 C22.5591463,0.0381632653 22.8684959,0.34877551 22.8684959,0.732040816 L22.8684959,4.54836735 C22.8684959,4.93163265 22.5591463,5.2422449 22.177439,5.2422449 L17.3400407,5.2422449 C16.9583333,5.2422449 16.6489837,4.93163265 16.6489837,4.54836735 Z" id="Path"></path>
                <path d="M24.9691057,4.54836735 L24.9691057,0.732040816 C24.9691057,0.34877551 25.2784553,0.0381632653 25.6601626,0.0381632653 L30.497561,0.0381632653 C30.8792683,0.0381632653 31.1886179,0.34877551 31.1886179,0.732040816 L31.1886179,4.54836735 C31.1886179,4.93163265 30.8792683,5.2422449 30.497561,5.2422449 L25.6601626,5.2422449 C25.2784553,5.2422449 24.9691057,4.93163265 24.9691057,4.54836735 Z" id="Path"></path>
                <path d="M0.0087398374,11.4871429 L0.0087398374,7.67081633 C0.0087398374,7.28755102 0.318089431,6.97693878 0.699796748,6.97693878 L5.53719512,6.97693878 C5.91890244,6.97693878 6.22825203,7.28755102 6.22825203,7.67081633 L6.22825203,11.4871429 C6.22825203,11.8704082 5.91890244,12.1810204 5.53719512,12.1810204 L0.699796748,12.1810204 C0.318089431,12.1810204 0.0087398374,11.8704082 0.0087398374,11.4871429 Z" id="Path"></path>
                <path d="M8.32886179,11.4871429 L8.32886179,7.67081633 C8.32886179,7.28755102 8.63821138,6.97693878 9.0199187,6.97693878 L13.8573171,6.97693878 C14.2390244,6.97693878 14.548374,7.28755102 14.548374,7.67081633 L14.548374,11.4871429 C14.548374,11.8704082 14.2390244,12.1810204 13.8573171,12.1810204 L9.0199187,12.1810204 C8.63821138,12.1810204 8.32886179,11.8704082 8.32886179,11.4871429 Z" id="Path"></path>
                <path d="M16.6489837,11.4871429 L16.6489837,7.67081633 C16.6489837,7.28755102 16.9583333,6.97693878 17.3400407,6.97693878 L22.177439,6.97693878 C22.5591463,6.97693878 22.8684959,7.28755102 22.8684959,7.67081633 L22.8684959,11.4871429 C22.8684959,11.8704082 22.5591463,12.1810204 22.177439,12.1810204 L17.3400407,12.1810204 C16.9583333,12.1810204 16.6489837,11.8704082 16.6489837,11.4871429 Z" id="Path"></path>
                <path d="M24.9691057,11.4871429 L24.9691057,7.67081633 C24.9691057,7.28755102 25.2784553,6.97693878 25.6601626,6.97693878 L30.497561,6.97693878 C30.8792683,6.97693878 31.1886179,7.28755102 31.1886179,7.67081633 L31.1886179,11.4871429 C31.1886179,11.8704082 30.8792683,12.1810204 30.497561,12.1810204 L25.6601626,12.1810204 C25.2784553,12.1810204 24.9691057,11.8704082 24.9691057,11.4871429 Z" id="Path"></path>
                <path d="M0.0087398374,18.7728571 L0.0087398374,14.9565306 C0.0087398374,14.5732653 0.318089431,14.2626531 0.699796748,14.2626531 L5.53719512,14.2626531 C5.91890244,14.2626531 6.22825203,14.5732653 6.22825203,14.9565306 L6.22825203,18.7728571 C6.22825203,19.1561224 5.91890244,19.4667347 5.53719512,19.4667347 L0.699796748,19.4667347 C0.318089431,19.4667347 0.0087398374,19.1561224 0.0087398374,18.7728571 Z" id="Path"></path>
                <path d="M8.32886179,18.7728571 L8.32886179,14.9565306 C8.32886179,14.5732653 8.63821138,14.2626531 9.0199187,14.2626531 L13.8573171,14.2626531 C14.2390244,14.2626531 14.548374,14.5732653 14.548374,14.9565306 L14.548374,18.7728571 C14.548374,19.1561224 14.2390244,19.4667347 13.8573171,19.4667347 L9.0199187,19.4667347 C8.63821138,19.4667347 8.32886179,19.1561224 8.32886179,18.7728571 Z" id="Path"></path>
                <path d="M16.6489837,18.7728571 L16.6489837,14.9565306 C16.6489837,14.5732653 16.9583333,14.2626531 17.3400407,14.2626531 L22.177439,14.2626531 C22.5591463,14.2626531 22.8684959,14.5732653 22.8684959,14.9565306 L22.8684959,18.7728571 C22.8684959,19.1561224 22.5591463,19.4667347 22.177439,19.4667347 L17.3400407,19.4667347 C16.9583333,19.4667347 16.6489837,19.1561224 16.6489837,18.7728571 Z" id="Path"></path>
            </g>
            <path d="M0.406504065,8.62265306 L0.406504065,13.1632653 L39.4308943,13.1632653 L39.4308943,8.62265306 C39.4308943,6.24979592 37.5150407,4.32612245 35.1518293,4.32612245 L4.68556911,4.32612245 C2.32235772,4.32612245 0.406504065,6.24979592 0.406504065,8.62265306 Z" id="Path" fill="#AD5DA3"></path>
            <path d="M35.1518293,39.7414286 L4.68556911,39.7414286 C2.10203252,39.7414286 0,37.6310204 0,35.0367347 L0,8.62265306 C0,6.02857143 2.10203252,3.91795918 4.68556911,3.91795918 L35.1520325,3.91795918 C37.7353659,3.91795918 39.8373984,6.02857143 39.8373984,8.62265306 L39.8373984,35.0367347 C39.8373984,37.6310204 37.7353659,39.7414286 35.1518293,39.7414286 Z M4.68556911,4.73428571 C2.55020325,4.73428571 0.81300813,6.47857143 0.81300813,8.62265306 L0.81300813,35.0367347 C0.81300813,37.1808163 2.55020325,38.925102 4.68556911,38.925102 L35.1520325,38.925102 C37.2873984,38.925102 39.0245935,37.1808163 39.0245935,35.0367347 L39.0245935,8.62265306 C39.0245935,6.47857143 37.2873984,4.73428571 35.1520325,4.73428571 L4.68556911,4.73428571 Z" id="Shape" fill="#AD5DA3"></path>
            <path d="M39.4308943,13.5714286 L0.406504065,13.5714286 C0.182113821,13.5714286 0,13.3885714 0,13.1632653 L0,8.62265306 C0,6.02857143 2.10203252,3.91795918 4.68556911,3.91795918 L35.1520325,3.91795918 C37.7353659,3.91795918 39.8373984,6.02857143 39.8373984,8.62265306 L39.8373984,13.1632653 C39.8373984,13.3885714 39.6552846,13.5714286 39.4308943,13.5714286 Z M0.81300813,12.755102 L39.0243902,12.755102 L39.0243902,8.62265306 C39.0243902,6.47857143 37.2871951,4.73428571 35.1518293,4.73428571 L4.68556911,4.73428571 C2.55020325,4.73428571 0.81300813,6.47857143 0.81300813,8.62265306 L0.81300813,12.755102 Z" id="Shape" fill="#AD5DA3"></path>
            <path d="M30.8943089,9.69918367 L30.8087398,9.69918367 C29.6861789,9.69918367 28.7762195,8.7855102 28.7762195,7.65836735 L28.7762195,2.55632653 C28.7762195,1.42918367 29.6861789,0.515510204 30.8087398,0.515510204 L30.8943089,0.515510204 C32.0168699,0.515510204 32.9268293,1.42918367 32.9268293,2.55632653 L32.9268293,7.65836735 C32.9268293,8.78530612 32.0168699,9.69918367 30.8943089,9.69918367 Z" id="Path" fill="#D5B0D0"></path>
            <path d="M9.02865854,9.69918367 L8.94308943,9.69918367 C7.82052846,9.69918367 6.91056911,8.7855102 6.91056911,7.65836735 L6.91056911,2.55632653 C6.91056911,1.42918367 7.82052846,0.515510204 8.94308943,0.515510204 L9.02865854,0.515510204 C10.1512195,0.515510204 11.0611789,1.42918367 11.0611789,2.55632653 L11.0611789,7.65836735 C11.0611789,8.78530612 10.1512195,9.69918367 9.02865854,9.69918367 Z" id="Path" fill="#D5B0D0"></path>
            <path d="M9.02865854,10.1071429 L8.94308943,10.1071429 C7.59817073,10.1071429 6.50406504,9.00857143 6.50406504,7.65816327 L6.50406504,2.55612245 C6.50406504,1.20571429 7.59817073,0.107142857 8.94308943,0.107142857 L9.02865854,0.107142857 C10.3735772,0.107142857 11.4676829,1.20571429 11.4676829,2.55612245 L11.4676829,7.65816327 C11.4676829,9.00857143 10.3735772,10.1071429 9.02865854,10.1071429 Z M8.94308943,0.923469388 C8.04654472,0.923469388 7.31707317,1.65591837 7.31707317,2.55612245 L7.31707317,7.65816327 C7.31707317,8.55836735 8.04654472,9.29081633 8.94308943,9.29081633 L9.02865854,9.29081633 C9.92520325,9.29081633 10.6546748,8.55836735 10.6546748,7.65816327 L10.6546748,2.55612245 C10.6546748,1.65591837 9.92520325,0.923469388 9.02865854,0.923469388 L8.94308943,0.923469388 Z" id="Shape" fill="#AD5DA3"></path>
            <path d="M19.9097561,9.69918367 L19.824187,9.69918367 C18.701626,9.69918367 17.7916667,8.7855102 17.7916667,7.65836735 L17.7916667,2.55632653 C17.7916667,1.42918367 18.701626,0.515510204 19.824187,0.515510204 L19.9097561,0.515510204 C21.0323171,0.515510204 21.9422764,1.42918367 21.9422764,2.55632653 L21.9422764,7.65836735 C21.9422764,8.78530612 21.0323171,9.69918367 19.9097561,9.69918367 Z" id="Path" fill="#D5B0D0"></path>
            <path d="M30.8943089,10.1071429 L30.8087398,10.1071429 C29.4638211,10.1071429 28.3697154,9.00857143 28.3697154,7.65816327 L28.3697154,2.55612245 C28.3697154,1.20571429 29.4638211,0.107142857 30.8087398,0.107142857 L30.8943089,0.107142857 C32.2392276,0.107142857 33.3333333,1.20571429 33.3333333,2.55612245 L33.3333333,7.65816327 C33.3333333,9.00857143 32.2392276,10.1071429 30.8943089,10.1071429 Z M30.8087398,0.923469388 C29.9121951,0.923469388 29.1827236,1.65591837 29.1827236,2.55612245 L29.1827236,7.65816327 C29.1827236,8.55836735 29.9121951,9.29081633 30.8087398,9.29081633 L30.8943089,9.29081633 C31.7908537,9.29081633 32.5203252,8.55836735 32.5203252,7.65816327 L32.5203252,2.55612245 C32.5203252,1.65591837 31.7908537,0.923469388 30.8943089,0.923469388 L30.8087398,0.923469388 Z" id="Shape" fill="#AD5DA3"></path>
            <path d="M19.9097561,10.1071429 L19.824187,10.1071429 C18.4792683,10.1071429 17.3851626,9.00857143 17.3851626,7.65816327 L17.3851626,2.55612245 C17.3851626,1.20571429 18.4792683,0.107142857 19.824187,0.107142857 L19.9097561,0.107142857 C21.2546748,0.107142857 22.3487805,1.20571429 22.3487805,2.55612245 L22.3487805,7.65816327 C22.3487805,9.00857143 21.2546748,10.1071429 19.9097561,10.1071429 Z M19.824187,0.923469388 C18.9276423,0.923469388 18.1981707,1.65591837 18.1981707,2.55612245 L18.1981707,7.65816327 C18.1981707,8.55836735 18.9276423,9.29081633 19.824187,9.29081633 L19.9097561,9.29081633 C20.8063008,9.29081633 21.5357724,8.55836735 21.5357724,7.65816327 L21.5357724,2.55612245 C21.5357724,1.65591837 20.8063008,0.923469388 19.9097561,0.923469388 L19.824187,0.923469388 Z" id="Shape" fill="#AD5DA3"></path>
        </g>
    </g>
</svg>