<?xml version="1.0" encoding="UTF-8"?>
<svg width="40px" height="40px" viewBox="0 0 40 40" version="1.1" xmlns="http://www.w3.org/2000/svg" xmlns:xlink="http://www.w3.org/1999/xlink">
    <!-- Generator: Sketch 58 (84663) - https://sketch.com -->
    <title>Like fill</title>
    <desc>Created with Sketch.</desc>
    <g id="Like-fill" stroke="none" stroke-width="1" fill="none" fill-rule="evenodd">
        <g id="Like-2-Copy" transform="translate(0.000000, 3.000000)" fill="#000000">
            <path d="M28.2044444,0.355555556 C26.0977778,0.355555556 23.6444444,1.68 20.2044444,4.72 C16.7644444,1.68 14.3111111,0.355555556 12.2044444,0.355555556 C8.250986,0.264844369 4.53785589,2.24781848 2.41442941,5.58385238 C0.291002933,8.91988627 0.0663922107,13.1233457 1.82222222,16.6666667 C3.52,20.0355556 14.96,30.3733333 18.4266667,33.4577778 C19.4389357,34.3631787 20.9699532,34.3631787 21.9822222,33.4577778 C25.4577778,30.3733333 36.9155556,20.0355556 38.5955556,16.6488889 C40.3325817,13.1049144 40.0975452,8.91193938 37.9753316,5.5842939 C35.853118,2.25664841 32.150399,0.275195935 28.2044444,0.355555556 L28.2044444,0.355555556 Z" id="Shape"></path>
        </g>
    </g>
</svg>