<?xml version="1.0" encoding="UTF-8"?>
<svg width="40px" height="40px" viewBox="0 0 40 40" version="1.1" xmlns="http://www.w3.org/2000/svg" xmlns:xlink="http://www.w3.org/1999/xlink">
    <!-- Generator: Sketch 58 (84663) - https://sketch.com -->
    <title>Like Line</title>
    <desc>Created with Sketch.</desc>
    <g id="Like-Line" stroke="none" stroke-width="1" fill="none" fill-rule="evenodd">
        <g id="Like-2" transform="translate(0.000000, 3.000000)" fill="#000000">
            <path d="M28.2044444,3.02222222 C30.5765849,2.9732964 32.8660469,3.89408201 34.5437602,5.57179534 C36.2214735,7.24950867 37.1422592,9.53897066 37.0933333,11.9111111 C37.0387358,13.1439517 36.7364304,14.3531732 36.2044444,15.4666667 C34.6222222,18.6488889 20.2044444,31.4666667 20.2044444,31.4666667 C20.2044444,31.4666667 5.80444444,18.64 4.20444444,15.4666667 C3.63454027,14.3671638 3.33011204,13.1494509 3.31555556,11.9111111 C3.27420326,9.54119606 4.19742347,7.25616631 5.87346156,5.58012822 C7.54949964,3.90409013 9.8345294,2.98086993 12.2044444,3.02222222 C14.5955556,3.02222222 18.6044444,6.81777778 20.2044444,8.35555556 C21.8044444,6.82666667 25.8133333,3.02222222 28.2044444,3.02222222 L28.2044444,3.02222222 Z M28.2044444,0.355555556 C26.0977778,0.355555556 23.6444444,1.68 20.2044444,4.72 C16.7644444,1.68 14.3111111,0.355555556 12.2044444,0.355555556 C8.250986,0.264844369 4.53785589,2.24781848 2.41442941,5.58385238 C0.291002933,8.91988627 0.0663922107,13.1233457 1.82222222,16.6666667 C3.52,20.0355556 14.96,30.3733333 18.4266667,33.4577778 C19.4389357,34.3631787 20.9699532,34.3631787 21.9822222,33.4577778 C25.4577778,30.3733333 36.9155556,20.0355556 38.5955556,16.6488889 C40.3325817,13.1049144 40.0975452,8.91193938 37.9753316,5.5842939 C35.853118,2.25664841 32.150399,0.275195935 28.2044444,0.355555556 L28.2044444,0.355555556 Z" id="Shape"></path>
        </g>
    </g>
</svg>