<?xml version="1.0" encoding="UTF-8"?>
<svg width="40px" height="40px" viewBox="0 0 40 40" version="1.1" xmlns="http://www.w3.org/2000/svg" xmlns:xlink="http://www.w3.org/1999/xlink">
    <!-- Generator: Sketch 58 (84663) - https://sketch.com -->
    <title>Linkedin</title>
    <desc>Created with Sketch.</desc>
    <g id="Linkedin" stroke="none" stroke-width="1" fill="none" fill-rule="evenodd">
        <g id="linkedin_blue.7e1a11e7-2">
            <g id="linkedin_blue.7e1a11e7">
                <rect id="Rectangle" stroke="#EBECED" stroke-width="0.8" fill="#FFFFFF" x="0" y="0" width="40" height="40" rx="3"></rect>
                <path d="M12.4510028,11 C13.9354129,11 14.8476347,12.0264859 14.8743886,13.3742037 C14.8743886,14.6928014 13.9345499,15.7502275 12.4233859,15.7502275 L12.3949059,15.7502275 C10.9398387,15.7502275 10,14.6928014 10,13.3742037 C10,12.0264859 10.9700447,11 12.4510028,11 Z M10.5024454,17.3327267 L14.5644359,17.3327267 L14.5644359,30 L10.5024454,30 L10.5024454,17.3327267 Z M25.1927757,17.3327267 C28.1466662,17.3327267 29.999106,19.1379808 30,23.1797637 L30,30 L25.6675081,30 L25.6675081,22.2588401 C25.6675081,21.093092 24.6965865,20.1477731 23.5003681,20.1477731 C22.3050437,20.1477731 21.3341221,21.093092 21.3341221,22.2588401 C21.3341221,22.4339638 21.3636253,30 21.3636253,30 L17.0016303,30 L17.0016303,17.3562508 L21.3341221,17.3562508 L21.3341221,19.4751591 C21.9250791,18.576017 22.7708358,17.3327267 25.1927757,17.3327267 Z" id="Combined-Shape" fill="#1a1a1a" fill-rule="nonzero"></path>
            </g>
        </g>
    </g>
</svg>