<?xml version="1.0" encoding="UTF-8"?>
<svg width="40px" height="40px" viewBox="0 0 40 40" version="1.1" xmlns="http://www.w3.org/2000/svg" xmlns:xlink="http://www.w3.org/1999/xlink">
    <!-- Generator: Sketch 58 (84663) - https://sketch.com -->
    <title>Location Line Copy 2</title>
    <desc>Created with Sketch.</desc>
    <g id="Location-Line-Copy-2" stroke="none" stroke-width="1" fill="none" fill-rule="evenodd">
        <g id="Settings-2" fill="#000000">
            <path d="M20.1955556,12.8 C16.2681973,12.8 13.0844444,15.9837529 13.0844444,19.9111111 C13.0844444,23.8384693 16.2681973,27.0222222 20.1955556,27.0222222 C24.1229138,27.0222222 27.3066667,23.8384693 27.3066667,19.9111111 C27.3066667,15.9837529 24.1229138,12.8 20.1955556,12.8 Z M20.1955556,24.3555556 C17.7409567,24.3555556 15.7511111,22.36571 15.7511111,19.9111111 C15.7511111,17.4565122 17.7409567,15.4666667 20.1955556,15.4666667 C22.6501544,15.4666667 24.64,17.4565122 24.64,19.9111111 C24.64,22.36571 22.6501544,24.3555556 20.1955556,24.3555556 L20.1955556,24.3555556 Z" id="Shape"></path>
            <path d="M37.0844444,14.5777778 L34.3288889,14.5777778 C34.2162963,14.2755556 34.0918519,13.9792593 33.9555556,13.6888889 L35.9022222,11.7422222 C36.9420565,10.7010932 36.9420565,9.01446239 35.9022222,7.97333333 L32.1333333,4.20444444 C31.0922043,3.16461021 29.4055735,3.16461021 28.3644444,4.20444444 L26.4177778,6.15111111 C26.1274074,6.02074074 25.8311111,5.8962963 25.5288889,5.77777778 L25.5288889,3.02222222 C25.5288889,1.54946289 24.3349816,0.355555556 22.8622222,0.355555556 L17.5288889,0.355555556 C16.0561296,0.355555556 14.8622222,1.54946289 14.8622222,3.02222222 L14.8622222,5.77777778 C14.56,5.89037037 14.2637037,6.01481481 13.9733333,6.15111111 L12.0266667,4.20444444 C10.9855376,3.16461021 9.29890683,3.16461021 8.25777778,4.20444444 L4.48888889,7.97333333 C3.44905466,9.01446239 3.44905466,10.7010932 4.48888889,11.7422222 L6.41777778,13.6888889 C6.28740741,13.9792593 6.16296296,14.2755556 6.04444444,14.5777778 L3.28888889,14.5777778 C1.81612956,14.5777778 0.622222222,15.7716851 0.622222222,17.2444444 L0.622222222,22.5777778 C0.622222222,24.0505371 1.81612956,25.2444444 3.28888889,25.2444444 L6.04444444,25.2444444 C6.15703704,25.5466667 6.28148148,25.842963 6.41777778,26.1333333 L4.47111111,28.08 C3.43127688,29.1211291 3.43127688,30.8077598 4.47111111,31.8488889 L8.24,35.6177778 C9.28112906,36.657612 10.9677598,36.657612 12.0088889,35.6177778 L13.9555556,33.6711111 C14.2459259,33.8014815 14.5422222,33.9259259 14.8444444,34.0444444 L14.8444444,36.8 C14.8444444,38.2727593 16.0383518,39.4666667 17.5111111,39.4666667 L22.8444444,39.4666667 C24.3172038,39.4666667 25.5111111,38.2727593 25.5111111,36.8 L25.5111111,34.0444444 C25.8133333,33.9318519 26.1096296,33.8074074 26.4,33.6711111 L28.3466667,35.6177778 C29.3877957,36.657612 31.0744265,36.657612 32.1155556,35.6177778 L35.8844444,31.8488889 C36.9242787,30.8077598 36.9242787,29.1211291 35.8844444,28.08 L33.9733333,26.1333333 C34.1037037,25.842963 34.2281481,25.5466667 34.3466667,25.2444444 L37.1022222,25.2444444 C38.5749816,25.2444444 39.7688889,24.0505371 39.7688889,22.5777778 L39.7688889,17.2444444 C39.7689047,16.5341095 39.485514,15.8531242 38.9815654,15.352513 C38.4776168,14.8519018 37.7947636,14.5730422 37.0844444,14.5777778 Z M37.0844444,22.5777778 L32.3466667,22.5777778 C32.0309658,24.0121204 31.4620642,25.3786882 30.6666667,26.6133333 L34.0177778,29.9644444 L30.2488889,33.7333333 L26.8622222,30.3822222 C25.6275771,31.1776198 24.2610093,31.7465214 22.8266667,32.0622222 L22.8266667,36.8 L17.4933333,36.8 L17.4933333,32.0622222 C16.0589907,31.7465214 14.6924229,31.1776198 13.4577778,30.3822222 L10.1066667,33.7333333 L6.33777778,29.9644444 L9.68888889,26.6133333 C8.89349134,25.3786882 8.32458976,24.0121204 8.00888889,22.5777778 L3.30666667,22.5777778 L3.30666667,17.2444444 L8.04444444,17.2444444 C8.36014531,15.8101018 8.9290469,14.443534 9.72444444,13.2088889 L6.37333333,9.85777778 L10.1422222,6.08888889 L13.4933333,9.44 C14.7279784,8.64460245 16.0945463,8.07570087 17.5288889,7.76 L17.5288889,3.02222222 L22.8622222,3.02222222 L22.8622222,7.76 C24.2965648,8.07570087 25.6631327,8.64460245 26.8977778,9.44 L30.2488889,6.08888889 L34.0177778,9.85777778 L30.6666667,13.2088889 C31.4620642,14.443534 32.0309658,15.8101018 32.3466667,17.2444444 L37.0844444,17.2444444 L37.0844444,22.5777778 Z" id="Shape"></path>
        </g>
    </g>
</svg>