<?xml version="1.0" encoding="UTF-8"?>
<svg width="40px" height="40px" viewBox="0 0 40 40" version="1.1" xmlns="http://www.w3.org/2000/svg" xmlns:xlink="http://www.w3.org/1999/xlink">
    <!-- Generator: Sketch 58 (84663) - https://sketch.com -->
    <title>Location fill</title>
    <desc>Created with Sketch.</desc>
    <g id="Location-fill" stroke="none" stroke-width="1" fill="none" fill-rule="evenodd">
        <g id="Location-Copy" transform="translate(4.000000, 0.000000)">
            <path d="M16.64,0.355555556 C7.89611079,0.575366266 0.859810711,7.61166634 0.64,16.3555556 C0.788348135,18.9408066 1.50136436,21.4621534 2.72888889,23.7422222 L2.85333333,23.9644444 C12.5244444,39.4666667 15.4133333,39.4666667 16.64,39.4666667 C18.56,39.4666667 20.6311111,38.1155556 25.5288889,31.2266667 C28.0977778,27.6711111 30.3022222,24.1155556 30.3911111,23.9555556 L30.5155556,23.7422222 C31.7554696,21.4650296 32.4806666,18.9435289 32.64,16.3555556 C32.4201893,7.61166634 25.3838892,0.575366266 16.64,0.355555556 L16.64,0.355555556 Z" id="Shape" fill="#000000"></path>
            <path d="M16.64,8.35555556 C12.7126418,8.35555556 9.52888889,11.5393084 9.52888889,15.4666667 C9.52888889,19.3940249 12.7126418,22.5777778 16.64,22.5777778 C20.5673582,22.5777778 23.7511111,19.3940249 23.7511111,15.4666667 C23.7511111,11.5393084 20.5673582,8.35555556 16.64,8.35555556 Z M16.64,19.9111111 C14.1854011,19.9111111 12.1955556,17.9212656 12.1955556,15.4666667 C12.1955556,13.0120678 14.1854011,11.0222222 16.64,11.0222222 C19.0945989,11.0222222 21.0844444,13.0120678 21.0844444,15.4666667 C21.0844444,17.9212656 19.0945989,19.9111111 16.64,19.9111111 Z" id="Shape" fill="#FFFFFF"></path>
        </g>
    </g>
</svg>