<?xml version="1.0" encoding="UTF-8"?>
<svg width="40px" height="40px" viewBox="0 0 40 40" version="1.1" xmlns="http://www.w3.org/2000/svg" xmlns:xlink="http://www.w3.org/1999/xlink">
    <!-- Generator: Sketch 58 (84663) - https://sketch.com -->
    <title>Mail</title>
    <desc>Created with Sketch.</desc>
    <g id="Mail" stroke="none" stroke-width="1" fill="none" fill-rule="evenodd">
        <g transform="translate(0.000000, 5.000000)" fill="#000000" id="Shape">
            <path d="M37.0844444,0.355555556 L3.30666667,0.355555556 C1.83390733,0.355555556 0.64,1.54946289 0.64,3.02222222 L0.64,27.9111111 C0.64,29.3838704 1.83390733,30.5777778 3.30666667,30.5777778 L37.0844444,30.5777778 C38.5572038,30.5777778 39.7511111,29.3838704 39.7511111,27.9111111 L39.7511111,3.02222222 C39.7511111,1.54946289 38.5572038,0.355555556 37.0844444,0.355555556 Z M37.0844444,26.0266667 L30.0266667,18.9688889 C29.501316,18.479362 28.6826494,18.4938064 28.1748946,19.0015612 C27.6671398,19.509316 27.6526954,20.3279827 28.1422222,20.8533333 L35.2,27.9111111 L5.19111111,27.9111111 L12.2488889,20.8533333 C12.7384158,20.3279827 12.7239713,19.509316 12.2162165,19.0015612 C11.7084617,18.4938064 10.8897951,18.479362 10.3644444,18.9688889 L3.30666667,26.0266667 L3.30666667,8.91555556 L19.3066667,20.9777778 C19.7807407,21.3333333 20.4325926,21.3333333 20.9066667,20.9777778 L37.0666667,8.90666667 L37.0844444,26.0266667 Z M37.0844444,3.02222222 L37.0844444,5.58222222 L20.1333333,18.2488889 L3.30666667,5.58222222 L3.30666667,3.02222222 L37.0844444,3.02222222 Z"></path>
        </g>
    </g>
</svg>