<?xml version="1.0" encoding="UTF-8"?>
<svg width="40px" height="40px" viewBox="0 0 40 40" version="1.1" xmlns="http://www.w3.org/2000/svg" xmlns:xlink="http://www.w3.org/1999/xlink">
    <!-- Generator: Sketch 58 (84663) - https://sketch.com -->
    <title>Menu Fill</title>
    <desc>Created with Sketch.</desc>
    <g id="Menu-Fill" stroke="none" stroke-width="1" fill="none" fill-rule="evenodd">
        <g id="View-2-Copy" fill="#000000">
            <path d="M14.72,0.4 L3.72,0.4 C2.06314575,0.4 0.72,1.74314575 0.72,3.4 L0.72,14.4 C0.72,16.0568542 2.06314575,17.4 3.72,17.4 L14.72,17.4 C16.3768542,17.4 17.72,16.0568542 17.72,14.4 L17.72,3.4 C17.72,1.74314575 16.3768542,0.4 14.72,0.4 Z" id="Shape"></path>
            <path d="M36.72,0.4 L25.72,0.4 C24.0631458,0.4 22.72,1.74314575 22.72,3.4 L22.72,14.4 C22.72,16.0568542 24.0631458,17.4 25.72,17.4 L36.72,17.4 C38.3768542,17.4 39.72,16.0568542 39.72,14.4 L39.72,3.4 C39.72,1.74314575 38.3768542,0.4 36.72,0.4 Z" id="Shape"></path>
            <path d="M36.72,22.4 L25.72,22.4 C24.0631458,22.4 22.72,23.7431458 22.72,25.4 L22.72,36.4 C22.72,38.0568542 24.0631458,39.4 25.72,39.4 L36.72,39.4 C38.3768542,39.4 39.72,38.0568542 39.72,36.4 L39.72,25.4 C39.72,23.7431458 38.3768542,22.4 36.72,22.4 Z" id="Shape"></path>
            <path d="M14.72,22.4 L3.72,22.4 C2.06314575,22.4 0.72,23.7431458 0.72,25.4 L0.72,36.4 C0.72,38.0568542 2.06314575,39.4 3.72,39.4 L14.72,39.4 C16.3768542,39.4 17.72,38.0568542 17.72,36.4 L17.72,25.4 C17.72,23.7431458 16.3768542,22.4 14.72,22.4 Z" id="Shape"></path>
        </g>
    </g>
</svg>