<?xml version="1.0" encoding="UTF-8"?>
<svg width="40px" height="40px" viewBox="0 0 40 40" version="1.1" xmlns="http://www.w3.org/2000/svg" xmlns:xlink="http://www.w3.org/1999/xlink">
    <!-- Generator: Sketch 58 (84663) - https://sketch.com -->
    <title>Messages line</title>
    <desc>Created with Sketch.</desc>
    <g id="Messages-line" stroke="none" stroke-width="1" fill="none" fill-rule="evenodd">
        <g id="Group-25" transform="translate(0.000000, 1.000000)" fill="#000000">
            <path d="M35.2380952,2.84217094e-14 L4.76190476,2.84217094e-14 C2.13236938,0.000946121924 0.000946121924,2.13236938 0,4.76190476 L0,25.3238095 C0.000946121924,27.9533449 2.13236938,30.0847682 4.76190476,30.0857143 L14.6285714,30.0857143 L18.6095238,36.6666667 C18.6095238,36.6761905 18.6190476,36.6761905 18.6190476,36.6857143 C18.8891044,37.1138647 19.360464,37.3729325 19.8666667,37.3714351 L19.8666667,37.3714351 C20.3722796,37.3706318 20.8426027,37.1121336 21.1142857,36.6857143 C21.1142857,36.6761905 21.1238095,36.6761905 21.1238095,36.6666667 L25.1047619,30.0857143 L35.2380952,30.0857143 C37.8676306,30.0847682 39.9990539,27.9533449 40,25.3238095 L40,4.76190476 C39.9990539,2.13236938 37.8676306,0.000946121924 35.2380952,2.84217094e-14 Z M38.0952381,25.3238095 C38.0906353,26.8998555 36.8141412,28.1763495 35.2380952,28.1809524 L24.5619048,28.1809524 C24.228292,28.1817744 23.9186863,28.3545776 23.7428571,28.6380952 L19.8571429,35.0666667 L15.9714286,28.6380952 C15.7972548,28.3528502 15.486595,28.1794587 15.152381,28.1809524 L4.76190476,28.1809524 C3.18585883,28.1763495 1.90936475,26.8998555 1.9047619,25.3238095 L1.9047619,4.76190476 C1.90936475,3.18585883 3.18585883,1.90936475 4.76190476,1.9047619 L35.2380952,1.9047619 C36.8141412,1.90936475 38.0906353,3.18585883 38.0952381,4.76190476 L38.0952381,25.3238095 Z" id="Shape" stroke="#1A1A1A" fill-rule="nonzero"></path>
            <g id="Group-24" transform="translate(8.412698, 12.730159)">
                <circle id="Oval" cx="2.52380952" cy="2.52380952" r="2.52380952"></circle>
                <circle id="Oval-Copy-4" cx="11.5396825" cy="2.52380952" r="2.52380952"></circle>
                <circle id="Oval-Copy-6" cx="20.5555556" cy="2.52380952" r="2.52380952"></circle>
            </g>
        </g>
    </g>
</svg>