<?xml version="1.0" encoding="UTF-8"?>
<svg width="40px" height="40px" viewBox="0 0 40 40" version="1.1" xmlns="http://www.w3.org/2000/svg" xmlns:xlink="http://www.w3.org/1999/xlink">
    <!-- Generator: Sketch 58 (84663) - https://sketch.com -->
    <title>Messages fill</title>
    <desc>Created with Sketch.</desc>
    <g id="Messages-fill" stroke="none" stroke-width="1" fill="none" fill-rule="evenodd">
        <g id="Group-25" transform="translate(0.000000, 1.000000)">
            <path d="M35.2380952,2.84217094e-14 L4.76190476,2.84217094e-14 C2.13236938,0.000946121924 0.000946121924,2.13236938 0,4.76190476 L0,25.3238095 C0.000946121924,27.9533449 2.13236938,30.0847682 4.76190476,30.0857143 L14.6285714,30.0857143 L18.6095238,36.6666667 C18.6095238,36.6761905 18.6190476,36.6761905 18.6190476,36.6857143 C18.8891044,37.1138647 19.360464,37.3729325 19.8666667,37.3714351 L19.8666667,37.3714351 C20.3722796,37.3706318 20.8426027,37.1121336 21.1142857,36.6857143 C21.1142857,36.6761905 21.1238095,36.6761905 21.1238095,36.6666667 L25.1047619,30.0857143 L35.2380952,30.0857143 C37.8676306,30.0847682 39.9990539,27.9533449 40,25.3238095 L40,4.76190476 C39.9990539,2.13236938 37.8676306,0.000946121924 35.2380952,2.84217094e-14 Z" id="Shape" stroke="#1A1A1A" stroke-width="0.555555556" fill="#000000" fill-rule="nonzero"></path>
            <g id="Group-24" transform="translate(8.412698, 12.730159)" fill="#FFFFFF">
                <circle id="Oval" cx="2.52380952" cy="2.52380952" r="2.52380952"></circle>
                <circle id="Oval-Copy-4" cx="11.5396825" cy="2.52380952" r="2.52380952"></circle>
                <circle id="Oval-Copy-6" cx="20.5555556" cy="2.52380952" r="2.52380952"></circle>
            </g>
        </g>
    </g>
</svg>