<?xml version="1.0" encoding="UTF-8"?>
<svg width="40px" height="40px" viewBox="0 0 40 40" version="1.1" xmlns="http://www.w3.org/2000/svg" xmlns:xlink="http://www.w3.org/1999/xlink">
    <!-- Generator: Sketch 58 (84663) - https://sketch.com -->
    <title>Next</title>
    <desc>Created with Sketch.</desc>
    <g id="Next" stroke="none" stroke-width="1" fill="none" fill-rule="evenodd">
        <g id="Arrow_right-Copy">
            <path d="M20.1955556,0.355555556 C9.39532045,0.355555556 0.64,9.110876 0.64,19.9111111 C0.64,30.7113462 9.39532045,39.4666667 20.1955556,39.4666667 C30.9957907,39.4666667 39.7511111,30.7113462 39.7511111,19.9111111 C39.7511111,9.110876 30.9957907,0.355555556 20.1955556,0.355555556 L20.1955556,0.355555556 Z" id="Shape" fill="#000000"></path>
            <path d="M18.56,11.8044444 C18.0346493,11.3149176 17.2159827,11.329362 16.7082279,11.8371168 C16.2004731,12.3448716 16.1860287,13.1635382 16.6755556,13.6888889 L22.6488889,19.6622222 L16.6755556,25.6355556 C16.1860287,26.1609062 16.2004731,26.9795728 16.7082279,27.4873276 C17.2159827,27.9950824 18.0346493,28.0095269 18.56,27.52 L26.4177778,19.6622222 L24.5333333,17.7777778 L18.56,11.8044444 Z" id="Shape" fill="#FFFFFF"></path>
        </g>
    </g>
</svg>