<?xml version="1.0" encoding="UTF-8"?>
<svg width="40px" height="40px" viewBox="0 0 40 40" version="1.1" xmlns="http://www.w3.org/2000/svg" xmlns:xlink="http://www.w3.org/1999/xlink">
    <!-- Generator: Sketch 58 (84663) - https://sketch.com -->
    <title>Notification on</title>
    <desc>Created with Sketch.</desc>
    <g id="Notification-on" stroke="none" stroke-width="1" fill="none" fill-rule="evenodd">
        <g id="home-copy-2" transform="translate(3.000000, 0.000000)" fill="#4f439a" fill-rule="nonzero">
            <g id="Group">
                <g id="Shape">
                    <path d="M23.1265676,33.3813559 C22.9550728,36.5132506 20.3611624,39 17.1864407,39 C14.0117189,39 11.4178086,36.5132506 11.2463138,33.3813559 L3.97264127,33.3813559 C1.77874353,33.3813559 0,31.6066225 0,29.4152542 C0,27.2268572 1.77725247,25.4491525 3.96748117,25.4491525 C3.96490836,25.4491525 3.96610169,17.516453 3.96610169,17.516453 C3.96610169,11.9291033 7.46013576,7.03038226 12.559322,5.12868634 L12.559322,4.95448954 C12.559322,2.40150465 14.6338953,0.330508475 17.1864407,0.330508475 C19.7417243,0.330508475 21.8135593,2.40025837 21.8135593,4.95448954 L21.8135593,5.12879653 C26.9126198,7.03074562 30.4067797,11.9302801 30.4067797,17.516453 L30.4067797,25.4480002 C32.592361,25.4491525 34.3728814,27.2261674 34.3728814,29.4152542 C34.3728814,31.6042285 32.5927404,33.3813559 30.4002401,33.3813559 L23.1265676,33.3813559 Z M20.4752065,33.3813559 L13.8976749,33.3813559 C14.063499,35.0515219 15.4726392,36.3559322 17.1864407,36.3559322 C18.9002422,36.3559322 20.3093823,35.0515219 20.4752065,33.3813559 Z"></path>
                </g>
            </g>
        </g>
    </g>
</svg>