<?xml version="1.0" encoding="UTF-8"?>
<svg width="40px" height="40px" viewBox="0 0 40 40" version="1.1" xmlns="http://www.w3.org/2000/svg" xmlns:xlink="http://www.w3.org/1999/xlink">
    <!-- Generator: Sketch 58 (84663) - https://sketch.com -->
    <title>Notification off</title>
    <desc>Created with Sketch.</desc>
    <g id="Notification-off" stroke="none" stroke-width="1" fill="none" fill-rule="evenodd">
        <g id="home-copy-2" transform="translate(3.000000, 0.000000)" fill="#1A1A1A" fill-rule="nonzero">
            <g id="Group">
                <g id="Shape">
                    <path d="M23.1265676,33.3813559 C22.9550728,36.5132506 20.3611624,39 17.1864407,39 C14.0117189,39 11.4178086,36.5132506 11.2463138,33.3813559 L3.97264127,33.3813559 C1.77874353,33.3813559 0,31.6066225 0,29.4152542 C0,27.2268572 1.77725247,25.4491525 3.96748117,25.4491525 C3.96490836,25.4491525 3.96610169,17.516453 3.96610169,17.516453 C3.96610169,11.9291033 7.46013576,7.03038226 12.559322,5.12868634 L12.559322,4.95448954 C12.559322,2.40150465 14.6338953,0.330508475 17.1864407,0.330508475 C19.7417243,0.330508475 21.8135593,2.40025837 21.8135593,4.95448954 L21.8135593,5.12879653 C26.9126198,7.03074562 30.4067797,11.9302801 30.4067797,17.516453 L30.4067797,25.4480002 C32.592361,25.4491525 34.3728814,27.2261674 34.3728814,29.4152542 C34.3728814,31.6042285 32.5927404,33.3813559 30.4002401,33.3813559 L23.1265676,33.3813559 Z M20.4752065,33.3813559 L13.8976749,33.3813559 C14.063499,35.0515219 15.4726392,36.3559322 17.1864407,36.3559322 C18.9002422,36.3559322 20.3093823,35.0515219 20.4752065,33.3813559 Z M14.2477348,7.35371236 C9.75911516,8.64836502 6.61016949,12.7723437 6.61016949,17.516453 L6.61016949,25.4480002 C6.61016949,26.9078732 5.42555064,28.0932203 3.96748117,28.0932203 C3.23768138,28.0932203 2.6440678,28.686985 2.6440678,29.4152542 C2.6440678,30.1450066 3.23768766,30.7372881 3.97264127,30.7372881 L30.4002401,30.7372881 C31.133464,30.7372881 31.7288136,30.1429464 31.7288136,29.4152542 C31.7288136,28.6876135 31.1332479,28.0932203 30.4054002,28.0932203 C28.9444402,28.0932203 27.7627119,26.9120658 27.7627119,25.4480002 L27.7627119,17.516453 C27.7627119,12.7735002 24.6135278,8.64855605 20.1250952,7.35376061 L19.1694915,7.07809394 L19.1694915,4.95448954 C19.1694915,3.861133 18.2820416,2.97457627 17.1864407,2.97457627 C16.0931531,2.97457627 15.2033898,3.86280544 15.2033898,4.95448954 L15.2033898,7.07807278 L14.2477348,7.35371236 Z"></path>
                </g>
            </g>
        </g>
    </g>
</svg>