<?xml version="1.0" encoding="UTF-8"?>
<svg width="40px" height="40px" viewBox="0 0 40 40" version="1.1" xmlns="http://www.w3.org/2000/svg" xmlns:xlink="http://www.w3.org/1999/xlink">
    <!-- Generator: Sketch 58 (84663) - https://sketch.com -->
    <title>Notification Resources</title>
    <desc>Created with Sketch.</desc>
    <g id="Notification-Resources" stroke="none" stroke-width="1" fill="none" fill-rule="evenodd">
        <g id="column" transform="translate(0.000000, 3.000000)" fill-rule="nonzero">
            <path d="M27,35 L3,35 C1.34252925,35 0,34.0210724 0,32.8125 L0,2.1875 C0,0.978927578 1.34252925,0 3,0 L27,0 C28.6574707,0 30,0.978927578 30,2.1875 L30,32.8125 C30,34.0210724 28.6574707,35 27,35 Z" id="Path" fill="#7268AE"></path>
            <polygon id="Path" fill="#4F439A" points="37.5100708 9.56359859 23.1100464 23.9511109 22.4725342 24.1137695 15.8724976 17.5149536 16.0348511 16.8899536 30.4348755 2.48992922"></polygon>
            <polygon id="Path" fill="#D1CFE3" points="16.0412598 16.8862915 13.6849976 26.3150024 23.1137085 23.9575195 23.3587647 23.7136841 16.2863159 16.6412353"></polygon>
            <path d="M39.2675781,4.26757812 L35.7324219,0.732421875 C34.7561645,-0.243835469 33.1738281,-0.243835469 32.1975708,0.732421875 L29.5462036,3.38378906 L36.6174316,10.4550171 L39.2687988,7.80364992 C40.2438355,6.82617188 40.2438355,5.24383547 39.2675781,4.26757812 Z" id="Path" fill="#D1CFE3"></path>
            <polygon id="Path" fill="#4F439A" points="18.5125733 25.1126098 13.687439 26.312561 14.8873902 21.4874267"></polygon>
            <g id="Group" transform="translate(3.750000, 7.500000)" fill="#E0DEED">
                <path d="M13.75,2.5 L1.25,2.5 C0.559997578,2.5 0,1.94000242 0,1.25 C0,0.559997578 0.559997578,0 1.25,0 L13.75,0 C14.4400024,0 15,0.559997578 15,1.25 C15,1.94000242 14.4400024,2.5 13.75,2.5 Z" id="Path"></path>
                <path d="M8.75,7.5 L1.25,7.5 C0.559997578,7.5 0,6.94000242 0,6.25 C0,5.55999758 0.559997578,5 1.25,5 L8.75,5 C9.44000242,5 10,5.55999758 10,6.25 C10,6.94000242 9.44000242,7.5 8.75,7.5 Z" id="Path"></path>
                <path d="M6.25,12.5 L1.25,12.5 C0.559997578,12.5 0,11.9400024 0,11.25 C0,10.5599976 0.559997578,10 1.25,10 L6.25,10 C6.94000242,10 7.5,10.5599976 7.5,11.25 C7.5,11.9400024 6.94000242,12.5 6.25,12.5 Z" id="Path"></path>
                <path d="M3.75,17.5 L1.25,17.5 C0.559997578,17.5 0,16.9400024 0,16.25 C0,15.5599976 0.559997578,15 1.25,15 L3.75,15 C4.44000242,15 5,15.5599976 5,16.25 C5,16.9400024 4.44000242,17.5 3.75,17.5 Z" id="Path"></path>
            </g>
        </g>
    </g>
</svg>