<?xml version="1.0" encoding="UTF-8"?>
<svg width="40px" height="40px" viewBox="0 0 40 40" version="1.1" xmlns="http://www.w3.org/2000/svg" xmlns:xlink="http://www.w3.org/1999/xlink">
    <!-- Generator: Sketch 58 (84663) - https://sketch.com -->
    <title>Notification feed</title>
    <desc>Created with Sketch.</desc>
    <g id="Notification-feed" stroke="none" stroke-width="1" fill="none" fill-rule="evenodd">
        <g id="Group" transform="translate(0.000000, 3.000000)" fill-rule="nonzero">
            <path d="M5.91394225,1.69082126 L5.91394225,5.07246377 L5.91394225,5.07246377 L1.61442535,5.07246377 C0.814012665,5.07246377 0.165149983,5.72132645 0.165149983,6.52173913 L0.165149983,30.7246377 L0.165149983,30.7246377 C0.165149983,32.8502415 1.90428042,34.5410628 3.9815751,34.5410628 L35.8656331,34.5410628 C38.0395461,34.5410628 39.8269857,32.7536232 39.8269857,30.5797101 L39.8269857,1.69082126 C39.8269857,0.890408575 39.1781231,0.241545894 38.3777104,0.241545894 L7.36321762,0.241545894 C6.56280494,0.241545894 5.91394225,0.890408575 5.91394225,1.69082126 Z M37.9429278,30.5797101 C37.9429278,31.6908213 37.0250534,32.6086957 35.9139423,32.6086957 L7.36321762,32.6086957 C7.36321762,32.6086957 7.36321762,32.6086957 7.36321762,32.5603865 C7.41152679,32.4154589 7.50814515,32.3188406 7.55645433,32.173913 C7.55645433,32.173913 7.55645433,32.1256039 7.55645433,32.1256039 C7.60476351,32.0289855 7.65307269,31.884058 7.70138187,31.7391304 C7.70138187,31.6908213 7.70138187,31.6425121 7.74969105,31.5942029 C7.79800022,31.4975845 7.79800022,31.4009662 7.79800022,31.2560386 C7.79800022,31.2077295 7.79800022,31.1594203 7.79800022,31.1111111 C7.79800022,30.9661836 7.8463094,30.821256 7.8463094,30.6280193 L7.8463094,5.07246377 L7.8463094,3.62318841 C7.8463094,2.82277572 8.49517208,2.17391304 9.29558477,2.17391304 L36.4453432,2.17391304 C37.2457559,2.17391304 37.8946186,2.82277572 37.8946186,3.62318841 L37.8946186,30.5797101 L37.8946186,30.5797101 L37.9429278,30.5797101 Z" id="Shape" fill="#7268AE"></path>
            <rect id="Rectangle" fill="#E0DEED" x="11.7110437" y="6.03864734" width="9.71014493" height="11.0144928" rx="0.724637681"></rect>
            <rect id="Rectangle" fill="#E0DEED" x="24.6095944" y="10.7729469" width="9.42028986" height="1.49758454" rx="0.724637681"></rect>
            <rect id="Rectangle" fill="#E0DEED" x="24.6095944" y="6.03864734" width="9.42028986" height="1.49758454" rx="0.724637681"></rect>
            <rect id="Rectangle" fill="#E0DEED" x="24.6095944" y="15.5555556" width="9.42028986" height="1.49758454" rx="0.724637681"></rect>
            <rect id="Rectangle" fill="#E0DEED" x="11.7110437" y="20.2898551" width="22.3188406" height="1.49758454" rx="0.724637681"></rect>
            <rect id="Rectangle" fill="#E0DEED" x="11.7110437" y="29.7584541" width="22.3188406" height="1.49758454" rx="0.724637681"></rect>
            <rect id="Rectangle" fill="#E0DEED" x="11.7110437" y="25.0241546" width="22.3188406" height="1.49758454" rx="0.724637681"></rect>
        </g>
    </g>
</svg>