<?xml version="1.0" encoding="UTF-8"?>
<svg width="40px" height="40px" viewBox="0 0 40 40" version="1.1" xmlns="http://www.w3.org/2000/svg" xmlns:xlink="http://www.w3.org/1999/xlink">
    <!-- Generator: Sketch 58 (84663) - https://sketch.com -->
    <title>Notification profile</title>
    <desc>Created with Sketch.</desc>
    <g id="Notification-profile" stroke="none" stroke-width="1" fill="none" fill-rule="evenodd">
        <g id="Group-2" fill-rule="nonzero">
            <g id="rr">
                <g id="feature" transform="translate(21.312070, 0.000000)" stroke="#7268AE" stroke-width="0.900225056">
                    <path d="M11.6920599,5.22894499 L17.1472515,5.58260142 C17.5451958,5.62055803 17.8742718,5.87953523 17.9802367,6.23572165 C18.1192768,6.61304977 18.0006282,7.04233864 17.6908641,7.29400083 L13.4929648,10.7802756 L14.8449887,16.0708595 C14.940185,16.4515812 14.7934917,16.8426967 14.4721514,17.0835181 C14.337185,17.1788072 14.1823199,17.2386735 13.9834045,17.2613124 L13.8587259,17.2645002 C13.6941263,17.2570401 13.5335438,17.207939 13.3844052,17.1167315 C12.0806995,16.2911346 12.0806995,16.2911346 11.2510686,15.7657547 C10.6663779,15.395488 10.6663779,15.395488 9.87180445,14.892309 L8.79166087,14.2082872 L4.16339809,17.1144135 C3.83221061,17.3286044 3.40624016,17.3122027 3.07190868,17.0759317 C2.76147352,16.8431538 2.61229287,16.4398503 2.7100682,16.0685985 L4.06184507,10.7790042 L-0.0955175414,7.29700486 C-0.402546794,7.04749161 -0.523619908,6.62921235 -0.401315179,6.24262279 C-0.271214916,5.87090775 0.0529499593,5.61991047 0.457913731,5.58148746 C1.75630651,5.49681785 1.75630651,5.49681785 2.58255647,5.44293719 C3.90542691,5.35667137 3.96556503,5.3527497 5.86238595,5.22905594 L7.88323571,0.147726724 C8.03734247,-0.218582089 8.40080546,-0.416384352 8.79268137,-0.416384352 L8.81633875,-0.41576222 C9.19379289,-0.395896212 9.53725414,-0.197296905 9.67461019,0.155940397 L11.6920599,5.22894499 Z" id="Combined-Shape"></path>
                </g>
                <g id="girl" transform="translate(0.000000, 4.201050)" fill="#7268AE">
                    <path d="M16.9904338,34.129153 C26.3483135,34.129153 33.9808676,26.4967979 33.9808676,17.1389182 C33.9808676,7.7808395 26.3485126,0.148484432 16.9904338,0.148484432 C7.63235507,0.148484432 0,7.7808395 0,17.1388519 C0,26.4967315 7.63235507,34.129153 16.9904338,34.129153 Z" id="Path"></path>
                </g>
                <path d="M33.0041295,5.22894499 L38.4593211,5.58260142 C38.8572654,5.62055803 39.1863414,5.87953523 39.2923063,6.23572165 C39.4313463,6.61304977 39.3126978,7.04233864 39.0029337,7.29400083 L34.8050344,10.7802756 L36.1570583,16.0708595 C36.2522546,16.4515812 36.1055613,16.8426967 35.784221,17.0835181 C35.6492546,17.1788072 35.4943895,17.2386735 35.2954741,17.2613124 L35.1707955,17.2645002 C35.0061959,17.2570401 34.8456134,17.207939 34.6964748,17.1167315 C33.3927691,16.2911346 33.3927691,16.2911346 32.5631381,15.7657547 C31.9784475,15.395488 31.9784475,15.395488 31.183874,14.892309 L30.1037305,14.2082872 L25.4754677,17.1144135 C25.1442802,17.3286044 24.7183097,17.3122027 24.3839783,17.0759317 C24.0735431,16.8431538 23.9243625,16.4398503 24.0221378,16.0685985 L25.3739147,10.7790042 L21.216552,7.29700486 C20.9095228,7.04749161 20.7884497,6.62921235 20.9107544,6.24262279 C21.0408547,5.87090775 21.3650195,5.61991047 21.7699833,5.58148746 C23.0683761,5.49681785 23.0683761,5.49681785 23.8946261,5.44293719 C25.2174965,5.35667137 25.2776346,5.3527497 27.1744555,5.22905594 L29.1953053,0.147726724 C29.3494121,-0.218582089 29.7128751,-0.416384352 30.104751,-0.416384352 L30.1284083,-0.41576222 C30.5058625,-0.395896212 30.8493237,-0.197296905 30.9866798,0.155940397 L33.0041295,5.22894499 Z" id="Combined-Shape" stroke="#7268AE" stroke-width="0.900225056" fill="#4F439A"></path>
            </g>
            <path d="M20.6532576,21.0881978 C22.6915141,19.0499412 22.6915141,15.7452744 20.6532576,13.7070179 C18.615001,11.6687613 15.3103342,11.6687613 13.2720777,13.7070179 C11.2338211,15.7452744 11.2338211,19.0499412 13.2720777,21.0881978 C15.3103342,23.1264543 18.615001,23.1264543 20.6532576,21.0881978 Z" id="Oval" fill="#E0DEED"></path>
            <path d="M26.3524167,30.8807539 C26.5230803,30.8815795 26.6863961,30.8271199 26.8027063,30.7305803 C26.9190165,30.6340407 26.9776816,30.5042519 26.9644561,30.3727306 C26.565859,27.0069954 22.2401855,24.356651 16.9626606,24.356651 C11.6851357,24.356651 7.3594621,27.0069954 6.96088061,30.3727306 C6.94764979,30.5042509 7.006311,30.6340401 7.12261892,30.7305803 C7.23892684,30.8271205 7.40224185,30.8815803 7.57290446,30.8807539 L26.3524167,30.8807539 Z" id="Path" fill="#E0DEED"></path>
        </g>
    </g>
</svg>