<?xml version="1.0" encoding="UTF-8"?>
<svg width="375px" height="667px" viewBox="0 0 375 667" version="1.1" xmlns="http://www.w3.org/2000/svg" xmlns:xlink="http://www.w3.org/1999/xlink">
    <!-- Generator: Sketch 58 (84663) - https://sketch.com -->
    <title>Onboarding_Mobile 1 Copy</title>
    <desc>Created with Sketch.</desc>
    <g id="Onboarding_Mobile-1-Copy" stroke="none" stroke-width="1" fill="none" fill-rule="evenodd">
        <rect fill="#FFFFFF" x="0" y="0" width="375" height="667"></rect>
        <rect id="Rectangle" fill="#FFFFFF" x="0" y="0" width="375" height="434"></rect>
        <g id="rr" transform="translate(70.000000, 130.000000)" fill-rule="nonzero">
            <g id="girl">
                <path d="M115.023474,230.046499 C178.375348,230.046499 230.046948,178.376247 230.046948,115.024373 C230.046948,51.6711506 178.376696,0.000898620892 115.023474,0.000898620892 C51.670252,0.000898620892 0,51.6711506 0,115.023923 C0,178.375798 51.670252,230.046499 115.023474,230.046499 Z" id="Path" fill="#EBECED"></path>
                <path d="M76.6128228,135.690856 C67.0209434,111.491894 46.872515,89.5916043 72.2262049,45.4778554 C82.6681797,27.3095382 98.6182512,15.3273272 115.095364,19.3841513 C131.572477,15.3277766 147.522548,27.3099875 157.964523,45.4778554 C183.317314,89.5916043 163.170234,111.491894 153.577006,135.690856 L115.096712,135.78611 L76.6141707,135.690856 L76.6128228,135.690856 Z" id="Path" fill="#1A1A1A"></path>
                <path d="M50.2818827,173.520549 C49.0786293,175.462918 46.0767862,191.980918 42.7568314,204.504099 C62.5076199,220.474389 87.6460901,230.045151 115.022126,230.045151 C142.39951,230.045151 167.537531,220.474389 187.28832,204.504099 C183.967017,191.982266 180.965623,175.46157 179.76237,173.520549 C161.284028,143.68364 132.801341,156.7087 130.859421,122.565599 C130.859421,122.565599 121.696184,129.403655 114.699521,129.466109 C107.70241,129.528563 99.1758454,122.996937 99.1758454,122.996937 C97.2384188,157.110384 68.7471941,143.706105 50.2818827,173.520549 Z" id="Path" fill="#FED198"></path>
                <path d="M131.35546,127.388048 C131.125862,125.891395 130.956921,124.290951 130.859421,122.566498 C130.859421,122.566498 121.696184,129.404554 114.699521,129.467008 C107.70241,129.529462 99.1758454,122.997836 99.1758454,122.997836 C99.0769971,124.753741 98.9035633,126.377998 98.6667767,127.894421 C98.8460516,128.035954 99.0239785,128.179733 99.2063985,128.319918 L99.204152,128.34463 C99.7428752,128.81371 107.933355,135.856652 114.698173,135.785661 C121.462991,135.856202 129.652573,128.812362 130.192195,128.34463 L130.190847,128.319918 C130.588037,128.015735 130.973546,127.702566 131.354112,127.388947 L131.35546,127.388048 Z" id="Path" fill="#F0B97D"></path>
                <path d="M99.2050506,123.019403 C99.7437738,123.426029 107.934254,129.527215 114.699072,129.466565 C121.46389,129.527215 129.653472,123.42513 130.193093,123.019403 C140.418051,117.058401 148.808025,99.4831738 146.914182,80.435556 C145.363162,64.8328015 128.484366,87.7107908 116.728607,55.5176973 C100.090192,90.3716072 84.2870452,69.7545481 82.4853103,82.9633766 C80.4993581,97.5169913 88.6700686,115.829088 99.2050506,123.020301 L99.2050506,123.019403 L99.2050506,123.019403 Z" id="Path" fill="#FED198"></path>
                <path d="M85.7805531,147.424149 C75.7110567,152.802844 57.2906763,152.965495 50.2818827,164.233751 C49.0611062,166.19589 45.996809,190.234448 42.626082,204.399409 C62.394843,220.432154 87.5845346,230.0456 115.020778,230.0456 C142.459269,230.0456 167.646714,220.433502 187.416823,204.399409 C184.046096,190.234448 180.613364,166.382354 179.761022,164.233751 C175.107064,152.495516 153.563527,152.005318 143.483696,146.592475 C127.811748,203.450915 104.452997,207.327116 85.7814517,147.429091 L85.7778572,147.424598 L85.7805531,147.424598 L85.7805531,147.424149 Z" id="Path" fill="#E0DEED"></path>
                <g id="Group" transform="translate(69.643119, 141.532790)" fill="#FFFFFF">
                    <path d="M22.85148,0.240381089 C22.197284,17.9301827 25.2049681,42.9913714 45.0537064,49.3958425 C26.3668849,50.1771934 14.2408946,23.2522649 0.427294234,16.2003374 L22.8510307,0.24172902 L22.8510307,0.240381089 L22.85148,0.240381089 Z" id="Path"></path>
                    <path d="M68.3688747,0.240381089 C69.0549718,17.9301827 65.8976673,42.9913714 45.0541557,49.3958425 C64.6768908,50.1771934 77.4107981,23.2522649 91.9136407,16.2003374 L68.3679761,0.24172902 L68.3688747,0.240381089 Z" id="Path"></path>
                </g>
            </g>
            <g id="feature" transform="translate(174.000000, 1.000000)">
                <path d="M59.4325319,21.6342787 C59.2232625,20.9367138 58.6304485,20.4831803 57.8978891,20.4134238 L38.5172102,19.1578069 L31.3322914,1.09087529 C31.0881437,0.463066852 30.425457,0.149046373 29.7627703,0.114168127 C29.0652054,0.114168127 28.3675242,0.428188606 28.0887307,1.09087529 L20.903812,19.1578069 L1.64915975,20.4134238 C0.916600317,20.4832966 0.323786388,20.9367138 0.0796386627,21.6342787 C-0.129630816,22.2969654 0.0796386627,23.0641706 0.637574345,23.5175878 L15.4628055,35.9342435 L10.6496075,54.7686128 C10.4751,55.4312995 10.754126,56.1636264 11.3122942,56.5821654 C11.9051081,57.0007043 12.6724295,57.0355826 13.265476,56.6520381 L29.7627703,46.2930827 L46.1206679,56.6520381 C46.7484763,57.0356989 47.515914,57.0007043 48.1087279,56.5821654 C48.6666636,56.1636264 48.9458058,55.4660615 48.7714146,54.7686128 L43.9582166,35.9342435 L58.909242,23.5175878 C59.4674102,23.0641706 59.6766797,22.2969654 59.4325319,21.6342787 Z" id="Path" fill="#AD5DA3"></path>
                <path d="M58.909242,23.517704 L43.9582166,35.9342435 L48.7714146,54.7686128 C48.9458058,55.4660615 48.6666636,56.1636264 48.1087279,56.5821654 C47.515914,57.0007043 46.7484763,57.0355826 46.1206679,56.6520381 L29.7627703,46.2930827 L29.7627703,0.114284388 C30.425457,0.149162634 31.0881437,0.463183113 31.3322914,1.09099155 L38.5172102,19.1579232 L57.8978891,20.4135401 C58.6304485,20.4834128 59.2232625,20.93683 59.4325319,21.634395 C59.6766797,22.2969654 59.4674102,23.0641706 58.909242,23.517704 Z" id="Path" fill="#AD5DA3"></path>
                <path d="M31.5066826,55.8149602 C31.5066826,56.7914349 30.7394775,57.5588725 29.7627703,57.5588725 C28.7860631,57.5588725 28.018858,56.7914349 28.018858,55.8149602 C28.018858,54.8382531 28.7860631,54.0710479 29.7627703,54.0710479 C30.7394775,54.0710479 31.5066826,54.8382531 31.5066826,55.8149602 Z" id="Path" fill="#979FEF"></path>
                <circle id="Oval" fill="#737EE6" transform="translate(52.983396, 38.941736) rotate(-72.001696) translate(-52.983396, -38.941736) " cx="52.9833957" cy="38.9417364" r="1.74397529"></circle>
                <circle id="Oval" fill="#737EE6" transform="translate(44.113832, 11.649110) rotate(-53.998744) translate(-44.113832, -11.649110) " cx="44.1138321" cy="11.6491096" r="1.74390346"></circle>
                <circle id="Oval" fill="#979FEF" transform="translate(15.412019, 11.647742) rotate(-36.001256) translate(-15.412019, -11.647742) " cx="15.412019" cy="11.6477419" r="1.74390346"></circle>
                <circle id="Oval" fill="#979FEF" transform="translate(6.542519, 38.946552) rotate(-17.998304) translate(-6.542519, -38.946552) " cx="6.54251946" cy="38.9465524" r="1.74397529"></circle>
                <path d="M31.5066826,55.8149602 C31.5066826,56.7914349 30.7394775,57.5588725 29.7627703,57.5588725 L29.7627703,54.0710479 C30.7394775,54.0710479 31.5066826,54.8382531 31.5066826,55.8149602 Z" id="Path" fill="#737EE6"></path>
                <path d="M41.5167394,27.4589459 C41.3074699,26.7613809 40.6796614,26.3078475 39.9820965,26.238091 L33.6691339,25.8544303 L31.3324077,19.9600066 C31.0882599,19.3321982 30.4255732,19.0184102 29.7628866,18.983532 C29.0653216,18.9486537 28.3676404,19.2624417 28.088847,19.9600066 L25.7518882,25.8544303 L19.4389256,26.238091 C18.7414769,26.3079637 18.1135522,26.7613809 17.9042828,27.4589459 C17.6603676,28.1216325 17.9042828,28.8888377 18.4275727,29.3422549 L23.3106435,33.3882478 L21.7411224,39.4919409 C21.5667312,40.1893896 21.8456409,40.9218327 22.4038091,41.3403717 C22.996623,41.7589106 23.7640607,41.7937889 24.3569909,41.4102444 L29.7631191,38.0269383 L35.0647288,41.4102444 C35.6575427,41.7939052 36.4248642,41.7589106 37.0179106,41.3403717 C37.5758463,40.9218327 37.8549885,40.1892733 37.6805973,39.4919409 L36.1110762,33.3882478 L40.9591525,29.3422549 C41.5167394,28.8888377 41.7260088,28.1216325 41.5167394,27.4589459 Z" id="Path" fill="#FFFFFF"></path>
                <path d="M40.9588037,29.3422549 L36.1107274,33.3882478 L37.6802485,39.4919409 C37.8546397,40.1893896 37.5754975,40.9218327 37.0175618,41.3403717 C36.4245154,41.7589106 35.6573102,41.7937889 35.06438,41.4102444 L29.7627703,38.0269383 L29.7627703,18.983532 C30.425457,19.0184102 31.0881437,19.3321982 31.3322914,19.9600066 L33.6690176,25.8544303 L39.9819803,26.238091 C40.6795452,26.3079637 41.3073536,26.7613809 41.5166231,27.4589459 C41.7260088,28.1216325 41.5167394,28.8888377 40.9588037,29.3422549 Z" id="Path" fill="#FFFFFF"></path>
            </g>
        </g>
        <g id="notChecked-Copy-2" transform="translate(28.000000, 509.000000)" fill="#7F7F7F" font-family="OpenSans-Regular, Open Sans" font-size="14" font-weight="normal" line-spacing="22">
            <text id="Showcase-your-story">
                <tspan x="25.2353516" y="15">Showcase your story through our visually </tspan>
                <tspan x="75.9169922" y="37">captivating profile builder</tspan>
            </text>
        </g>
        <text id="Showcase-The-star-in" font-family="OpenSans-Bold, Open Sans" font-size="18" font-weight="bold" line-spacing="32">
            <tspan x="74" y="481" fill="#1A1A1A">Showcase The</tspan>
            <tspan x="199.569336" y="481" fill="#4F439A"> </tspan>
            <tspan x="204.245117" y="481" fill="#AD5DA3">star</tspan>
            <tspan x="240.051758" y="481" fill="#4F439A"> </tspan>
            <tspan x="244.727539" y="481" fill="#1A1A1A">in you</tspan>
        </text>
    </g>
</svg>