<?xml version="1.0" encoding="UTF-8"?>
<svg width="622px" height="336px" viewBox="0 0 622 336" version="1.1" xmlns="http://www.w3.org/2000/svg" xmlns:xlink="http://www.w3.org/1999/xlink">
    <!-- Generator: Sketch 58 (84663) - https://sketch.com -->
    <title>Onboarding_Desktop Resources</title>
    <desc>Created with Sketch.</desc>
    <defs>
        <path d="M99.7825698,198.753899 C154.740159,198.753899 199.56514,154.112037 199.56514,99.3775319 C199.56514,44.6418625 154.741328,0 99.7825698,0 C44.8238115,0 0,44.6418625 0,99.3771437 C0,154.111649 44.8238115,198.753899 99.7825698,198.753899 Z" id="path-1"></path>
    </defs>
    <g id="Onboarding_Desktop-Resources" stroke="none" stroke-width="1" fill="none" fill-rule="evenodd">
        <rect fill="#FFFFFF" x="0" y="0" width="622" height="336"></rect>
        <g id="Group-2">
            <rect id="Rectangle" fill="#FFFFFF" x="0" y="0" width="622" height="336" rx="10"></rect>
            <g id="Group-37" transform="translate(55.000000, 68.000000)">
                <g id="Group-13">
                    <g id="support">
                        <mask id="mask-2" fill="white">
                            <use xlink:href="#path-1"></use>
                        </mask>
                        <path stroke="#FFFFFF" stroke-width="10.0651013" d="M99.7825698,203.78645 C42.0492408,203.78645 -5.03255065,156.895899 -5.03255065,99.3771437 C-5.03255065,41.8578057 42.0490459,-5.03255065 99.7825698,-5.03255065 C157.516157,-5.03255065 204.59769,41.8578689 204.59769,99.3775319 C204.59769,156.895827 157.515192,203.78645 99.7825698,203.78645 Z"></path>
                        <g mask="url(#mask-2)">
                            <g transform="translate(27.446967, 35.694578)">
                                <path d="M116.464919,166.304283 L144.871076,113.156011 L122.14615,113.156011 L107.943072,138.331661 L107.943072,115.953306 C107.943072,106.683037 100.313213,99.1695393 90.899377,99.1695393 L73.8556824,99.1695393 C69.1489281,99.1695393 65.3338351,95.4126291 65.3338351,90.777656 L65.3338351,79.5884783 L42.6089091,79.5884783 L42.6089091,90.777656 C42.6089091,95.4126291 38.7938161,99.1695393 34.0870618,99.1695393 L17.0436946,99.1695393 C7.62985858,99.1695393 0,106.683037 0,115.953306 L0,166.304283 L116.464919,166.304283 Z" id="Path" fill="#FED198" fill-rule="nonzero"></path>
                                <g id="Group" stroke-width="1" fill="none" fill-rule="evenodd" transform="translate(10.687211, 123.540325)">
                                    <path d="M11.215328,42.6514841 L5.5664922,42.6514841 L5.5664922,35.1386368 C-1.38161489,25.7781012 -1.84475693,13.1034475 4.40001217,3.2594199 L6.46478598,0.00455817387 L11.2351816,3.03346471 L9.17040778,6.28539618 C4.01856278,14.4028527 4.59203873,24.8990248 10.5966119,32.4092674 C10.9975894,32.9093642 11.2150025,33.533834 11.2150025,34.1752342 L11.2150025,42.6514841 L11.215328,42.6514841 Z" id="Path" fill="#F5B789" fill-rule="nonzero"></path>
                                    <path d="M79.1989171,42.6514841 L73.5500813,42.6514841 L73.5500813,34.1752342 C73.5500813,33.533834 73.7674945,32.9093642 74.168472,32.4092674 C80.1730451,24.9022806 80.7465211,14.4057829 75.5946761,6.28832644 L73.5299023,3.03346471 L78.3002979,0.00455817387 L80.3650717,3.2594199 C86.6098408,13.103122 86.1466987,25.7777756 79.1985917,35.1386368 L79.1985917,42.6514841 L79.1989171,42.6514841 Z" id="Path" fill="#F5B789" fill-rule="nonzero"></path>
                                </g>
                                <path d="M92.6224915,67.4716995 L92.6224915,39.3583564 C92.6224915,17.6212154 74.8121697,0 52.8421551,0 C30.8721406,0 13.0621462,17.6212154 13.0621462,39.3586803 L13.0621462,67.4720234 C13.0621462,76.7888203 20.6942525,84.3400293 30.1108618,84.3400293 L75.5737759,84.3400293 C84.9903852,84.3400293 92.6224915,76.7884963 92.6224915,67.4716995 Z" id="Path" fill="#1A1A1A" fill-rule="nonzero" transform="translate(52.842319, 42.170015) scale(-1, 1) translate(-52.842319, -42.170015) "></path>
                                <path d="M52.9082893,0 C49.0644205,0.00291564978 45.2434339,0.559480796 41.5613744,1.65025777 C58.3888832,6.62338441 69.9227777,21.9564626 69.9286617,39.3586803 L69.9286617,67.4720234 C69.9286617,76.7888203 62.3092436,84.3400293 52.9082893,84.3400293 L75.6021191,84.3400293 C85.0030734,84.3400293 92.6224915,76.7888203 92.6224915,67.4720234 L92.6224915,39.3586803 C92.6224915,17.6212154 74.8417791,0 52.9082893,0 Z" id="Path" fill="#1A1A1A" fill-rule="nonzero"></path>
                                <path d="M146.771025,111.661447 L121.12172,111.661447 C121.12172,102.475873 128.776577,95.0310189 138.221257,95.0310189 L163.870562,95.0310189 C163.870562,104.216593 156.215705,111.661447 146.771025,111.661447 Z" id="Path" fill="#FED198" fill-rule="nonzero"></path>
                                <path d="M65.2964496,90.1756645 C65.2964496,90.1310932 65.2964496,90.0868231 65.2964496,90.0422518 L65.2964496,79.5884783 L42.7488422,79.5884783 L42.7488422,90.0422518 C42.7488422,90.0868231 42.7488422,90.1310932 42.7488422,90.1756645 C49.8467604,93.4817697 58.2124885,93.4817697 65.3107312,90.1756645 L65.2964496,90.1756645 Z" id="Path" fill="#F7C58A" fill-rule="nonzero"></path>
                                <path d="M28.0293961,47.7200958 L28.0293961,59.7440314 C28.0293961,73.6249566 39.4586817,84.8756559 53.5599436,84.8756559 C67.6612056,84.8756559 79.0905131,73.6249566 79.0905131,59.7440314 L79.0905131,37.4048095 C79.0960483,33.2413042 78.0467402,29.1421548 76.035403,25.4812691 L28.0293961,47.7200958 Z" id="Path" fill="#FED198" fill-rule="nonzero" transform="translate(53.559955, 55.178463) scale(-1, 1) translate(-53.559955, -55.178463) "></path>
                                <rect id="Rectangle" fill="#FFFFFF" fill-rule="nonzero" x="34.4365673" y="115.22511" width="39.1864387" height="30.8850811"></rect>
                                <path d="M122.14615,112.700917 L107.943072,138.092139 L107.943072,115.522164 C107.943072,106.172516 100.313213,98.5946821 90.899377,98.5946821 L81.8092756,98.5946821 L53.9713721,135.270567 L27.5537765,98.5946821 L17.0436946,98.5946821 C7.62985858,98.5946821 0,106.172516 0,115.522164 L0,166.304283 L116.464919,166.304283 L144.871076,112.700917 L122.14615,112.700917 Z" id="Path" fill="#E0DEED" fill-rule="nonzero"></path>
                                <path d="M144.673919,112.615849 L121.986647,112.615849 L107.807103,138.047367 L107.807103,115.441573 C107.804162,106.800614 101.281702,99.544188 92.6605779,98.5946821 C87.5560725,138.066904 63.7603196,157.14331 42.7488422,166.304283 L116.31483,166.304283 L144.673919,112.615849 Z" id="Path" fill-opacity="0.391744974" fill="#4F439A" fill-rule="nonzero"></path>
                                <g id="Group" stroke-width="1" fill="none" fill-rule="evenodd" transform="translate(10.687211, 123.540325)">
                                    <path d="M11.215328,42.6514841 L5.5664922,42.6514841 L5.5664922,35.1386368 C-1.38161489,25.7781012 -1.84475693,13.1034475 4.40001217,3.2594199 L6.46478598,0.00455817387 L11.2351816,3.03346471 L9.17040778,6.28539618 C4.01856278,14.4028527 4.59203873,24.8990248 10.5966119,32.4092674 C10.9975894,32.9093642 11.2150025,33.533834 11.2150025,34.1752342 L11.2150025,42.6514841 L11.215328,42.6514841 Z" id="Path" fill="#FFFFFF" fill-rule="nonzero"></path>
                                    <path d="M79.1989171,42.6514841 L73.5500813,42.6514841 L73.5500813,34.1752342 C73.5500813,33.533834 73.7674945,32.9093642 74.168472,32.4092674 C80.1730451,24.9022806 80.7465211,14.4057829 75.5946761,6.28832644 L73.5299023,3.03346471 L78.3002979,0.00455817387 L80.3650717,3.2594199 C86.6098408,13.103122 86.1466987,25.7777756 79.1985917,35.1386368 L79.1985917,42.6514841 L79.1989171,42.6514841 Z" id="Path" fill="#FFFFFF" fill-rule="nonzero"></path>
                                </g>
                                <path d="M54.1536885,59.7440314 L54.1536885,37.4048095 C54.1593524,33.2413042 53.0856423,29.1421548 51.0275306,25.4812691 L43.6604076,28.8155486 C44.8388128,32.5044291 45.4398897,36.3381104 45.4455761,40.1972122 L45.4455761,68.1212396 C45.4455761,77.375297 37.6489689,84.8756559 28.0293961,84.8756559 C42.4589226,84.8756559 54.1536885,73.6249566 54.1536885,59.7440314 L54.1536885,59.7440314 Z" id="Path" fill="#F7C58A" fill-rule="nonzero" transform="translate(41.091542, 55.178463) scale(-1, 1) translate(-41.091542, -55.178463) "></path>
                            </g>
                        </g>
                    </g>
                    <g id="writing" transform="translate(135.050726, 0.000000)" fill-rule="nonzero">
                        <path d="M4.57866555,11.9443449 C2.10503531,11.9443449 0,13.949844 0,16.4234742 L0,37.3260778 C0,39.7997081 2.10503531,41.8052072 4.57866555,41.8052072 L6.07170866,41.8052072 L6.07170866,49.4694952 C6.07170866,50.0729334 6.43486034,50.6184385 6.99319616,50.848616 C7.17827139,50.9259898 7.37228916,50.9625383 7.56475178,50.9625383 C7.95239862,50.9625383 8.33460213,50.810901 8.62037994,50.5251233 L17.2407599,41.8052072 L34.539064,41.8052072 C37.0126943,41.8052072 39.0181934,39.7997081 39.0181934,37.3260778 L39.0181934,16.4234742 C39.0181934,13.949844 37.0126943,11.9443449 34.539064,11.9443449 L4.57866555,11.9443449 Z" id="Path" stroke="#AD5DA3" stroke-width="1.69875128" fill="#AD5DA3"></path>
                        <path d="M19.6086329,32.8469485 L10.550838,32.8469485 C9.72577621,32.8469485 9.05779489,32.1789672 9.05779489,31.3539054 C9.05779489,30.5288436 9.72577621,29.8608623 10.550838,29.8608623 L19.6086329,29.8608623 C20.4336947,29.8608623 21.101676,30.5288436 21.101676,31.3539054 C21.101676,32.1789672 20.4336947,32.8469485 19.6086329,32.8469485 Z" id="Path" fill="#FFFFFF"></path>
                        <path d="M29.2290407,27.9836716 C29.1656641,28.0466594 29.1022875,28.1100359 29.038911,28.1310319 L20.2338447,32.7131967 C19.6218525,32.9876989 18.9884756,32.8189539 18.5658356,32.3967026 C18.1435843,31.9744514 17.9748394,31.3406858 18.2493416,30.7286936 L22.8315064,21.9236273 C22.8525024,21.8602508 22.9158789,21.7968742 22.9792555,21.7338864 L28.0466594,22.9158789 L28.4899065,23.0216361 L29.2290407,27.9836716 Z" id="Path" fill="#E0DEED"></path>
                        <path d="M50.5192911,6.77779363 L47.3520178,9.94506681 L42.1364761,8.82606216 L41.9887271,8.80506629 L41.0174715,3.61052045 L44.1847446,0.443247174 C44.7757409,-0.147749058 45.7050047,-0.147749058 46.296001,0.443247174 L50.5189023,4.66653731 C51.1102873,5.25753354 51.1102873,6.1867974 50.5192911,6.77779363 L50.5192911,6.77779363 Z" id="Path" fill="#7C8388"></path>
                        <path d="M28.4899065,23.0216361 L29.2290407,27.9836716 C29.1656641,28.0466594 29.1022875,28.1100359 29.038911,28.1310319 L20.2338447,32.7131967 C19.6218525,32.9876989 18.9884756,32.8189539 18.5658356,32.3967026 L28.0466594,22.9158789 L28.4899065,23.0216361 Z" id="Path" fill="#B2B2B2"></path>
                        <path d="M50.5192911,6.77779363 L47.3520178,9.94506681 L42.1364761,8.82606216 L48.407646,2.55489229 L50.5192911,4.66653731 C51.1102873,5.25753354 51.1102873,6.1867974 50.5192911,6.77779363 Z" id="Path" fill="#575F64"></path>
                        <path d="M47.3520178,9.94506681 L29.4611622,27.8355338 C29.3977856,27.8989103 29.3134131,27.941291 29.2290407,27.9836716 L22.9792555,21.7334976 C23.0212473,21.6491251 23.063628,21.5647527 23.1270045,21.5013761 L41.0174715,3.61052045 L47.3520178,9.94506681 Z" id="Path" fill="#E0DEED"></path>
                        <path d="M47.3520178,9.94506681 L29.4611622,27.8355338 C29.3977856,27.8989103 29.3134131,27.941291 29.2290407,27.9836716 L26.104148,24.8583903 L44.1847446,6.77779363 L47.3520178,9.94506681 Z" id="Path" fill="#B2B2B2"></path>
                    </g>
                </g>
            </g>
            <g id="notChecked-Copy-2" transform="translate(350.000000, 183.000000)" fill="#7F7F7F" font-family="OpenSans-Regular, Open Sans" font-size="14" font-weight="normal" line-spacing="22">
                <text id="A-curated-collection">
                    <tspan x="0" y="15">A curated collection of blogs, </tspan>
                    <tspan x="0" y="37">stories and articles awaits you.</tspan>
                </text>
            </g>
            <text id="Check-out-your-resou" font-family="OpenSans-Bold, Open Sans" font-size="18" font-weight="bold" line-spacing="26" fill="#1A1A1A">
                <tspan x="350" y="140">Check out your resources </tspan>
                <tspan x="350" y="166">shelf</tspan>
            </text>
            <path d="M310,30 L310,30 L310,30 L310,305 C308.895431,305 308,304.104569 308,303 L308,32 C308,30.8954305 308.895431,30 310,30 Z" id="Rectangle-Copy-11" fill="#EBECED"></path>
        </g>
    </g>
</svg>