<?xml version="1.0" encoding="UTF-8"?>
<svg width="375px" height="667px" viewBox="0 0 375 667" version="1.1" xmlns="http://www.w3.org/2000/svg" xmlns:xlink="http://www.w3.org/1999/xlink">
    <!-- Generator: Sketch 58 (84663) - https://sketch.com -->
    <title>Onboarding_Mobile 4</title>
    <desc>Created with Sketch.</desc>
    <g id="Onboarding_Mobile-4" stroke="none" stroke-width="1" fill="none" fill-rule="evenodd">
        <rect fill="#FFFFFF" x="0" y="0" width="375" height="667"></rect>
        <rect id="Rectangle" fill="#FFFFFF" x="0" y="0" width="375" height="434"></rect>
        <g id="Group-34" transform="translate(71.000000, 130.000000)">
            <g id="Group-6" fill-rule="nonzero">
                <g id="rr">
                    <g id="girl">
                        <path d="M116.839848,239.661235 C49.182732,239.661235 -5.98199516,184.496657 -5.98199516,116.840305 C-5.98199516,49.1832679 49.1825038,-5.98108235 116.839848,-5.98108235 C184.497267,-5.98108235 239.661691,49.1833422 239.661691,116.840761 C239.661691,184.496572 184.496136,239.661235 116.839848,239.661235 Z" id="Path" stroke="#FFFFFF" stroke-width="11.9639903" fill="#EBECED"></path>
                        <path d="M77.8226413,137.833596 C68.0792934,113.2525 47.6126945,91.0063751 73.3667529,46.1960114 C83.9736204,27.7407922 100.175565,15.5693662 116.912873,19.6902528 C133.650181,15.5698226 149.852126,27.7412486 160.458993,46.1960114 C186.212139,91.0063751 165.746909,113.2525 156.002192,137.833596 L116.914242,137.930354 L77.8240106,137.833596 L77.8226413,137.833596 Z" id="Path" fill="#1A1A1A"></path>
                        <path d="M51.0759006,176.26067 C49.8536463,178.233711 46.8044001,195.012553 43.4320187,207.733491 C63.4946986,223.955974 89.0301386,233.677871 116.838479,233.677871 C144.648188,233.677871 170.183172,223.955974 190.245852,207.733491 C186.872101,195.013922 183.823312,178.232342 182.601057,176.26067 C163.830918,145.952596 134.898451,159.183339 132.925865,124.501073 C132.925865,124.501073 123.617929,131.447111 116.51078,131.510552 C109.403174,131.573992 100.741964,124.939223 100.741964,124.939223 C98.773943,159.591366 69.8328039,145.975416 51.0759006,176.26067 Z" id="Path" fill="#FED198"></path>
                        <path d="M133.429737,129.399675 C133.196514,127.879388 133.024906,126.253671 132.925865,124.501986 C132.925865,124.501986 123.617929,131.448024 116.51078,131.511464 C109.403174,131.574905 100.741964,124.940136 100.741964,124.940136 C100.641555,126.723769 100.465382,128.373675 100.224857,129.914045 C100.406962,130.057812 100.587699,130.203862 100.773,130.346261 L100.770718,130.371363 C101.317948,130.847851 109.637767,138.002009 116.50941,137.929897 C123.381054,138.001553 131.69996,130.846481 132.248103,130.371363 L132.246734,130.346261 C132.650196,130.037274 133.041793,129.719159 133.428368,129.400588 L133.429737,129.399675 Z" id="Path" fill="#F0B97D"></path>
                        <path d="M100.771631,124.962043 C101.318861,125.37509 109.63868,131.572623 116.510323,131.511015 C123.381967,131.572623 131.700873,125.374177 132.249016,124.962043 C142.635439,118.906909 151.157902,101.054146 149.234152,81.7057407 C147.65864,65.8565978 130.513305,89.0958611 118.571908,56.3943958 C101.67075,91.7986954 85.61805,70.8560654 83.7878633,84.2734789 C81.7705503,99.0569145 90.0702871,117.658183 100.771631,124.962956 L100.771631,124.962043 L100.771631,124.962043 Z" id="Path" fill="#FED198"></path>
                        <path d="M87.1351424,149.752173 C76.9066352,155.215805 58.1953725,155.381024 51.0759006,166.827221 C49.8358465,168.820345 46.7231599,193.238504 43.2992047,207.627149 C63.3801407,223.913072 88.9676111,233.678327 116.83711,233.678327 C144.70889,233.678327 170.294079,223.914441 190.376384,207.627149 C186.952429,193.238504 183.465489,169.009753 182.599688,166.827221 C177.872238,154.903623 155.9885,154.405685 145.749495,148.907366 C129.830066,206.663676 106.102449,210.601088 87.1360552,149.757193 L87.1324039,149.752629 L87.1351424,149.752629 L87.1351424,149.752173 Z" id="Path" fill="#E0DEED"></path>
                        <g id="Group" transform="translate(70.742877, 143.767782)" fill="#FFFFFF">
                            <path d="M23.2123353,0.244177026 C22.5478087,18.2133241 25.6029881,43.6702625 45.7651644,50.1758687 C26.7832532,50.9695581 14.4657773,23.6194491 0.43404178,16.4561624 L23.2118789,0.245546243 L23.2118789,0.244177026 L23.2123353,0.244177026 Z" id="Path"></path>
                            <path d="M69.4485103,0.244177026 C70.1454418,18.2133241 66.9382792,43.6702625 45.7656208,50.1758687 C65.6982251,50.9695581 78.6332178,23.6194491 93.3650796,16.4561624 L69.4475975,0.245546243 L69.4485103,0.244177026 Z" id="Path"></path>
                        </g>
                    </g>
                </g>
            </g>
            <g id="Group-30" transform="translate(166.156871, 2.556260)">
                <rect id="Rectangle" fill="#FFFFFF" x="10.2250382" y="2.55625956" width="51.1251912" height="51.1251912"></rect>
                <g id="noun_Newspaper_772236" fill-rule="nonzero">
                    <g id="Group">
                        <path d="M9.46362393,2.70569035 L9.46362393,8.11707106 L9.46362393,8.11707106 L2.58343989,8.11707106 C1.30260145,8.11707106 0.264276732,9.15539577 0.264276732,10.4362342 L0.264276732,49.166259 L0.264276732,49.166259 C0.264276732,52.5676983 3.04727252,55.2733886 6.37140639,55.2733886 L57.3929959,55.2733886 C60.8717406,55.2733886 63.7320419,52.4130874 63.7320419,48.9343427 L63.7320419,2.70569035 C63.7320419,1.42485191 62.6937172,0.386527193 61.4128787,0.386527193 L11.7827871,0.386527193 C10.5019486,0.386527193 9.46362393,1.42485191 9.46362393,2.70569035 Z M60.7171298,48.9343427 C60.7171298,50.7123678 59.2483264,52.1811711 57.4703013,52.1811711 L11.7827871,52.1811711 C11.7827871,52.1811711 11.7827871,52.1811711 11.7827871,52.1038657 C11.8600925,51.8719493 12.0147034,51.7173385 12.0920088,51.4854221 C12.0920088,51.4854221 12.0920088,51.4081167 12.0920088,51.4081167 C12.1693143,51.2535058 12.2466197,51.0215895 12.3239252,50.7896732 C12.3239252,50.7123678 12.3239252,50.6350623 12.4012306,50.5577569 C12.478536,50.403146 12.478536,50.2485351 12.478536,50.0166188 C12.478536,49.9393134 12.478536,49.8620079 12.478536,49.7847025 C12.478536,49.5527862 12.5558415,49.3208699 12.5558415,49.0116481 L12.5558415,8.11707106 L12.5558415,5.7979079 C12.5558415,4.51706945 13.5941662,3.47874474 14.8750046,3.47874474 L58.3206612,3.47874474 C59.6014996,3.47874474 60.6398243,4.51706945 60.6398243,5.7979079 L60.6398243,48.9343427 L60.6398243,48.9343427 L60.7171298,48.9343427 Z" id="Shape" fill="#AD5DA3"></path>
                        <rect id="Rectangle" fill="#F6ECF5" x="18.7402766" y="9.66317983" width="15.5383932" height="17.62564" rx="1.15958158"></rect>
                        <rect id="Rectangle" fill="#B2B2B2" x="39.3808287" y="17.2391128" width="15.0745605" height="2.3964686" rx="1.15958158"></rect>
                        <rect id="Rectangle" fill="#B2B2B2" x="39.3808287" y="9.66317983" width="15.0745605" height="2.3964686" rx="1.15958158"></rect>
                        <rect id="Rectangle" fill="#B2B2B2" x="39.3808287" y="24.8923512" width="15.0745605" height="2.3964686" rx="1.15958158"></rect>
                        <rect id="Rectangle" fill="#B2B2B2" x="18.7402766" y="32.4682842" width="35.7151127" height="2.3964686" rx="1.15958158"></rect>
                        <rect id="Rectangle" fill="#B2B2B2" x="18.7402766" y="47.6201502" width="35.7151127" height="2.3964686" rx="1.15958158"></rect>
                        <rect id="Rectangle" fill="#B2B2B2" x="18.7402766" y="40.0442172" width="35.7151127" height="2.3964686" rx="1.15958158"></rect>
                    </g>
                </g>
            </g>
        </g>
        <g id="notChecked-Copy-2" transform="translate(52.000000, 509.000000)" fill="#7F7F7F" font-family="OpenSans-Regular, Open Sans" font-size="14" font-weight="normal" line-spacing="22">
            <text id="Read-through-the-pos">
                <tspan x="1.76855469" y="15">Read through the posts and start posting </tspan>
                <tspan x="107.318848" y="37">yourself.</tspan>
            </text>
        </g>
        <text id="Check-out-your-user" font-family="OpenSans-Bold, Open Sans" font-size="18" font-weight="bold" line-spacing="32" fill="#1A1A1A">
            <tspan x="75.7768555" y="481">Check out your user feed</tspan>
        </text>
    </g>
</svg>