<?xml version="1.0" encoding="UTF-8"?>
<svg width="622px" height="336px" viewBox="0 0 622 336" version="1.1" xmlns="http://www.w3.org/2000/svg" xmlns:xlink="http://www.w3.org/1999/xlink">
    <!-- Generator: Sketch 58 (84663) - https://sketch.com -->
    <title>Onboarding_Desktop Events</title>
    <desc>Created with Sketch.</desc>
    <defs>
        <path d="M97.6818842,194.569607 C151.482471,194.569607 195.363768,150.867573 195.363768,97.2853734 C195.363768,43.7020338 151.483616,0 97.6818842,0 C43.8801523,0 0,43.7020338 0,97.2849933 C0,150.867193 43.8801523,194.569607 97.6818842,194.569607 Z" id="path-1"></path>
    </defs>
    <g id="Onboarding_Desktop-Events" stroke="none" stroke-width="1" fill="none" fill-rule="evenodd">
        <rect fill="#FFFFFF" x="0" y="0" width="622" height="336"></rect>
        <g id="Group-6">
            <g id="Group-2">
                <rect id="Rectangle" fill="#FFFFFF" x="0" y="0" width="622" height="336" rx="10"></rect>
                <g id="Group-35" transform="translate(57.000000, 68.000000)">
                    <g id="Group-13" transform="translate(0.000000, 4.210526)">
                        <g id="support">
                            <mask id="mask-2" fill="white">
                                <use xlink:href="#path-1"></use>
                            </mask>
                            <path stroke="#FFFFFF" stroke-width="9.85320444" d="M97.6818842,199.496209 C41.1639937,199.496209 -4.92660222,153.592828 -4.92660222,97.2849933 C-4.92660222,40.9765887 41.1638029,-4.92660222 97.6818842,-4.92660222 C154.200028,-4.92660222 200.290371,40.9766506 200.290371,97.2853734 C200.290371,153.592757 154.199083,199.496209 97.6818842,199.496209 Z"></path>
                            <g mask="url(#mask-2)">
                                <g transform="translate(26.869136, 34.943113)">
                                    <path d="M114.013026,162.80314 L141.821159,110.77378 L119.574652,110.77378 L105.670586,135.419416 L105.670586,113.512184 C105.670586,104.437079 98.2013558,97.0817595 88.9857059,97.0817595 L72.3008259,97.0817595 C67.6931612,97.0817595 63.958386,93.4039422 63.958386,88.8665475 L63.958386,77.9129314 L41.7118794,77.9129314 L41.7118794,88.8665475 C41.7118794,93.4039422 37.9771042,97.0817595 33.3694394,97.0817595 L16.6848799,97.0817595 C7.46922998,97.0817595 0,104.437079 0,113.512184 L0,162.80314 L114.013026,162.80314 Z" id="Path" fill="#FED198" fill-rule="nonzero"></path>
                                    <g id="Group" stroke-width="1" fill="none" fill-rule="evenodd" transform="translate(10.462217, 120.939476)">
                                        <path d="M10.9792158,41.7535581 L5.44930289,41.7535581 L5.44930289,34.398876 C-1.35252826,25.2354043 -1.80591994,12.8275855 4.30738033,3.19080054 L6.32868522,0.00446221232 L10.9986515,2.9696023 L8.97734657,6.15307205 C3.93396146,14.0996347 4.49536424,24.3748348 10.3735253,31.726967 C10.7660612,32.2165355 10.9788972,32.8278586 10.9788972,33.4557556 L10.9788972,41.7535581 L10.9792158,41.7535581 Z" id="Path" fill="#F5B789" fill-rule="nonzero"></path>
                                        <path d="M77.5315715,41.7535581 L72.0016586,41.7535581 L72.0016586,33.4557556 C72.0016586,32.8278586 72.2144946,32.2165355 72.6070304,31.726967 C78.4851915,24.3780221 79.0465943,14.1025033 74.0032092,6.15594062 L71.9819043,2.9696023 L76.6518705,0.00446221232 L78.6731754,3.19080054 C84.7864757,12.8272668 84.333084,25.2350856 77.5312529,34.398876 L77.5312529,41.7535581 L77.5315715,41.7535581 Z" id="Path" fill="#F5B789" fill-rule="nonzero"></path>
                                    </g>
                                    <path d="M90.6725443,66.0512426 L90.6725443,38.5297594 C90.6725443,17.2502424 73.2371766,0 51.7296887,0 C30.2222008,0 12.7871537,17.2502424 12.7871537,38.5300765 L12.7871537,66.0515598 C12.7871537,75.1722136 20.2585841,82.5644497 29.4769489,82.5644497 L73.982749,82.5644497 C83.2011139,82.5644497 90.6725443,75.1718964 90.6725443,66.0512426 Z" id="Path" fill="#1A1A1A" fill-rule="nonzero" transform="translate(51.729849, 41.282225) scale(-1, 1) translate(-51.729849, -41.282225) "></path>
                                    <path d="M51.7944306,0 C48.0314854,0.00285426768 44.2909405,0.547702253 40.6863981,1.61551551 C57.1596435,6.48394474 68.4507192,21.4942213 68.4564793,38.5300765 L68.4564793,66.0515598 C68.4564793,75.1722136 60.9974701,82.5644497 51.7944306,82.5644497 L74.0104956,82.5644497 C83.213535,82.5644497 90.6725443,75.1722136 90.6725443,66.0515598 L90.6725443,38.5300765 C90.6725443,17.2502424 73.2661627,0 51.7944306,0 Z" id="Path" fill="#1A1A1A" fill-rule="nonzero"></path>
                                    <path d="M143.681109,109.31068 L118.571789,109.31068 C118.571789,100.318486 126.065491,93.0303659 135.311335,93.0303659 L160.420655,93.0303659 C160.420655,102.02256 152.926953,109.31068 143.681109,109.31068 Z" id="Path" fill="#FED198" fill-rule="nonzero"></path>
                                    <path d="M63.9217875,88.2772294 C63.9217875,88.2335965 63.9217875,88.1902584 63.9217875,88.1466254 L63.9217875,77.9129314 L41.8488666,77.9129314 L41.8488666,88.1466254 C41.8488666,88.1902584 41.8488666,88.2335965 41.8488666,88.2772294 C48.7973549,91.5137325 56.9869624,91.5137325 63.9357684,88.2772294 L63.9217875,88.2772294 Z" id="Path" fill="#F7C58A" fill-rule="nonzero"></path>
                                    <path d="M27.4393035,46.7154622 L27.4393035,58.4862623 C27.4393035,72.0749575 38.6279726,83.0888 52.4323659,83.0888 C66.2367591,83.0888 77.4254497,72.0749575 77.4254497,58.4862623 L77.4254497,36.6173398 C77.4308683,32.5414873 76.403651,28.5286358 74.4346577,24.9448214 L27.4393035,46.7154622 Z" id="Path" fill="#FED198" fill-rule="nonzero" transform="translate(52.432377, 54.016811) scale(-1, 1) translate(-52.432377, -54.016811) "></path>
                                    <rect id="Rectangle" fill="#FFFFFF" fill-rule="nonzero" x="33.711587" y="112.799319" width="38.361461" height="30.2348689"></rect>
                                    <path d="M119.574652,110.328266 L105.670586,135.184936 L105.670586,113.090118 C105.670586,103.937305 98.2013558,96.5190046 88.9857059,96.5190046 L80.0869751,96.5190046 L52.8351327,132.422766 L26.973697,96.5190046 L16.6848799,96.5190046 C7.46922998,96.5190046 0,103.937305 0,113.090118 L0,162.80314 L114.013026,162.80314 L141.821159,110.328266 L119.574652,110.328266 Z" id="Path" fill="#E0DEED" fill-rule="nonzero"></path>
                                    <path d="M141.628152,110.244989 L119.418507,110.244989 L105.53748,135.141106 L105.53748,113.011224 C105.5346,104.55218 99.1494554,97.4485208 90.7098289,96.5190046 C85.7127868,135.160232 62.417997,153.83503 41.8488666,162.80314 L113.866096,162.80314 L141.628152,110.244989 Z" id="Path" fill-opacity="0.391744974" fill="#4F439A" fill-rule="nonzero"></path>
                                    <g id="Group" stroke-width="1" fill="none" fill-rule="evenodd" transform="translate(10.462217, 120.939476)">
                                        <path d="M10.9792158,41.7535581 L5.44930289,41.7535581 L5.44930289,34.398876 C-1.35252826,25.2354043 -1.80591994,12.8275855 4.30738033,3.19080054 L6.32868522,0.00446221232 L10.9986515,2.9696023 L8.97734657,6.15307205 C3.93396146,14.0996347 4.49536424,24.3748348 10.3735253,31.726967 C10.7660612,32.2165355 10.9788972,32.8278586 10.9788972,33.4557556 L10.9788972,41.7535581 L10.9792158,41.7535581 Z" id="Path" fill="#FFFFFF" fill-rule="nonzero"></path>
                                        <path d="M77.5315715,41.7535581 L72.0016586,41.7535581 L72.0016586,33.4557556 C72.0016586,32.8278586 72.2144946,32.2165355 72.6070304,31.726967 C78.4851915,24.3780221 79.0465943,14.1025033 74.0032092,6.15594062 L71.9819043,2.9696023 L76.6518705,0.00446221232 L78.6731754,3.19080054 C84.7864757,12.8272668 84.333084,25.2350856 77.5312529,34.398876 L77.5312529,41.7535581 L77.5315715,41.7535581 Z" id="Path" fill="#FFFFFF" fill-rule="nonzero"></path>
                                    </g>
                                    <path d="M53.0136109,58.4862623 L53.0136109,36.6173398 C53.0191555,32.5414873 51.9680498,28.5286358 49.9532668,24.9448214 L42.7412411,28.2089055 C43.8948378,31.8201253 44.4832605,35.5730975 44.4888271,39.3509551 L44.4888271,66.6871082 C44.4888271,75.7463433 36.8563591,83.0888 27.4393035,83.0888 C41.5650506,83.0888 53.0136109,72.0749575 53.0136109,58.4862623 L53.0136109,58.4862623 Z" id="Path" fill="#F7C58A" fill-rule="nonzero" transform="translate(40.226457, 54.016811) scale(-1, 1) translate(-40.226457, -54.016811) "></path>
                                </g>
                            </g>
                        </g>
                    </g>
                    <g id="Group-29" transform="translate(130.526316, 0.000000)">
                        <path d="M2.10526316,16.8421053 L50.5263158,16.8421053 L50.5263158,47.3684211 C50.5263158,49.1124782 49.1124782,50.5263158 47.3684211,50.5263158 L5.26315789,50.5263158 C3.51910079,50.5263158 2.10526316,49.1124782 2.10526316,47.3684211 L2.10526316,16.8421053 L2.10526316,16.8421053 Z" id="Rectangle" stroke="#FFFFFF" stroke-width="2.10526316" fill="#FFFFFF"></path>
                        <g id="Group-25" fill-rule="nonzero">
                            <path d="M16.5383101,27.2651713 L16.5383101,22.2548658 C16.5383101,21.7516918 16.944443,21.3439012 17.4455716,21.3439012 L23.7964022,21.3439012 C24.2975308,21.3439012 24.7036638,21.7516918 24.7036638,22.2548658 L24.7036638,27.2651713 C24.7036638,27.7683452 24.2975308,28.1761359 23.7964022,28.1761359 L17.4455716,28.1761359 C16.944443,28.1761359 16.5383101,27.7683452 16.5383101,27.2651713 Z" id="Path" fill="#D2A0CD" opacity="0.200000003"></path>
                            <path d="M27.4614719,27.2651713 L27.4614719,22.2548658 C27.4614719,21.7516918 27.8676049,21.3439012 28.3687334,21.3439012 L34.7195641,21.3439012 C35.2206926,21.3439012 35.6268256,21.7516918 35.6268256,22.2548658 L35.6268256,27.2651713 C35.6268256,27.7683452 35.2206926,28.1761359 34.7195641,28.1761359 L28.3687334,28.1761359 C27.8676049,28.1761359 27.4614719,27.7683452 27.4614719,27.2651713 Z" id="Path" fill="#D2A0CD" opacity="0.200000003"></path>
                            <path d="M38.3846338,27.2651713 L38.3846338,22.2548658 C38.3846338,21.7516918 38.7907667,21.3439012 39.2918953,21.3439012 L45.6427259,21.3439012 C46.1438545,21.3439012 46.5499874,21.7516918 46.5499874,22.2548658 L46.5499874,27.2651713 C46.5499874,27.7683452 46.1438545,28.1761359 45.6427259,28.1761359 L39.2918953,28.1761359 C38.7907667,28.1761359 38.3846338,27.7683452 38.3846338,27.2651713 Z" id="Path" fill="#D2A0CD" opacity="0.200000003"></path>
                            <path d="M5.61514827,36.3748175 L5.61514827,31.3645121 C5.61514827,30.8613381 6.02128122,30.4535474 6.52240979,30.4535474 L12.8732404,30.4535474 C13.374369,30.4535474 13.7805019,30.8613381 13.7805019,31.3645121 L13.7805019,36.3748175 C13.7805019,36.8779915 13.374369,37.2857821 12.8732404,37.2857821 L6.52240979,37.2857821 C6.02128122,37.2857821 5.61514827,36.8779915 5.61514827,36.3748175 Z" id="Path" fill="#D2A0CD" opacity="0.200000003"></path>
                            <path d="M16.5383101,36.3748175 L16.5383101,31.3645121 C16.5383101,30.8613381 16.944443,30.4535474 17.4455716,30.4535474 L23.7964022,30.4535474 C24.2975308,30.4535474 24.7036638,30.8613381 24.7036638,31.3645121 L24.7036638,36.3748175 C24.7036638,36.8779915 24.2975308,37.2857821 23.7964022,37.2857821 L17.4455716,37.2857821 C16.944443,37.2857821 16.5383101,36.8779915 16.5383101,36.3748175 Z" id="Path" fill="#D2A0CD" opacity="0.200000003"></path>
                            <path d="M27.4614719,36.3748175 L27.4614719,31.3645121 C27.4614719,30.8613381 27.8676049,30.4535474 28.3687334,30.4535474 L34.7195641,30.4535474 C35.2206926,30.4535474 35.6268256,30.8613381 35.6268256,31.3645121 L35.6268256,36.3748175 C35.6268256,36.8779915 35.2206926,37.2857821 34.7195641,37.2857821 L28.3687334,37.2857821 C27.8676049,37.2857821 27.4614719,36.8779915 27.4614719,36.3748175 Z" id="Path" fill="#D2A0CD" opacity="0.200000003"></path>
                            <path d="M38.3846338,36.3748175 L38.3846338,31.3645121 C38.3846338,30.8613381 38.7907667,30.4535474 39.2918953,30.4535474 L45.6427259,30.4535474 C46.1438545,30.4535474 46.5499874,30.8613381 46.5499874,31.3645121 L46.5499874,36.3748175 C46.5499874,36.8779915 46.1438545,37.2857821 45.6427259,37.2857821 L39.2918953,37.2857821 C38.7907667,37.2857821 38.3846338,36.8779915 38.3846338,36.3748175 Z" id="Path" fill="#D2A0CD" opacity="0.200000003"></path>
                            <path d="M5.61514827,45.9399461 L5.61514827,40.9296406 C5.61514827,40.4264666 6.02128122,40.018676 6.52240979,40.018676 L12.8732404,40.018676 C13.374369,40.018676 13.7805019,40.4264666 13.7805019,40.9296406 L13.7805019,45.9399461 C13.7805019,46.4431201 13.374369,46.8509107 12.8732404,46.8509107 L6.52240979,46.8509107 C6.02128122,46.8509107 5.61514827,46.4431201 5.61514827,45.9399461 Z" id="Path" fill="#D2A0CD" opacity="0.200000003"></path>
                            <path d="M16.5383101,45.9399461 L16.5383101,40.9296406 C16.5383101,40.4264666 16.944443,40.018676 17.4455716,40.018676 L23.7964022,40.018676 C24.2975308,40.018676 24.7036638,40.4264666 24.7036638,40.9296406 L24.7036638,45.9399461 C24.7036638,46.4431201 24.2975308,46.8509107 23.7964022,46.8509107 L17.4455716,46.8509107 C16.944443,46.8509107 16.5383101,46.4431201 16.5383101,45.9399461 Z" id="Path" fill="#D2A0CD" opacity="0.200000003"></path>
                            <path d="M27.4614719,45.9399461 L27.4614719,40.9296406 C27.4614719,40.4264666 27.8676049,40.018676 28.3687334,40.018676 L34.7195641,40.018676 C35.2206926,40.018676 35.6268256,40.4264666 35.6268256,40.9296406 L35.6268256,45.9399461 C35.6268256,46.4431201 35.2206926,46.8509107 34.7195641,46.8509107 L28.3687334,46.8509107 C27.8676049,46.8509107 27.4614719,46.4431201 27.4614719,45.9399461 Z" id="Path" fill="#D2A0CD" opacity="0.200000003"></path>
                            <path d="M0.533683246,11.1796794 L0.533683246,17.1408712 L51.7672748,17.1408712 L51.7672748,11.1796794 C51.7672748,8.06444832 49.2520257,5.53893286 46.1494581,5.53893286 L6.15149993,5.53893286 C3.04893238,5.53893286 0.533683246,8.06444832 0.533683246,11.1796794 Z" id="Path" fill="#AD5DA3"></path>
                            <path d="M46.4411923,52.0342994 L6.19038668,52.0342994 C2.77712137,52.0342994 0,49.2636273 0,45.8576913 L0,11.1796794 C0,7.77401136 2.77712137,5.00307131 6.19038668,5.00307131 L46.4414608,5.00307131 C49.8544576,5.00307131 52.6315789,7.77401136 52.6315789,11.1796794 L52.6315789,45.8576913 C52.6315789,49.2636273 49.8544576,52.0342994 46.4411923,52.0342994 Z M6.15149993,6.0747944 C3.34806184,6.0747944 1.06736649,8.36479871 1.06736649,11.1796794 L1.06736649,45.8576913 C1.06736649,48.672572 3.34806184,50.9625763 6.15149993,50.9625763 L46.149725,50.9625763 C48.9531631,50.9625763 51.2338584,48.672572 51.2338584,45.8576913 L51.2338584,11.1796794 C51.2338584,8.36479871 48.9531631,6.0747944 46.149725,6.0747944 L6.15149993,6.0747944 Z" id="Shape" fill="#AD5DA3"></path>
                            <path d="M51.7672748,17.6767327 L0.533683246,17.6767327 C0.239090094,17.6767327 0,17.4366667 0,17.1408712 L0,11.1796794 C0,7.77401136 2.75967606,5.00307131 6.15149993,5.00307131 L46.149725,5.00307131 C49.541282,5.00307131 52.3009581,7.77401136 52.3009581,11.1796794 L52.3009581,17.1408712 C52.3009581,17.4366667 52.061868,17.6767327 51.7672748,17.6767327 Z M1.06736649,16.6050096 L51.2335916,16.6050096 L51.2335916,11.1796794 C51.2335916,8.36479871 48.9528962,6.0747944 46.1494581,6.0747944 L6.15149993,6.0747944 C3.34806184,6.0747944 1.06736649,8.36479871 1.06736649,11.1796794 L1.06736649,16.6050096 Z" id="Shape" fill="#AD5DA3"></path>
                            <path d="M40.5599267,12.5930142 L40.4475863,12.5930142 C38.9738201,12.5930142 37.7791701,11.3934882 37.7791701,9.91370651 L37.7791701,3.2154372 C37.7791701,1.73565554 38.9738201,0.536129475 40.4475863,0.536129475 L40.5599267,0.536129475 C42.033693,0.536129475 43.2283429,1.73565554 43.2283429,3.2154372 L43.2283429,9.91370651 C43.2283429,11.3932202 42.033693,12.5930142 40.5599267,12.5930142 Z" id="Path" fill="#D2A0CD"></path>
                            <path d="M11.8533717,12.5930142 L11.7410314,12.5930142 C10.2672651,12.5930142 9.07261518,11.3934882 9.07261518,9.91370651 L9.07261518,3.2154372 C9.07261518,1.73565554 10.2672651,0.536129475 11.7410314,0.536129475 L11.8533717,0.536129475 C13.327138,0.536129475 14.521788,1.73565554 14.521788,3.2154372 L14.521788,9.91370651 C14.521788,11.3932202 13.327138,12.5930142 11.8533717,12.5930142 Z" id="Path" fill="#D2A0CD"></path>
                            <path d="M11.8533717,13.1286078 L11.7410314,13.1286078 C9.97534039,13.1286078 8.53893193,11.6863365 8.53893193,9.91343857 L8.53893193,3.21516927 C8.53893193,1.44227135 9.97534039,0 11.7410314,0 L11.8533717,0 C13.6190627,0 15.0554712,1.44227135 15.0554712,3.21516927 L15.0554712,9.91343857 C15.0554712,11.6863365 13.6190627,13.1286078 11.8533717,13.1286078 Z M11.7410314,1.07172309 C10.563993,1.07172309 9.60629842,2.03332663 9.60629842,3.21516927 L9.60629842,9.91343857 C9.60629842,11.0952812 10.563993,12.0568848 11.7410314,12.0568848 L11.8533717,12.0568848 C13.0304101,12.0568848 13.9881047,11.0952812 13.9881047,9.91343857 L13.9881047,3.21516927 C13.9881047,2.03332663 13.0304101,1.07172309 11.8533717,1.07172309 L11.7410314,1.07172309 Z" id="Shape" fill="#AD5DA3"></path>
                            <path d="M26.138738,12.5930142 L26.0263977,12.5930142 C24.5526314,12.5930142 23.3579815,11.3934882 23.3579815,9.91370651 L23.3579815,3.2154372 C23.3579815,1.73565554 24.5526314,0.536129475 26.0263977,0.536129475 L26.138738,0.536129475 C27.6125043,0.536129475 28.8071542,1.73565554 28.8071542,3.2154372 L28.8071542,9.91370651 C28.8071542,11.3932202 27.6125043,12.5930142 26.138738,12.5930142 Z" id="Path" fill="#D2A0CD"></path>
                            <path d="M40.4784989,13.1286078 L40.3661586,13.1286078 C38.6004676,13.1286078 37.1640591,11.6863365 37.1640591,9.91343857 L37.1640591,3.21516927 C37.1640591,1.44227135 38.6004676,0 40.3661586,0 L40.4784989,0 C42.2441899,0 43.6805984,1.44227135 43.6805984,3.21516927 L43.6805984,9.91343857 C43.6805984,11.6863365 42.2441899,13.1286078 40.4784989,13.1286078 Z M40.3661586,1.07172309 C39.1891202,1.07172309 38.2314256,2.03332663 38.2314256,3.21516927 L38.2314256,9.91343857 C38.2314256,11.0952812 39.1891202,12.0568848 40.3661586,12.0568848 L40.4784989,12.0568848 C41.6555373,12.0568848 42.6132319,11.0952812 42.6132319,9.91343857 L42.6132319,3.21516927 C42.6132319,2.03332663 41.6555373,1.07172309 40.4784989,1.07172309 L40.3661586,1.07172309 Z" id="Shape" fill="#AD5DA3"></path>
                            <path d="M26.138738,13.1286078 L26.0263977,13.1286078 C24.2607067,13.1286078 22.8242982,11.6863365 22.8242982,9.91343857 L22.8242982,3.21516927 C22.8242982,1.44227135 24.2607067,0 26.0263977,0 L26.138738,0 C27.904429,0 29.3408375,1.44227135 29.3408375,3.21516927 L29.3408375,9.91343857 C29.3408375,11.6863365 27.904429,13.1286078 26.138738,13.1286078 Z M26.0263977,1.07172309 C24.8493593,1.07172309 23.8916647,2.03332663 23.8916647,3.21516927 L23.8916647,9.91343857 C23.8916647,11.0952812 24.8493593,12.0568848 26.0263977,12.0568848 L26.138738,12.0568848 C27.3157764,12.0568848 28.273471,11.0952812 28.273471,9.91343857 L28.273471,3.21516927 C28.273471,2.03332663 27.3157764,1.07172309 26.138738,1.07172309 L26.0263977,1.07172309 Z" id="Shape" fill="#AD5DA3"></path>
                        </g>
                    </g>
                </g>
                <g id="notChecked-Copy-2" transform="translate(350.000000, 157.000000)" fill="#7F7F7F" font-family="OpenSans-Regular, Open Sans" font-size="14" font-weight="normal" line-spacing="22">
                    <text id="We-have-an-exciting">
                        <tspan x="0" y="15">We have an exciting line up of </tspan>
                        <tspan x="0" y="37">events for you.</tspan>
                    </text>
                </g>
                <text id="View-Events-and-Regi" font-family="OpenSans-Bold, Open Sans" font-size="18" font-weight="bold" line-spacing="26" fill="#1A1A1A">
                    <tspan x="350" y="140">View Events and Register</tspan>
                </text>
            </g>
            <path d="M310,30 L310,30 L310,30 L310,305 C308.895431,305 308,304.104569 308,303 L308,32 C308,30.8954305 308.895431,30 310,30 Z" id="Rectangle-Copy-11" fill="#EBECED"></path>
        </g>
    </g>
</svg>