<?xml version="1.0" encoding="UTF-8"?>
<svg width="622px" height="336px" viewBox="0 0 622 336" version="1.1" xmlns="http://www.w3.org/2000/svg" xmlns:xlink="http://www.w3.org/1999/xlink">
    <!-- Generator: Sketch 58 (84663) - https://sketch.com -->
    <title>Onboarding_Desktop Profile</title>
    <desc>Created with Sketch.</desc>
    <g id="Onboarding_Desktop-Profile" stroke="none" stroke-width="1" fill="none" fill-rule="evenodd">
        <rect fill="#FFFFFF" x="0" y="0" width="622" height="336"></rect>
        <g id="Group-6">
            <g id="Group-2">
                <rect id="Rectangle-Copy-6" fill="#FFFFFF" x="0" y="0" width="622" height="336" rx="10"></rect>
                <g id="rr" transform="translate(65.000000, 79.000000)" fill-rule="nonzero">
                    <g id="girl">
                        <path d="M89.1307441,178.26114 C138.22159,178.26114 178.261488,138.222287 178.261488,89.1314404 C178.261488,40.0395496 138.222635,0.000696333938 89.1307441,0.000696333938 C40.0388533,0.000696333938 0,40.0395496 0,89.1310922 C0,138.221939 40.0388533,178.26114 89.1307441,178.26114 Z" id="Path" fill="#EBECED"></path>
                        <path d="M59.3666462,105.145728 C51.9339778,86.3941517 36.3211264,69.4237973 55.9674921,35.2404161 C64.0588925,21.1619365 76.4184717,11.8770198 89.1864508,15.0206194 C101.95443,11.877368 114.314009,21.1622847 122.405409,35.2404161 C142.051079,69.4237973 126.439272,86.3941517 119.005559,105.145728 L89.1874953,105.21954 L59.3676907,105.145728 L59.3666462,105.145728 Z" id="Path" fill="#1A1A1A"></path>
                        <path d="M38.9630173,134.459646 C38.0306262,135.964772 35.7045227,148.764434 33.1319169,158.468544 C48.4366406,170.843791 67.9162343,178.260095 89.1296996,178.260095 C110.344209,178.260095 129.823455,170.843791 145.128179,158.468544 C142.554528,148.765479 140.228773,135.963728 139.296382,134.459646 C124.977667,111.339271 102.906667,121.432283 101.401889,94.9750748 C101.401889,94.9750748 94.3013717,100.273828 88.8797157,100.322223 C83.4577115,100.370618 76.8505469,95.3093151 76.8505469,95.3093151 C75.3492509,121.743544 53.2716353,111.356679 38.9630173,134.459646 Z" id="Path" fill="#FED198"></path>
                        <path d="M101.786265,98.7119509 C101.608352,97.5522067 101.477441,96.312036 101.401889,94.9757711 C101.401889,94.9757711 94.3013717,100.274524 88.8797157,100.322919 C83.4577115,100.371315 76.8505469,95.3100114 76.8505469,95.3100114 C76.7739502,96.6706479 76.6395577,97.9292715 76.4560737,99.1043351 C76.5949923,99.2140076 76.7328665,99.3254211 76.8742223,99.4340492 L76.8724814,99.4531984 C77.2899336,99.8166847 83.6366693,105.274202 88.8786712,105.219192 C94.1206731,105.273854 100.466712,99.8156402 100.884861,99.4531984 L100.883816,99.4340492 C101.191596,99.1983401 101.490323,98.9556678 101.785221,98.7126472 L101.786265,98.7119509 Z" id="Path" fill="#F0B97D"></path>
                        <path d="M76.8731778,95.3267234 C77.2906299,95.6418145 83.6373656,100.369574 88.8793675,100.322576 C94.1213694,100.369574 100.467409,95.6411182 100.885557,95.3267234 C108.808793,90.7075923 115.310115,77.0886931 113.842591,62.3288508 C112.640719,50.2384046 99.5614783,67.9663703 90.4520377,43.020207 C77.5590667,70.0282151 65.313338,54.0522256 63.9171885,64.2876382 C62.3782905,75.5651144 68.7097068,89.7550074 76.8731778,95.3274198 L76.8731778,95.3267234 L76.8731778,95.3267234 Z" id="Path" fill="#FED198"></path>
                        <path d="M66.4706451,114.237761 C58.6678751,118.405667 44.3940739,118.531704 38.9630173,127.263383 C38.0170477,128.783828 35.6425489,147.411109 33.0306003,158.387421 C48.3492506,170.811063 67.8685354,178.260444 89.1286551,178.260444 C110.390516,178.260444 129.908059,170.812108 145.227754,158.387421 C142.615806,147.411109 139.95581,128.928318 139.295337,127.263383 C135.689024,118.167521 118.995114,117.787671 111.184336,113.593303 C99.0402723,157.652441 80.9397679,160.656077 66.4713414,114.24159 L66.468556,114.238109 L66.4706451,114.238109 L66.4706451,114.237761 Z" id="Path" fill="#E0DEED"></path>
                        <g id="Group" transform="translate(53.965880, 109.672595)" fill="#FFFFFF">
                            <path d="M17.7074239,0.186269328 C17.2004928,13.8939511 19.5311225,33.3136601 34.9117465,38.2764321 C20.4314822,38.8818944 11.0351521,18.0179888 0.331106788,12.5535082 L17.7070757,0.187313829 L17.7070757,0.186269328 L17.7074239,0.186269328 Z" id="Path"></path>
                            <path d="M52.9784787,0.186269328 C53.5101296,13.8939511 51.0635603,33.3136601 34.9120946,38.2764321 C50.1175907,38.8818944 59.9849908,18.0179888 71.2231242,12.5535082 L52.9777823,0.187313829 L52.9784787,0.186269328 Z" id="Path"></path>
                        </g>
                    </g>
                    <g id="feature" transform="translate(135.000000, 1.000000)">
                        <path d="M45.5649412,16.7852162 C45.4045012,16.2440021 44.9500105,15.8921227 44.3883816,15.8380012 L29.5298611,14.8638157 L24.0214234,0.846368758 C23.8342435,0.359276006 23.3261837,0.115639427 22.8181239,0.088578719 C22.2833241,0.088578719 21.7484352,0.332215297 21.5346936,0.846368758 L16.0262558,14.8638157 L1.26435581,15.8380012 C0.702726909,15.8922129 0.248236231,16.2440021 0.0610563081,16.7852162 C-0.0993836256,17.2993697 0.0610563081,17.8946151 0.488806998,18.2464043 L11.8548176,27.8800165 L8.16469909,42.4928893 C8.03091001,43.0070427 8.24482992,43.5752274 8.67275888,43.8999559 C9.12724956,44.2246844 9.71552932,44.2517451 10.1701983,43.9541675 L22.8181239,35.9170469 L35.3591787,43.9541675 C35.8404985,44.2518353 36.4288674,44.2246844 36.8833581,43.8999559 C37.3111088,43.5752274 37.5251178,43.0340132 37.3914179,42.4928893 L33.7012994,27.8800165 L45.1637522,18.2464043 C45.5916811,17.8946151 45.7521211,17.2993697 45.5649412,16.7852162 Z" id="Path" fill="#AD5DA3"></path>
                        <path d="M45.1637522,18.2464945 L33.7012994,27.8800165 L37.3914179,42.4928893 C37.5251178,43.0340132 37.3111088,43.5752274 36.8833581,43.8999559 C36.4288674,44.2246844 35.8404985,44.2517451 35.3591787,43.9541675 L22.8181239,35.9170469 L22.8181239,0.0886689214 C23.3261837,0.11572963 23.8342435,0.359366208 24.0214234,0.84645896 L29.5298611,14.8639059 L44.3883816,15.8380914 C44.9500105,15.8923031 45.4045012,16.2440923 45.5649412,16.7853064 C45.7521211,17.2993697 45.5916811,17.8946151 45.1637522,18.2464945 Z" id="Path" fill="#AD5DA3"></path>
                        <path d="M24.1551233,43.3047105 C24.1551233,44.0623202 23.5669327,44.6577459 22.8181239,44.6577459 C22.0693151,44.6577459 21.4811245,44.0623202 21.4811245,43.3047105 C21.4811245,42.5469205 22.0693151,41.9516751 22.8181239,41.9516751 C23.5669327,41.9516751 24.1551233,42.5469205 24.1551233,43.3047105 Z" id="Path" fill="#979FEF"></path>
                        <ellipse id="Oval" fill="#737EE6" transform="translate(40.620603, 30.213416) rotate(-72.001696) translate(-40.620603, -30.213416) " cx="40.6206034" cy="30.2134162" rx="1.35156159" ry="1.33858727"></ellipse>
                        <ellipse id="Oval" fill="#737EE6" transform="translate(33.820605, 9.038102) rotate(-53.998744) translate(-33.820605, -9.038102) " cx="33.8206046" cy="9.03810226" rx="1.34750999" ry="1.34255538"></ellipse>
                        <ellipse id="Oval" fill="#979FEF" transform="translate(11.815881, 9.037041) rotate(-36.001256) translate(-11.815881, -9.037041) " cx="11.8158812" cy="9.03704112" rx="1.34255538" ry="1.34750999"></ellipse>
                        <ellipse id="Oval" fill="#979FEF" transform="translate(5.015932, 30.217153) rotate(-17.998304) translate(-5.015932, -30.217153) " cx="5.01593159" cy="30.2171527" rx="1.33858727" ry="1.35156159"></ellipse>
                        <path d="M24.1551233,43.3047105 C24.1551233,44.0623202 23.5669327,44.6577459 22.8181239,44.6577459 L22.8181239,41.9516751 C23.5669327,41.9516751 24.1551233,42.5469205 24.1551233,43.3047105 Z" id="Path" fill="#737EE6"></path>
                        <path d="M31.8295002,21.3043545 C31.6690602,20.7631404 31.1877404,20.411261 30.6529407,20.3571396 L25.8130027,20.0594718 L24.0215125,15.486212 C23.8343326,14.9991193 23.3262728,14.7556631 22.818213,14.7286024 C22.2834133,14.7015417 21.7485243,14.9449979 21.5347827,15.486212 L19.7431143,20.0594718 L14.9031763,20.3571396 C14.3684657,20.4113512 13.8870567,20.7631404 13.7266168,21.3043545 C13.5396151,21.818508 13.7266168,22.4137534 14.1278058,22.7655426 L17.8714933,25.904675 L16.6681938,30.640299 C16.5344939,31.1814229 16.7483247,31.7496978 17.1762536,32.0744263 C17.6307443,32.3991548 18.2191132,32.4262155 18.673693,32.1286379 L22.8183913,29.503659 L26.8829588,32.1286379 C27.3374494,32.4263057 27.9257292,32.3991548 28.3803981,32.0744263 C28.8081488,31.7496978 29.0221579,31.1813327 28.8884579,30.640299 L27.6851584,25.904675 L31.4020169,22.7655426 C31.8295002,22.4137534 31.9899401,21.818508 31.8295002,21.3043545 Z" id="Path" fill="#FFFFFF"></path>
                        <path d="M31.4017495,22.7655426 L27.684891,25.904675 L28.8881905,30.640299 C29.0218905,31.1814229 28.8078814,31.7496978 28.3801307,32.0744263 C27.9254618,32.3991548 27.3372712,32.4262155 26.8826914,32.1286379 L22.8181239,29.503659 L22.8181239,14.7286024 C23.3261837,14.7556631 23.8342435,14.9991193 24.0214234,15.486212 L25.8129135,20.0594718 L30.6528515,20.3571396 C31.1876513,20.4113512 31.6689711,20.7631404 31.829411,21.3043545 C31.9899401,21.818508 31.8295002,22.4137534 31.4017495,22.7655426 Z" id="Path" fill="#FFFFFF"></path>
                    </g>
                </g>
                <g id="notChecked-Copy-2" transform="translate(350.000000, 160.000000)" fill="#7F7F7F" font-family="OpenSans-Regular, Open Sans" font-size="14" font-weight="normal" line-spacing="22">
                    <text id="Showcase-your-story">
                        <tspan x="0" y="15">Showcase your story through </tspan>
                        <tspan x="0" y="37">our visually captivating profile </tspan>
                        <tspan x="0" y="59">builder</tspan>
                    </text>
                </g>
                <text id="Showcase-The-star-in" font-family="OpenSans-Bold, Open Sans" font-size="18" font-weight="bold" line-spacing="32">
                    <tspan x="350" y="137" fill="#1A1A1A">Showcase The</tspan>
                    <tspan x="475.569336" y="137" fill="#4F439A"> </tspan>
                    <tspan x="480.245117" y="137" fill="#AD5DA3">star</tspan>
                    <tspan x="516.051758" y="137" fill="#4F439A"> </tspan>
                    <tspan x="520.727539" y="137" fill="#1A1A1A">in you</tspan>
                </text>
            </g>
            <path d="M310,30 L310,30 L310,30 L310,305 C308.895431,305 308,304.104569 308,303 L308,32 C308,30.8954305 308.895431,30 310,30 Z" id="Rectangle-Copy-11" fill="#EBECED"></path>
        </g>
    </g>
</svg>