<?xml version="1.0" encoding="UTF-8"?>
<svg width="622px" height="336px" viewBox="0 0 622 336" version="1.1" xmlns="http://www.w3.org/2000/svg" xmlns:xlink="http://www.w3.org/1999/xlink">
    <!-- Generator: Sketch 58 (84663) - https://sketch.com -->
    <title>Onboarding_Desktop User feed</title>
    <desc>Created with Sketch.</desc>
    <g id="Onboarding_Desktop-User-feed" stroke="none" stroke-width="1" fill="none" fill-rule="evenodd">
        <rect fill="#FFFFFF" x="0" y="0" width="622" height="336"></rect>
        <g id="Group-2">
            <rect id="Rectangle" fill="#FFFFFF" x="0" y="0" width="622" height="336" rx="10"></rect>
            <g id="Group-34" transform="translate(56.000000, 69.000000)">
                <g id="Group-6" fill-rule="nonzero">
                    <g id="rr">
                        <g id="girl">
                            <path d="M99.3638025,203.814469 C41.8263404,203.814469 -5.08725229,156.901003 -5.08725229,99.3641906 C-5.08725229,41.8267962 41.8261464,-5.08647601 99.3638025,-5.08647601 C156.901522,-5.08647601 203.814857,41.8268594 203.814857,99.3645787 C203.814857,156.900931 156.90056,203.814469 99.3638025,203.814469 Z" id="Path" stroke="#FFFFFF" stroke-width="10.1745046" fill="#EBECED"></path>
                            <path d="M66.1825027,117.217459 C57.8964931,96.3130232 40.4911376,77.3943105 62.3930933,39.2863515 C71.4134635,23.5915284 85.1920401,13.2406148 99.4259048,16.7451296 C113.65977,13.241003 127.438346,23.5919166 136.458716,39.2863515 C158.359896,77.3943105 140.955705,96.3130232 132.668531,117.217459 L99.4270693,117.299745 L66.1836671,117.217459 L66.1825027,117.217459 Z" id="Path" fill="#1A1A1A"></path>
                            <path d="M43.4363428,149.896894 C42.3969043,151.574823 39.803742,165.844008 36.9357766,176.662242 C53.9976283,190.458285 75.7136649,198.726052 99.362638,198.726052 C123.012776,198.726052 144.728424,190.458285 161.790276,176.662242 C158.921146,165.845173 156.328372,151.573659 155.288933,149.896894 C139.326294,124.122079 114.721332,135.373865 113.043792,105.879118 C113.043792,105.879118 105.128067,111.786218 99.0839536,111.84017 C93.0394517,111.894121 85.6737217,106.251732 85.6737217,106.251732 C84.0000626,135.720863 59.3877264,124.141486 43.4363428,149.896894 Z" id="Path" fill="#FED198"></path>
                            <path d="M113.472298,110.045023 C113.273959,108.752129 113.128018,107.369575 113.043792,105.879894 C113.043792,105.879894 105.128067,111.786995 99.0839536,111.840946 C93.0394517,111.894898 85.6737217,106.252509 85.6737217,106.252509 C85.5883309,107.769359 85.4385089,109.172485 85.2339592,110.482457 C85.388827,110.604721 85.5425304,110.728926 85.7001152,110.850025 L85.6981745,110.871373 C86.1635542,111.276591 93.2389556,117.360683 99.0827892,117.299357 C104.926623,117.360295 112.001248,111.275426 112.467404,110.871373 L112.466239,110.850025 C112.809355,110.587254 113.142379,110.316721 113.471134,110.045799 L113.472298,110.045023 Z" id="Path" fill="#F0B97D"></path>
                            <path d="M85.6989508,106.271139 C86.1643305,106.622406 93.2397319,111.892957 99.0835655,111.840564 C104.927399,111.892957 112.002024,106.62163 112.46818,106.271139 C121.301079,101.121688 128.548814,85.9392093 126.912805,69.4847965 C125.572946,56.006252 110.992084,75.7695571 100.836793,47.9593366 C86.4635863,78.0681213 72.8119314,60.257936 71.2554906,71.6684714 C69.5399124,84.2407094 76.5982356,100.059737 85.6989508,106.271916 L85.6989508,106.271139 L85.6989508,106.271139 Z" id="Path" fill="#FED198"></path>
                            <path d="M74.1021082,127.353344 C65.403506,131.999766 49.4909364,132.140272 43.4363428,141.874432 C42.3817669,143.569438 39.7346531,164.335309 36.8228279,176.571806 C53.9002052,190.4218 75.6604898,198.72644 99.3614736,198.72644 C123.064398,198.72644 144.822742,190.422965 161.901284,176.571806 C158.989459,164.335309 156.02407,143.730517 155.287769,141.874432 C151.267416,131.734278 132.656887,131.310818 123.949357,126.634897 C110.411039,175.752443 90.2324243,179.100925 74.1028845,127.357613 L74.0997794,127.353732 L74.1021082,127.353732 L74.1021082,127.353344 Z" id="Path" fill="#E0DEED"></path>
                            <g id="Group" transform="translate(60.161677, 122.264054)" fill="#FFFFFF">
                                <path d="M19.7404048,0.207654822 C19.1752732,15.489109 21.7734814,37.1383856 38.9199475,42.6709311 C22.777211,43.3459063 12.3020927,20.0866256 0.369121001,13.9947706 L19.7400167,0.208819241 L19.7400167,0.207654822 L19.7404048,0.207654822 Z" id="Path"></path>
                                <path d="M59.0609126,0.207654822 C59.6536022,15.489109 56.9261435,37.1383856 38.9203357,42.6709311 C55.8715675,43.3459063 66.8718391,20.0866256 79.4002172,13.9947706 L59.0601364,0.208819241 L59.0609126,0.207654822 Z" id="Path"></path>
                            </g>
                        </g>
                    </g>
                </g>
                <g id="Group-30" transform="translate(141.304348, 2.173913)">
                    <rect id="Rectangle" fill="#FFFFFF" x="8.69565217" y="2.17391304" width="43.4782609" height="43.4782609"></rect>
                    <g id="noun_Newspaper_772236" fill-rule="nonzero">
                        <g id="Group">
                            <path d="M8.04812463,2.30099308 L8.04812463,6.90297923 L8.04812463,6.90297923 L2.19702794,6.90297923 C1.1077679,6.90297923 0.224748161,7.78599897 0.224748161,8.87525902 L0.224748161,41.8123314 L0.224748161,41.8123314 C0.224748161,44.7050084 2.5914839,47.0060015 5.41841825,47.0060015 L48.8085734,47.0060015 C51.7669931,47.0060015 54.1994715,44.5735231 54.1994715,41.6151034 L54.1994715,2.30099308 C54.1994715,1.21173303 53.3164518,0.328713297 52.2271917,0.328713297 L10.0204044,0.328713297 C8.93114436,0.328713297 8.04812463,1.21173303 8.04812463,2.30099308 Z M51.6355078,41.6151034 C51.6355078,43.1271845 50.3863973,44.3762951 48.8743161,44.3762951 L10.0204044,44.3762951 C10.0204044,44.3762951 10.0204044,44.3762951 10.0204044,44.3105524 C10.0861471,44.1133244 10.2176324,43.9818391 10.283375,43.7846111 C10.283375,43.7846111 10.283375,43.7188685 10.283375,43.7188685 C10.3491177,43.5873832 10.4148604,43.3901552 10.480603,43.1929272 C10.480603,43.1271845 10.480603,43.0614419 10.5463457,42.9956992 C10.6120883,42.8642139 10.6120883,42.7327286 10.6120883,42.5355006 C10.6120883,42.469758 10.6120883,42.4040153 10.6120883,42.3382726 C10.6120883,42.1410447 10.677831,41.9438167 10.677831,41.680846 L10.677831,6.90297923 L10.677831,4.93069945 C10.677831,3.84143941 11.5608507,2.95841967 12.6501108,2.95841967 L49.5974854,2.95841967 C50.6867454,2.95841967 51.5697651,3.84143941 51.5697651,4.93069945 L51.5697651,41.6151034 L51.5697651,41.6151034 L51.6355078,41.6151034 Z" id="Shape" fill="#AD5DA3"></path>
                            <rect id="Rectangle" fill="#F6ECF5" x="15.9372438" y="8.21783242" width="13.2142745" height="14.9893263" rx="0.986139891"></rect>
                            <rect id="Rectangle" fill="#B2B2B2" x="33.4905338" y="14.660613" width="12.8198186" height="2.03802244" rx="0.986139891"></rect>
                            <rect id="Rectangle" fill="#B2B2B2" x="33.4905338" y="8.21783242" width="12.8198186" height="2.03802244" rx="0.986139891"></rect>
                            <rect id="Rectangle" fill="#B2B2B2" x="33.4905338" y="21.1691363" width="12.8198186" height="2.03802244" rx="0.986139891"></rect>
                            <rect id="Rectangle" fill="#B2B2B2" x="15.9372438" y="27.6119169" width="30.3731086" height="2.03802244" rx="0.986139891"></rect>
                            <rect id="Rectangle" fill="#B2B2B2" x="15.9372438" y="40.4974782" width="30.3731086" height="2.03802244" rx="0.986139891"></rect>
                            <rect id="Rectangle" fill="#B2B2B2" x="15.9372438" y="34.0546976" width="30.3731086" height="2.03802244" rx="0.986139891"></rect>
                        </g>
                    </g>
                </g>
            </g>
            <g id="notChecked-Copy-2" transform="translate(350.000000, 157.000000)" fill="#7F7F7F" font-family="OpenSans-Regular, Open Sans" font-size="14" font-weight="normal" line-spacing="22">
                <text id="Read-through-the-pos">
                    <tspan x="0" y="15">Read through the posts and </tspan>
                    <tspan x="0" y="37">start posting yourself.</tspan>
                </text>
            </g>
            <text id="Check-out-your-user" font-family="OpenSans-Bold, Open Sans" font-size="18" font-weight="bold" line-spacing="26" fill="#1A1A1A">
                <tspan x="350" y="140">Check out your user feed</tspan>
            </text>
            <path d="M310,30 L310,30 L310,30 L310,305 C308.895431,305 308,304.104569 308,303 L308,32 C308,30.8954305 308.895431,30 310,30 Z" id="Rectangle-Copy-11" fill="#EBECED"></path>
        </g>
    </g>
</svg>