<?xml version="1.0" encoding="UTF-8"?>
<svg width="40px" height="40px" viewBox="0 0 40 40" version="1.1" xmlns="http://www.w3.org/2000/svg" xmlns:xlink="http://www.w3.org/1999/xlink">
    <!-- Generator: Sketch 58 (84663) - https://sketch.com -->
    <title>Pdf add</title>
    <desc>Created with Sketch.</desc>
    <g id="Pdf-add" stroke="none" stroke-width="1" fill="none" fill-rule="evenodd">
        <g id="Group-11" transform="translate(2.000000, 0.000000)" fill="#000000" fill-rule="nonzero" stroke="#000000">
            <g id="noun_File-PDF_741617" transform="translate(0.820513, 0.820513)">
                <path d="M31.5514718,20.616767 L30.3411124,20.616767 L30.3411124,10.6911693 L21.0400065,0.295576517 L4.86949097,0.295576517 C2.38290779,0.295576517 0.359814604,2.3186697 0.359814604,4.80525289 L0.359814604,33.5676533 C0.359814604,36.054643 2.38290779,38.0773296 4.86949097,38.0773296 L25.8318426,38.0773296 C28.3188323,38.0773296 30.3415189,36.054643 30.3415189,33.5676533 L30.3415189,32.9395024 L31.5518784,32.9395024 C33.3005367,32.9395024 34.7235323,31.5165067 34.7235323,29.7678484 L34.7235323,23.7884209 C34.7231257,22.0397626 33.3001301,20.616767 31.5514718,20.616767 Z M21.3770532,2.50162628 L28.3672142,10.3146853 L21.3770532,10.3146853 L21.3770532,2.50162628 Z M29.1214019,33.5676533 C29.1214019,35.382176 27.6459587,36.8576191 25.831436,36.8576191 L4.86949097,36.8576191 C3.05537486,36.8576191 1.57952513,35.382176 1.57952513,33.5676533 L1.57952513,4.80525289 C1.57952513,2.99113677 3.05537486,1.51528704 4.86949097,1.51528704 L20.1573427,1.51528704 L20.1573427,11.5343958 L29.1218084,11.5343958 L29.1218084,20.616767 L15.750122,20.616767 C14.0010571,20.616767 12.5780615,22.0397626 12.5780615,23.7884209 L12.5780615,29.7678484 C12.5780615,31.5165067 14.0010571,32.9395024 15.750122,32.9395024 L29.1214019,32.9395024 L29.1214019,33.5676533 L29.1214019,33.5676533 Z M33.5034152,29.7678484 C33.5034152,30.8436331 32.627663,31.7197918 31.5514718,31.7197918 L15.750122,31.7197918 C14.6739307,31.7197918 13.797772,30.8440397 13.797772,29.7678484 L13.797772,23.7884209 C13.797772,22.7126362 14.6735242,21.8364775 15.750122,21.8364775 L31.5514718,21.8364775 C32.6272565,21.8364775 33.5034152,22.7122296 33.5034152,23.7884209 L33.5034152,29.7678484 Z" id="Shape"></path>
                <path d="M19.7926492,24.2844365 L17.3869735,24.2844365 L17.3869735,29.7731338 L18.1171735,29.7731338 L18.1171735,27.5284599 L19.7926492,27.5284599 C20.8846967,27.5365913 21.4762563,26.9218572 21.4762563,25.9070581 C21.4762563,24.8922589 20.8846967,24.2844365 19.7926492,24.2844365 Z M19.5466743,26.9137258 L18.1171735,26.9137258 L18.1171735,24.8999837 L19.5466743,24.8999837 C20.3691657,24.8999837 20.7456497,25.2532932 20.7456497,25.9070581 C20.7456497,26.5608229 20.3691657,26.9218572 19.5466743,26.9137258 Z" id="Shape" stroke-width="0.5"></path>
                <path d="M24.2506912,24.2844365 L22.3678647,24.2844365 L22.3678647,29.7731338 L24.2506912,29.7731338 C26.080257,29.7731338 26.8868922,28.7351602 26.8868922,26.8986827 C26.8868922,25.130509 25.9420231,24.2844365 24.2506912,24.2844365 Z M24.3124898,29.1579932 L23.0976582,29.1579932 L23.0976582,24.8999837 L24.3275329,24.8999837 C25.6728736,24.8999837 26.1570987,25.6915759 26.1570987,26.9978858 C26.1570987,29.0197593 24.8121646,29.1579932 24.3124898,29.1579932 Z" id="Shape" stroke-width="0.5"></path>
                <polygon id="Path" stroke-width="0.5" points="27.7797203 29.7731338 28.5095137 29.7731338 28.5095137 27.2593105 31.0306554 27.2593105 31.0306554 26.6445764 28.5095137 26.6445764 28.5095137 24.8999837 31.384778 24.8999837 31.384778 24.2844365 27.7797203 24.2844365"></polygon>
            </g>
        </g>
    </g>
</svg>