<?xml version="1.0" encoding="UTF-8"?>
<svg width="50px" height="50px" viewBox="0 0 50 50" version="1.1" xmlns="http://www.w3.org/2000/svg" xmlns:xlink="http://www.w3.org/1999/xlink">
    <!-- Generator: Sketch 51.2 (57519) - http://www.bohemiancoding.com/sketch -->
    <title>wp-7-design</title>
    <desc>Created with Sketch.</desc>
    <defs></defs>
    <g id="wp-7-design" stroke="none" stroke-width="1" fill="none" fill-rule="evenodd">
        <g id="Group-2" fill-rule="nonzero">
            <rect id="Rectangle-3" x="0" y="0" width="50" height="50"></rect>
            <g id="Group" transform="translate(2.000000, 2.000000)">
                <path d="M13.1928486,24.4972817 C7.10482343,18.5074463 4.15842779,15.6016474 4.10045057,15.5272083 C4.05937231,15.4658379 4.03029593,15.4077122 4.01177046,15.3486898 L0.228931422,3.2439005 C0.151174529,2.99619911 0.217682321,2.72587199 0.401631564,2.54192574 C0.584877893,2.35914647 0.856276007,2.29247087 1.10341344,2.36940867 C9.26847736,4.92192176 13.2586051,6.17574196 13.3696795,6.22909623 C13.3864849,6.24135037 13.3864849,6.24135037 13.4990483,6.3288342 L22.428948,15.1148254 L37.3820633,0.308983681 C37.6547852,0.0362660735 38.0963667,0.0362651034 38.3690869,0.308981012 L46.6909495,8.63071346 C46.9288474,8.86860758 42.6887707,13.3494594 31.892712,24.4154841 L42.4718159,34.5977595 C42.5566724,34.6794885 42.6187532,34.7849651 42.6299168,34.863661 C45.0931629,37.4691632 45.0687022,41.4833215 42.5859412,43.9660436 C41.368295,45.1841972 39.7487857,45.8550046 38.0256428,45.8550046 C36.3922149,45.8550046 34.8504545,45.2460236 33.5900768,44.1062105 C33.4245832,44.0881663 33.2845427,44.0275202 33.1774674,43.9243001 L22.6332961,33.6771312 L9.61880568,46.6914177 C9.48759053,46.8221649 9.3101908,46.8955556 9.12515917,46.8955556 C8.93990724,46.8955556 8.76211129,46.8220145 8.63137885,46.6912841 L0.308988284,38.3684888 C0.03626561,38.0957704 0.0362638843,37.6541986 0.308981994,37.3814848 L13.1928486,24.4972817 Z M2.59581411,4.73625482 L5.41700893,13.7637416 L6.97938517,13.3511286 L7.76899173,10.6651717 C7.87597265,10.3011451 8.16054915,10.0166194 8.52476028,9.90936878 L11.1406228,9.18995739 L11.6212185,7.55655801 L2.59581411,4.73625482 Z M14.5387063,25.5113029 L10.6171806,29.6351424 L13.9910178,33.0089267 C14.426892,33.4447942 14.426892,34.1508918 13.9910178,34.5867592 C13.7807038,34.7970699 13.4980082,34.9133902 13.2018286,34.9133902 C12.9056491,34.9133902 12.6229535,34.7970699 12.4126395,34.5867592 L9.04062981,31.2148023 L6.53913557,33.7162574 L9.91113834,37.0882074 C10.3470126,37.5240748 10.3470126,38.2301724 9.91113834,38.6660398 C9.70082432,38.8763505 9.41812872,38.9926709 9.1219492,38.9926709 C8.82576967,38.9926709 8.54307407,38.8763505 8.33276006,38.6660398 L4.96075036,35.2940829 L2.38006847,37.8747244 L9.12419929,44.6192516 L21.4463631,32.1501744 L14.5387063,25.5113029 Z M35.4243267,43.2404195 C37.2488521,44.4793237 39.726049,44.2579733 41.301932,42.6830641 C42.8771776,41.1083023 43.0987447,38.6303006 41.8597038,36.8051432 L35.4243267,43.2404195 Z M30.1051591,25.2102186 L13.5474056,8.91956123 L13.1268818,10.348607 C13.0199009,10.7126336 12.7353244,10.9971593 12.3711133,11.10441 L9.75525995,11.8238134 L8.96514797,14.5097408 C8.85816593,14.8737712 8.57358673,15.1582942 8.20934145,15.2655549 L6.81329185,15.675944 L14.9128429,23.6445755 L33.6526656,41.8569532 L40.3950036,35.1152225 L30.1051591,25.2102186 Z M37.8763624,2.38005596 L33.8244663,6.43188868 L37.1962797,9.80364955 C37.6323848,10.2390036 37.6324279,10.9464632 37.196469,11.3816711 C36.986155,11.5919819 36.7034594,11.7083022 36.4072799,11.7083022 C36.1111004,11.7083022 35.8284048,11.5919819 35.6180908,11.3816711 L32.2460811,8.0097142 L29.3433398,10.91241 L32.7151533,14.2841709 C33.1512584,14.7195249 33.1513015,15.4269845 32.7153426,15.8621925 C32.5050286,16.0725032 32.222333,16.1888235 31.9261534,16.1888235 C31.6299739,16.1888235 31.3472783,16.0725032 31.1369643,15.8621925 L27.7656825,12.4909634 L23.8577585,16.476243 L30.6164569,23.2519316 L44.6201994,9.1247915 L37.8763624,2.38005596 Z" id="Shape" fill="#333"></path>
                <path d="M1.10341344,2.36940867 C9.26847736,4.92192176 13.2586051,6.17574196 13.3696795,6.22909623 C13.3864849,6.24135037 13.3864849,6.24135037 13.4990483,6.3288342 L22.4289118,15.1147898 L31.816949,24.3425631 L42.4718159,34.5977595 C42.5566724,34.6794885 42.6187532,34.7849651 42.6299168,34.863661 C45.0931629,37.4691632 45.0687022,41.4833215 42.5859412,43.9660436 C41.368295,45.1841972 39.7487857,45.8550046 38.0256428,45.8550046 C36.3922149,45.8550046 34.8504545,45.2460236 33.5900768,44.1062105 C33.4245832,44.0881663 33.2845427,44.0275202 33.1774674,43.9243001 L22.707134,33.7488891 L22.55944,33.6053554 L13.2679072,24.5711294 C7.12903806,18.531327 4.15866555,15.6019527 4.10045057,15.5272083 C4.05937231,15.4658379 4.03029593,15.4077122 4.01177046,15.3486898 L0.228931422,3.2439005 C0.151174529,2.99619911 0.217682321,2.72587199 0.401631564,2.54192574 C0.584877893,2.35914647 0.856276007,2.29247087 1.10341344,2.36940867 Z M2.59581411,4.73625482 L5.41700893,13.7637416 L6.97938517,13.3511286 L7.76899173,10.6651717 C7.87597265,10.3011451 8.16054915,10.0166194 8.52476028,9.90936878 L11.1406228,9.18995739 L11.6212185,7.55655801 L2.59581411,4.73625482 Z M35.4243267,43.2404195 C37.2488521,44.4793237 39.726049,44.2579733 41.301932,42.6830641 C42.8771776,41.1083023 43.0987447,38.6303006 41.8597038,36.8051432 L35.4243267,43.2404195 Z M30.1051591,25.2102186 L13.5474056,8.91956123 L13.1268818,10.348607 C13.0199009,10.7126336 12.7353244,10.9971593 12.3711133,11.10441 L9.75525995,11.8238134 L8.96514797,14.5097408 C8.85816593,14.8737712 8.57358673,15.1582942 8.20934145,15.2655549 L6.81329185,15.675944 L14.9128429,23.6445755 L33.6526656,41.8569532 L40.3950036,35.1152225 L30.1051591,25.2102186 Z" id="Shape" fill="#333333"></path>
            </g>
        </g>
    </g>
</svg>