<?xml version="1.0" encoding="UTF-8"?>
<svg width="40px" height="40px" viewBox="0 0 40 40" version="1.1" xmlns="http://www.w3.org/2000/svg" xmlns:xlink="http://www.w3.org/1999/xlink">
    <!-- Generator: Sketch 58 (84663) - https://sketch.com -->
    <title>Play fill</title>
    <desc>Created with Sketch.</desc>
    <g id="Play-fill" stroke="none" stroke-width="1" fill="none" fill-rule="evenodd">
        <g id="Play-Copy">
            <path d="M20.1955556,0.355555556 C9.39532045,0.355555556 0.64,9.110876 0.64,19.9111111 C0.64,30.7113462 9.39532045,39.4666667 20.1955556,39.4666667 C30.9957907,39.4666667 39.7511111,30.7113462 39.7511111,19.9111111 C39.7511111,9.110876 30.9957907,0.355555556 20.1955556,0.355555556 L20.1955556,0.355555556 Z" id="Shape" fill="#000000"></path>
            <path d="M26.72,17.5111111 L17.8311111,13.0666667 C17.0022291,12.6528426 16.0179629,12.6988776 15.2313246,13.1882608 C14.4446863,13.6776441 13.9684171,14.5402372 13.9733333,15.4666667 L13.9733333,24.3555556 C13.9745951,25.2788237 14.4533428,26.1357491 15.2389058,26.6208433 C16.0244688,27.1059375 17.0050624,27.1501721 17.8311111,26.7377778 L26.72,22.2933333 C27.6251054,21.8422307 28.197157,20.9179576 28.197157,19.9066667 C28.197157,18.8953757 27.6251054,17.9711026 26.72,17.52 L26.72,17.5111111 Z M16.64,24.3555556 L16.64,15.4666667 L25.5288889,19.9111111 L16.64,24.3555556 Z" id="Shape" fill="#FFFFFF"></path>
        </g>
    </g>
</svg>