<?xml version="1.0" encoding="UTF-8"?>
<svg width="40px" height="40px" viewBox="0 0 40 40" version="1.1" xmlns="http://www.w3.org/2000/svg" xmlns:xlink="http://www.w3.org/1999/xlink">
    <!-- Generator: Sketch 58 (84663) - https://sketch.com -->
    <title>Prev Line</title>
    <desc>Created with Sketch.</desc>
    <g id="Prev-Line" stroke="none" stroke-width="1" fill="none" fill-rule="evenodd">
        <g id="Arrow_left" fill="#000000">
            <path d="M20.1955556,0.355555556 C9.39532045,0.355555556 0.64,9.110876 0.64,19.9111111 C0.64,30.7113462 9.39532045,39.4666667 20.1955556,39.4666667 C30.9957907,39.4666667 39.7511111,30.7113462 39.7511111,19.9111111 C39.7511111,9.110876 30.9957907,0.355555556 20.1955556,0.355555556 L20.1955556,0.355555556 Z M20.1955556,36.8 C10.8680798,36.8 3.30666667,29.2385869 3.30666667,19.9111111 C3.30666667,10.5836353 10.8680798,3.02222222 20.1955556,3.02222222 C29.5230313,3.02222222 37.0844444,10.5836353 37.0844444,19.9111111 C37.0844444,24.3903229 35.3050845,28.6860779 32.1378034,31.853359 C28.9705224,35.02064 24.6747674,36.8 20.1955556,36.8 Z" id="Shape"></path>
            <path d="M18.8177778,19.8222222 L24.9422222,13.6977778 C25.298939,13.3653856 25.4457763,12.8647901 25.3251299,12.3923753 C25.2044834,11.9199604 24.8355952,11.5510722 24.3631803,11.4304257 C23.8907654,11.3097792 23.3901699,11.4566166 23.0577778,11.8133333 L15.0577778,19.8133333 L17.1111111,21.8666667 L23.0844444,27.84 C23.4168366,28.1967168 23.9174321,28.3435541 24.3898469,28.2229076 C24.8622618,28.1022612 25.23115,27.7333729 25.3517965,27.2609581 C25.472443,26.7885432 25.3256056,26.2879477 24.9688889,25.9555556 L18.8177778,19.8222222 Z" id="Shape"></path>
        </g>
    </g>
</svg>