<?xml version="1.0" encoding="UTF-8"?>
<svg width="40px" height="40px" viewBox="0 0 40 40" version="1.1" xmlns="http://www.w3.org/2000/svg" xmlns:xlink="http://www.w3.org/1999/xlink">
    <!-- Generator: Sketch 58 (84663) - https://sketch.com -->
    <title>Profile Line</title>
    <desc>Created with Sketch.</desc>
    <g id="Profile-Line" stroke="none" stroke-width="1" fill="none" fill-rule="evenodd">
        <g id="User-2" fill="#000000">
            <path d="M20.1955556,0.577777778 C9.39532045,0.577777778 0.64,9.33309823 0.64,20.1333333 C0.64,30.9335684 9.39532045,39.6888889 20.1955556,39.6888889 C30.9957907,39.6888889 39.7511111,30.9335684 39.7511111,20.1333333 C39.7511111,9.33309823 30.9957907,0.577777778 20.1955556,0.577777778 Z M3.30666667,20.1333333 C3.30612666,12.7365005 8.11894986,6.20000434 15.1824073,4.00439399 C22.2458647,1.80878364 29.9161629,4.46501715 34.1090263,10.558705 C38.3018898,16.6523929 38.0415638,24.7654244 33.4666667,30.5777778 C31.4290897,27.5429091 28.4727217,25.2407428 25.0311111,24.0088889 C26.5184659,22.4168029 27.3336708,20.3119184 27.3066667,18.1333333 C27.3066667,13.6888889 24.1155556,10.1333333 20.1955556,10.1333333 C16.2755556,10.1333333 13.0844444,13.6888889 13.0844444,18.1333333 C13.0623466,20.3896674 13.946091,22.5606048 15.5377778,24.16 C12.0717431,25.4041933 9.14825627,27.8184276 7.27111111,30.9866667 C4.708619,27.951031 3.30409845,24.1059198 3.30666667,20.1333333 L3.30666667,20.1333333 Z M20.64,23.2444444 C20.153034,23.2464449 19.6664829,23.2731458 19.1822222,23.3244444 C17.0189701,22.53996 15.6250204,20.4309792 15.7511111,18.1333333 C15.7511111,15.1911111 17.7422222,12.8 20.1955556,12.8 C22.6488889,12.8 24.64,15.1911111 24.64,18.1333333 C24.7495295,20.3663308 23.4384896,22.4255184 21.3688889,23.2711111 C21.1288889,23.2622222 20.8888889,23.2444444 20.64,23.2444444 Z M9.24444444,33.0222222 C11.1764255,29.2504327 14.8250604,26.656585 19.0222222,26.0711111 C19.887541,26.2400963 20.7792596,26.2188649 21.6355556,26.0088889 C25.7835888,26.5690181 29.4459736,28.9996885 31.5733333,32.6044444 C25.3047401,38.3904234 15.6981739,38.5699497 9.21777778,33.0222222 L9.24444444,33.0222222 Z" id="Shape"></path>
        </g>
    </g>
</svg>