<?xml version="1.0" encoding="UTF-8"?>
<svg width="40px" height="40px" viewBox="0 0 40 40" version="1.1" xmlns="http://www.w3.org/2000/svg" xmlns:xlink="http://www.w3.org/1999/xlink">
    <!-- Generator: Sketch 58 (84663) - https://sketch.com -->
    <title>Profile Fill</title>
    <desc>Created with Sketch.</desc>
    <g id="Profile-Fill" stroke="none" stroke-width="1" fill="none" fill-rule="evenodd">
        <g id="User-2-Copy" fill="#4f439a">
            <path d="M20.1955556,0.577777778 C9.39532045,0.577777778 0.64,9.33309823 0.64,20.1333333 C0.64,30.9335684 9.39532045,39.6888889 20.1955556,39.6888889 C30.9957907,39.6888889 39.7511111,30.9335684 39.7511111,20.1333333 C39.7511111,9.33309823 30.9957907,0.577777778 20.1955556,0.577777778 Z M20.64,23.2444444 C20.153034,23.2464449 19.6664829,23.2731458 19.1822222,23.3244444 C17.0189701,22.53996 15.6250204,20.4309792 15.7511111,18.1333333 C15.7511111,15.1911111 17.7422222,12.8 20.1955556,12.8 C22.6488889,12.8 24.64,15.1911111 24.64,18.1333333 C24.7495295,20.3663308 23.4384896,22.4255184 21.3688889,23.2711111 C21.1288889,23.2622222 20.8888889,23.2444444 20.64,23.2444444 Z M9.24444444,33.0222222 C11.1764255,29.2504327 14.8250604,26.656585 19.0222222,26.0711111 C19.887541,26.2400963 20.7792596,26.2188649 21.6355556,26.0088889 C25.7835888,26.5690181 29.4459736,28.9996885 31.5733333,32.6044444 C25.3047401,38.3904234 15.6981739,38.5699497 9.21777778,33.0222222 L9.24444444,33.0222222 Z" id="Shape"></path>
        </g>
    </g>
</svg>