<?xml version="1.0" encoding="UTF-8"?>
<svg width="40px" height="40px" viewBox="0 0 40 40" version="1.1" xmlns="http://www.w3.org/2000/svg" xmlns:xlink="http://www.w3.org/1999/xlink">
    <!-- Generator: Sketch 58 (84663) - https://sketch.com -->
    <title>Reach out</title>
    <desc>Created with Sketch.</desc>
    <g id="Reach-out" stroke="none" stroke-width="1" fill="none" fill-rule="evenodd">
        <g id="Group-32" transform="translate(1.000000, 4.000000)" stroke="#000000">
            <path d="M32.2996255,4.72510919e-13 C35.0262172,4.72510919e-13 37.3333333,2.09508963 37.3333333,4.68901013 L37.3333333,21.1504287 C37.3333333,23.7443492 35.0262172,25.8394388 32.2996255,25.8394388 L23.071161,25.8394388 L19.4007491,31.6258769 C19.0861423,32.1247077 18.247191,32.1247077 17.9325843,31.6258769 L14.1573034,25.8394388 L4.92883895,25.8394388 C2.20224719,25.8394388 2.30926389e-13,23.7443492 2.30926389e-13,21.1504287 L2.30926389e-13,4.68901013 C2.30926389e-13,2.09508963 2.20224719,4.72510919e-13 4.92883895,4.72510919e-13 L32.2996255,4.72510919e-13 Z" id="Combined-Shape" stroke-width="2.5" fill-rule="nonzero"></path>
            <path d="M15.1041667,10.342029 C15.1041667,10.8637681 14.6875,11.2811594 14.1666667,11.2811594 C13.75,11.2811594 13.3333333,10.8637681 13.3333333,10.342029 C13.3333333,7.62898551 15.5208333,5.33333333 18.3333333,5.33333333 C21.0416667,5.33333333 23.3333333,7.62898551 23.3333333,10.342029 C23.3333333,12.742029 21.5625,14.8289855 19.1666667,15.2463768 L19.1666667,16.3942029 C19.1666667,16.915942 18.75,17.3333333 18.3333333,17.3333333 C17.8125,17.3333333 17.3958333,16.915942 17.3958333,16.3942029 L17.3958333,14.515942 C17.3958333,13.9942029 17.8125,13.5768116 18.3333333,13.5768116 C20.1041667,13.5768116 21.5625,12.115942 21.5625,10.342029 C21.5625,8.56811594 20.1041667,7.10724638 18.3333333,7.10724638 C16.5625,7.10724638 15.1041667,8.56811594 15.1041667,10.342029 Z" id="Path" fill="#000000" fill-rule="nonzero"></path>
            <path d="M18.3333333,19.3333333 C18.8333333,19.3333333 19.3333333,19.8095238 19.3333333,20.3809524 C19.3333333,20.8571429 18.8333333,21.3333333 18.3333333,21.3333333 C17.7333333,21.3333333 17.3333333,20.8571429 17.3333333,20.3809524 C17.3333333,19.8095238 17.7333333,19.3333333 18.3333333,19.3333333 Z" id="Path" fill="#000000"></path>
        </g>
    </g>
</svg>