<?xml version="1.0" encoding="UTF-8"?>
<svg width="40px" height="40px" viewBox="0 0 40 40" version="1.1" xmlns="http://www.w3.org/2000/svg" xmlns:xlink="http://www.w3.org/1999/xlink">
    <!-- Generator: Sketch 58 (84663) - https://sketch.com -->
    <title>Report</title>
    <desc>Created with Sketch.</desc>
    <g id="Report" stroke="none" stroke-width="1" fill="none" fill-rule="evenodd">
        <g id="Flag" transform="translate(3.000000, 0.000000)" fill="#000000">
            <path d="M28.6857143,13.8 L32.7904762,6.55238095 C33.2921573,5.66782201 33.2858661,4.58327568 32.7739569,3.70459633 C32.2620477,2.82591698 31.3216829,2.28555192 30.3047619,2.28571429 L3.54285714,2.28571429 C3.54285714,1.49673607 2.90326393,0.857142857 2.11428571,0.857142857 C1.3253075,0.857142857 0.685714286,1.49673607 0.685714286,2.28571429 L0.685714286,38.4761905 C0.685714286,39.2651687 1.3253075,39.9047619 2.11428571,39.9047619 C2.90326393,39.9047619 3.54285714,39.2651687 3.54285714,38.4761905 L3.54285714,26.0952381 L30.2095238,26.0952381 C31.1987396,26.0938862 32.116874,25.5809423 32.6366178,24.7392676 C33.1563616,23.897593 33.2037558,22.846957 32.7619048,21.9619048 L28.6857143,13.8 Z M3.54285714,23.2380952 L3.54285714,5.14285714 L30.2095238,5.14285714 L25.3809524,13.7142857 L30.1428571,23.2380952 L3.54285714,23.2380952 Z" id="Shape"></path>
        </g>
    </g>
</svg>