<?xml version="1.0" encoding="UTF-8"?>
<svg width="40px" height="40px" viewBox="0 0 40 40" version="1.1" xmlns="http://www.w3.org/2000/svg" xmlns:xlink="http://www.w3.org/1999/xlink">
    <!-- Generator: Sketch 58 (84663) - https://sketch.com -->
    <title>Resources Header</title>
    <desc>Created with Sketch.</desc>
    <g id="Resources-Header" stroke="none" stroke-width="1" fill="none" fill-rule="evenodd">
        <g id="resources" fill="#1A1A1A">
            <g id="Group" transform="translate(3.000000, 0.000000)">
                <path d="M7.23529412,15.2941176 L21,15.2941176 C21.6470588,15.2941176 22.1764706,14.7647059 22.1764706,14.1176471 C22.1764706,13.4705882 21.6470588,12.9411765 21,12.9411765 L7.23529412,12.9411765 C6.58823529,12.9411765 6.05882353,13.4705882 6.05882353,14.1176471 C6.05882353,14.7647059 6.58823529,15.2941176 7.23529412,15.2941176 Z" id="Path" fill-rule="nonzero"></path>
                <path d="M7.23529412,21.1764706 L21,21.1764706 C21.6470588,21.1764706 22.1764706,20.6470588 22.1764706,20 C22.1764706,19.3529412 21.6470588,18.8235294 21,18.8235294 L7.23529412,18.8235294 C6.58823529,18.8235294 6.05882353,19.3529412 6.05882353,20 C6.05882353,20.6470588 6.58823529,21.1764706 7.23529412,21.1764706 Z" id="Path" fill-rule="nonzero"></path>
                <path d="M7.23529412,27.0588235 L21,27.0588235 C21.6470588,27.0588235 22.1764706,26.5294118 22.1764706,25.8823529 C22.1764706,25.2352941 21.6470588,24.7058824 21,24.7058824 L7.23529412,24.7058824 C6.58823529,24.7058824 6.05882353,25.2352941 6.05882353,25.8823529 C6.05882353,26.5294118 6.58823529,27.0588235 7.23529412,27.0588235 Z" id="Path" fill-rule="nonzero"></path>
                <path d="M7.23529412,32.9411765 L21,32.9411765 C21.6470588,32.9411765 22.1764706,32.4117647 22.1764706,31.7647059 C22.1764706,31.1176471 21.6470588,30.5882353 21,30.5882353 L7.23529412,30.5882353 C6.58823529,30.5882353 6.05882353,31.1176471 6.05882353,31.7647059 C6.05882353,32.4117647 6.58823529,32.9411765 7.23529412,32.9411765 Z" id="Path" fill-rule="nonzero"></path>
                <path d="M2.99411765,40 L25.2411765,40 C26.8941176,40 28.2352941,38.6588235 28.2352941,37.0058824 L28.2352941,8.87647059 C28.2352941,7.22352941 26.8941176,5.88235294 25.2411765,5.88235294 L2.99411765,5.88235294 C1.34117647,5.88235294 0,7.22352941 0,8.87647059 L0,37.0058824 C0,38.6588235 1.34117647,40 2.99411765,40 Z M2.35294118,8.87647059 C2.35294118,8.52352941 2.64117647,8.23529412 2.99411765,8.23529412 L25.2411765,8.23529412 C25.5941176,8.23529412 25.8823529,8.52352941 25.8823529,8.87647059 L25.8823529,37.0058824 C25.8823529,37.3588235 25.5941176,37.6470588 25.2411765,37.6470588 L2.99411765,37.6470588 C2.64117647,37.6470588 2.35294118,37.3588235 2.35294118,37.0058824 L2.35294118,8.87647059 Z" id="Shape" fill-rule="nonzero"></path>
                <path d="M31.1235294,0 L8.87647059,0 C7.22352941,0 5.88235294,1.34117647 5.88235294,2.99411765 C5.88235294,3.64117647 6.41176471,4.17058824 7.05882353,4.17058824 C7.70588235,4.17058824 8.23529412,3.64117647 8.23529412,2.99411765 C8.23529412,2.64117647 8.52352941,2.35294118 8.87647059,2.35294118 L31.1235294,2.35294118 C31.4764706,2.35294118 31.7647059,2.64117647 31.7647059,2.99411765 L31.7647059,31.1235294 C31.7647059,31.4764706 31.4764706,31.7647059 31.1235294,31.7647059 C30.4764706,31.7647059 29.9470588,32.2941176 29.9470588,32.9411765 C29.9470588,33.5882353 30.4764706,34.1176471 31.1235294,34.1176471 C32.7764706,34.1176471 34.1176471,32.7764706 34.1176471,31.1235294 L34.1176471,2.99411765 C34.1176471,1.34117647 32.7764706,0 31.1235294,0 Z" id="Path" fill-rule="nonzero"></path>
            </g>
        </g>
    </g>
</svg>