<?xml version="1.0" encoding="UTF-8"?>
<svg width="40px" height="40px" viewBox="0 0 40 40" version="1.1" xmlns="http://www.w3.org/2000/svg" xmlns:xlink="http://www.w3.org/1999/xlink">
    <!-- Generator: Sketch 58 (84663) - https://sketch.com -->
    <title>Share line</title>
    <desc>Created with Sketch.</desc>
    <g id="Share-line" stroke="none" stroke-width="1" fill="none" fill-rule="evenodd">
        <g id="Share-2" transform="translate(1.000000, 0.000000)" fill="#000000">
            <path d="M31.72,25.4 C29.6072133,25.401287 27.6080372,26.3567756 26.28,28 L14.5,22.11 C14.8120392,20.9104847 14.7912961,19.6486111 14.44,18.46 L26.44,11.97 C28.7764333,14.6742376 32.774775,15.1842569 35.7152407,13.1531283 C38.6557063,11.1219998 39.5940048,7.20199315 37.8918791,4.05960717 C36.1897533,0.917221184 32.3938183,-0.438408944 29.0861757,0.914854497 C25.778533,2.26811794 24.021388,5.8956925 25.01,9.33 L13.01,15.82 C11.0808216,13.598129 7.96806742,12.8199401 5.2202646,13.8725653 C2.47246177,14.9251905 0.676303177,17.5838802 0.725338413,20.5259944 C0.774373649,23.4681085 2.65813304,26.0654662 5.43948749,27.0259388 C8.22084194,27.9864114 11.3059349,27.1049251 13.16,24.82 L24.94,30.71 C24.2096075,33.6093343 25.401351,36.6524988 27.9063901,38.2847953 C30.4114291,39.9170918 33.6766687,39.7781208 36.0339565,37.93888 C38.3912444,36.0996392 39.3201078,32.9662201 38.3460072,30.1394303 C37.3719066,27.3126405 34.7099166,25.4166153 31.72,25.42 L31.72,25.4 Z M31.72,3.4 C33.929139,3.4 35.72,5.190861 35.72,7.4 C35.72,9.609139 33.929139,11.4 31.72,11.4 C29.510861,11.4 27.72,9.609139 27.72,7.4 C27.72,5.190861 29.510861,3.4 31.72,3.4 Z M7.72,24.4 C5.510861,24.4 3.72,22.609139 3.72,20.4 C3.72,18.190861 5.510861,16.4 7.72,16.4 C9.929139,16.4 11.72,18.190861 11.72,20.4 C11.72,22.609139 9.929139,24.4 7.72,24.4 Z M31.72,36.4 C29.510861,36.4 27.72,34.609139 27.72,32.4 C27.72,30.190861 29.510861,28.4 31.72,28.4 C33.929139,28.4 35.72,30.190861 35.72,32.4 C35.72,34.609139 33.929139,36.4 31.72,36.4 Z" id="Shape"></path>
        </g>
    </g>
</svg>