<?xml version="1.0" encoding="UTF-8"?>
<svg width="40px" height="40px" viewBox="0 0 40 40" version="1.1" xmlns="http://www.w3.org/2000/svg" xmlns:xlink="http://www.w3.org/1999/xlink">
    <!-- Generator: Sketch 58 (84663) - https://sketch.com -->
    <title>Star off</title>
    <desc>Created with Sketch.</desc>
    <g id="Star-off" stroke="none" stroke-width="1" fill="none" fill-rule="evenodd">
        <path d="M14.9457754,13.5128006 C14.6550209,14.2579112 14.0019869,14.752 13.225771,15.0031593 L13.1128018,15.0397126 L12.9949708,15.0543425 L1.3181484,16.5041336 L9.89344378,24.3006151 C10.4343314,24.8256582 10.6818833,25.546559 10.6818833,26.3888523 L10.6818833,26.5103341 L10.6584917,26.6295426 L8.48349591,37.7028609 L18.7630317,32.3197697 C19.553295,31.8344965 20.4467255,31.8345004 21.2369871,32.3197813 L31.5835352,37.7383706 C31.6202794,37.7587523 31.6551136,37.7341604 31.6625966,37.7629108 L29.3181167,26.5177714 L29.3181167,26.3888523 C29.3181167,25.546559 29.5656686,24.8256582 30.1363725,24.2726052 L38.6827164,16.5042458 L26.8871982,15.0397126 L26.774229,15.0031593 C25.9980131,14.752 25.3449791,14.2579112 25.0542246,13.5128006 L20.0360081,3.24375117 L20.0155751,3.19979771 C20.0451279,3.2667341 19.9548721,3.2667341 19.9639919,3.24375117 L14.9457754,13.5128006 Z M8.46089922,37.8179051 L8.46057741,37.8195434 C8.46071557,37.819007 8.46082229,37.8184607 8.46089922,37.8179051 Z" id="Path-Copy-2" stroke="#1A1A1A" stroke-width="2.5"></path>
    </g>
</svg>