<?xml version="1.0" encoding="UTF-8"?>
<svg width="40px" height="40px" viewBox="0 0 40 40" version="1.1" xmlns="http://www.w3.org/2000/svg" xmlns:xlink="http://www.w3.org/1999/xlink">
    <!-- Generator: Sketch 58 (84663) - https://sketch.com -->
    <title>tag</title>
    <desc>Created with Sketch.</desc>
    <g id="tag" stroke="none" stroke-width="1" fill="none" fill-rule="evenodd">
        <g id="Badge" transform="translate(0.000000, 1.000000)" fill="#000000">
            <path d="M36.9590643,0.126315789 C36.7243923,0.0608883357 36.4822013,0.026289613 36.2385965,0.0233918129 L22.0444444,0.0233918129 C21.3002279,0.0240469784 20.5867316,0.320215252 20.0608187,0.846783626 L1.42222222,19.4760234 C0.327659872,20.5719487 0.327659872,22.3473495 1.42222222,23.4432749 L15.6163743,37.6374269 C16.7122996,38.7319893 18.4877004,38.7319893 19.5836257,37.6374269 L38.2128655,19.0081871 C38.7360039,18.4807458 39.0287295,17.7674374 39.0269006,17.0245614 L39.0269006,2.83040936 C39.0240028,2.58680456 38.9894041,2.34461351 38.9239766,2.10994152 L36.9590643,0.126315789 Z M36.2292398,17.0245614 L17.6,35.6538012 L3.40584795,21.4596491 L22.0444444,2.83040936 L34.2549708,2.83040936 L29.9695906,7.11578947 C29.3097601,6.76426936 28.5745089,6.57804855 27.8269006,6.57309942 C25.2431123,6.57309942 23.148538,8.66767369 23.148538,11.251462 C23.148538,13.8352503 25.2431123,15.9298246 27.8269006,15.9298246 C30.4106889,15.9298246 32.5052632,13.8352503 32.5052632,11.251462 C32.4974339,10.5030715 32.3079906,9.7677749 31.9532164,9.10877193 L36.2385965,4.82339181 L36.2292398,17.0245614 Z M29.6795322,11.251462 C29.6795322,12.2849773 28.8417025,13.122807 27.8081871,13.122807 C26.7746718,13.122807 25.9368421,12.2849773 25.9368421,11.251462 C25.9368421,10.2179467 26.7746718,9.38011696 27.8081871,9.38011696 C28.3061179,9.37762727 28.7845091,9.57368663 29.1374807,9.92490211 C29.4904522,10.2761176 29.6888951,10.753525 29.6888889,11.251462 L29.6795322,11.251462 Z" id="Shape"></path>
        </g>
    </g>
</svg>