<?xml version="1.0" encoding="UTF-8"?>
<svg width="40px" height="40px" viewBox="0 0 40 40" version="1.1" xmlns="http://www.w3.org/2000/svg" xmlns:xlink="http://www.w3.org/1999/xlink">
    <!-- Generator: Sketch 58 (84663) - https://sketch.com -->
    <title>Ticket price</title>
    <desc>Created with Sketch.</desc>
    <g id="Ticket-price" stroke="none" stroke-width="1" fill="none" fill-rule="evenodd">
        <g id="Group" transform="translate(0.000000, 3.000000)" fill="#000000" stroke="#000000">
            <path d="M3.13593111,22.7513539 C3.22082047,22.8978624 3.36348792,23.0067479 3.52793328,23.0505676 C3.69193418,23.0943874 3.87015739,23.0709283 4.01726931,22.9863872 C4.53460551,22.6889439 5.09194192,22.54996 5.64172273,22.5495174 C6.75550666,22.5508452 7.82706814,23.1209448 8.4199603,24.1438487 C8.71773972,24.6581777 8.85729605,25.211015 8.8577405,25.7580982 C8.85640716,26.868199 8.28129287,27.9397916 7.23684266,28.5408749 C6.92839651,28.7183671 6.82261814,29.1114171 7.00084135,29.4185981 L10.050636,34.6787409 C10.2288592,34.9859219 10.623528,35.0912664 10.9319742,34.9137742 L10.9324186,34.9133316 L39.6756885,18.3861967 C39.7147998,18.3636229 39.7508,18.337508 39.7832447,18.3087375 C40.0076904,18.110442 40.0694685,17.7758183 39.9134676,17.5071455 L36.8650063,12.2492159 C36.6867831,11.9420349 36.2921143,11.8366904 35.9836681,12.0141826 L35.9836681,12.0141826 C35.4676653,12.310298 34.9116622,12.4492819 34.3618814,12.4497245 C33.247653,12.4483967 32.1716471,11.8778544 31.5716438,10.8429997 C31.2756421,10.3322117 31.1374191,9.78247273 31.1369747,9.2380453 C31.1378636,8.12705924 31.716089,7.05104047 32.7587614,6.45172767 L32.7587614,6.45172767 C33.0672076,6.27423547 33.1729859,5.88118542 32.9947627,5.57400441 L29.9494126,0.321386245 C29.8156341,0.0907791774 29.5600771,-0.0260735399 29.3102979,0.00491013514 C29.2267419,0.0150904855 29.1440748,0.0416479213 29.066741,0.0863529381 L0.323026684,16.6130452 L0.322582237,16.6130452 C0.0141360888,16.7905374 -0.0916422733,17.1835875 0.0865809335,17.4907685 L3.13593111,22.7513539 Z M29.8467453,9.2380453 C29.8463009,10.001129 30.0436353,10.7774913 30.4543042,11.4856896 C31.2903089,12.9286436 32.8054283,13.7359897 34.3618814,13.7346618 C34.9272178,13.7346618 35.499221,13.6262189 36.0463351,13.4071201 L38.4739041,17.5943425 L30.1463025,22.3822055 L29.0454076,20.4837915 C28.8671844,20.1766105 28.4725155,20.071266 28.1640694,20.2487582 C27.8556232,20.4262504 27.7498449,20.8193004 27.9280681,21.1264814 L29.028963,23.0253381 L10.8457515,33.4801153 L8.41773807,29.2920077 C9.53196644,28.4226943 10.1493032,27.1081012 10.1484143,25.7585408 C10.1488587,24.9923588 9.95019098,24.2128981 9.53774425,23.502044 C8.707073,22.0692704 7.19728688,21.2636948 5.64216718,21.2650227 C5.07638628,21.2650227 4.50304978,21.3734656 3.95504675,21.5934497 L1.52703334,17.4048994 L19.7102449,6.94967959 L20.8084732,8.84366738 C20.9866964,9.15084839 21.3813652,9.25619288 21.6898114,9.07870069 C21.9982575,8.90120849 22.1040359,8.50815844 21.9258127,8.20097743 L20.8275844,6.30654702 L29.1542971,1.51868397 L31.5783105,5.69970961 C30.4640821,6.57035088 29.8458564,7.88715707 29.8467453,9.2380453 Z" id="Shape"></path>
            <path d="M25.3335962,13.3444078 C25.1361764,13.0150925 24.6989973,12.9021573 24.357328,13.0924389 C24.0156587,13.2827205 23.8984868,13.7040922 24.0959067,14.0334075 L25.6664038,16.6555922 C25.8638236,16.9849075 26.3010027,17.0978427 26.642672,16.9075611 C26.9843413,16.7172795 27.1015132,16.2959078 26.9040933,15.9665925 L25.3335962,13.3444078 Z" id="Path" stroke-width="0.5" fill-rule="nonzero"></path>
        </g>
    </g>
</svg>