<?xml version="1.0" encoding="UTF-8"?>
<svg width="40px" height="40px" viewBox="0 0 40 40" version="1.1" xmlns="http://www.w3.org/2000/svg" xmlns:xlink="http://www.w3.org/1999/xlink">
    <!-- Generator: Sketch 58 (84663) - https://sketch.com -->
    <title>Add  Copy</title>
    <desc>Created with Sketch.</desc>
    <g id="Add--Copy" stroke="none" stroke-width="1" fill="none" fill-rule="evenodd">
        <g id="Time" fill="#7f7f7f" stroke="#000000" stroke-width="0.5">
            <path d="M20.1955556,0.355555556 C9.39532045,0.355555556 0.64,9.110876 0.64,19.9111111 C0.64,30.7113462 9.39532045,39.4666667 20.1955556,39.4666667 C30.9957907,39.4666667 39.7511111,30.7113462 39.7511111,19.9111111 C39.7511111,9.110876 30.9957907,0.355555556 20.1955556,0.355555556 Z M20.1955556,36.8 C10.8680798,36.8 3.30666667,29.2385869 3.30666667,19.9111111 C3.30666667,10.5836353 10.8680798,3.02222222 20.1955556,3.02222222 C29.5230313,3.02222222 37.0844444,10.5836353 37.0844444,19.9111111 C37.0844444,29.2385869 29.5230313,36.8 20.1955556,36.8 Z" id="Shape"  fill="#7f7f7f"></path>
            <path d="M29.0844444,19.0222222 L21.0844444,19.0222222 L21.0844444,9.24444444 C21.0844444,8.50806478 20.4874908,7.91111111 19.7511111,7.91111111 C19.0147314,7.91111111 18.4177778,8.50806478 18.4177778,9.24444444 L18.4177778,21.6888889 L29.0844444,21.6888889 C29.8208241,21.6888889 30.4177778,21.0919352 30.4177778,20.3555556 C30.4177778,19.6191759 29.8208241,19.0222222 29.0844444,19.0222222 L29.0844444,19.0222222 Z" id="Shape"  fill="#7f7f7f"></path>
        </g>
    </g>
</svg>