<?xml version="1.0" encoding="UTF-8"?>
<svg width="16px" height="16px" viewBox="0 0 16 16" version="1.1" xmlns="http://www.w3.org/2000/svg" xmlns:xlink="http://www.w3.org/1999/xlink">
    <!-- Generator: Sketch 58 (84663) - https://sketch.com -->
    <title>TSIM_Favicon</title>
    <desc>Created with Sketch.</desc>
    <g id="TSIM_Favicon" stroke="none" stroke-width="1" fill="none" fill-rule="evenodd">
        <g id="tsim-logo2" transform="translate(0.000000, 1.000000)" fill-rule="nonzero">
            <rect id="Rectangle" fill="#AD5DA3" x="0" y="0" width="16" height="13.6" rx="1.33333333"></rect>
            <g id="tsim-logo" transform="translate(1.333333, 1.333333)" fill="#FFFFFF">
                <path d="M7.83121373,1.68713359 C9.63201645,2.39416739 10.7952208,4.15548355 10.7384686,6.0892794 C11.1038221,4.08523264 10.0371969,2.09431956 8.16636143,1.28830386 C6.29552597,0.482288152 4.11595017,1.07463405 2.91043627,2.71671287 C4.19948281,1.42454021 6.13224996,1.02014538 7.83121373,1.68713359 L7.83121373,1.68713359 Z" id="Path"></path>
                <path d="M8.33726109,0.54900662 C9.92643209,1.17348693 11.0894068,2.56267129 11.4246364,4.23690581 C11.7598659,5.91114033 11.2214128,7.64099916 9.99519259,8.82920121 C11.9793894,7.37415804 12.5723729,4.67083421 11.3793868,2.51886491 C10.1864007,0.366895607 7.57953275,-0.56252822 5.29420632,0.349322049 C6.30458059,0.0971248863 7.36850711,0.166939505 8.33726109,0.54900662 L8.33726109,0.54900662 Z" id="Path"></path>
                <path d="M10.4722151,0.632977476 C12.4251308,2.1419664 13.1844752,4.73673348 12.3531949,7.06050208 C11.5219147,9.38427067 9.28903719,10.9086322 6.82211071,10.8365138 C9.45630152,11.2911885 12.0359794,9.78606093 12.9363636,7.26911861 C13.8367477,4.75217628 12.7970934,1.95230733 10.4722151,0.632977476 Z" id="Path"></path>
                <path d="M0.676911013,4.33251988 L0.695352525,4.85262295 C0.990244347,4.50588757 1.38779969,4.33251988 1.88801857,4.33251988 C2.45055267,4.33251988 2.83321116,4.54795667 3.03599405,4.97883024 C3.32533895,4.55908643 3.80846671,4.31552099 4.31799236,4.33251988 C5.20001732,4.33251988 5.64842019,4.79941905 5.66320095,5.73321737 L5.66320095,8.17833267 L4.97575592,8.17833267 L4.97575592,5.77404105 C4.97575592,5.4868078 4.91007108,5.27194856 4.77870141,5.12946332 C4.64741615,4.98703141 4.42697395,4.91584359 4.11737483,4.91589987 C3.88418619,4.90788812 3.6568064,4.98962037 3.48208228,5.14425741 C3.31370519,5.29675937 3.21579916,5.50171295 3.18836421,5.75911813 L3.18836421,8.17833267 L2.49736505,8.17833267 L2.49736505,5.7926114 C2.49736505,5.20808077 2.21131059,4.91584359 1.63920165,4.91589987 C1.18812431,4.91589987 0.879638811,5.10784383 0.713745168,5.49173175 L0.713745168,8.17833267 L0.0266066907,8.17833267 L0.0266066907,4.33251988 L0.676911013,4.33251988 Z" id="Path"></path>
                <path d="M6.88037719,6.45167667 L6.90619264,5.90389577 C6.95122795,5.58492559 7.05986449,5.33402595 7.23531432,5.15441335 C7.41109907,4.97095153 7.65561879,4.8693948 7.90965436,4.87433871 C8.18736549,4.8735568 8.40790809,4.96090556 8.57128216,5.136385 C8.73449687,5.31190147 8.82624239,5.55975491 8.84651872,5.87994536 L8.84651872,5.92758408 C8.84651872,5.92758408 8.72599449,5.94129415 7.69880004,5.93279088 C7.26529344,5.92918788 7.26941624,6.45198321 7.26941624,6.45198321 L9.51248345,6.45667023 L9.51166156,6.180825 C9.50979564,5.59269137 9.36837369,5.1412512 9.08739571,4.82650451 C8.80638811,4.51171931 8.41325796,4.35511232 7.90800524,4.35666031 C7.60414208,4.3560902 7.3063016,4.44141243 7.04884313,4.60280732 C6.78440539,4.76635445 6.57110847,5.0007542 6.43316052,5.27940335 C6.28305929,5.58389185 6.208461,5.92003903 6.21566973,6.259438 L6.21606069,6.37536496 C6.21762451,6.92479852 6.38410903,7.36313579 6.71551424,7.69037673 C7.04697809,8.01754365 7.47601685,8.18019563 8.00263051,8.17836405 C8.65392999,8.17624905 9.14158233,7.93744088 9.46558755,7.46190812 C9.46558755,7.46190812 6.83551868,8.35087699 6.88037719,6.45167667 Z" id="Path"></path>
            </g>
        </g>
    </g>
</svg>