<?xml version="1.0" encoding="UTF-8"?>
<svg width="40px" height="40px" viewBox="0 0 40 40" version="1.1" xmlns="http://www.w3.org/2000/svg" xmlns:xlink="http://www.w3.org/1999/xlink">
    <!-- Generator: Sketch 58 (84663) - https://sketch.com -->
    <title>Turn off notification</title>
    <desc>Created with Sketch.</desc>
    <g id="Turn-off-notification" stroke="none" stroke-width="1" fill="none" fill-rule="evenodd">
        <g id="Take_off" transform="translate(1.000000, 0.000000)" fill="#000000" fill-rule="nonzero" stroke="#000000" stroke-width="0.5">
            <path d="M26.0682927,3.65853659 L26.0682927,6.85853659 C32.6065604,10.0396238 36.082602,17.3136868 34.450403,24.3991782 C32.8182039,31.4846695 26.5100808,36.5048728 19.2390244,36.5048728 C11.967968,36.5048728 5.65984484,31.4846695 4.02764581,24.3991782 C2.39544678,17.3136868 5.87148833,10.0396238 12.4097561,6.85853659 L12.4097561,3.65853659 C4.13858377,6.93637705 -0.637197255,15.6284145 1.031327,24.3675538 C2.69985126,33.1066932 10.3420288,39.4278261 19.2390244,39.4278261 C28.1360199,39.4278261 35.7781975,33.1066932 37.4467218,24.3675538 C39.115246,15.6284145 34.339465,6.93637705 26.0682927,3.65853659 L26.0682927,3.65853659 Z" id="Shape"></path>
            <path d="M18.2634146,2.71219512 L18.2634146,18.5658537 C18.2634146,19.5414634 18.7121951,20.4 19.7268293,20.4 C20.7414634,20.4 21.1902439,19.5804878 21.1902439,18.5756098 L21.1902439,2.71219512 C21.1902439,1.73658537 20.7414634,0.887804878 19.7268293,0.887804878 C18.7121951,0.887804878 18.2634146,1.69756098 18.2634146,2.71219512 Z" id="Shape"></path>
        </g>
    </g>
</svg>