<?xml version="1.0" encoding="UTF-8"?>
<svg width="40px" height="40px" viewBox="0 0 40 40" version="1.1" xmlns="http://www.w3.org/2000/svg" xmlns:xlink="http://www.w3.org/1999/xlink">
    <!-- Generator: Sketch 58 (84663) - https://sketch.com -->
    <title>Twitter</title>
    <desc>Created with Sketch.</desc>
    <g id="Twitter" stroke="none" stroke-width="1" fill="none" fill-rule="evenodd">
        <g id="Group-8">
            <g id="linkedin_blue.7e1a11e7-copy">
                <g id="Group-52">
                    <rect id="Rectangle" stroke="#EBECED" stroke-width="0.8" fill="#FFFFFF" x="0" y="0" width="40" height="40" rx="3"></rect>
                    <path d="M29.4488755,12.295746 C28.6563196,12.7584682 27.7782568,13.0959583 26.8427104,13.2756699 C26.0932672,12.4910233 25.0283826,12 23.847812,12 C21.5808005,12 19.7434792,13.8091448 19.7434792,16.0406828 C19.7434792,16.355532 19.7808436,16.6654285 19.851261,16.960467 C16.4403248,16.7913682 13.4159661,15.1838684 11.3925415,12.739365 C11.0397356,13.3379323 10.8385428,14.031308 10.8385428,14.769258 C10.8385428,16.1715751 11.5606812,17.4083311 12.6629302,18.1328381 C11.99109,18.1123198 11.3573328,17.929778 10.8033341,17.6276643 L10.8033341,17.6793137 C10.8033341,19.6363315 12.2181505,21.2678871 14.0949917,21.640046 C13.7508084,21.7306094 13.3879428,21.7794287 13.0157362,21.7794287 C12.7505928,21.7794287 12.4933535,21.7560803 12.242581,21.708676 C12.7649637,23.3147608 14.2803765,24.4807641 16.074585,24.5126028 C14.6705468,25.5951181 12.9022059,26.2425046 10.9793777,26.2425046 C10.6474096,26.2425046 10.3197528,26.2234014 10,26.1859025 C11.8150463,27.3306801 13.9721204,28 16.2901487,28 C23.8384709,28 27.9657972,21.8466437 27.9657972,16.5062351 C27.9657972,16.3328911 27.9600489,16.1574246 27.9528634,15.9847882 C28.7554789,15.415937 29.4503126,14.7048731 30,13.8926329 C29.2656463,14.2145574 28.4730905,14.4317679 27.6424517,14.5294066 C28.4910541,14.031308 29.1413379,13.2395861 29.4488755,12.295746 Z" id="Shape" fill="#1A1A1A" fill-rule="nonzero"></path>
                </g>
            </g>
        </g>
    </g>
</svg>