<?xml version="1.0" encoding="UTF-8"?>
<svg width="40px" height="40px" viewBox="0 0 40 40" version="1.1" xmlns="http://www.w3.org/2000/svg" xmlns:xlink="http://www.w3.org/1999/xlink">
    <!-- Generator: Sketch 58 (84663) - https://sketch.com -->
    <title>Unfollow</title>
    <desc>Created with Sketch.</desc>
    <g id="Unfollow" stroke="none" stroke-width="1" fill="none" fill-rule="evenodd">
        <g id="noun_Follow_1408505-Copy" transform="translate(1.000000, 0.000000)" fill="#000000" fill-rule="nonzero" stroke="#000000">
            <g id="Group" transform="translate(0.134939, 0.000000)">
                <g id="Shape">
                    <path d="M24.4209752,37.075554 L1.78032915,37.075554 C0.801331727,37.075554 0,36.272799 0,35.2887803 C0,26.9009136 6.79970958,20.101204 15.1875763,20.101204 C19.412047,20.101204 23.2336754,21.8259768 25.9866835,24.6097446 C25.4003323,24.8390133 24.8516709,25.1434939 24.3525631,25.5113228 C21.9552784,23.2641408 18.7321374,21.8879777 15.1875763,21.8879777 C7.78651744,21.8879777 1.78677369,27.8877214 1.78677369,35.2887803 C1.78677369,35.287332 14.7833391,35.2879006 22.6780658,35.2883795 C23.1501584,35.9811468 23.7408691,36.5866124 24.4209752,37.075554 L24.4209752,37.075554 Z M15.1875763,18.3144303 C10.253537,18.3144303 6.2537079,14.3146012 6.2537079,9.38056186 C6.2537079,4.44652256 10.253537,0.446693422 15.1875763,0.446693422 C20.1216156,0.446693422 24.1214448,4.44652256 24.1214448,9.38056186 C24.1214448,14.3146012 20.1216156,18.3144303 15.1875763,18.3144303 Z M15.1875763,16.5276566 C19.1348078,16.5276566 22.3346711,13.3277933 22.3346711,9.38056186 C22.3346711,5.43333042 19.1348078,2.23346711 15.1875763,2.23346711 C11.2403449,2.23346711 8.04048159,5.43333042 8.04048159,9.38056186 C8.04048159,13.3277933 11.2403449,16.5276566 15.1875763,16.5276566 Z M28.588379,39.3090211 C24.1477437,39.3090211 20.5478974,35.7091748 20.5478974,31.2685395 C20.5478974,26.8279042 24.1477437,23.2280579 28.588379,23.2280579 C33.0290143,23.2280579 36.6288606,26.8279042 36.6288606,31.2685395 C36.6288606,35.7091748 33.0290143,39.3090211 28.588379,39.3090211 Z M28.588379,37.5222474 C32.0422065,37.5222474 34.8420869,34.722367 34.8420869,31.2685395 C34.8420869,27.8147121 32.0422065,25.0148316 28.588379,25.0148316 C25.1345515,25.0148316 22.3346711,27.8147121 22.3346711,31.2685395 C22.3346711,34.722367 25.1345515,37.5222474 28.588379,37.5222474 Z M31.2685395,30.3751527 C31.7619434,30.3751527 32.1619264,30.7751356 32.1619264,31.2685395 C32.1619264,31.7619434 31.7619434,32.1619264 31.2685395,32.1619264 L29.7051125,32.1619264 C29.5817616,32.1619264 27.5949964,32.1619264 27.4716454,32.1619264 L25.9082185,32.1619264 C25.4148146,32.1619264 25.0148316,31.7619434 25.0148316,31.2685395 C25.0148316,30.7751356 25.4148146,30.3751527 25.9082185,30.3751527 L27.4716454,30.3751527 C27.5949964,30.3751527 29.5817616,30.3751527 29.7051125,30.3751527 L31.2685395,30.3751527 Z"></path>
                </g>
            </g>
        </g>
    </g>
</svg>