<?xml version="1.0" encoding="UTF-8"?>
<svg width="40px" height="40px" viewBox="0 0 40 40" version="1.1" xmlns="http://www.w3.org/2000/svg" xmlns:xlink="http://www.w3.org/1999/xlink">
    <!-- Generator: Sketch 58 (84663) - https://sketch.com -->
    <title>Upload</title>
    <desc>Created with Sketch.</desc>
    <g id="Upload" stroke="none" stroke-width="1" fill="none" fill-rule="evenodd">
        <g id="Group" fill="#4F439A">
            <g id="Share-3" transform="translate(12.000000, 8.000000)">
                <path d="M7.47272727,23 C6.7196117,23 6.10909091,22.3894792 6.10909091,21.6363636 L6.10909091,6.01818182 L2.61818182,10.3090909 C2.14371894,10.8940104 1.28491989,10.9835533 0.700000254,10.5090906 C0.115080618,10.0346279 0.0255374641,9.17582887 0.5,8.59090909 L6.53636364,1.18181818 C6.8287782,1.03558929 7.13285855,0.913957149 7.44545455,0.818181818 C7.81419445,0.953390063 8.16766106,1.12707624 8.5,1.33636364 L14.4090909,8.60909091 C14.6364462,8.88848441 14.7431539,9.2469285 14.705623,9.60517783 C14.6680922,9.96342715 14.489414,10.2919737 14.2090909,10.5181818 C13.9282104,10.7460464 13.5683104,10.8529894 13.2085754,10.8154815 C12.8488404,10.7779736 12.5187424,10.5990876 12.2909091,10.3181818 L8.8,6.02727273 L8.8,21.6363636 C8.80026285,22.3755039 8.21160471,22.9802896 7.47272727,23 Z" id="Shape"></path>
            </g>
            <path d="M19.6491228,-7.10542736e-15 C8.79721193,-7.10542736e-15 -7.10542736e-15,8.79721193 -7.10542736e-15,19.6491228 C-7.10542736e-15,30.5010337 8.79721193,39.2982456 19.6491228,39.2982456 C30.5010337,39.2982456 39.2982456,30.5010337 39.2982456,19.6491228 C39.2982456,8.79721193 30.5010337,-7.10542736e-15 19.6491228,-7.10542736e-15 L19.6491228,-7.10542736e-15 Z M19.6491228,36.4912281 C10.3474849,36.4912281 2.80701754,28.9507607 2.80701754,19.6491228 C2.80701754,10.3474849 10.3474849,2.80701754 19.6491228,2.80701754 C28.9507607,2.80701754 36.4912281,10.3474849 36.4912281,19.6491228 C36.4912281,28.9507607 28.9507607,36.4912281 19.6491228,36.4912281 Z" id="Shape"></path>
        </g>
    </g>
</svg>