<?xml version="1.0" encoding="UTF-8"?>
<svg width="40px" height="40px" viewBox="0 0 40 40" version="1.1" xmlns="http://www.w3.org/2000/svg" xmlns:xlink="http://www.w3.org/1999/xlink">
    <!-- Generator: Sketch 58 (84663) - https://sketch.com -->
    <title>Upvote line</title>
    <desc>Created with Sketch.</desc>
    <g id="Upvote-line" stroke="none" stroke-width="1" fill="none" fill-rule="evenodd">
        <g id="Arrow_up" fill="#000000">
            <path d="M20.1955556,0.355555556 C9.39532045,0.355555556 0.64,9.110876 0.64,19.9111111 C0.64,30.7113462 9.39532045,39.4666667 20.1955556,39.4666667 C30.9957907,39.4666667 39.7511111,30.7113462 39.7511111,19.9111111 C39.7511111,9.110876 30.9957907,0.355555556 20.1955556,0.355555556 L20.1955556,0.355555556 Z M20.1955556,36.8 C10.8680798,36.8 3.30666667,29.2385869 3.30666667,19.9111111 C3.30666667,10.5836353 10.8680798,3.02222222 20.1955556,3.02222222 C29.5230313,3.02222222 37.0844444,10.5836353 37.0844444,19.9111111 C37.0844444,24.3903229 35.3050845,28.6860779 32.1378034,31.853359 C28.9705224,35.02064 24.6747674,36.8 20.1955556,36.8 Z" id="Shape"></path>
            <path d="M21.6088889,14.5777778 L21.6088889,14.5777778 L21.6088889,14.5777778 C21.5501157,14.5339479 21.4876606,14.4952853 21.4222222,14.4622222 C21.3530323,14.4075846 21.2785939,14.359944 21.2,14.32 C21.119,14.2940536 21.0356306,14.2761888 20.9511111,14.2666667 C20.7895076,14.2131054 20.6149368,14.2131054 20.4533333,14.2666667 C20.3688138,14.2761888 20.2854444,14.2940536 20.2044444,14.32 C20.1258506,14.359944 20.0514122,14.4075846 19.9822222,14.4622222 C19.9167839,14.4952853 19.8543288,14.5339479 19.7955556,14.5777778 L19.7955556,14.5777778 L19.7955556,14.5777778 L13.1288889,21.6888889 C12.6367742,22.2279323 12.6695409,23.0624691 13.2024047,23.5612685 C13.7352684,24.0600679 14.570149,24.0377123 15.0755556,23.5111111 L20.7733333,17.44 L26.4711111,23.5111111 C26.9765177,24.0377123 27.8113982,24.0600679 28.344262,23.5612685 C28.8771258,23.0624691 28.9098924,22.2279323 28.4177778,21.6888889 L21.6088889,14.5777778 Z" id="Shape"></path>
        </g>
    </g>
</svg>