<?xml version="1.0" encoding="UTF-8"?>
<svg width="40px" height="40px" viewBox="0 0 40 40" version="1.1" xmlns="http://www.w3.org/2000/svg" xmlns:xlink="http://www.w3.org/1999/xlink">
    <!-- Generator: Sketch 58 (84663) - https://sketch.com -->
    <title>Video line Copy</title>
    <desc>Created with Sketch.</desc>
    <g id="Video-line-Copy" stroke="none" stroke-width="1" fill="none" fill-rule="evenodd">
        <g id="Utube" transform="translate(0.000000, 4.000000)" fill="#4F439A">
            <path d="M30.3813953,3.1627907 C34.0084933,3.1627907 36.9488372,6.10313457 36.9488372,9.73023256 L36.9488372,22.6511628 C36.9488372,26.2782608 34.0084933,29.2186047 30.3813953,29.2186047 L10.027907,29.2186047 C6.40080899,29.2186047 3.46046512,26.2782608 3.46046512,22.6511628 L3.46046512,9.73023256 C3.46046512,6.10313457 6.40080899,3.1627907 10.027907,3.1627907 L30.3906977,3.1627907 L30.3813953,3.1627907 Z M30.3906977,0.372093023 L10.027907,0.372093023 C4.86167471,0.377220801 0.67489522,4.56400029 0.669767442,9.73023256 L0.669767442,22.6511628 C0.680018351,27.8137619 4.86530022,31.9948835 10.027907,32 L30.3906977,32 C35.5569299,31.9948722 39.7437094,27.8080927 39.7488372,22.6418605 L39.7488372,9.72093023 C39.7385766,4.554702 35.5476338,0.372082834 30.3813953,0.372093023 L30.3906977,0.372093023 Z" id="Shape"></path>
            <path d="M17.4139535,11.5348837 L24.855814,16.1860465 L17.4139535,20.8372093 L17.4139535,11.5348837 L17.4139535,11.5348837 Z M17.4139535,8.74418605 C15.8726937,8.74418605 14.6232558,9.99362395 14.6232558,11.5348837 L14.6232558,20.8372093 C14.6246046,21.8510337 15.1756734,22.7843805 16.0627354,23.2752602 C16.9497974,23.7661398 18.0333023,23.7373283 18.8930233,23.2 L26.3348837,18.5488372 C27.1516866,18.0390535 27.6480116,17.1442278 27.6480116,16.1813953 C27.6480116,15.2185629 27.1516866,14.3237372 26.3348837,13.8139535 L18.8930233,9.1627907 C18.449882,8.88427715 17.9373488,8.7359971 17.4139535,8.73488372 L17.4139535,8.74418605 Z" id="Shape"></path>
        </g>
    </g>
</svg>