<?xml version="1.0" encoding="UTF-8"?>
<svg width="40px" height="40px" viewBox="0 0 40 40" version="1.1" xmlns="http://www.w3.org/2000/svg" xmlns:xlink="http://www.w3.org/1999/xlink">
    <!-- Generator: Sketch 58 (84663) - https://sketch.com -->
    <title>Youtube</title>
    <desc>Created with Sketch.</desc>
    <g id="Youtube" stroke="none" stroke-width="1" fill="none" fill-rule="evenodd">
        <g id="Group-50">
            <rect id="Rectangle-Copy-27" stroke="#EBECED" stroke-width="0.8" fill="#FFFFFF" x="0" y="0" width="40" height="40" rx="3"></rect>
            <g id="noun_youtube_897674" transform="translate(10.000000, 13.000000)" fill="#000000" fill-rule="nonzero">
                <path d="M16.1481481,0.144927536 L3.40740741,0.144927536 C1.60736822,0.144927536 0.148148148,1.57242544 0.148148148,3.33333333 L0.148148148,10 C0.148148148,11.7609079 1.60736822,13.1884058 3.40740741,13.1884058 L16.1481481,13.1884058 C17.9481873,13.1884058 19.4074074,11.7609079 19.4074074,10 L19.4074074,3.33333333 C19.4074074,1.57242544 17.9481873,0.144927536 16.1481481,0.144927536 Z M13.5496296,6.7942029 L7.77185185,9.69275362 C7.72611094,9.71593725 7.67134294,9.71421143 7.62722203,9.68819612 C7.58310112,9.66218082 7.55596267,9.61561159 7.55555556,9.56521739 L7.55555556,3.76811594 C7.55596267,3.71772175 7.58310112,3.67115252 7.62722203,3.64513721 C7.67134294,3.6191219 7.72611094,3.61739608 7.77185185,3.64057971 L13.5496296,6.53913043 C13.5991061,6.56392695 13.6302281,6.61373291 13.6302281,6.66811594 C13.6302281,6.72249898 13.5991061,6.77230493 13.5496296,6.79710145 L13.5496296,6.7942029 Z" id="Shape"></path>
            </g>
        </g>
    </g>
</svg>